<?xml version="1.0" encoding="UTF-8"?>
<svg version="1.1" xmlns="http://www.w3.org/2000/svg" width="467" height="467">
<path d="M0 0 C154.11 0 308.22 0 467 0 C467 154.11 467 308.22 467 467 C312.89 467 158.78 467 0 467 C0 312.89 0 158.78 0 0 Z " fill="#FEFEFE" transform="translate(0,0)"/>
<path d="M0 0 C0.76577866 0.00404846 1.53155731 0.00809692 2.32054138 0.01226807 C3.12716721 0.00876343 3.93379303 0.00525879 4.76486206 0.00164795 C7.43910757 -0.00717601 10.11308991 -0.00131792 12.78733826 0.00543213 C14.64056957 0.00408567 16.49380054 0.0021453 18.34703064 -0.00036621 C22.23423113 -0.00331837 26.12133982 0.00098312 30.00852966 0.01031494 C34.99905454 0.02170953 39.98936431 0.01515055 44.97988129 0.00317001 C48.80763885 -0.00404611 52.63534516 -0.0017618 56.46310425 0.0034256 C58.30356878 0.00476278 60.14403792 0.00311198 61.98449707 -0.00153351 C64.55366908 -0.00659469 67.12248941 0.00110561 69.69163513 0.01226807 C70.45741379 0.0082196 71.22319244 0.00417114 72.01217651 0 C77.27755973 0.04252861 77.27755973 0.04252861 79.50608826 2.27105713 C79.76005554 4.3583374 79.76005554 4.3583374 79.76487732 6.9644165 C79.77118164 7.9388269 79.77748596 8.9132373 79.78398132 9.91717529 C79.77790863 11.50000305 79.77790863 11.50000305 79.77171326 13.11480713 C79.77362671 14.19484009 79.77554016 15.27487305 79.7775116 16.38763428 C79.77887433 18.67413567 79.77517177 20.96064477 79.76683044 23.24713135 C79.75613237 26.75658468 79.76672298 30.26552606 79.77952576 33.77496338 C79.77820418 35.99241243 79.77564182 38.20986116 79.77171326 40.42730713 C79.77576172 41.48252563 79.77981018 42.53774414 79.78398132 43.62493896 C79.77452484 45.08655457 79.77452484 45.08655457 79.76487732 46.57769775 C79.76328613 47.43770386 79.76169495 48.29770996 79.76005554 49.18377686 C79.50608826 51.27105713 79.50608826 51.27105713 77.50608826 53.27105713 C74.70872498 53.49810791 74.70872498 53.49810791 71.18577576 53.46636963 C69.30052185 53.45670166 69.30052185 53.45670166 67.37718201 53.44683838 C66.05847107 53.43008057 64.73976013 53.41332275 63.38108826 53.39605713 C62.04125105 53.38602695 60.70140674 53.37690117 59.36155701 53.36871338 C56.07622253 53.34507788 52.79124361 53.31212947 49.50608826 53.27105713 C49.50608826 55.25105713 49.50608826 57.23105713 49.50608826 59.27105713 C50.26792419 59.22465088 51.02976013 59.17824463 51.81468201 59.13043213 C60.52011451 58.82612238 66.58805285 59.96249389 73.31858826 65.64605713 C78.55348402 71.92793205 80.35881784 76.61747872 81.75608826 84.64605713 C81.92882263 85.57289307 82.10155701 86.499729 82.27952576 87.45465088 C82.70079433 89.7248204 83.10923958 91.99651445 83.50608826 94.27105713 C84.52968445 94.28563965 85.55328064 94.30022217 86.6078949 94.31524658 C90.43066636 94.37352218 94.2528667 94.45075134 98.07518005 94.5335083 C99.72482485 94.56662072 101.37457922 94.59469469 103.0243988 94.61749268 C105.40548593 94.65129246 107.78558132 94.70361717 110.16624451 94.75933838 C111.26042442 94.76892326 111.26042442 94.76892326 112.37670898 94.77870178 C118.86060462 94.96199756 124.25528746 96.76143644 129.25608826 101.08355713 C129.80780701 101.54375244 130.35952576 102.00394775 130.92796326 102.47808838 C134.72304524 106.78982756 135.87530274 111.01280617 135.91233826 116.65777588 C135.93425232 117.84306885 135.95616638 119.02836182 135.97874451 120.24957275 C135.99706006 122.73394712 136.01528842 125.21832213 136.03343201 127.70269775 C136.05534607 128.88412354 136.07726013 130.06554932 136.09983826 131.28277588 C136.1069281 132.3600293 136.11401794 133.43728271 136.12132263 134.54718018 C136.29403198 137.27006502 136.29403198 137.27006502 137.81248474 139.11773682 C140.61239044 141.02443345 143.78793234 140.76837853 147.06858826 140.83355713 C154.25102069 141.01598956 154.25102069 141.01598956 156.50608826 143.27105713 C156.74900818 145.96075439 156.74900818 145.96075439 156.73655701 149.33746338 C156.73462341 150.54467041 156.73268982 151.75187744 156.73069763 152.9956665 C156.71845154 154.26217041 156.70620544 155.52867432 156.69358826 156.83355713 C156.69294373 158.10392822 156.69229919 159.37429932 156.69163513 160.6831665 C156.64618879 170.1309566 156.64618879 170.1309566 155.50608826 171.27105713 C151.3588876 171.53891641 147.20782747 171.54246304 143.05271912 171.56622314 C140.97593427 171.58329129 138.9008031 171.62713303 136.82444763 171.67144775 C128.21395134 171.77359142 122.29011566 171.23311844 115.48265076 165.59527588 C115.03663513 165.05515869 114.59061951 164.5150415 114.13108826 163.95855713 C113.43886169 163.15998291 113.43886169 163.15998291 112.73265076 162.34527588 C108.65031966 155.44171596 109.08494602 147.61837536 108.88108826 139.83355713 C108.84241638 138.62506104 108.80374451 137.41656494 108.76390076 136.17144775 C108.67009653 133.20488919 108.5870241 130.23799466 108.50608826 127.27105713 C102.23608826 127.27105713 95.96608826 127.27105713 89.50608826 127.27105713 C90.49129201 133.12987519 91.47811529 138.98837506 92.46922302 144.84619141 C92.82708834 146.96250338 93.18434763 149.07891791 93.54100037 151.19543457 C95.53441655 163.01364115 97.57877208 174.81712961 99.81858826 186.59136963 C100.00344788 187.57145996 100.1883075 188.55155029 100.37876892 189.56134033 C101.25673388 194.21542965 102.1482944 198.86597774 103.06663513 203.51226807 C105.12608385 214.22745119 105.95175595 224.36457836 105.50608826 235.27105713 C106.71410095 235.25188232 107.92211365 235.23270752 109.16673279 235.21295166 C109.8865332 235.20185364 110.60633362 235.19075562 111.34794617 235.17932129 C112.85110617 235.15472815 114.35417442 235.12437329 115.85716248 235.09088135 C117.74103875 235.07628496 119.62478138 235.1716223 121.50608826 235.27105713 C124.06530434 237.83027321 123.75880695 238.77959431 123.76487732 242.331604 C123.77118164 243.38609741 123.77748596 244.44059082 123.78398132 245.52703857 C123.77790863 247.24110901 123.77790863 247.24110901 123.77171326 248.98980713 C123.77362671 250.15862427 123.77554016 251.32744141 123.7775116 252.53167725 C123.77887452 255.00649226 123.77517067 257.48131439 123.76683044 259.95611572 C123.75613271 263.75526918 123.76672244 267.55394972 123.77952576 271.35308838 C123.77820418 273.75282901 123.77564183 276.15256935 123.77171326 278.55230713 C123.77576172 279.69502075 123.77981018 280.83773438 123.78398132 282.01507568 C123.77452484 283.5968158 123.77452484 283.5968158 123.76487732 285.21051025 C123.76328613 286.14157593 123.76169495 287.0726416 123.76005554 288.03192139 C123.50608826 290.27105713 123.50608826 290.27105713 121.50608826 292.27105713 C119.02975708 292.52290612 119.02975708 292.52290612 115.83352757 292.52553272 C114.6191739 292.53136492 113.40482024 292.53719711 112.15366799 292.54320604 C110.79389176 292.53957229 109.43411603 292.53574788 108.07434082 292.53175354 C106.63932023 292.53477143 105.20430125 292.53865907 103.76928514 292.54334611 C99.81182052 292.55368172 95.85444593 292.55143024 91.89697373 292.54716551 C87.63446124 292.54470832 83.371971 292.55369986 79.10946655 292.561203 C70.75335517 292.57398017 62.39727587 292.57573995 54.04115636 292.57340274 C47.25203758 292.57162279 40.46292857 292.57336226 33.67381096 292.57762718 C32.7091224 292.57822237 31.74443383 292.57881756 30.75051228 292.57943079 C28.79101654 292.58064248 26.8315208 292.58185662 24.87202507 292.58307316 C6.4781564 292.59396032 -11.91569394 292.59178065 -30.30956364 292.58568832 C-47.1527343 292.58051805 -63.99584714 292.59177541 -80.83900636 292.61078653 C-98.11584924 292.63013832 -115.39266473 292.63842562 -132.66951853 292.63466328 C-142.37625535 292.63274719 -152.08294294 292.63527831 -161.78967094 292.64937782 C-170.05298057 292.66125877 -178.31621069 292.66273363 -186.57952135 292.65058766 C-190.79858877 292.64467575 -195.01751051 292.64366286 -199.23656845 292.65559006 C-203.09487125 292.66637099 -206.95290539 292.66343946 -210.8111952 292.64932837 C-212.21091019 292.64665977 -213.61064572 292.64911505 -215.01034068 292.65706424 C-216.90537433 292.66708396 -218.800483 292.65700912 -220.69550991 292.64578724 C-222.27788705 292.64586976 -222.27788705 292.64586976 -223.8922314 292.64595395 C-226.49391174 292.27105713 -226.49391174 292.27105713 -228.33250242 290.88993233 C-229.94797809 288.63813922 -229.87470467 287.0532599 -229.88209534 284.29644775 C-229.89628006 282.77972473 -229.89628006 282.77972473 -229.91075134 281.23236084 C-229.90467865 280.14169312 -229.89860596 279.05102539 -229.89234924 277.92730713 C-229.89521942 276.8066687 -229.8980896 275.68603027 -229.90104675 274.53143311 C-229.90308921 272.16094457 -229.89754674 269.79043925 -229.88502502 267.41998291 C-229.86897474 263.7853233 -229.88486843 260.15177578 -229.90406799 256.51715088 C-229.90208559 254.21636717 -229.89824199 251.91558415 -229.89234924 249.61480713 C-229.89842194 248.5241394 -229.90449463 247.43347168 -229.91075134 246.30975342 C-229.90129486 245.29860474 -229.89183838 244.28745605 -229.88209534 243.2456665 C-229.87970856 242.35536743 -229.87732178 241.46506836 -229.87486267 240.54779053 C-229.49391174 238.27105713 -229.49391174 238.27105713 -228.20671082 236.47845459 C-225.25635341 234.39866946 -221.77408553 234.96634291 -218.30641174 235.08355713 C-216.91280093 235.11804044 -215.51916244 235.15141696 -214.12550354 235.18389893 C-212.92707825 235.21266113 -211.72865295 235.24142334 -210.49391174 235.27105713 C-210.57222229 233.68901489 -210.57222229 233.68901489 -210.65211487 232.07501221 C-211.13901978 217.34292424 -208.64808772 203.40340858 -205.99391174 188.95855713 C-205.53430746 186.38999462 -205.07632228 183.82114192 -204.61988831 181.25201416 C-203.69662913 176.06510464 -202.76544836 170.87971788 -201.82789612 165.69537354 C-200.60712312 158.92768864 -199.42360095 152.15417131 -198.25953674 145.37652588 C-198.08833817 144.38243713 -197.91713959 143.38834839 -197.74075317 142.36413574 C-197.07531077 138.49712695 -196.41096907 134.62995599 -195.75413513 130.76147461 C-194.25321352 121.92402551 -192.7531252 113.12043385 -190.70094299 104.39215088 C-185.90241694 83.43228911 -185.80600418 62.63109871 -185.89454651 41.23712158 C-185.8936351 39.97447479 -185.89272369 38.711828 -185.89178467 37.41091919 C-185.89215176 35.02138427 -185.90946518 32.63177108 -185.94650269 30.24252319 C-185.94267232 23.67849825 -185.49365528 19.56844114 -181.49391174 14.27105713 C-176.94364609 10.74227968 -173.46508638 9.15064096 -167.74520874 9.13061523 C-166.76819 9.12490509 -165.79117126 9.11919495 -164.7845459 9.11331177 C-163.71386368 9.11219391 -162.64318146 9.11107605 -161.54005432 9.10992432 C-159.84692108 9.10247696 -159.84692108 9.10247696 -158.11958313 9.09487915 C-154.3758636 9.08024427 -150.63218646 9.07345266 -146.88844299 9.06793213 C-144.28872679 9.06218099 -141.68901061 9.05642325 -139.08929443 9.05065918 C-134.33036953 9.04148937 -129.5714616 9.03519113 -124.81252939 9.03216243 C-117.82036158 9.02768752 -110.82838982 9.010166 -103.8362816 8.98116183 C-97.77131261 8.95688186 -91.70642412 8.94921518 -85.64140892 8.94748688 C-83.0662549 8.94446231 -80.49110166 8.93644042 -77.91597939 8.9233017 C-74.30875007 8.90621354 -70.7019954 8.90812878 -67.09474182 8.91461182 C-66.03418076 8.90539703 -64.97361969 8.89618225 -63.88092041 8.88668823 C-57.05642199 8.92503551 -50.89002632 9.43559145 -45.43531799 13.98980713 C-44.98027893 14.57761963 -44.52523987 15.16543213 -44.05641174 15.77105713 C-43.58332581 16.35886963 -43.11023987 16.94668213 -42.62281799 17.55230713 C-39.92920333 21.65331215 -40.36553939 25.95337548 -40.39625549 30.65777588 C-40.39726257 31.38210815 -40.39826965 32.10644043 -40.39930725 32.85272217 C-40.40453348 35.55468329 -40.41849476 38.25662183 -40.43141174 40.95855713 C-40.45203674 47.00168213 -40.47266174 53.04480713 -40.49391174 59.27105713 C-19.04391174 59.27105713 2.40608826 59.27105713 24.50608826 59.27105713 C24.50608826 57.29105713 24.50608826 55.31105713 24.50608826 53.27105713 C23.60777283 53.28153076 22.7094574 53.29200439 21.78392029 53.30279541 C18.45544378 53.33685183 15.12715203 53.36194331 11.79856873 53.38092041 C10.35713279 53.39098676 8.9157173 53.40464093 7.47434998 53.42193604 C5.40414892 53.44615725 3.33421749 53.45753354 1.26390076 53.46636963 C-0.6056427 53.48208008 -0.6056427 53.48208008 -2.51295471 53.49810791 C-5.49391174 53.27105713 -5.49391174 53.27105713 -7.49391174 51.27105713 C-7.74787903 49.18377686 -7.74787903 49.18377686 -7.75270081 46.57769775 C-7.75900513 45.60328735 -7.76530945 44.62887695 -7.77180481 43.62493896 C-7.76573212 42.04211121 -7.76573212 42.04211121 -7.75953674 40.42730713 C-7.7614502 39.34727417 -7.76336365 38.26724121 -7.76533508 37.15447998 C-7.76669782 34.86797859 -7.76299526 32.58146949 -7.75465393 30.29498291 C-7.74395586 26.78552958 -7.75454647 23.27658819 -7.76734924 19.76715088 C-7.76602766 17.54970183 -7.76346531 15.33225309 -7.75953674 13.11480713 C-7.76358521 12.05958862 -7.76763367 11.00437012 -7.77180481 9.91717529 C-7.76234833 8.45555969 -7.76234833 8.45555969 -7.75270081 6.9644165 C-7.75110962 6.1044104 -7.74951843 5.2444043 -7.74787903 4.3583374 C-7.1739758 -0.35839958 -4.00249139 0.0323282 0 0 Z " fill="#FBFBFB" transform="translate(277.49391174316406,111.72894287109375)"/>
<path d="M0 0 C0.76577866 0.00404846 1.53155731 0.00809692 2.32054138 0.01226807 C3.12716721 0.00876343 3.93379303 0.00525879 4.76486206 0.00164795 C7.43910757 -0.00717601 10.11308991 -0.00131792 12.78733826 0.00543213 C14.64056957 0.00408567 16.49380054 0.0021453 18.34703064 -0.00036621 C22.23423113 -0.00331837 26.12133982 0.00098312 30.00852966 0.01031494 C34.99905454 0.02170953 39.98936431 0.01515055 44.97988129 0.00317001 C48.80763885 -0.00404611 52.63534516 -0.0017618 56.46310425 0.0034256 C58.30356878 0.00476278 60.14403792 0.00311198 61.98449707 -0.00153351 C64.55366908 -0.00659469 67.12248941 0.00110561 69.69163513 0.01226807 C70.45741379 0.0082196 71.22319244 0.00417114 72.01217651 0 C77.27755973 0.04252861 77.27755973 0.04252861 79.50608826 2.27105713 C79.76005554 4.3583374 79.76005554 4.3583374 79.76487732 6.9644165 C79.77118164 7.9388269 79.77748596 8.9132373 79.78398132 9.91717529 C79.77790863 11.50000305 79.77790863 11.50000305 79.77171326 13.11480713 C79.77362671 14.19484009 79.77554016 15.27487305 79.7775116 16.38763428 C79.77887433 18.67413567 79.77517177 20.96064477 79.76683044 23.24713135 C79.75613237 26.75658468 79.76672298 30.26552606 79.77952576 33.77496338 C79.77820418 35.99241243 79.77564182 38.20986116 79.77171326 40.42730713 C79.77576172 41.48252563 79.77981018 42.53774414 79.78398132 43.62493896 C79.77452484 45.08655457 79.77452484 45.08655457 79.76487732 46.57769775 C79.76328613 47.43770386 79.76169495 48.29770996 79.76005554 49.18377686 C79.50608826 51.27105713 79.50608826 51.27105713 77.50608826 53.27105713 C74.70872498 53.49810791 74.70872498 53.49810791 71.18577576 53.46636963 C69.30052185 53.45670166 69.30052185 53.45670166 67.37718201 53.44683838 C66.05847107 53.43008057 64.73976013 53.41332275 63.38108826 53.39605713 C62.04125105 53.38602695 60.70140674 53.37690117 59.36155701 53.36871338 C56.07622253 53.34507788 52.79124361 53.31212947 49.50608826 53.27105713 C49.50608826 55.25105713 49.50608826 57.23105713 49.50608826 59.27105713 C50.26792419 59.22465088 51.02976013 59.17824463 51.81468201 59.13043213 C60.52011451 58.82612238 66.58805285 59.96249389 73.31858826 65.64605713 C78.55348402 71.92793205 80.35881784 76.61747872 81.75608826 84.64605713 C81.92882263 85.57289307 82.10155701 86.499729 82.27952576 87.45465088 C82.70079433 89.7248204 83.10923958 91.99651445 83.50608826 94.27105713 C84.52968445 94.28563965 85.55328064 94.30022217 86.6078949 94.31524658 C90.43066636 94.37352218 94.2528667 94.45075134 98.07518005 94.5335083 C99.72482485 94.56662072 101.37457922 94.59469469 103.0243988 94.61749268 C105.40548593 94.65129246 107.78558132 94.70361717 110.16624451 94.75933838 C111.26042442 94.76892326 111.26042442 94.76892326 112.37670898 94.77870178 C118.86060462 94.96199756 124.25528746 96.76143644 129.25608826 101.08355713 C129.80780701 101.54375244 130.35952576 102.00394775 130.92796326 102.47808838 C134.72304524 106.78982756 135.87530274 111.01280617 135.91233826 116.65777588 C135.93425232 117.84306885 135.95616638 119.02836182 135.97874451 120.24957275 C135.99706006 122.73394712 136.01528842 125.21832213 136.03343201 127.70269775 C136.05534607 128.88412354 136.07726013 130.06554932 136.09983826 131.28277588 C136.1069281 132.3600293 136.11401794 133.43728271 136.12132263 134.54718018 C136.29403198 137.27006502 136.29403198 137.27006502 137.81248474 139.11773682 C140.61239044 141.02443345 143.78793234 140.76837853 147.06858826 140.83355713 C154.25102069 141.01598956 154.25102069 141.01598956 156.50608826 143.27105713 C156.74900818 145.96075439 156.74900818 145.96075439 156.73655701 149.33746338 C156.73462341 150.54467041 156.73268982 151.75187744 156.73069763 152.9956665 C156.71845154 154.26217041 156.70620544 155.52867432 156.69358826 156.83355713 C156.69294373 158.10392822 156.69229919 159.37429932 156.69163513 160.6831665 C156.64618879 170.1309566 156.64618879 170.1309566 155.50608826 171.27105713 C151.3588876 171.53891641 147.20782747 171.54246304 143.05271912 171.56622314 C140.97593427 171.58329129 138.9008031 171.62713303 136.82444763 171.67144775 C128.21395134 171.77359142 122.29011566 171.23311844 115.48265076 165.59527588 C115.03663513 165.05515869 114.59061951 164.5150415 114.13108826 163.95855713 C113.43886169 163.15998291 113.43886169 163.15998291 112.73265076 162.34527588 C108.65031966 155.44171596 109.08494602 147.61837536 108.88108826 139.83355713 C108.84241638 138.62506104 108.80374451 137.41656494 108.76390076 136.17144775 C108.67009653 133.20488919 108.5870241 130.23799466 108.50608826 127.27105713 C102.23608826 127.27105713 95.96608826 127.27105713 89.50608826 127.27105713 C90.49129201 133.12987519 91.47811529 138.98837506 92.46922302 144.84619141 C92.82708834 146.96250338 93.18434763 149.07891791 93.54100037 151.19543457 C95.53441655 163.01364115 97.57877208 174.81712961 99.81858826 186.59136963 C100.00344788 187.57145996 100.1883075 188.55155029 100.37876892 189.56134033 C101.25673388 194.21542965 102.1482944 198.86597774 103.06663513 203.51226807 C105.12608385 214.22745119 105.95175595 224.36457836 105.50608826 235.27105713 C106.71410095 235.25188232 107.92211365 235.23270752 109.16673279 235.21295166 C109.8865332 235.20185364 110.60633362 235.19075562 111.34794617 235.17932129 C112.85110617 235.15472815 114.35417442 235.12437329 115.85716248 235.09088135 C117.74103875 235.07628496 119.62478138 235.1716223 121.50608826 235.27105713 C124.06530434 237.83027321 123.75880695 238.77959431 123.76487732 242.331604 C123.77118164 243.38609741 123.77748596 244.44059082 123.78398132 245.52703857 C123.77790863 247.24110901 123.77790863 247.24110901 123.77171326 248.98980713 C123.77362671 250.15862427 123.77554016 251.32744141 123.7775116 252.53167725 C123.77887452 255.00649226 123.77517067 257.48131439 123.76683044 259.95611572 C123.75613271 263.75526918 123.76672244 267.55394972 123.77952576 271.35308838 C123.77820418 273.75282901 123.77564183 276.15256935 123.77171326 278.55230713 C123.77576172 279.69502075 123.77981018 280.83773438 123.78398132 282.01507568 C123.77452484 283.5968158 123.77452484 283.5968158 123.76487732 285.21051025 C123.76328613 286.14157593 123.76169495 287.0726416 123.76005554 288.03192139 C123.50608826 290.27105713 123.50608826 290.27105713 121.50608826 292.27105713 C119.02975708 292.52290612 119.02975708 292.52290612 115.83352757 292.52553272 C114.6191739 292.53136492 113.40482024 292.53719711 112.15366799 292.54320604 C110.79389176 292.53957229 109.43411603 292.53574788 108.07434082 292.53175354 C106.63932023 292.53477143 105.20430125 292.53865907 103.76928514 292.54334611 C99.81182052 292.55368172 95.85444593 292.55143024 91.89697373 292.54716551 C87.63446124 292.54470832 83.371971 292.55369986 79.10946655 292.561203 C70.75335517 292.57398017 62.39727587 292.57573995 54.04115636 292.57340274 C47.25203758 292.57162279 40.46292857 292.57336226 33.67381096 292.57762718 C32.7091224 292.57822237 31.74443383 292.57881756 30.75051228 292.57943079 C28.79101654 292.58064248 26.8315208 292.58185662 24.87202507 292.58307316 C6.4781564 292.59396032 -11.91569394 292.59178065 -30.30956364 292.58568832 C-47.1527343 292.58051805 -63.99584714 292.59177541 -80.83900636 292.61078653 C-98.11584924 292.63013832 -115.39266473 292.63842562 -132.66951853 292.63466328 C-142.37625535 292.63274719 -152.08294294 292.63527831 -161.78967094 292.64937782 C-170.05298057 292.66125877 -178.31621069 292.66273363 -186.57952135 292.65058766 C-190.79858877 292.64467575 -195.01751051 292.64366286 -199.23656845 292.65559006 C-203.09487125 292.66637099 -206.95290539 292.66343946 -210.8111952 292.64932837 C-212.21091019 292.64665977 -213.61064572 292.64911505 -215.01034068 292.65706424 C-216.90537433 292.66708396 -218.800483 292.65700912 -220.69550991 292.64578724 C-222.27788705 292.64586976 -222.27788705 292.64586976 -223.8922314 292.64595395 C-226.49391174 292.27105713 -226.49391174 292.27105713 -228.33250242 290.88993233 C-229.94797809 288.63813922 -229.87470467 287.0532599 -229.88209534 284.29644775 C-229.89628006 282.77972473 -229.89628006 282.77972473 -229.91075134 281.23236084 C-229.90467865 280.14169312 -229.89860596 279.05102539 -229.89234924 277.92730713 C-229.89521942 276.8066687 -229.8980896 275.68603027 -229.90104675 274.53143311 C-229.90308921 272.16094457 -229.89754674 269.79043925 -229.88502502 267.41998291 C-229.86897474 263.7853233 -229.88486843 260.15177578 -229.90406799 256.51715088 C-229.90208559 254.21636717 -229.89824199 251.91558415 -229.89234924 249.61480713 C-229.89842194 248.5241394 -229.90449463 247.43347168 -229.91075134 246.30975342 C-229.90129486 245.29860474 -229.89183838 244.28745605 -229.88209534 243.2456665 C-229.87970856 242.35536743 -229.87732178 241.46506836 -229.87486267 240.54779053 C-229.49391174 238.27105713 -229.49391174 238.27105713 -228.20671082 236.47845459 C-225.25635341 234.39866946 -221.77408553 234.96634291 -218.30641174 235.08355713 C-216.91280093 235.11804044 -215.51916244 235.15141696 -214.12550354 235.18389893 C-212.92707825 235.21266113 -211.72865295 235.24142334 -210.49391174 235.27105713 C-210.57222229 233.68901489 -210.57222229 233.68901489 -210.65211487 232.07501221 C-211.13901978 217.34292424 -208.64808772 203.40340858 -205.99391174 188.95855713 C-205.53430746 186.38999462 -205.07632228 183.82114192 -204.61988831 181.25201416 C-203.69662913 176.06510464 -202.76544836 170.87971788 -201.82789612 165.69537354 C-200.60712312 158.92768864 -199.42360095 152.15417131 -198.25953674 145.37652588 C-198.08833817 144.38243713 -197.91713959 143.38834839 -197.74075317 142.36413574 C-197.07531077 138.49712695 -196.41096907 134.62995599 -195.75413513 130.76147461 C-194.25321352 121.92402551 -192.7531252 113.12043385 -190.70094299 104.39215088 C-185.90241694 83.43228911 -185.80600418 62.63109871 -185.89454651 41.23712158 C-185.8936351 39.97447479 -185.89272369 38.711828 -185.89178467 37.41091919 C-185.89215176 35.02138427 -185.90946518 32.63177108 -185.94650269 30.24252319 C-185.94267232 23.67849825 -185.49365528 19.56844114 -181.49391174 14.27105713 C-176.94364609 10.74227968 -173.46508638 9.15064096 -167.74520874 9.13061523 C-166.76819 9.12490509 -165.79117126 9.11919495 -164.7845459 9.11331177 C-163.71386368 9.11219391 -162.64318146 9.11107605 -161.54005432 9.10992432 C-159.84692108 9.10247696 -159.84692108 9.10247696 -158.11958313 9.09487915 C-154.3758636 9.08024427 -150.63218646 9.07345266 -146.88844299 9.06793213 C-144.28872679 9.06218099 -141.68901061 9.05642325 -139.08929443 9.05065918 C-134.33036953 9.04148937 -129.5714616 9.03519113 -124.81252939 9.03216243 C-117.82036158 9.02768752 -110.82838982 9.010166 -103.8362816 8.98116183 C-97.77131261 8.95688186 -91.70642412 8.94921518 -85.64140892 8.94748688 C-83.0662549 8.94446231 -80.49110166 8.93644042 -77.91597939 8.9233017 C-74.30875007 8.90621354 -70.7019954 8.90812878 -67.09474182 8.91461182 C-66.03418076 8.90539703 -64.97361969 8.89618225 -63.88092041 8.88668823 C-57.05642199 8.92503551 -50.89002632 9.43559145 -45.43531799 13.98980713 C-44.98027893 14.57761963 -44.52523987 15.16543213 -44.05641174 15.77105713 C-43.58332581 16.35886963 -43.11023987 16.94668213 -42.62281799 17.55230713 C-39.92920333 21.65331215 -40.36553939 25.95337548 -40.39625549 30.65777588 C-40.39726257 31.38210815 -40.39826965 32.10644043 -40.39930725 32.85272217 C-40.40453348 35.55468329 -40.41849476 38.25662183 -40.43141174 40.95855713 C-40.45203674 47.00168213 -40.47266174 53.04480713 -40.49391174 59.27105713 C-19.04391174 59.27105713 2.40608826 59.27105713 24.50608826 59.27105713 C24.50608826 57.29105713 24.50608826 55.31105713 24.50608826 53.27105713 C23.60777283 53.28153076 22.7094574 53.29200439 21.78392029 53.30279541 C18.45544378 53.33685183 15.12715203 53.36194331 11.79856873 53.38092041 C10.35713279 53.39098676 8.9157173 53.40464093 7.47434998 53.42193604 C5.40414892 53.44615725 3.33421749 53.45753354 1.26390076 53.46636963 C-0.6056427 53.48208008 -0.6056427 53.48208008 -2.51295471 53.49810791 C-5.49391174 53.27105713 -5.49391174 53.27105713 -7.49391174 51.27105713 C-7.74787903 49.18377686 -7.74787903 49.18377686 -7.75270081 46.57769775 C-7.75900513 45.60328735 -7.76530945 44.62887695 -7.77180481 43.62493896 C-7.76573212 42.04211121 -7.76573212 42.04211121 -7.75953674 40.42730713 C-7.7614502 39.34727417 -7.76336365 38.26724121 -7.76533508 37.15447998 C-7.76669782 34.86797859 -7.76299526 32.58146949 -7.75465393 30.29498291 C-7.74395586 26.78552958 -7.75454647 23.27658819 -7.76734924 19.76715088 C-7.76602766 17.54970183 -7.76346531 15.33225309 -7.75953674 13.11480713 C-7.76358521 12.05958862 -7.76763367 11.00437012 -7.77180481 9.91717529 C-7.76234833 8.45555969 -7.76234833 8.45555969 -7.75270081 6.9644165 C-7.75110962 6.1044104 -7.74951843 5.2444043 -7.74787903 4.3583374 C-7.1739758 -0.35839958 -4.00249139 0.0323282 0 0 Z M-175.49391174 20.27105713 C-177.60835584 23.44272328 -177.72551726 24.00681958 -177.59059143 27.59039307 C-177.56588272 28.47954407 -177.54117401 29.36869507 -177.51571655 30.28479004 C-177.48273972 31.26510193 -177.44976288 32.24541382 -177.41578674 33.25543213 C-176.86803196 62.87958662 -179.49744134 90.68726108 -184.93141174 119.77105713 C-185.08747643 120.60729237 -185.24354111 121.4435276 -185.40433502 122.3051033 C-186.96616052 130.64945635 -188.56481902 138.98644087 -190.18824005 147.31901264 C-192.87012216 161.09219486 -195.31808681 174.90303641 -197.71879578 188.7276001 C-198.3545655 192.37622534 -198.99987014 196.02304059 -199.64796448 199.66949463 C-200.03166256 201.84264467 -200.41521695 204.0158201 -200.79859924 206.18902588 C-200.97289963 207.16417648 -201.14720001 208.13932709 -201.32678223 209.14402771 C-201.48232071 210.03310318 -201.63785919 210.92217865 -201.79811096 211.8381958 C-201.93353302 212.60363205 -202.06895508 213.3690683 -202.20848083 214.15769958 C-202.58314185 216.57630103 -202.58314185 216.57630103 -202.49391174 220.27105713 C-103.49391174 220.27105713 -4.49391174 220.27105713 97.50608826 220.27105713 C94.52803852 202.4027587 91.54704986 184.54314562 88.38108826 166.70855713 C88.19721558 165.67261414 88.0133429 164.63667114 87.82389832 163.56933594 C87.03087762 159.10383713 86.23738465 154.63842393 85.44203186 150.17333984 C84.18433535 143.10831729 82.93825527 136.0413708 81.7016964 128.97262669 C80.71673136 123.34455341 79.72417158 117.71784964 78.72661781 112.09199429 C78.11907554 108.66395085 77.51509153 105.23536564 76.91960144 101.8052063 C76.25389083 97.97150041 75.57202719 94.14076246 74.88890076 90.31011963 C74.69233887 89.16351364 74.49577698 88.01690765 74.29325867 86.83555603 C74.00633148 85.2482946 74.00633148 85.2482946 73.71360779 83.62896729 C73.55200165 82.71023834 73.39039551 81.7915094 73.22389221 80.84494019 C71.57750222 74.94135707 68.23794547 71.81995004 63.50608826 68.27105713 C60.35677932 67.22128748 58.11794369 67.16974118 54.81858826 67.20855713 C53.32778748 67.22209229 53.32778748 67.22209229 51.80686951 67.23590088 C50.66798279 67.25330322 50.66798279 67.25330322 49.50608826 67.27105713 C49.44550232 68.19789307 49.38491638 69.124729 49.32249451 70.07965088 C49.23870544 71.27718994 49.15491638 72.474729 49.06858826 73.70855713 C48.94677185 75.50099854 48.94677185 75.50099854 48.82249451 77.32965088 C48.50608826 80.27105713 48.50608826 80.27105713 47.50608826 81.27105713 C45.95653267 81.37005236 44.40255153 81.40185237 42.84983826 81.40386963 C41.44024841 81.40580322 41.44024841 81.40580322 40.00218201 81.40777588 C38.5191156 81.4019751 38.5191156 81.4019751 37.00608826 81.39605713 C36.01737732 81.39992432 35.02866638 81.4037915 34.00999451 81.40777588 C33.07026794 81.40648682 32.13054138 81.40519775 31.16233826 81.40386963 C30.29415466 81.4027417 29.42597107 81.40161377 28.53147888 81.40045166 C26.50608826 81.27105713 26.50608826 81.27105713 25.50608826 80.27105713 C25.17608826 75.98105713 24.84608826 71.69105713 24.50608826 67.27105713 C3.05608826 67.27105713 -18.39391174 67.27105713 -40.49391174 67.27105713 C-40.82391174 71.56105713 -41.15391174 75.85105713 -41.49391174 80.27105713 C-44.46391174 80.76605713 -44.46391174 80.76605713 -47.49391174 81.27105713 C-47.49533676 80.55553177 -47.49676178 79.84000641 -47.49822998 79.10279846 C-47.51608255 72.34933622 -47.55776188 65.59648648 -47.62600231 58.84333515 C-47.6602487 55.37164538 -47.68537842 51.9003945 -47.68946838 48.42852783 C-47.69457769 44.43410246 -47.7397064 40.44099007 -47.78688049 36.44683838 C-47.78098152 34.58252922 -47.78098152 34.58252922 -47.77496338 32.68055725 C-47.64007483 25.76156865 -47.64007483 25.76156865 -50.9131012 20.0100708 C-54.33617068 17.70352233 -55.99490552 17.1450392 -60.06661987 17.13061523 C-61.02977112 17.12490509 -61.99292236 17.11919495 -62.98526001 17.11331177 C-64.04554916 17.11219391 -65.10583832 17.11107605 -66.19825745 17.10992432 C-67.31217865 17.10495941 -68.42609985 17.09999451 -69.57377625 17.09487915 C-73.27242136 17.08022992 -76.97102359 17.07345082 -80.66969299 17.06793213 C-83.23318483 17.06218284 -85.79667665 17.05642508 -88.36016846 17.05065918 C-93.05283979 17.04148684 -97.74549389 17.03518981 -102.43817264 17.03216243 C-109.34322066 17.02768333 -116.24807057 17.01014339 -123.15305835 16.98116183 C-129.13420941 16.9569299 -135.11526685 16.94921756 -141.09647179 16.94748688 C-143.64061244 16.94445595 -146.18475218 16.93641268 -148.72886086 16.9233017 C-152.28652129 16.90627673 -155.84369798 16.90811309 -159.40138245 16.91461182 C-160.45559891 16.90539703 -161.50981537 16.89618225 -162.59597778 16.88668823 C-169.56531424 16.8649976 -169.56531424 16.8649976 -175.49391174 20.27105713 Z " fill="#040404" transform="translate(277.49391174316406,111.72894287109375)"/>
<path d="M0 0 C111.21 0 222.42 0 337 0 C337 13.53 337 27.06 337 41 C225.79 41 114.58 41 0 41 C0 27.47 0 13.94 0 0 Z " fill="#FCFCFC" transform="translate(56,355)"/>
<path d="M0 0 C30.03 0 60.06 0 91 0 C91 12.87 91 25.74 91 39 C60.97 39 30.94 39 0 39 C0 26.13 0 13.26 0 0 Z " fill="#FDFDFD" transform="translate(119,146)"/>
<path d="M0 0 C23.43 0 46.86 0 71 0 C71 12.21 71 24.42 71 37 C47.57 37 24.14 37 0 37 C0 24.79 0 12.58 0 0 Z " fill="#FDFDFD" transform="translate(278,120)"/>
<path d="M0 0 C0.85665756 -0.00708481 1.71331512 -0.01416962 2.59593201 -0.02146912 C3.53780365 -0.0189917 4.47967529 -0.01651428 5.4500885 -0.01396179 C6.44042587 -0.01907272 7.43076324 -0.02418365 8.45111084 -0.02944946 C11.73737059 -0.0433934 15.02342175 -0.04238508 18.30970764 -0.04008484 C20.58652831 -0.04396914 22.86334825 -0.04830326 25.14016724 -0.05307007 C29.91765184 -0.06054263 34.69506256 -0.06023351 39.47254944 -0.05497742 C45.60419972 -0.04918162 51.73554806 -0.06611164 57.8671484 -0.08932209 C62.57079852 -0.10403194 67.27437547 -0.10493487 71.97804451 -0.10181236 C74.23914246 -0.10232697 76.50024437 -0.10759059 78.76132011 -0.11762428 C81.91949633 -0.12991797 85.07707852 -0.12323938 88.23524475 -0.11161804 C89.17509216 -0.11926178 90.11493958 -0.12690552 91.08326721 -0.13478088 C91.9427446 -0.12776657 92.80222198 -0.12075226 93.68774414 -0.11352539 C94.4345642 -0.11369313 95.18138426 -0.11386087 95.95083523 -0.1140337 C98.4633137 0.36717639 99.35469403 1.26351559 100.90736389 3.26069641 C101.27485657 5.55088806 101.27485657 5.55088806 101.2638092 8.26704407 C101.2668103 9.28464813 101.2698114 10.3022522 101.27290344 11.35069275 C101.25438324 12.9961055 101.25438324 12.9961055 101.23548889 14.67475891 C101.23361572 15.80014069 101.23174255 16.92552246 101.22981262 18.08500671 C101.22308795 20.46391258 101.20916531 22.84280731 101.18861389 25.22163391 C101.15742964 28.87798749 101.14764119 32.53391048 101.14173889 36.19038391 C101.13257048 38.49768088 101.12219523 40.80497343 101.11048889 43.11225891 C101.10623901 44.21324921 101.10198914 45.3142395 101.09761047 46.44859314 C101.08800293 47.45989288 101.07839539 48.47119263 101.0684967 49.51313782 C101.0616687 50.40787811 101.0548407 51.30261841 101.04780579 52.22447205 C100.90736389 54.26069641 100.90736389 54.26069641 99.90736389 55.26069641 C98.5436126 55.35820117 97.1748648 55.38701241 95.80763245 55.38768005 C94.48250893 55.39190979 94.48250893 55.39190979 93.13061523 55.39622498 C92.15395401 55.39420074 91.17729279 55.39217651 90.17103577 55.39009094 C88.6370388 55.39271942 88.6370388 55.39271942 87.072052 55.395401 C83.67338897 55.39982168 80.2747775 55.39688076 76.87611389 55.39350891 C74.52581268 55.39418189 72.17551154 55.39515186 69.82521057 55.39640808 C64.89213907 55.39788535 59.95908564 55.39572957 55.02601624 55.3910675 C48.68685722 55.38537021 42.34774053 55.38864906 36.00858307 55.39463997 C31.15318988 55.3982448 26.29780681 55.39710735 21.44241333 55.39451218 C19.10430903 55.39384269 16.76620383 55.39467207 14.42810059 55.39699173 C11.16660612 55.39951698 7.90518126 55.39567945 4.64369202 55.39009094 C3.66703079 55.39211517 2.69036957 55.3941394 1.68411255 55.39622498 C0.80069687 55.39340515 -0.08271881 55.39058533 -0.99290466 55.38768005 C-1.76499016 55.38730303 -2.53707565 55.386926 -3.33255768 55.38653755 C-5.09263611 55.26069641 -5.09263611 55.26069641 -6.09263611 54.26069641 C-6.196462 52.64489633 -6.23115854 51.02459017 -6.23789978 49.4054718 C-6.24427963 48.37092361 -6.25065948 47.33637543 -6.25723267 46.27047729 C-6.25834549 45.14447617 -6.25945831 44.01847504 -6.26060486 42.85835266 C-6.26559746 41.1362986 -6.26559746 41.1362986 -6.27069092 39.37945557 C-6.27576512 36.94574892 -6.27809909 34.51203529 -6.27793884 32.07832336 C-6.28012465 28.34277449 -6.29827357 24.60752106 -6.31724548 20.87202454 C-6.32017936 18.51330159 -6.32216419 16.15457724 -6.32310486 13.79585266 C-6.33029037 12.67187576 -6.33747589 11.54789886 -6.34487915 10.38986206 C-6.34180252 9.35216171 -6.33872589 8.31446136 -6.33555603 7.24531555 C-6.33698105 6.32899857 -6.33840607 5.41268158 -6.33987427 4.46859741 C-5.87349918 0.30374674 -3.67166997 0.01009784 0 0 Z M1.90736389 8.26069641 C1.90736389 21.13069641 1.90736389 34.00069641 1.90736389 47.26069641 C31.93736389 47.26069641 61.96736389 47.26069641 92.90736389 47.26069641 C92.90736389 34.39069641 92.90736389 21.52069641 92.90736389 8.26069641 C62.87736389 8.26069641 32.84736389 8.26069641 1.90736389 8.26069641 Z " fill="#090909" transform="translate(117.09263610839844,137.7393035888672)"/>
<path d="M0 0 C99 0 198 0 300 0 C300 2.31 300 4.62 300 7 C201 7 102 7 0 7 C0 4.69 0 2.38 0 0 Z " fill="#FEFEFE" transform="translate(75,340)"/>
<path d="M0 0 C1.29474243 -0.00630432 2.58948486 -0.01260864 3.92346191 -0.019104 C5.34285619 -0.01552433 6.76224924 -0.0114224 8.18164062 -0.00683594 C9.63130763 -0.00818263 11.08097419 -0.0101232 12.53063965 -0.01263428 C15.57043758 -0.01558536 18.61011805 -0.0112885 21.64990234 -0.00195312 C25.55083311 0.0094415 29.4514887 0.00288193 33.35240936 -0.00909805 C36.346355 -0.01631715 39.34023515 -0.01402852 42.33418274 -0.00884247 C43.77273084 -0.0075061 45.21128484 -0.00915324 46.64982605 -0.01380157 C48.65847666 -0.01886734 50.66714806 -0.00978038 52.67578125 0 C53.82002563 0.00159119 54.96427002 0.00318237 56.14318848 0.00482178 C58.83789062 0.25878906 58.83789062 0.25878906 60.83789062 2.25878906 C61.09667969 4.10644531 61.09667969 4.10644531 61.10351562 6.32128906 C61.10738281 7.51625 61.10738281 7.51625 61.11132812 8.73535156 C61.10359375 9.56808594 61.09585938 10.40082031 61.08789062 11.25878906 C61.09949219 12.50789063 61.09949219 12.50789063 61.11132812 13.78222656 C61.10875 14.57886719 61.10617187 15.37550781 61.10351562 16.19628906 C61.10125977 16.9271875 61.09900391 17.65808594 61.09667969 18.41113281 C60.83789062 20.25878906 60.83789062 20.25878906 58.83789062 22.25878906 C56.18788147 22.51948547 56.18788147 22.51948547 52.78344727 22.53344727 C51.51195328 22.54297928 50.24045929 22.55251129 48.93043518 22.56233215 C47.53630547 22.56207073 46.14217574 22.56113371 44.74804688 22.55957031 C43.32319513 22.56345594 41.89834455 22.56779033 40.47349548 22.57255554 C37.4849777 22.58002361 34.49657804 22.5797224 31.50805664 22.57446289 C27.67663388 22.56866895 23.84569464 22.58559403 20.01435184 22.60880756 C17.07097034 22.6235341 14.12770556 22.62441809 11.18429375 22.62129784 C9.77168254 22.62181165 8.35906489 22.62706067 6.94648933 22.63710976 C4.9716065 22.64943377 2.99662622 22.64075421 1.02172852 22.63110352 C-0.66465981 22.63204765 -0.66465981 22.63204765 -2.38511658 22.63301086 C-5.16210938 22.25878906 -5.16210938 22.25878906 -7.02589417 20.9818573 C-9.05626934 17.90279715 -8.54851393 14.25848839 -8.47460938 10.69628906 C-8.47783203 9.91576172 -8.48105469 9.13523437 -8.484375 8.33105469 C-8.41529732 1.05277927 -7.06764104 0.00982826 0 0 Z " fill="#060606" transform="translate(241.162109375,294.7412109375)"/>
<path d="M0 0 C4.5714698 -0.09943798 9.14229975 -0.17173349 13.71459961 -0.21972656 C15.26744565 -0.2397487 16.82021719 -0.26697517 18.37280273 -0.30175781 C20.61460832 -0.3506961 22.85541093 -0.37306168 25.09765625 -0.390625 C25.78336197 -0.41127014 26.46906769 -0.43191528 27.17555237 -0.45318604 C32.6597236 -0.4556959 35.64226722 0.87786319 40 4 C42.83611448 7.54948852 43.37367067 10.2231343 43.40625 14.7109375 C43.42816406 15.79117188 43.45007813 16.87140625 43.47265625 17.984375 C43.48167969 19.10328125 43.49070312 20.2221875 43.5 21.375 C43.47364308 31.602503 43.47364308 31.602503 47 41 C52.07366838 45.81998496 57.30594599 45.67346078 64 46 C64 50.62 64 55.24 64 60 C60.43704188 60.08104454 56.87593293 60.14052442 53.3125 60.1875 C51.80139648 60.22520508 51.80139648 60.22520508 50.25976562 60.26367188 C40.69349764 60.3583874 40.69349764 60.3583874 37 57 C34.38806401 53.31408636 33.62639351 50.78570648 33.59375 46.2890625 C33.57183594 45.20882812 33.54992187 44.12859375 33.52734375 43.015625 C33.51832031 41.89671875 33.50929688 40.7778125 33.5 39.625 C33.63636185 29.34726472 33.63636185 29.34726472 30 20 C24.9615184 15.1965953 19.78178597 15.37983444 13.1875 15.3125 C11.2850714 15.27061865 9.38271538 15.22524234 7.48046875 15.17578125 C6.64410889 15.16458252 5.80774902 15.15338379 4.94604492 15.1418457 C3 15 3 15 2 14 C1.602507 11.65276034 1.25631277 9.29671452 0.9375 6.9375 C0.76089844 5.64714844 0.58429688 4.35679687 0.40234375 3.02734375 C0.26957031 2.02832031 0.13679688 1.02929688 0 0 Z " fill="#FDFDFD" transform="translate(362,215)"/>
<path d="M0 0 C1.16208984 0.00322266 2.32417969 0.00644531 3.52148438 0.00976562 C4.67970703 -0.00634766 5.83792969 -0.02246094 7.03125 -0.0390625 C8.14048828 -0.03970703 9.24972656 -0.04035156 10.39257812 -0.04101562 C11.92096313 -0.04548706 11.92096313 -0.04548706 13.48022461 -0.05004883 C16.08398438 0.32226562 16.08398438 0.32226562 17.91699219 1.59863281 C19.99229563 4.66382995 19.47056388 8.31413358 19.39648438 11.88476562 C19.40131836 13.05555664 19.40131836 13.05555664 19.40625 14.25 C19.35115418 20.05509582 19.35115418 20.05509582 17.08398438 22.32226562 C14.39428711 22.56518555 14.39428711 22.56518555 11.01757812 22.55273438 C9.81037109 22.55080078 8.60316406 22.54886719 7.359375 22.546875 C6.09287109 22.53462891 4.82636719 22.52238281 3.52148438 22.50976562 C2.25111328 22.50912109 0.98074219 22.50847656 -0.328125 22.5078125 C-9.77591509 22.46236616 -9.77591509 22.46236616 -10.91601562 21.32226562 C-11.16568129 18.18403113 -11.10123353 15.0317695 -11.10351562 11.88476562 C-11.11576172 10.99982422 -11.12800781 10.11488281 -11.140625 9.203125 C-11.14255859 8.35685547 -11.14449219 7.51058594 -11.14648438 6.63867188 C-11.15059326 5.85951416 -11.15470215 5.08035645 -11.15893555 4.27758789 C-10.44912198 -1.4358763 -4.35954349 0.02789702 0 0 Z " fill="#080808" transform="translate(321.916015625,266.677734375)"/>
<path d="M0 0 C1.10923828 0.00064453 2.21847656 0.00128906 3.36132812 0.00195312 C5.09866211 0.02612305 5.09866211 0.02612305 6.87109375 0.05078125 C8.03318359 0.04755859 9.19527344 0.04433594 10.39257812 0.04101562 C19.04167429 0.09636179 19.04167429 0.09636179 21.30859375 2.36328125 C21.55151367 4.31860352 21.55151367 4.31860352 21.5390625 6.6796875 C21.53712891 7.52595703 21.53519531 8.37222656 21.53320312 9.24414062 C21.51483398 10.57155273 21.51483398 10.57155273 21.49609375 11.92578125 C21.49544922 12.81458984 21.49480469 13.70339844 21.49414062 14.61914062 C21.44880472 21.22307028 21.44880472 21.22307028 20.30859375 22.36328125 C15.83527417 22.61708359 11.35075915 22.54850846 6.87109375 22.55078125 C5.60458984 22.56302734 4.33808594 22.57527344 3.03320312 22.58789062 C1.82599609 22.58982422 0.61878906 22.59175781 -0.625 22.59375 C-2.29647095 22.59991333 -2.29647095 22.59991333 -4.00170898 22.60620117 C-6.69140625 22.36328125 -6.69140625 22.36328125 -8.69140625 20.36328125 C-8.91692966 17.50762766 -9.01569388 14.78074615 -9.00390625 11.92578125 C-9.02001953 11.14912109 -9.03613281 10.37246094 -9.05273438 9.57226562 C-9.05761646 3.90416913 -9.05761646 3.90416913 -7.52441406 1.63964844 C-4.95905893 -0.14666971 -3.10808351 -0.00909299 0 0 Z " fill="#0A0A0A" transform="translate(156.69140625,266.63671875)"/>
<path d="M0 0 C1.21429688 -0.020625 2.42859375 -0.04125 3.6796875 -0.0625 C4.83726562 -0.06765625 5.99484375 -0.0728125 7.1875 -0.078125 C8.78658203 -0.09214355 8.78658203 -0.09214355 10.41796875 -0.10644531 C11.27003906 0.01118164 12.12210937 0.12880859 13 0.25 C15.48614181 3.97921271 15.33170055 6.93371682 15.3125 11.25 C15.32861328 11.97445313 15.34472656 12.69890625 15.36132812 13.4453125 C15.36618865 18.71412351 15.36618865 18.71412351 13.83300781 20.95776367 C11.2689466 22.76537901 9.42711962 22.62240479 6.30859375 22.61328125 C5.19935547 22.61263672 4.09011719 22.61199219 2.94726562 22.61132812 C1.20993164 22.5871582 1.20993164 22.5871582 -0.5625 22.5625 C-1.72458984 22.56572266 -2.88667969 22.56894531 -4.08398438 22.57226562 C-12.73308054 22.51691946 -12.73308054 22.51691946 -15 20.25 C-15.22705078 18.27880859 -15.22705078 18.27880859 -15.1953125 15.8984375 C-15.18886719 15.04765625 -15.18242187 14.196875 -15.17578125 13.3203125 C-15.15902344 12.43085938 -15.14226562 11.54140625 -15.125 10.625 C-15.11597656 9.7278125 -15.10695313 8.830625 -15.09765625 7.90625 C-15.0740497 5.68723414 -15.0411231 3.46874923 -15 1.25 C-10.64286528 -0.92856736 -4.78592663 0.02032241 0 0 Z " fill="#060606" transform="translate(326,294.75)"/>
<path d="M0 0 C1.15757812 -0.00257813 2.31515625 -0.00515625 3.5078125 -0.0078125 C4.72210938 -0.00007813 5.93640625 0.00765625 7.1875 0.015625 C8.40179688 0.00789063 9.61609375 0.00015625 10.8671875 -0.0078125 C12.60355469 -0.00394531 12.60355469 -0.00394531 14.375 0 C15.44105469 0.00225586 16.50710937 0.00451172 17.60546875 0.00683594 C20.1875 0.265625 20.1875 0.265625 22.1875 2.265625 C22.44628906 4.11328125 22.44628906 4.11328125 22.453125 6.328125 C22.45699219 7.52308594 22.45699219 7.52308594 22.4609375 8.7421875 C22.45320313 9.57492187 22.44546875 10.40765625 22.4375 11.265625 C22.44523437 12.09835937 22.45296875 12.93109375 22.4609375 13.7890625 C22.45835937 14.58570313 22.45578125 15.38234375 22.453125 16.203125 C22.45086914 16.93402344 22.44861328 17.66492188 22.44628906 18.41796875 C22.1875 20.265625 22.1875 20.265625 20.1875 22.265625 C16.05998852 22.72378488 11.89999232 22.58963358 7.75 22.578125 C6.59177734 22.59423828 5.43355469 22.61035156 4.24023438 22.62695312 C3.13099609 22.62759766 2.02175781 22.62824219 0.87890625 22.62890625 C-0.64947876 22.63337769 -0.64947876 22.63337769 -2.20874023 22.63793945 C-4.8125 22.265625 -4.8125 22.265625 -6.64550781 20.98925781 C-8.72081126 17.92406068 -8.1990795 14.27375704 -8.125 10.703125 C-8.12822266 9.92259766 -8.13144531 9.14207031 -8.13476562 8.33789062 C-8.06800313 1.30355095 -6.90390829 0.01460924 0 0 Z " fill="#060606" transform="translate(155.8125,294.734375)"/>
<path d="M0 0 C1.15757813 -0.00257813 2.31515625 -0.00515625 3.5078125 -0.0078125 C4.72210938 -0.00007813 5.93640625 0.00765625 7.1875 0.015625 C8.40179688 0.00789063 9.61609375 0.00015625 10.8671875 -0.0078125 C12.60355469 -0.00394531 12.60355469 -0.00394531 14.375 0 C15.44105469 0.00225586 16.50710937 0.00451172 17.60546875 0.00683594 C20.1875 0.265625 20.1875 0.265625 22.1875 2.265625 C22.41302341 5.12127859 22.51178763 7.8481601 22.5 10.703125 C22.51611328 11.47978516 22.53222656 12.25644531 22.54882812 13.05664062 C22.55371021 18.72473712 22.55371021 18.72473712 21.02050781 20.98925781 C18.45515268 22.77557596 16.60417726 22.63799924 13.49609375 22.62890625 C12.38685547 22.62826172 11.27761719 22.62761719 10.13476562 22.62695312 C8.39743164 22.6027832 8.39743164 22.6027832 6.625 22.578125 C5.46291016 22.58134766 4.30082031 22.58457031 3.10351562 22.58789062 C-5.54558054 22.53254446 -5.54558054 22.53254446 -7.8125 20.265625 C-8.07128906 18.41796875 -8.07128906 18.41796875 -8.078125 16.203125 C-8.08070312 15.40648437 -8.08328125 14.60984375 -8.0859375 13.7890625 C-8.07820313 12.95632813 -8.07046875 12.12359375 -8.0625 11.265625 C-8.07023437 10.43289063 -8.07796875 9.60015625 -8.0859375 8.7421875 C-8.08335938 7.94554687 -8.08078125 7.14890625 -8.078125 6.328125 C-8.07586914 5.59722656 -8.07361328 4.86632812 -8.07128906 4.11328125 C-7.4161754 -0.5639831 -3.84087175 0.0081276 0 0 Z " fill="#050505" transform="translate(115.8125,294.734375)"/>
<path d="M0 0 C1.05960937 -0.00257813 2.11921875 -0.00515625 3.2109375 -0.0078125 C4.86996094 0.00378906 4.86996094 0.00378906 6.5625 0.015625 C7.66851562 0.00789063 8.77453125 0.00015625 9.9140625 -0.0078125 C11.50347656 -0.00394531 11.50347656 -0.00394531 13.125 0 C14.09566406 0.00225586 15.06632812 0.00451172 16.06640625 0.00683594 C18.5625 0.265625 18.5625 0.265625 21.5625 2.265625 C21.93481445 4.11328125 21.93481445 4.11328125 21.92578125 6.328125 C21.92513672 7.12476563 21.92449219 7.92140625 21.92382812 8.7421875 C21.90771484 9.57492187 21.89160156 10.40765625 21.875 11.265625 C21.87983398 12.51472656 21.87983398 12.51472656 21.88476562 13.7890625 C21.82950255 19.99862245 21.82950255 19.99862245 19.5625 22.265625 C16.98046875 22.52441406 16.98046875 22.52441406 13.75 22.53125 C12.59242188 22.53382813 11.43484375 22.53640625 10.2421875 22.5390625 C9.02789062 22.53132813 7.81359375 22.52359375 6.5625 22.515625 C5.34820312 22.52335937 4.13390625 22.53109375 2.8828125 22.5390625 C1.14644531 22.53519531 1.14644531 22.53519531 -0.625 22.53125 C-2.22408203 22.52786621 -2.22408203 22.52786621 -3.85546875 22.52441406 C-6.4375 22.265625 -6.4375 22.265625 -8.4375 20.265625 C-8.88043542 17.28594924 -8.76164428 14.27450634 -8.75 11.265625 C-8.76611328 10.43289063 -8.78222656 9.60015625 -8.79882812 8.7421875 C-8.79947266 7.94554687 -8.80011719 7.14890625 -8.80078125 6.328125 C-8.80376221 5.59722656 -8.80674316 4.86632812 -8.80981445 4.11328125 C-7.9091497 -0.35637834 -3.67949701 0.00855129 0 0 Z " fill="#090909" transform="translate(280.4375,266.734375)"/>
<path d="M0 0 C1.58941406 0.0009668 1.58941406 0.0009668 3.2109375 0.00195312 C4.86996094 0.02612305 4.86996094 0.02612305 6.5625 0.05078125 C8.22152344 0.04594727 8.22152344 0.04594727 9.9140625 0.04101562 C18.16188076 0.09620176 18.16188076 0.09620176 21.5625 2.36328125 C21.90307617 4.33447266 21.90307617 4.33447266 21.85546875 6.71484375 C21.84580078 7.565625 21.83613281 8.41640625 21.82617188 9.29296875 C21.80103516 10.18242187 21.77589844 11.071875 21.75 11.98828125 C21.72969727 13.3340625 21.72969727 13.3340625 21.70898438 14.70703125 C21.67356925 16.92637914 21.62418461 19.14453313 21.5625 21.36328125 C17.21399046 23.53753602 11.33892634 22.54824599 6.5625 22.55078125 C5.34820312 22.56302734 4.13390625 22.57527344 2.8828125 22.58789062 C1.14644531 22.59079102 1.14644531 22.59079102 -0.625 22.59375 C-1.69105469 22.59785889 -2.75710937 22.60196777 -3.85546875 22.60620117 C-6.4375 22.36328125 -6.4375 22.36328125 -8.4375 20.36328125 C-8.66302341 17.50762766 -8.76178763 14.78074615 -8.75 11.92578125 C-8.76611328 11.14912109 -8.78222656 10.37246094 -8.79882812 9.57226562 C-8.80371645 3.89692173 -8.80371645 3.89692173 -7.25463867 1.63964844 C-4.75940249 -0.11301779 -3.03305981 -0.00931468 0 0 Z " fill="#0B0B0B" transform="translate(241.4375,266.63671875)"/>
<path d="M0 0 C1.10601562 -0.01611328 2.21203125 -0.03222656 3.3515625 -0.04882812 C4.41117188 -0.04947266 5.47078125 -0.05011719 6.5625 -0.05078125 C7.53316406 -0.05376221 8.50382812 -0.05674316 9.50390625 -0.05981445 C12 0.3125 12 0.3125 13.81713867 1.58886719 C15.91562253 4.64671983 15.38666999 8.30000672 15.3125 11.875 C15.31733398 13.04579102 15.31733398 13.04579102 15.32226562 14.24023438 C15.26716981 20.04533019 15.26716981 20.04533019 13 22.3125 C10.41796875 22.55541992 10.41796875 22.55541992 7.1875 22.54296875 C6.02992188 22.54103516 4.87234375 22.53910156 3.6796875 22.53710938 C2.46539062 22.52486328 1.25109375 22.51261719 0 22.5 C-1.21429688 22.49935547 -2.42859375 22.49871094 -3.6796875 22.49804688 C-12.71950576 22.45274712 -12.71950576 22.45274712 -15 21.3125 C-15.08687496 18.18767438 -15.14034568 15.06315754 -15.1875 11.9375 C-15.21263672 11.04804688 -15.23777344 10.15859375 -15.26367188 9.2421875 C-15.27333984 8.39140625 -15.28300781 7.540625 -15.29296875 6.6640625 C-15.3086792 5.87854004 -15.32438965 5.09301758 -15.34057617 4.28369141 C-15.22818604 3.63319824 -15.1157959 2.98270508 -15 2.3125 C-10.32754625 -0.80246916 -5.49414246 -0.01600857 0 0 Z " fill="#070707" transform="translate(123,266.6875)"/>
<path d="M0 0 C1.16208984 0.00322266 2.32417969 0.00644531 3.52148438 0.00976562 C4.67970703 -0.00634766 5.83792969 -0.02246094 7.03125 -0.0390625 C8.14048828 -0.03970703 9.24972656 -0.04035156 10.39257812 -0.04101562 C11.92096313 -0.04548706 11.92096313 -0.04548706 13.48022461 -0.05004883 C16.08398438 0.32226562 16.08398438 0.32226562 17.91479492 1.61450195 C19.9211822 4.54510939 19.51379829 7.89944086 19.45898438 11.32226562 C19.47058594 12.04671875 19.4821875 12.77117187 19.49414062 13.51757812 C19.46509251 18.76560423 19.46509251 18.76560423 17.91479492 21.0300293 C15.35237671 22.83865439 13.51020081 22.69466778 10.39257812 22.68554688 C9.28333984 22.68490234 8.17410156 22.68425781 7.03125 22.68359375 C5.29391602 22.65942383 5.29391602 22.65942383 3.52148438 22.63476562 C2.35939453 22.63798828 1.19730469 22.64121094 0 22.64453125 C-8.64909617 22.58918508 -8.64909617 22.58918508 -10.91601562 20.32226562 C-11.17480469 18.47460938 -11.17480469 18.47460938 -11.18164062 16.25976562 C-11.18421875 15.463125 -11.18679687 14.66648437 -11.18945312 13.84570312 C-11.18171875 13.01296875 -11.17398438 12.18023437 -11.16601562 11.32226562 C-11.17375 10.48953125 -11.18148437 9.65679687 -11.18945312 8.79882812 C-11.186875 8.0021875 -11.18429688 7.20554687 -11.18164062 6.38476562 C-11.17938477 5.65386719 -11.17712891 4.92296875 -11.17480469 4.16992188 C-10.39015745 -1.43216329 -4.28072682 0.02739267 0 0 Z " fill="#080808" transform="translate(200.916015625,294.677734375)"/>
<path d="M0 0 C1.11246094 -0.00257813 2.22492188 -0.00515625 3.37109375 -0.0078125 C4.53769531 -0.00007813 5.70429688 0.00765625 6.90625 0.015625 C8.07285156 0.00789063 9.23945313 0.00015625 10.44140625 -0.0078125 C11.55386719 -0.00523437 12.66632813 -0.00265625 13.8125 0 C14.83666016 0.00225586 15.86082031 0.00451172 16.91601562 0.00683594 C19.40625 0.265625 19.40625 0.265625 21.40625 2.265625 C21.63330078 4.23681641 21.63330078 4.23681641 21.6015625 6.6171875 C21.59511719 7.46796875 21.58867187 8.31875 21.58203125 9.1953125 C21.56527344 10.08476562 21.54851562 10.97421875 21.53125 11.890625 C21.52222656 12.7878125 21.51320312 13.685 21.50390625 14.609375 C21.4802997 16.82839086 21.4473731 19.04687577 21.40625 21.265625 C18.76627351 22.58561325 16.76547683 22.39518532 13.8125 22.3984375 C12.14380859 22.40037109 12.14380859 22.40037109 10.44140625 22.40234375 C9.27480469 22.39847656 8.10820312 22.39460938 6.90625 22.390625 C5.73964844 22.39449219 4.57304687 22.39835937 3.37109375 22.40234375 C2.25863281 22.40105469 1.14617187 22.39976562 0 22.3984375 C-1.02416016 22.39730957 -2.04832031 22.39618164 -3.10351562 22.39501953 C-5.59375 22.265625 -5.59375 22.265625 -7.59375 21.265625 C-7.65166844 18.14070249 -7.68731746 15.01591734 -7.71875 11.890625 C-7.73550781 11.00117188 -7.75226563 10.11171875 -7.76953125 9.1953125 C-7.77597656 8.34453125 -7.78242188 7.49375 -7.7890625 6.6171875 C-7.79953613 5.83166504 -7.81000977 5.04614258 -7.82080078 4.23681641 C-7.27954564 -0.46220942 -3.87231129 0.00852932 0 0 Z " fill="#070707" transform="translate(197.59375,266.734375)"/>
<path d="M0 0 C1.26650391 -0.01224609 2.53300781 -0.02449219 3.83789062 -0.03710938 C5.04509766 -0.03904297 6.25230469 -0.04097656 7.49609375 -0.04296875 C9.1675647 -0.04913208 9.1675647 -0.04913208 10.87280273 -0.05541992 C13.5625 0.1875 13.5625 0.1875 15.5625 2.1875 C15.80541992 4.05102539 15.80541992 4.05102539 15.79296875 6.28515625 C15.79103516 7.08630859 15.78910156 7.88746094 15.78710938 8.71289062 C15.76874023 9.96875977 15.76874023 9.96875977 15.75 11.25 C15.74935547 12.09111328 15.74871094 12.93222656 15.74804688 13.79882812 C15.70273184 20.04726816 15.70273184 20.04726816 14.5625 21.1875 C12.5019469 21.28743532 10.4379741 21.31830906 8.375 21.3203125 C7.11945313 21.32160156 5.86390625 21.32289063 4.5703125 21.32421875 C3.91321289 21.32212402 3.25611328 21.3200293 2.57910156 21.31787109 C0.57088665 21.31252234 -1.43710459 21.31781691 -3.4453125 21.32421875 C-4.70085937 21.32292969 -5.95640625 21.32164062 -7.25 21.3203125 C-8.41144531 21.31918457 -9.57289063 21.31805664 -10.76953125 21.31689453 C-13.4375 21.1875 -13.4375 21.1875 -14.4375 20.1875 C-14.53610131 18.78401265 -14.56828937 17.37569523 -14.5703125 15.96875 C-14.57160156 15.11925781 -14.57289063 14.26976562 -14.57421875 13.39453125 C-14.57035156 12.50121094 -14.56648438 11.60789063 -14.5625 10.6875 C-14.56636719 9.79417969 -14.57023437 8.90085938 -14.57421875 7.98046875 C-14.57292969 7.13097656 -14.57164062 6.28148437 -14.5703125 5.40625 C-14.56918457 4.62185547 -14.56805664 3.83746094 -14.56689453 3.02929688 C-14.19387846 -2.28019985 -3.92397361 0.00199085 0 0 Z " fill="#050505" transform="translate(286.4375,211.8125)"/>
<path d="M0 0 C9.24 0 18.48 0 28 0 C29.13945516 2.27891033 29.12894214 3.56782104 29.1328125 6.09765625 C29.13474609 7.29938477 29.13474609 7.29938477 29.13671875 8.52539062 C29.13285156 9.36263672 29.12898438 10.19988281 29.125 11.0625 C29.13080078 12.32416992 29.13080078 12.32416992 29.13671875 13.61132812 C29.12662682 19.87337318 29.12662682 19.87337318 28 21 C25.92737924 21.08767112 23.85179706 21.10695873 21.77734375 21.09765625 C20.51728516 21.09443359 19.25722656 21.09121094 17.95898438 21.08789062 C16.61848891 21.07953403 15.27799412 21.07106907 13.9375 21.0625 C12.59310058 21.0574866 11.2486994 21.05292342 9.90429688 21.04882812 C6.60282059 21.03699488 3.30143197 21.02050971 0 21 C-1.64072259 17.71855481 -1.14274434 14.10210004 -1.125 10.5 C-1.12886719 9.71496094 -1.13273437 8.92992187 -1.13671875 8.12109375 C-1.12665394 2.25330787 -1.12665394 2.25330787 0 0 Z " fill="#040404" transform="translate(273,240)"/>
<path d="M0 0 C1.26650391 -0.01224609 2.53300781 -0.02449219 3.83789062 -0.03710938 C5.04509766 -0.03904297 6.25230469 -0.04097656 7.49609375 -0.04296875 C9.1675647 -0.04913208 9.1675647 -0.04913208 10.87280273 -0.05541992 C13.5625 0.1875 13.5625 0.1875 15.5625 2.1875 C15.76106972 5.06092061 15.84078946 7.81611988 15.8125 10.6875 C15.82023437 11.47253906 15.82796875 12.25757813 15.8359375 13.06640625 C15.81580787 18.93419213 15.81580787 18.93419213 13.5625 21.1875 C10.87280273 21.43041992 10.87280273 21.43041992 7.49609375 21.41796875 C6.28888672 21.41603516 5.08167969 21.41410156 3.83789062 21.41210938 C2.57138672 21.39986328 1.30488281 21.38761719 0 21.375 C-1.27037109 21.37435547 -2.54074219 21.37371094 -3.84960938 21.37304688 C-13.29739947 21.32760053 -13.29739947 21.32760053 -14.4375 20.1875 C-14.53610131 18.78401265 -14.56828937 17.37569523 -14.5703125 15.96875 C-14.57160156 15.11925781 -14.57289063 14.26976562 -14.57421875 13.39453125 C-14.57035156 12.50121094 -14.56648438 11.60789063 -14.5625 10.6875 C-14.56636719 9.79417969 -14.57023437 8.90085938 -14.57421875 7.98046875 C-14.57292969 7.13097656 -14.57164062 6.28148437 -14.5703125 5.40625 C-14.56918457 4.62185547 -14.56805664 3.83746094 -14.56689453 3.02929688 C-14.19387846 -2.28019985 -3.92397361 0.00199085 0 0 Z " fill="#020202" transform="translate(325.4375,239.8125)"/>
<path d="M0 0 C1.11431396 0.00410889 2.22862793 0.00821777 3.37670898 0.01245117 C4.58391602 0.01438477 5.79112305 0.01631836 7.03491211 0.01831055 C8.30141602 0.03055664 9.56791992 0.04280273 10.87280273 0.05541992 C12.77835938 0.05638672 12.77835938 0.05638672 14.72241211 0.05737305 C24.1702022 0.10281939 24.1702022 0.10281939 25.31030273 1.24291992 C25.40890405 2.64640728 25.4410921 4.05472469 25.44311523 5.46166992 C25.44504883 6.7359082 25.44504883 6.7359082 25.44702148 8.03588867 C25.4431543 8.92920898 25.43928711 9.8225293 25.43530273 10.74291992 C25.44110352 12.08290039 25.44110352 12.08290039 25.44702148 13.44995117 C25.44573242 14.29944336 25.44444336 15.14893555 25.44311523 16.02416992 C25.4419873 16.80856445 25.44085938 17.59295898 25.43969727 18.40112305 C25.31030273 20.24291992 25.31030273 20.24291992 24.31030273 21.24291992 C19.83698315 21.49672226 15.35246813 21.42814713 10.87280273 21.43041992 C9.60629883 21.44266602 8.33979492 21.45491211 7.03491211 21.4675293 C5.82770508 21.46946289 4.62049805 21.47139648 3.37670898 21.47338867 C1.70523804 21.479552 1.70523804 21.479552 0 21.48583984 C-2.68969727 21.24291992 -2.68969727 21.24291992 -4.68969727 19.24291992 C-4.88826698 16.36949931 -4.96798672 13.61430004 -4.93969727 10.74291992 C-4.94743164 9.95788086 -4.95516602 9.1728418 -4.96313477 8.36401367 C-4.93597106 0.44579207 -4.93597106 0.44579207 0 0 Z " fill="#010101" transform="translate(237.689697265625,239.757080078125)"/>
<path d="M0 0 C1.11431396 0.00410889 2.22862793 0.00821777 3.37670898 0.01245117 C4.58391602 0.01438477 5.79112305 0.01631836 7.03491211 0.01831055 C8.30141602 0.03055664 9.56791992 0.04280273 10.87280273 0.05541992 C12.77835938 0.05638672 12.77835938 0.05638672 14.72241211 0.05737305 C24.1702022 0.10281939 24.1702022 0.10281939 25.31030273 1.24291992 C25.40890405 2.64640728 25.4410921 4.05472469 25.44311523 5.46166992 C25.44504883 6.7359082 25.44504883 6.7359082 25.44702148 8.03588867 C25.4431543 8.92920898 25.43928711 9.8225293 25.43530273 10.74291992 C25.44110352 12.08290039 25.44110352 12.08290039 25.44702148 13.44995117 C25.44573242 14.29944336 25.44444336 15.14893555 25.44311523 16.02416992 C25.4419873 16.80856445 25.44085938 17.59295898 25.43969727 18.40112305 C25.31030273 20.24291992 25.31030273 20.24291992 24.31030273 21.24291992 C19.83698315 21.49672226 15.35246813 21.42814713 10.87280273 21.43041992 C9.60629883 21.44266602 8.33979492 21.45491211 7.03491211 21.4675293 C5.82770508 21.46946289 4.62049805 21.47139648 3.37670898 21.47338867 C1.70523804 21.479552 1.70523804 21.479552 0 21.48583984 C-2.68969727 21.24291992 -2.68969727 21.24291992 -4.68969727 19.24291992 C-4.88826698 16.36949931 -4.96798672 13.61430004 -4.93969727 10.74291992 C-4.94743164 9.95788086 -4.95516602 9.1728418 -4.96313477 8.36401367 C-4.93597106 0.44579207 -4.93597106 0.44579207 0 0 Z " fill="#020202" transform="translate(152.689697265625,239.757080078125)"/>
<path d="M0 0 C1.26650391 -0.01224609 2.53300781 -0.02449219 3.83789062 -0.03710938 C5.04509766 -0.03904297 6.25230469 -0.04097656 7.49609375 -0.04296875 C9.1675647 -0.04913208 9.1675647 -0.04913208 10.87280273 -0.05541992 C13.5625 0.1875 13.5625 0.1875 15.5625 2.1875 C15.76106972 5.06092061 15.84078946 7.81611988 15.8125 10.6875 C15.82023437 11.47253906 15.82796875 12.25757813 15.8359375 13.06640625 C15.81580787 18.93419213 15.81580787 18.93419213 13.5625 21.1875 C10.87280273 21.43041992 10.87280273 21.43041992 7.49609375 21.41796875 C6.28888672 21.41603516 5.08167969 21.41410156 3.83789062 21.41210938 C2.57138672 21.39986328 1.30488281 21.38761719 0 21.375 C-1.27037109 21.37435547 -2.54074219 21.37371094 -3.84960938 21.37304688 C-13.29739947 21.32760053 -13.29739947 21.32760053 -14.4375 20.1875 C-14.53610131 18.78401265 -14.56828937 17.37569523 -14.5703125 15.96875 C-14.57160156 15.11925781 -14.57289062 14.26976562 -14.57421875 13.39453125 C-14.57035156 12.50121094 -14.56648438 11.60789063 -14.5625 10.6875 C-14.56636719 9.79417969 -14.57023437 8.90085938 -14.57421875 7.98046875 C-14.57292969 7.13097656 -14.57164063 6.28148437 -14.5703125 5.40625 C-14.56918457 4.62185547 -14.56805664 3.83746094 -14.56689453 3.02929688 C-14.19387846 -2.28019985 -3.92397361 0.00199085 0 0 Z " fill="#040404" transform="translate(122.4375,239.8125)"/>
<path d="M0 0 C1.11431396 0.00410889 2.22862793 0.00821777 3.37670898 0.01245117 C4.58391602 0.01438477 5.79112305 0.01631836 7.03491211 0.01831055 C8.30141602 0.03055664 9.56791992 0.04280273 10.87280273 0.05541992 C12.77835938 0.05638672 12.77835938 0.05638672 14.72241211 0.05737305 C24.1702022 0.10281939 24.1702022 0.10281939 25.31030273 1.24291992 C25.40890405 2.64640728 25.4410921 4.05472469 25.44311523 5.46166992 C25.44504883 6.7359082 25.44504883 6.7359082 25.44702148 8.03588867 C25.4431543 8.92920898 25.43928711 9.8225293 25.43530273 10.74291992 C25.44110352 12.08290039 25.44110352 12.08290039 25.44702148 13.44995117 C25.44573242 14.29944336 25.44444336 15.14893555 25.44311523 16.02416992 C25.4419873 16.80856445 25.44085938 17.59295898 25.43969727 18.40112305 C25.31030273 20.24291992 25.31030273 20.24291992 24.31030273 21.24291992 C19.83698315 21.49672226 15.35246813 21.42814713 10.87280273 21.43041992 C9.60629883 21.44266602 8.33979492 21.45491211 7.03491211 21.4675293 C5.82770508 21.46946289 4.62049805 21.47139648 3.37670898 21.47338867 C1.70523804 21.479552 1.70523804 21.479552 0 21.48583984 C-2.68969727 21.24291992 -2.68969727 21.24291992 -4.68969727 19.24291992 C-4.88826698 16.36949931 -4.96798672 13.61430004 -4.93969727 10.74291992 C-4.94743164 9.95788086 -4.95516602 9.1728418 -4.96313477 8.36401367 C-4.93597106 0.44579207 -4.93597106 0.44579207 0 0 Z " fill="#050505" transform="translate(237.689697265625,211.757080078125)"/>
<path d="M0 0 C1.11431396 0.00410889 2.22862793 0.00821777 3.37670898 0.01245117 C4.58391602 0.01438477 5.79112305 0.01631836 7.03491211 0.01831055 C8.30141602 0.03055664 9.56791992 0.04280273 10.87280273 0.05541992 C12.77835938 0.05638672 12.77835938 0.05638672 14.72241211 0.05737305 C24.1702022 0.10281939 24.1702022 0.10281939 25.31030273 1.24291992 C25.40890405 2.64640728 25.4410921 4.05472469 25.44311523 5.46166992 C25.44504883 6.7359082 25.44504883 6.7359082 25.44702148 8.03588867 C25.4431543 8.92920898 25.43928711 9.8225293 25.43530273 10.74291992 C25.44110352 12.08290039 25.44110352 12.08290039 25.44702148 13.44995117 C25.44573242 14.29944336 25.44444336 15.14893555 25.44311523 16.02416992 C25.4419873 16.80856445 25.44085938 17.59295898 25.43969727 18.40112305 C25.31030273 20.24291992 25.31030273 20.24291992 24.31030273 21.24291992 C19.83698315 21.49672226 15.35246813 21.42814713 10.87280273 21.43041992 C9.60629883 21.44266602 8.33979492 21.45491211 7.03491211 21.4675293 C5.82770508 21.46946289 4.62049805 21.47139648 3.37670898 21.47338867 C1.70523804 21.479552 1.70523804 21.479552 0 21.48583984 C-2.68969727 21.24291992 -2.68969727 21.24291992 -4.68969727 19.24291992 C-4.88826698 16.36949931 -4.96798672 13.61430004 -4.93969727 10.74291992 C-4.94743164 9.95788086 -4.95516602 9.1728418 -4.96313477 8.36401367 C-4.93597106 0.44579207 -4.93597106 0.44579207 0 0 Z " fill="#040404" transform="translate(152.689697265625,211.757080078125)"/>
<path d="M0 0 C1.26650391 -0.01224609 2.53300781 -0.02449219 3.83789062 -0.03710938 C5.04509766 -0.03904297 6.25230469 -0.04097656 7.49609375 -0.04296875 C9.1675647 -0.04913208 9.1675647 -0.04913208 10.87280273 -0.05541992 C13.5625 0.1875 13.5625 0.1875 15.5625 2.1875 C15.76106972 5.06092061 15.84078946 7.81611988 15.8125 10.6875 C15.82023437 11.47253906 15.82796875 12.25757813 15.8359375 13.06640625 C15.81580787 18.93419213 15.81580787 18.93419213 13.5625 21.1875 C10.87280273 21.43041992 10.87280273 21.43041992 7.49609375 21.41796875 C6.28888672 21.41603516 5.08167969 21.41410156 3.83789062 21.41210938 C2.57138672 21.39986328 1.30488281 21.38761719 0 21.375 C-1.27037109 21.37435547 -2.54074219 21.37371094 -3.84960938 21.37304688 C-13.29739947 21.32760053 -13.29739947 21.32760053 -14.4375 20.1875 C-14.53610131 18.78401265 -14.56828937 17.37569523 -14.5703125 15.96875 C-14.57160156 15.11925781 -14.57289062 14.26976562 -14.57421875 13.39453125 C-14.57035156 12.50121094 -14.56648438 11.60789063 -14.5625 10.6875 C-14.56636719 9.79417969 -14.57023437 8.90085938 -14.57421875 7.98046875 C-14.57292969 7.13097656 -14.57164063 6.28148437 -14.5703125 5.40625 C-14.56918457 4.62185547 -14.56805664 3.83746094 -14.56689453 3.02929688 C-14.19387846 -2.28019985 -3.92397361 0.00199085 0 0 Z " fill="#010101" transform="translate(122.4375,211.8125)"/>
<path d="M0 0 C1.26650391 -0.020625 2.53300781 -0.04125 3.83789062 -0.0625 C5.04509766 -0.06765625 6.25230469 -0.0728125 7.49609375 -0.078125 C8.61040771 -0.0874707 9.72472168 -0.09681641 10.87280273 -0.10644531 C11.76040283 0.01118164 12.64800293 0.12880859 13.5625 0.25 C16.06258943 4.00013415 15.85851996 6.97511906 15.8125 11.3125 C15.82023437 12.04533203 15.82796875 12.77816406 15.8359375 13.53320312 C15.81586982 18.99663018 15.81586982 18.99663018 13.5625 21.25 C10.87280273 21.49291992 10.87280273 21.49291992 7.49609375 21.48046875 C6.28888672 21.47853516 5.08167969 21.47660156 3.83789062 21.47460938 C2.57138672 21.46236328 1.30488281 21.45011719 0 21.4375 C-1.27037109 21.43685547 -2.54074219 21.43621094 -3.84960938 21.43554688 C-13.29739947 21.39010053 -13.29739947 21.39010053 -14.4375 20.25 C-14.53610131 18.84651265 -14.56828937 17.43819523 -14.5703125 16.03125 C-14.57160156 15.18175781 -14.57289063 14.33226562 -14.57421875 13.45703125 C-14.57035156 12.56371094 -14.56648438 11.67039063 -14.5625 10.75 C-14.56636719 9.85667969 -14.57023437 8.96335938 -14.57421875 8.04296875 C-14.57292969 7.19347656 -14.57164062 6.34398437 -14.5703125 5.46875 C-14.56918457 4.68435547 -14.56805664 3.89996094 -14.56689453 3.09179688 C-14.1938513 -2.21808635 -3.92760874 0.01594159 0 0 Z " fill="#040404" transform="translate(325.4375,211.75)"/>
<path d="M0 0 C1.26650391 -0.020625 2.53300781 -0.04125 3.83789062 -0.0625 C5.04509766 -0.06765625 6.25230469 -0.0728125 7.49609375 -0.078125 C8.61040771 -0.0874707 9.72472168 -0.09681641 10.87280273 -0.10644531 C11.76040283 0.01118164 12.64800293 0.12880859 13.5625 0.25 C16.06258943 4.00013415 15.85851996 6.97511906 15.8125 11.3125 C15.82023437 12.04533203 15.82796875 12.77816406 15.8359375 13.53320312 C15.81586982 18.99663018 15.81586982 18.99663018 13.5625 21.25 C10.87280273 21.49291992 10.87280273 21.49291992 7.49609375 21.48046875 C6.28888672 21.47853516 5.08167969 21.47660156 3.83789062 21.47460938 C2.57138672 21.46236328 1.30488281 21.45011719 0 21.4375 C-1.27037109 21.43685547 -2.54074219 21.43621094 -3.84960938 21.43554688 C-13.29739947 21.39010053 -13.29739947 21.39010053 -14.4375 20.25 C-14.53610131 18.84651265 -14.56828937 17.43819523 -14.5703125 16.03125 C-14.57160156 15.18175781 -14.57289063 14.33226562 -14.57421875 13.45703125 C-14.57035156 12.56371094 -14.56648437 11.67039063 -14.5625 10.75 C-14.56636719 9.85667969 -14.57023438 8.96335938 -14.57421875 8.04296875 C-14.57292969 7.19347656 -14.57164062 6.34398437 -14.5703125 5.46875 C-14.56918457 4.68435547 -14.56805664 3.89996094 -14.56689453 3.09179688 C-14.1938513 -2.21808635 -3.92760874 0.01594159 0 0 Z " fill="#060606" transform="translate(204.4375,211.75)"/>
<path d="M0 0 C2.68969727 -0.35644531 2.68969727 -0.35644531 6.06640625 -0.328125 C7.27361328 -0.32296875 8.48082031 -0.3178125 9.72460938 -0.3125 C11.62436523 -0.2815625 11.62436523 -0.2815625 13.5625 -0.25 C15.46805664 -0.24226562 15.46805664 -0.24226562 17.41210938 -0.234375 C26.84630222 -0.15369778 26.84630222 -0.15369778 28 1 C28.09860131 2.40348735 28.13078937 3.81180477 28.1328125 5.21875 C28.13474609 6.49298828 28.13474609 6.49298828 28.13671875 7.79296875 C28.13285156 8.68628906 28.12898438 9.57960937 28.125 10.5 C28.13080078 11.83998047 28.13080078 11.83998047 28.13671875 13.20703125 C28.13542969 14.05652344 28.13414062 14.90601563 28.1328125 15.78125 C28.13168457 16.56564453 28.13055664 17.35003906 28.12939453 18.15820312 C28 20 28 20 27 21 C22.52731037 21.281489 18.04299265 21.23181434 13.5625 21.25 C12.29599609 21.270625 11.02949219 21.29125 9.72460938 21.3125 C8.51740234 21.31765625 7.31019531 21.3228125 6.06640625 21.328125 C4.95209229 21.3374707 3.83777832 21.34681641 2.68969727 21.35644531 C1.35829712 21.18000488 1.35829712 21.18000488 0 21 C-2.41564046 17.37653931 -2.29781669 14.68396018 -2.25 10.5 C-2.25773438 9.82324219 -2.26546875 9.14648438 -2.2734375 8.44921875 C-2.25884811 4.75080743 -2.10264442 3.15396663 0 0 Z " fill="#040404" transform="translate(191,240)"/>
<path d="M0 0 C3.74394623 1.80264078 5.55319676 3.36582765 7.9375 6.75 C9.24970514 10.76380395 9.32017027 14.02367877 8 18 C6.16831486 20.9549485 4.1633409 23.41832955 1 25 C-3.05831354 25.51093875 -7.19576657 25.91678528 -10.921875 24.0234375 C-15.15092324 20.61088867 -16.78741497 17.91326526 -17.375 12.625 C-16.8476637 7.52741573 -14.66444332 4.84938147 -11.3125 1.125 C-7.59035564 -0.68577293 -4.05082636 -0.62590893 0 0 Z " fill="#040404" transform="translate(229,363)"/>
<path d="M0 0 C1.05456894 -0.00637985 2.10913788 -0.0127597 3.19566345 -0.01933289 C4.34353836 -0.02044571 5.49141327 -0.02155853 6.67407227 -0.02270508 C7.84430435 -0.02603348 9.01453644 -0.02936188 10.2202301 -0.03279114 C12.70101527 -0.03786542 15.1818073 -0.04019931 17.66259766 -0.04003906 C21.47057271 -0.0422249 25.27825794 -0.06037384 29.08618164 -0.0793457 C31.49047752 -0.08227957 33.89477478 -0.08426441 36.29907227 -0.08520508 C37.44492294 -0.09239059 38.59077362 -0.09957611 39.77134705 -0.10697937 C41.3579287 -0.10236443 41.3579287 -0.10236443 42.9765625 -0.09765625 C43.91064438 -0.09908127 44.84472626 -0.10050629 45.80711365 -0.10197449 C48.05297852 0.14526367 48.05297852 0.14526367 50.05297852 2.14526367 C49.49742296 6.70081923 49.49742296 6.70081923 48.05297852 8.14526367 C46.40653564 8.24916305 44.7556612 8.2837895 43.10595703 8.29052734 C41.52410362 8.30009712 41.52410362 8.30009712 39.91029358 8.30986023 C38.76241867 8.31097305 37.61454376 8.31208588 36.43188477 8.31323242 C35.26165268 8.31656082 34.09142059 8.31988922 32.88572693 8.32331848 C30.40494176 8.32839276 27.92414973 8.33072665 25.44335938 8.33056641 C21.63538432 8.33275225 17.82769909 8.35090119 14.01977539 8.36987305 C11.61547951 8.37280691 9.21118225 8.37479175 6.80688477 8.37573242 C5.08810875 8.3865107 5.08810875 8.3865107 3.33460999 8.39750671 C1.74802834 8.39289177 1.74802834 8.39289177 0.12939453 8.38818359 C-0.80468735 8.38960861 -1.73876923 8.39103363 -2.70115662 8.39250183 C-4.94702148 8.14526367 -4.94702148 8.14526367 -6.94702148 6.14526367 C-6.25900699 0.50354482 -5.50915192 0.02250089 0 0 Z " fill="#020202" transform="translate(291.947021484375,126.854736328125)"/>
<path d="M0 0 C1.0313205 -0.00960754 2.06264099 -0.01921509 3.12521362 -0.02911377 C4.2480777 -0.03336365 5.37094177 -0.03761353 6.52783203 -0.04199219 C7.6734964 -0.04769226 8.81916077 -0.05339233 9.99954224 -0.05926514 C12.42904736 -0.06873222 14.85856542 -0.07525586 17.28808594 -0.07910156 C21.01275958 -0.08880755 24.7368818 -0.11981579 28.46142578 -0.15136719 C30.81689124 -0.15789674 33.17236066 -0.1631474 35.52783203 -0.16699219 C36.64664764 -0.17933899 37.76546326 -0.19168579 38.91818237 -0.20440674 C39.95580719 -0.20140564 40.99343201 -0.19840454 42.0625 -0.1953125 C42.97659637 -0.19895813 43.89069275 -0.20260376 44.83248901 -0.20635986 C47.16064453 0.16113281 47.16064453 0.16113281 48.99490356 1.55059814 C50.16064453 3.16113281 50.16064453 3.16113281 49.91064453 5.28613281 C49.16064453 7.16113281 49.16064453 7.16113281 48.16064453 8.16113281 C46.51420165 8.26503219 44.86332721 8.29965864 43.21362305 8.30639648 C41.63176964 8.31596626 41.63176964 8.31596626 40.01795959 8.32572937 C38.87008469 8.32684219 37.72220978 8.32795502 36.53955078 8.32910156 C35.3693187 8.33242996 34.19908661 8.33575836 32.99339294 8.33918762 C30.51260777 8.3442619 28.03181575 8.34659579 25.55102539 8.34643555 C21.74305034 8.34862139 17.9353651 8.36677033 14.12744141 8.38574219 C11.72314553 8.38867605 9.31884827 8.39066089 6.91455078 8.39160156 C5.19577477 8.40237984 5.19577477 8.40237984 3.442276 8.41337585 C1.85569435 8.40876091 1.85569435 8.40876091 0.23706055 8.40405273 C-0.69702133 8.40547775 -1.63110321 8.40690277 -2.5934906 8.40837097 C-4.83935547 8.16113281 -4.83935547 8.16113281 -6.83935547 6.16113281 C-6.15964747 0.58752725 -5.45030068 0.04078297 0 0 Z " fill="#020202" transform="translate(291.83935546875,141.8388671875)"/>
<path d="M0 0 C17.82 0 35.64 0 54 0 C54 1.98 54 3.96 54 6 C36.18 6 18.36 6 0 6 C0 4.02 0 2.04 0 0 Z " fill="#FCFCFC" transform="translate(241,303)"/>
<path d="M0 0 C2.97 0 5.94 0 9 0 C9 6.93 9 13.86 9 21 C6.03 21 3.06 21 0 21 C0 14.07 0 7.14 0 0 Z " fill="#FEFEFE" transform="translate(310,165)"/>
<path d="M0 0 C4.95 0 9.9 0 15 0 C15 2.31 15 4.62 15 7 C10.05 7 5.1 7 0 7 C0 4.69 0 2.38 0 0 Z " fill="#EBEBEB" transform="translate(115,275)"/>
<path d="M0 0 C4.95 0 9.9 0 15 0 C15 2.31 15 4.62 15 7 C10.05 7 5.1 7 0 7 C0 4.69 0 2.38 0 0 Z " fill="#EBEBEB" transform="translate(197,247)"/>
<path d="M0 0 C4.95 0 9.9 0 15 0 C15 2.31 15 4.62 15 7 C10.05 7 5.1 7 0 7 C0 4.69 0 2.38 0 0 Z " fill="#ECECEC" transform="translate(156,247)"/>
<path d="M0 0 C2.31243792 -0.02685412 4.6249627 -0.04632841 6.9375 -0.0625 C8.22527344 -0.07410156 9.51304687 -0.08570313 10.83984375 -0.09765625 C14 0 14 0 15 1 C15 2.98 15 4.96 15 7 C10.05 7 5.1 7 0 7 C0 4.69 0 2.38 0 0 Z " fill="#E6E6E6" transform="translate(241,247)"/>
<path d="M0 0 C1.93166016 0.01740234 1.93166016 0.01740234 3.90234375 0.03515625 C5.19269531 0.04417969 6.48304687 0.05320313 7.8125 0.0625 C8.81152344 0.07410156 9.81054688 0.08570313 10.83984375 0.09765625 C10.83984375 2.40765625 10.83984375 4.71765625 10.83984375 7.09765625 C5.88984375 7.09765625 0.93984375 7.09765625 -4.16015625 7.09765625 C-4.16015625 0.1285586 -4.16015625 0.1285586 0 0 Z " fill="#E7E7E7" transform="translate(119.16015625,218.90234375)"/>
<path d="M0 0 C1.93166016 0.01740234 1.93166016 0.01740234 3.90234375 0.03515625 C5.19269531 0.04417969 6.48304688 0.05320313 7.8125 0.0625 C8.81152344 0.07410156 9.81054688 0.08570313 10.83984375 0.09765625 C10.83984375 2.40765625 10.83984375 4.71765625 10.83984375 7.09765625 C8.52740583 7.12451037 6.21488105 7.14398466 3.90234375 7.16015625 C2.61457031 7.17175781 1.32679688 7.18335938 0 7.1953125 C-3.16015625 7.09765625 -3.16015625 7.09765625 -4.16015625 6.09765625 C-4.28515625 3.59765625 -4.28515625 3.59765625 -4.16015625 1.09765625 C-3.16015625 0.09765625 -3.16015625 0.09765625 0 0 Z " fill="#E7E7E7" transform="translate(322.16015625,246.90234375)"/>
<path d="M0 0 C4.62 0 9.24 0 14 0 C14 2.31 14 4.62 14 7 C9.38 7 4.76 7 0 7 C0 4.69 0 2.38 0 0 Z " fill="#EFEFEF" transform="translate(280,247)"/>
<path d="M0 0 C4.95 0 9.9 0 15 0 C15 1.98 15 3.96 15 6 C10.05 6 5.1 6 0 6 C0 4.02 0 2.04 0 0 Z " fill="#FBFBFB" transform="translate(318,303)"/>
<path d="M0 0 C4.95 0 9.9 0 15 0 C15 1.98 15 3.96 15 6 C10.05 6 5.1 6 0 6 C0 4.02 0 2.04 0 0 Z " fill="#FDFDFD" transform="translate(197,303)"/>
<path d="M0 0 C4.95 0 9.9 0 15 0 C15 1.98 15 3.96 15 6 C10.05 6 5.1 6 0 6 C0 4.02 0 2.04 0 0 Z " fill="#FAFAFA" transform="translate(156,303)"/>
<path d="M0 0 C4.95 0 9.9 0 15 0 C15 1.98 15 3.96 15 6 C10.05 6 5.1 6 0 6 C0 4.02 0 2.04 0 0 Z " fill="#F4F4F4" transform="translate(115,303)"/>
<path d="M0 0 C4.95 0 9.9 0 15 0 C15 1.98 15 3.96 15 6 C10.05 6 5.1 6 0 6 C0 4.02 0 2.04 0 0 Z " fill="#F8F8F8" transform="translate(318,275)"/>
<path d="M0 0 C4.95 0 9.9 0 15 0 C15 1.98 15 3.96 15 6 C10.05 6 5.1 6 0 6 C0 4.02 0 2.04 0 0 Z " fill="#FCFCFC" transform="translate(197,275)"/>
<path d="M0 0 C4.95 0 9.9 0 15 0 C15 1.98 15 3.96 15 6 C10.05 6 5.1 6 0 6 C0 4.02 0 2.04 0 0 Z " fill="#FBFBFB" transform="translate(156,275)"/>
<path d="M0 0 C4.95 0 9.9 0 15 0 C15 1.98 15 3.96 15 6 C10.05 6 5.1 6 0 6 C0 4.02 0 2.04 0 0 Z " fill="#F4F4F4" transform="translate(115,248)"/>
<path d="M0 0 C4.95 0 9.9 0 15 0 C15 1.98 15 3.96 15 6 C10.05 6 5.1 6 0 6 C0 4.02 0 2.04 0 0 Z " fill="#FAFAFA" transform="translate(318,220)"/>
<path d="M0 0 C4.95 0 9.9 0 15 0 C15 1.98 15 3.96 15 6 C10.05 6 5.1 6 0 6 C0 4.02 0 2.04 0 0 Z " fill="#F8F8F8" transform="translate(279,220)"/>
<path d="M0 0 C4.95 0 9.9 0 15 0 C15 1.98 15 3.96 15 6 C10.05 6 5.1 6 0 6 C0 4.02 0 2.04 0 0 Z " fill="#FAFAFA" transform="translate(241,220)"/>
<path d="M0 0 C4.95 0 9.9 0 15 0 C15 1.98 15 3.96 15 6 C10.05 6 5.1 6 0 6 C0 4.02 0 2.04 0 0 Z " fill="#FDFDFD" transform="translate(197,220)"/>
<path d="M0 0 C4.95 0 9.9 0 15 0 C15 1.98 15 3.96 15 6 C10.05 6 5.1 6 0 6 C0 4.02 0 2.04 0 0 Z " fill="#FCFCFC" transform="translate(156,220)"/>
<path d="M0 0 C4.62 0 9.24 0 14 0 C14 1.98 14 3.96 14 6 C9.38 6 4.76 6 0 6 C0 4.02 0 2.04 0 0 Z " fill="#FEFEFE" transform="translate(280,275)"/>
<path d="M0 0 C4.62 0 9.24 0 14 0 C14 1.98 14 3.96 14 6 C9.38 6 4.76 6 0 6 C0 4.02 0 2.04 0 0 Z " fill="#FDFDFD" transform="translate(241,275)"/>
<path d="M0 0 C0.99 0.103125 1.98 0.20625 3 0.3125 C5 3.3125 5 3.3125 4.75 5.875 C4 8.3125 4 8.3125 2 10.3125 C-1.29714793 9.98278521 -2.6226839 9.6898161 -5 7.3125 C-5.25 4.8125 -5.25 4.8125 -5 2.3125 C-3 0.3125 -3 0.3125 0 0 Z " fill="#F5F5F5" transform="translate(225,370.6875)"/>
</svg>
