<?xml version="1.0" encoding="UTF-8"?>
<svg version="1.1" xmlns="http://www.w3.org/2000/svg" width="1080" height="1080">
<path d="M0 0 C356.4 0 712.8 0 1080 0 C1080 356.4 1080 712.8 1080 1080 C723.6 1080 367.2 1080 0 1080 C0 723.6 0 367.2 0 0 Z " fill="#FEFEFE" transform="translate(0,0)"/>
<path d="M0 0 C1.04994141 -0.01836914 1.04994141 -0.01836914 2.12109375 -0.03710938 C6.86662443 -0.05031586 10.82521115 0.69362426 15.375 2.1875 C16.70630115 2.52885927 18.03858148 2.86675956 19.375 3.1875 C19.375 3.8475 19.375 4.5075 19.375 5.1875 C20.365 5.1875 21.355 5.1875 22.375 5.1875 C22.375 5.8475 22.375 6.5075 22.375 7.1875 C25.675 7.8475 28.975 8.5075 32.375 9.1875 C32.705 10.5075 33.035 11.8275 33.375 13.1875 C34.1175 13.249375 34.86 13.31125 35.625 13.375 C39.24629113 14.44492693 40.36212115 16.05635512 42.375 19.1875 C42.375 20.1775 42.375 21.1675 42.375 22.1875 C43.365 22.5175 44.355 22.8475 45.375 23.1875 C45.375 23.8475 45.375 24.5075 45.375 25.1875 C46.035 25.1875 46.695 25.1875 47.375 25.1875 C47.705 26.8375 48.035 28.4875 48.375 30.1875 C49.035 30.1875 49.695 30.1875 50.375 30.1875 C50.705 32.4975 51.035 34.8075 51.375 37.1875 C52.035 37.1875 52.695 37.1875 53.375 37.1875 C53.705 39.8275 54.035 42.4675 54.375 45.1875 C55.48587227 45.18416908 55.48587227 45.18416908 56.6191864 45.18077087 C63.60779352 45.16071109 70.59639631 45.14549686 77.58502483 45.13568783 C81.17770811 45.13047535 84.77036755 45.12340743 88.36303711 45.11206055 C91.83192491 45.10117351 95.30078981 45.09521084 98.76969337 45.09262276 C100.73332602 45.08988336 102.69694948 45.08208056 104.66056824 45.07420349 C106.46186943 45.07409019 106.46186943 45.07409019 108.29956055 45.07397461 C109.35435104 45.071754 110.40914154 45.06953339 111.49589539 45.06724548 C114.23147287 45.18150515 116.71262934 45.56857618 119.375 46.1875 C119.705 47.5075 120.035 48.8275 120.375 50.1875 C121.32375 50.331875 122.2725 50.47625 123.25 50.625 C126.375 51.1875 126.375 51.1875 128.375 52.1875 C128.375 52.8475 128.375 53.5075 128.375 54.1875 C129.365 54.5175 130.355 54.8475 131.375 55.1875 C131.375 55.8475 131.375 56.5075 131.375 57.1875 C132.035 57.1875 132.695 57.1875 133.375 57.1875 C134.9375 58.1875 134.9375 58.1875 136.375 60.1875 C136.93505673 62.8662619 137.15054153 65.44910661 137.375 68.1875 C138.035 68.1875 138.695 68.1875 139.375 68.1875 C139.375 70.8275 139.375 73.4675 139.375 76.1875 C140.29519283 76.18473462 140.29519283 76.18473462 141.23397541 76.18191338 C156.20077043 76.13763328 171.16754517 76.10459446 186.13438892 76.08387566 C193.37241286 76.07358841 200.61039291 76.05957721 207.84838867 76.03662109 C214.16127243 76.01660872 220.47412438 76.00376505 226.78703898 75.99932301 C230.12583969 75.99672882 233.46447782 75.98961588 236.80326271 75.97603989 C240.54182881 75.96144774 244.28020868 75.95952531 248.01879883 75.96044922 C249.11069016 75.95325867 250.20258148 75.94606812 251.32756042 75.93865967 C258.21243568 75.95697961 264.64771782 76.72213311 271.375 78.1875 C271.705 79.5075 272.035 80.8275 272.375 82.1875 C274.85 82.6825 274.85 82.6825 277.375 83.1875 C277.375 83.8475 277.375 84.5075 277.375 85.1875 C278.695 85.5175 280.015 85.8475 281.375 86.1875 C281.375 86.8475 281.375 87.5075 281.375 88.1875 C282.035 88.1875 282.695 88.1875 283.375 88.1875 C283.705 89.1775 284.035 90.1675 284.375 91.1875 C285.035 91.5175 285.695 91.8475 286.375 92.1875 C286.375 93.1775 286.375 94.1675 286.375 95.1875 C287.035 95.1875 287.695 95.1875 288.375 95.1875 C288.705 97.8275 289.035 100.4675 289.375 103.1875 C290.035 103.1875 290.695 103.1875 291.375 103.1875 C291.42640615 166.77375206 291.47410628 230.36000659 291.50202942 293.9462738 C291.50244359 294.88701208 291.50285776 295.82775036 291.50328448 296.79699586 C291.51226271 317.24059673 291.52057332 337.68419783 291.52819599 358.12779925 C291.53193808 368.15298926 291.53582773 378.17817921 291.53979492 388.20336914 C291.5401872 389.20100875 291.54057948 390.19864835 291.54098364 391.22651946 C291.55377313 423.57680811 291.57631113 455.92708106 291.60389166 488.27736019 C291.6321772 521.51484246 291.65065349 554.75231603 291.65674497 587.98981013 C291.65760947 592.68179969 291.65858638 597.37378921 291.65963173 602.06577873 C291.659834 602.98925129 291.66003627 603.91272385 291.66024467 604.86418043 C291.66379311 619.74386 291.67771617 634.62351274 291.6954961 649.50318135 C291.71313999 664.45359674 291.71990841 679.40398546 291.71550413 694.35441089 C291.71321827 703.24233898 291.71934237 712.13016966 291.73739263 721.01808019 C291.74862186 726.95145232 291.74900541 732.88476048 291.74049544 738.81813698 C291.73595573 742.20136616 291.73785049 745.58426053 291.74964955 748.96749467 C291.76161781 752.60974744 291.75524273 756.25151691 291.74414349 759.89376163 C291.75202453 760.94707529 291.75990557 762.00038895 291.76802543 763.08562121 C291.72772138 768.90388976 291.1053152 773.0221271 288.375 778.1875 C287.715 778.1875 287.055 778.1875 286.375 778.1875 C286.045 779.8375 285.715 781.4875 285.375 783.1875 C284.4159375 783.3421875 284.4159375 783.3421875 283.4375 783.5 C282.756875 783.726875 282.07625 783.95375 281.375 784.1875 C281.045 785.1775 280.715 786.1675 280.375 787.1875 C279.715 787.1875 279.055 787.1875 278.375 787.1875 C278.045 788.5075 277.715 789.8275 277.375 791.1875 C275.725 791.5175 274.075 791.8475 272.375 792.1875 C272.375 792.8475 272.375 793.5075 272.375 794.1875 C270.065 794.5175 267.755 794.8475 265.375 795.1875 C265.375 795.8475 265.375 796.5075 265.375 797.1875 C90.145 797.1875 -85.085 797.1875 -265.625 797.1875 C-265.625 796.5275 -265.625 795.8675 -265.625 795.1875 C-266.615 795.1875 -267.605 795.1875 -268.625 795.1875 C-268.625 794.5275 -268.625 793.8675 -268.625 793.1875 C-270.935 792.8575 -273.245 792.5275 -275.625 792.1875 C-275.625 791.5275 -275.625 790.8675 -275.625 790.1875 C-276.945 789.8575 -278.265 789.5275 -279.625 789.1875 C-279.625 788.5275 -279.625 787.8675 -279.625 787.1875 C-280.615 786.8575 -281.605 786.5275 -282.625 786.1875 C-282.625 785.5275 -282.625 784.8675 -282.625 784.1875 C-283.615 783.8575 -284.605 783.5275 -285.625 783.1875 C-285.625 782.1975 -285.625 781.2075 -285.625 780.1875 C-286.285 780.1875 -286.945 780.1875 -287.625 780.1875 C-287.955 778.5375 -288.285 776.8875 -288.625 775.1875 C-289.285 775.1875 -289.945 775.1875 -290.625 775.1875 C-291.84394421 769.47675311 -291.76499324 763.87328159 -291.75363445 758.06480408 C-291.75538749 756.93522172 -291.75714053 755.80563936 -291.75894669 754.64182723 C-291.76361953 750.8353434 -291.76113788 747.02889756 -291.75871277 743.22241211 C-291.76002794 740.47439186 -291.76284048 737.7263736 -291.76557809 734.97835445 C-291.77073353 728.99256503 -291.77214904 723.0067837 -291.77112198 717.02099228 C-291.76959843 708.12000153 -291.7737557 699.21901975 -291.7789966 690.31803074 C-291.78867361 673.49764774 -291.79148096 656.67726779 -291.79205366 639.85688233 C-291.79251293 626.87080473 -291.79456983 613.88472833 -291.79775429 600.89865112 C-291.7986518 597.16278172 -291.79954162 593.42691231 -291.80042917 589.6910429 C-291.80065021 588.76234438 -291.80087126 587.83364587 -291.80109901 586.87680497 C-291.80725407 560.75078127 -291.81119948 534.62475798 -291.81075573 508.49873352 C-291.81074015 507.51349599 -291.81072457 506.52825847 -291.81070852 505.51316526 C-291.81062541 500.51937617 -291.81052637 495.52558709 -291.81042381 490.53179801 C-291.81040387 489.53998141 -291.81038392 488.54816482 -291.81036337 487.52629317 C-291.81032294 485.52059917 -291.81028114 483.51490517 -291.81023798 481.50921117 C-291.80962499 450.2916179 -291.81713589 419.07403548 -291.83081055 387.85644531 C-291.84616085 352.79894806 -291.85477743 317.74145793 -291.85384732 282.6839571 C-291.85377269 278.94808769 -291.85372399 275.21221829 -291.85369301 271.47634888 C-291.85368135 270.5564542 -291.8536697 269.63655952 -291.85365769 268.68878924 C-291.85362688 253.86690012 -291.86002045 239.0450204 -291.86862527 224.22313407 C-291.87708933 209.33620118 -291.87810148 194.44928209 -291.87151595 179.56234813 C-291.86781218 170.71197229 -291.86967726 161.8616383 -291.87945829 153.01126687 C-291.88543624 147.10440905 -291.8841873 141.1975817 -291.87698779 135.29072531 C-291.87308775 131.92198254 -291.8734775 128.55338767 -291.88044515 125.18463981 C-291.88744902 121.55974945 -291.88225587 117.93507854 -291.87388897 114.31019592 C-291.87885715 113.25917903 -291.88382533 112.20816213 -291.88894406 111.12529624 C-291.86407718 106.06587041 -291.62373065 101.92325918 -289.625 97.1875 C-289.295 96.259375 -288.965 95.33125 -288.625 94.375 C-287.625 92.1875 -287.625 92.1875 -285.625 91.1875 C-285.295 90.1975 -284.965 89.2075 -284.625 88.1875 C-283.965 88.1875 -283.305 88.1875 -282.625 88.1875 C-282.625 87.5275 -282.625 86.8675 -282.625 86.1875 C-280.74430017 83.5754169 -279.64964205 83.19281495 -276.4375 82.5 C-275.509375 82.396875 -274.58125 82.29375 -273.625 82.1875 C-273.625 81.5275 -273.625 80.8675 -273.625 80.1875 C-272.965 80.1875 -272.305 80.1875 -271.625 80.1875 C-271.625 79.5275 -271.625 78.8675 -271.625 78.1875 C-266.675 77.6925 -266.675 77.6925 -261.625 77.1875 C-261.625 76.5275 -261.625 75.8675 -261.625 75.1875 C-221.695 75.1875 -181.765 75.1875 -140.625 75.1875 C-140.625 73.2075 -140.625 71.2275 -140.625 69.1875 C-139.965 69.1875 -139.305 69.1875 -138.625 69.1875 C-138.625 67.8675 -138.625 66.5475 -138.625 65.1875 C-137.965 65.1875 -137.305 65.1875 -136.625 65.1875 C-136.295 63.2075 -135.965 61.2275 -135.625 59.1875 C-134.965 59.1875 -134.305 59.1875 -133.625 59.1875 C-133.563125 58.61 -133.50125 58.0325 -133.4375 57.4375 C-132.28299152 54.24039959 -130.40952021 53.0438468 -127.625 51.1875 C-126.635 51.1875 -125.645 51.1875 -124.625 51.1875 C-124.625 50.5275 -124.625 49.8675 -124.625 49.1875 C-121.655 48.6925 -121.655 48.6925 -118.625 48.1875 C-118.625 47.5275 -118.625 46.8675 -118.625 46.1875 C-114.86861695 45.31425009 -111.40243868 45.06586329 -107.54956055 45.07397461 C-106.34869308 45.07405014 -105.14782562 45.07412567 -103.91056824 45.07420349 C-101.98063774 45.08194542 -101.98063774 45.08194542 -100.01171875 45.08984375 C-98.67365064 45.09171044 -97.33558185 45.09313316 -95.99751282 45.09413147 C-92.4876413 45.09793686 -88.97781161 45.10775012 -85.46795654 45.11883545 C-81.88163824 45.12909223 -78.29531314 45.13363821 -74.70898438 45.13867188 C-67.68097247 45.14937428 -60.65298825 45.16642679 -53.625 45.1875 C-53.56441406 44.42824219 -53.50382813 43.66898438 -53.44140625 42.88671875 C-53.35761719 41.89285156 -53.27382813 40.89898437 -53.1875 39.875 C-53.06568359 38.39580078 -53.06568359 38.39580078 -52.94140625 36.88671875 C-52.625 34.1875 -52.625 34.1875 -51.625 31.1875 C-50.965 31.1875 -50.305 31.1875 -49.625 31.1875 C-49.563125 30.48625 -49.50125 29.785 -49.4375 29.0625 C-47.79362494 23.24571132 -43.27147246 19.73349214 -38.625 16.1875 C-38.08875 15.61 -37.5525 15.0325 -37 14.4375 C-35.625 13.1875 -35.625 13.1875 -32.625 13.1875 C-32.295 11.8675 -31.965 10.5475 -31.625 9.1875 C-29.975 8.8575 -28.325 8.5275 -26.625 8.1875 C-26.625 7.5275 -26.625 6.8675 -26.625 6.1875 C-23.985 5.8575 -21.345 5.5275 -18.625 5.1875 C-18.625 4.5275 -18.625 3.8675 -18.625 3.1875 C-17.55958984 2.98833984 -17.55958984 2.98833984 -16.47265625 2.78515625 C-15.55355469 2.60855469 -14.63445312 2.43195313 -13.6875 2.25 C-12.77097656 2.07597656 -11.85445312 1.90195313 -10.91015625 1.72265625 C-3.5678668 0.00317992 -3.5678668 0.00317992 0 0 Z " fill="#FDFDFD" transform="translate(526.625,126.8125)"/>
<path d="M0 0 C1.04994141 -0.01836914 1.04994141 -0.01836914 2.12109375 -0.03710938 C6.86662443 -0.05031586 10.82521115 0.69362426 15.375 2.1875 C16.70630115 2.52885927 18.03858148 2.86675956 19.375 3.1875 C19.375 3.8475 19.375 4.5075 19.375 5.1875 C20.365 5.1875 21.355 5.1875 22.375 5.1875 C22.375 5.8475 22.375 6.5075 22.375 7.1875 C25.675 7.8475 28.975 8.5075 32.375 9.1875 C32.705 10.5075 33.035 11.8275 33.375 13.1875 C34.1175 13.249375 34.86 13.31125 35.625 13.375 C39.24629113 14.44492693 40.36212115 16.05635512 42.375 19.1875 C42.375 20.1775 42.375 21.1675 42.375 22.1875 C43.365 22.5175 44.355 22.8475 45.375 23.1875 C45.375 23.8475 45.375 24.5075 45.375 25.1875 C46.035 25.1875 46.695 25.1875 47.375 25.1875 C47.705 26.8375 48.035 28.4875 48.375 30.1875 C49.035 30.1875 49.695 30.1875 50.375 30.1875 C50.705 32.4975 51.035 34.8075 51.375 37.1875 C52.035 37.1875 52.695 37.1875 53.375 37.1875 C53.705 39.8275 54.035 42.4675 54.375 45.1875 C55.48587227 45.18416908 55.48587227 45.18416908 56.6191864 45.18077087 C63.60779352 45.16071109 70.59639631 45.14549686 77.58502483 45.13568783 C81.17770811 45.13047535 84.77036755 45.12340743 88.36303711 45.11206055 C91.83192491 45.10117351 95.30078981 45.09521084 98.76969337 45.09262276 C100.73332602 45.08988336 102.69694948 45.08208056 104.66056824 45.07420349 C106.46186943 45.07409019 106.46186943 45.07409019 108.29956055 45.07397461 C109.35435104 45.071754 110.40914154 45.06953339 111.49589539 45.06724548 C114.23147287 45.18150515 116.71262934 45.56857618 119.375 46.1875 C119.705 47.5075 120.035 48.8275 120.375 50.1875 C121.32375 50.331875 122.2725 50.47625 123.25 50.625 C126.375 51.1875 126.375 51.1875 128.375 52.1875 C128.375 52.8475 128.375 53.5075 128.375 54.1875 C129.365 54.5175 130.355 54.8475 131.375 55.1875 C131.375 55.8475 131.375 56.5075 131.375 57.1875 C132.035 57.1875 132.695 57.1875 133.375 57.1875 C134.9375 58.1875 134.9375 58.1875 136.375 60.1875 C136.93505673 62.8662619 137.15054153 65.44910661 137.375 68.1875 C138.035 68.1875 138.695 68.1875 139.375 68.1875 C139.375 70.8275 139.375 73.4675 139.375 76.1875 C140.29519283 76.18473462 140.29519283 76.18473462 141.23397541 76.18191338 C156.20077043 76.13763328 171.16754517 76.10459446 186.13438892 76.08387566 C193.37241286 76.07358841 200.61039291 76.05957721 207.84838867 76.03662109 C214.16127243 76.01660872 220.47412438 76.00376505 226.78703898 75.99932301 C230.12583969 75.99672882 233.46447782 75.98961588 236.80326271 75.97603989 C240.54182881 75.96144774 244.28020868 75.95952531 248.01879883 75.96044922 C249.11069016 75.95325867 250.20258148 75.94606812 251.32756042 75.93865967 C258.21243568 75.95697961 264.64771782 76.72213311 271.375 78.1875 C271.705 79.5075 272.035 80.8275 272.375 82.1875 C274.85 82.6825 274.85 82.6825 277.375 83.1875 C277.375 83.8475 277.375 84.5075 277.375 85.1875 C278.695 85.5175 280.015 85.8475 281.375 86.1875 C281.375 86.8475 281.375 87.5075 281.375 88.1875 C282.035 88.1875 282.695 88.1875 283.375 88.1875 C283.705 89.1775 284.035 90.1675 284.375 91.1875 C285.035 91.5175 285.695 91.8475 286.375 92.1875 C286.375 93.1775 286.375 94.1675 286.375 95.1875 C287.035 95.1875 287.695 95.1875 288.375 95.1875 C288.705 97.8275 289.035 100.4675 289.375 103.1875 C290.035 103.1875 290.695 103.1875 291.375 103.1875 C291.42640615 166.77375206 291.47410628 230.36000659 291.50202942 293.9462738 C291.50244359 294.88701208 291.50285776 295.82775036 291.50328448 296.79699586 C291.51226271 317.24059673 291.52057332 337.68419783 291.52819599 358.12779925 C291.53193808 368.15298926 291.53582773 378.17817921 291.53979492 388.20336914 C291.5401872 389.20100875 291.54057948 390.19864835 291.54098364 391.22651946 C291.55377313 423.57680811 291.57631113 455.92708106 291.60389166 488.27736019 C291.6321772 521.51484246 291.65065349 554.75231603 291.65674497 587.98981013 C291.65760947 592.68179969 291.65858638 597.37378921 291.65963173 602.06577873 C291.659834 602.98925129 291.66003627 603.91272385 291.66024467 604.86418043 C291.66379311 619.74386 291.67771617 634.62351274 291.6954961 649.50318135 C291.71313999 664.45359674 291.71990841 679.40398546 291.71550413 694.35441089 C291.71321827 703.24233898 291.71934237 712.13016966 291.73739263 721.01808019 C291.74862186 726.95145232 291.74900541 732.88476048 291.74049544 738.81813698 C291.73595573 742.20136616 291.73785049 745.58426053 291.74964955 748.96749467 C291.76161781 752.60974744 291.75524273 756.25151691 291.74414349 759.89376163 C291.75202453 760.94707529 291.75990557 762.00038895 291.76802543 763.08562121 C291.72772138 768.90388976 291.1053152 773.0221271 288.375 778.1875 C287.715 778.1875 287.055 778.1875 286.375 778.1875 C286.045 779.8375 285.715 781.4875 285.375 783.1875 C284.4159375 783.3421875 284.4159375 783.3421875 283.4375 783.5 C282.756875 783.726875 282.07625 783.95375 281.375 784.1875 C281.045 785.1775 280.715 786.1675 280.375 787.1875 C279.715 787.1875 279.055 787.1875 278.375 787.1875 C278.045 788.5075 277.715 789.8275 277.375 791.1875 C275.725 791.5175 274.075 791.8475 272.375 792.1875 C272.375 792.8475 272.375 793.5075 272.375 794.1875 C270.065 794.5175 267.755 794.8475 265.375 795.1875 C265.375 795.8475 265.375 796.5075 265.375 797.1875 C90.145 797.1875 -85.085 797.1875 -265.625 797.1875 C-265.625 796.5275 -265.625 795.8675 -265.625 795.1875 C-266.615 795.1875 -267.605 795.1875 -268.625 795.1875 C-268.625 794.5275 -268.625 793.8675 -268.625 793.1875 C-270.935 792.8575 -273.245 792.5275 -275.625 792.1875 C-275.625 791.5275 -275.625 790.8675 -275.625 790.1875 C-276.945 789.8575 -278.265 789.5275 -279.625 789.1875 C-279.625 788.5275 -279.625 787.8675 -279.625 787.1875 C-280.615 786.8575 -281.605 786.5275 -282.625 786.1875 C-282.625 785.5275 -282.625 784.8675 -282.625 784.1875 C-283.615 783.8575 -284.605 783.5275 -285.625 783.1875 C-285.625 782.1975 -285.625 781.2075 -285.625 780.1875 C-286.285 780.1875 -286.945 780.1875 -287.625 780.1875 C-287.955 778.5375 -288.285 776.8875 -288.625 775.1875 C-289.285 775.1875 -289.945 775.1875 -290.625 775.1875 C-291.84394421 769.47675311 -291.76499324 763.87328159 -291.75363445 758.06480408 C-291.75538749 756.93522172 -291.75714053 755.80563936 -291.75894669 754.64182723 C-291.76361953 750.8353434 -291.76113788 747.02889756 -291.75871277 743.22241211 C-291.76002794 740.47439186 -291.76284048 737.7263736 -291.76557809 734.97835445 C-291.77073353 728.99256503 -291.77214904 723.0067837 -291.77112198 717.02099228 C-291.76959843 708.12000153 -291.7737557 699.21901975 -291.7789966 690.31803074 C-291.78867361 673.49764774 -291.79148096 656.67726779 -291.79205366 639.85688233 C-291.79251293 626.87080473 -291.79456983 613.88472833 -291.79775429 600.89865112 C-291.7986518 597.16278172 -291.79954162 593.42691231 -291.80042917 589.6910429 C-291.80065021 588.76234438 -291.80087126 587.83364587 -291.80109901 586.87680497 C-291.80725407 560.75078127 -291.81119948 534.62475798 -291.81075573 508.49873352 C-291.81074015 507.51349599 -291.81072457 506.52825847 -291.81070852 505.51316526 C-291.81062541 500.51937617 -291.81052637 495.52558709 -291.81042381 490.53179801 C-291.81040387 489.53998141 -291.81038392 488.54816482 -291.81036337 487.52629317 C-291.81032294 485.52059917 -291.81028114 483.51490517 -291.81023798 481.50921117 C-291.80962499 450.2916179 -291.81713589 419.07403548 -291.83081055 387.85644531 C-291.84616085 352.79894806 -291.85477743 317.74145793 -291.85384732 282.6839571 C-291.85377269 278.94808769 -291.85372399 275.21221829 -291.85369301 271.47634888 C-291.85368135 270.5564542 -291.8536697 269.63655952 -291.85365769 268.68878924 C-291.85362688 253.86690012 -291.86002045 239.0450204 -291.86862527 224.22313407 C-291.87708933 209.33620118 -291.87810148 194.44928209 -291.87151595 179.56234813 C-291.86781218 170.71197229 -291.86967726 161.8616383 -291.87945829 153.01126687 C-291.88543624 147.10440905 -291.8841873 141.1975817 -291.87698779 135.29072531 C-291.87308775 131.92198254 -291.8734775 128.55338767 -291.88044515 125.18463981 C-291.88744902 121.55974945 -291.88225587 117.93507854 -291.87388897 114.31019592 C-291.87885715 113.25917903 -291.88382533 112.20816213 -291.88894406 111.12529624 C-291.86407718 106.06587041 -291.62373065 101.92325918 -289.625 97.1875 C-289.295 96.259375 -288.965 95.33125 -288.625 94.375 C-287.625 92.1875 -287.625 92.1875 -285.625 91.1875 C-285.295 90.1975 -284.965 89.2075 -284.625 88.1875 C-283.965 88.1875 -283.305 88.1875 -282.625 88.1875 C-282.625 87.5275 -282.625 86.8675 -282.625 86.1875 C-280.74430017 83.5754169 -279.64964205 83.19281495 -276.4375 82.5 C-275.509375 82.396875 -274.58125 82.29375 -273.625 82.1875 C-273.625 81.5275 -273.625 80.8675 -273.625 80.1875 C-272.965 80.1875 -272.305 80.1875 -271.625 80.1875 C-271.625 79.5275 -271.625 78.8675 -271.625 78.1875 C-266.675 77.6925 -266.675 77.6925 -261.625 77.1875 C-261.625 76.5275 -261.625 75.8675 -261.625 75.1875 C-221.695 75.1875 -181.765 75.1875 -140.625 75.1875 C-140.625 73.2075 -140.625 71.2275 -140.625 69.1875 C-139.965 69.1875 -139.305 69.1875 -138.625 69.1875 C-138.625 67.8675 -138.625 66.5475 -138.625 65.1875 C-137.965 65.1875 -137.305 65.1875 -136.625 65.1875 C-136.295 63.2075 -135.965 61.2275 -135.625 59.1875 C-134.965 59.1875 -134.305 59.1875 -133.625 59.1875 C-133.563125 58.61 -133.50125 58.0325 -133.4375 57.4375 C-132.28299152 54.24039959 -130.40952021 53.0438468 -127.625 51.1875 C-126.635 51.1875 -125.645 51.1875 -124.625 51.1875 C-124.625 50.5275 -124.625 49.8675 -124.625 49.1875 C-121.655 48.6925 -121.655 48.6925 -118.625 48.1875 C-118.625 47.5275 -118.625 46.8675 -118.625 46.1875 C-114.86861695 45.31425009 -111.40243868 45.06586329 -107.54956055 45.07397461 C-106.34869308 45.07405014 -105.14782562 45.07412567 -103.91056824 45.07420349 C-101.98063774 45.08194542 -101.98063774 45.08194542 -100.01171875 45.08984375 C-98.67365064 45.09171044 -97.33558185 45.09313316 -95.99751282 45.09413147 C-92.4876413 45.09793686 -88.97781161 45.10775012 -85.46795654 45.11883545 C-81.88163824 45.12909223 -78.29531314 45.13363821 -74.70898438 45.13867188 C-67.68097247 45.14937428 -60.65298825 45.16642679 -53.625 45.1875 C-53.56441406 44.42824219 -53.50382813 43.66898438 -53.44140625 42.88671875 C-53.35761719 41.89285156 -53.27382813 40.89898437 -53.1875 39.875 C-53.06568359 38.39580078 -53.06568359 38.39580078 -52.94140625 36.88671875 C-52.625 34.1875 -52.625 34.1875 -51.625 31.1875 C-50.965 31.1875 -50.305 31.1875 -49.625 31.1875 C-49.563125 30.48625 -49.50125 29.785 -49.4375 29.0625 C-47.79362494 23.24571132 -43.27147246 19.73349214 -38.625 16.1875 C-38.08875 15.61 -37.5525 15.0325 -37 14.4375 C-35.625 13.1875 -35.625 13.1875 -32.625 13.1875 C-32.295 11.8675 -31.965 10.5475 -31.625 9.1875 C-29.975 8.8575 -28.325 8.5275 -26.625 8.1875 C-26.625 7.5275 -26.625 6.8675 -26.625 6.1875 C-23.985 5.8575 -21.345 5.5275 -18.625 5.1875 C-18.625 4.5275 -18.625 3.8675 -18.625 3.1875 C-17.55958984 2.98833984 -17.55958984 2.98833984 -16.47265625 2.78515625 C-15.55355469 2.60855469 -14.63445312 2.43195313 -13.6875 2.25 C-12.77097656 2.07597656 -11.85445312 1.90195313 -10.91015625 1.72265625 C-3.5678668 0.00317992 -3.5678668 0.00317992 0 0 Z M-258.625 112.1875 C-259.2214471 114.30456521 -259.2214471 114.30456521 -259.12754732 116.71048778 C-259.13781762 117.64505911 -259.14808792 118.57963043 -259.15866944 119.5425221 C-259.14959062 120.57311352 -259.14051181 121.60370493 -259.13115788 122.66552639 C-259.13727123 123.76185568 -259.14338459 124.85818498 -259.14968321 125.98773637 C-259.16541151 129.69934774 -259.15236489 133.41031758 -259.1396637 137.12193298 C-259.14498339 139.79456208 -259.1518818 142.46714463 -259.16071075 145.13976008 C-259.17673596 150.97006712 -259.17777059 156.80022993 -259.16911316 162.63055038 C-259.15627391 171.30026353 -259.16618045 179.96984558 -259.18061271 188.63955082 C-259.20558832 204.12121374 -259.20742633 219.60281561 -259.19933859 235.0844928 C-259.19227505 248.6331091 -259.19219937 262.18170165 -259.19920158 275.73031807 C-259.2001129 277.54534102 -259.20102366 279.36036397 -259.20193387 281.17538692 C-259.20331695 283.91021925 -259.20470804 286.64505157 -259.20612001 289.37988388 C-259.21910749 314.81751515 -259.22420675 340.25513845 -259.2125864 365.69277096 C-259.21214843 366.65236548 -259.21171046 367.61196001 -259.21125922 368.60063316 C-259.20765213 376.3939993 -259.20381749 384.18736534 -259.19996829 391.98073137 C-259.18511894 422.38554366 -259.19390011 452.79026613 -259.22192383 483.19506836 C-259.25332514 517.32999242 -259.2683302 551.4648633 -259.25812382 585.59980208 C-259.25708698 589.23682343 -259.25609976 592.87384479 -259.2551403 596.51086617 C-259.25489142 597.40643848 -259.25464253 598.3020108 -259.2543861 599.22472168 C-259.25094055 612.7662725 -259.26027304 626.30777648 -259.27591133 639.84931755 C-259.29364723 655.24293772 -259.29386055 670.63644359 -259.27055968 686.03005879 C-259.2580224 694.65207303 -259.25937604 703.27382497 -259.28044054 711.89582403 C-259.29311599 717.64802909 -259.28775993 723.40003109 -259.26745573 729.15221391 C-259.25638208 732.43444469 -259.25607508 735.71605122 -259.27213103 738.99827706 C-259.28815687 742.52722696 -259.27381015 746.05474893 -259.25141239 749.58363247 C-259.26939991 751.12600784 -259.26939991 751.12600784 -259.28775081 752.69954231 C-259.24308496 758.16707224 -259.24308496 758.16707224 -256.61732811 762.81878144 C-252.73959588 764.59249204 -249.30421537 764.73999847 -245.12133789 764.69086456 C-243.83345541 764.69958521 -243.83345541 764.69958521 -242.51955509 764.70848203 C-239.62863969 764.72313597 -236.73856615 764.7091716 -233.84765625 764.69543457 C-231.75975102 764.70004134 -229.67184903 764.70639275 -227.58395386 764.71434355 C-221.83561954 764.73109061 -216.08754978 764.72276603 -210.33921432 764.71039867 C-204.14417448 764.7013725 -197.94918109 764.71530581 -191.75415039 764.72631836 C-180.31592272 764.7431038 -168.87781339 764.74161155 -157.43958628 764.73067249 C-146.87345209 764.72061687 -136.30734893 764.71798037 -125.74121094 764.72276306 C-124.69057771 764.72322137 -124.69057771 764.72322137 -123.61871958 764.72368894 C-120.775597 764.72493426 -117.93247444 764.72620786 -115.08935189 764.727528 C-88.40958475 764.7397686 -61.72987154 764.72866287 -35.05011272 764.70714041 C-11.33806709 764.68815747 12.37389262 764.68985595 36.0859375 764.70898438 C62.71638304 764.73039516 89.34678093 764.73890056 115.97723389 764.72653532 C118.81522623 764.72525242 121.65321858 764.72400106 124.49121094 764.72276306 C125.19001546 764.72244675 125.88881999 764.72213044 126.60880041 764.72180455 C137.16922635 764.71725145 147.72961788 764.72258171 158.29003906 764.73268127 C170.29572638 764.74410566 182.30129001 764.74090011 194.30697346 764.7195583 C200.43614273 764.70902306 206.56513732 764.70496821 212.69430542 764.71815491 C218.30003804 764.73003333 223.90543329 764.72359146 229.5111351 764.7022447 C231.54403218 764.6977593 233.5769575 764.70008801 235.60983658 764.70974785 C238.3640809 764.72183622 241.1171556 764.70951397 243.87133789 764.69086456 C245.06718962 764.70491156 245.06718962 764.70491156 246.28719997 764.71924233 C249.70165474 764.67273852 252.25455202 764.24259081 255.36750269 762.81878144 C258.53106978 758.67220783 258.05928519 754.66445634 257.99861908 749.58363247 C258.00528709 748.48584973 258.0119551 747.388067 258.01882517 746.25701812 C258.03518016 742.54635245 258.01561815 738.8367237 257.99645996 735.12608337 C258.00078519 732.4518689 258.00708942 729.7777259 258.01582003 727.10352904 C258.03082768 721.27286596 258.02716609 715.44244358 258.01140213 709.61178589 C257.98802553 700.941661 257.99317 692.2717182 258.00411103 683.60157715 C258.02272172 668.11924806 258.01296523 652.63703381 257.99163339 637.15471408 C257.97309795 623.60675613 257.96465291 610.0588368 257.96620178 596.51086617 C257.96629346 595.61322378 257.96638513 594.7155814 257.96647959 593.79073774 C257.96687273 590.14719486 257.96732234 586.50365199 257.96785098 582.86010912 C257.97272517 548.66149563 257.95003889 514.46295071 257.91389475 480.26435853 C257.88189729 449.85941168 257.86985136 419.4545234 257.87597656 389.04956055 C257.87636341 387.09721102 257.87674986 385.14486149 257.87713593 383.19251197 C257.87742295 381.74472725 257.87742295 381.74472725 257.87771577 380.26769435 C257.87867006 375.40938656 257.87958443 370.55107876 257.88045502 365.69277096 C257.88062881 364.73436867 257.8808026 363.77596638 257.88098167 362.7885216 C257.88533355 337.40582382 257.87532964 312.02313238 257.86061716 286.64043909 C257.86009702 285.73789607 257.85957688 284.83535305 257.85904097 283.90546023 C257.85852163 283.00453604 257.85800229 282.10361185 257.8574672 281.17538692 C257.85694946 280.2760802 257.85643172 279.37677347 257.85589829 278.45021503 C257.8548502 276.63904407 257.85378999 274.82787313 257.85271757 273.01670219 C257.84532714 260.37263004 257.84325055 247.72856684 257.84471158 235.0844928 C257.84655458 218.79361296 257.83853775 202.50278837 257.81307012 186.21192663 C257.79987269 177.58976274 257.794913 168.96768707 257.80170866 160.34551522 C257.80540571 154.59451935 257.79827191 148.84360435 257.78211627 143.09263011 C257.77319645 139.81040375 257.77073143 136.52839695 257.77804345 133.24616098 C257.78514599 129.71909302 257.77406542 126.19255391 257.75811005 122.66552639 C257.76456185 121.63493498 257.77101365 120.60434356 257.77766097 119.5425221 C257.76963796 118.60795078 257.76161495 117.67337945 257.75334883 116.71048778 C257.75269807 115.90324713 257.75204731 115.09600647 257.75137684 114.26430398 C257.28063078 111.66678152 256.44584885 110.77838621 254.375 109.1875 C252.10465793 108.74505308 252.10465793 108.74505308 249.53450012 108.82673645 C248.53750595 108.82261246 247.54051178 108.81848846 246.51330566 108.8142395 C244.87440369 108.83041824 244.87440369 108.83041824 243.20239258 108.84692383 C242.05103317 108.84648575 240.89967377 108.84604767 239.71342468 108.84559631 C235.89862247 108.84769035 232.08425692 108.87105112 228.26953125 108.89453125 C225.62823222 108.900125 222.98693008 108.90439614 220.34562683 108.90739441 C214.09827456 108.91672167 207.85107963 108.94134452 201.60379666 108.97144288 C194.49142998 109.00496582 187.37905582 109.02146757 180.26662982 109.03652918 C165.63600535 109.06789357 151.00550487 109.12066723 136.375 109.1875 C136.375 110.8375 136.375 112.4875 136.375 114.1875 C135.715 114.1875 135.055 114.1875 134.375 114.1875 C134.045 115.1775 133.715 116.1675 133.375 117.1875 C132.08840837 118.56599103 130.74586915 119.89279025 129.375 121.1875 C127.67003463 122.81496694 125.99602968 124.47641311 124.375 126.1875 C124.375 126.8475 124.375 127.5075 124.375 128.1875 C113.63691362 132.47491459 102.16912533 131.5869294 90.8293457 131.52807617 C88.54203808 131.52722908 86.25472964 131.52770665 83.96742249 131.52940369 C77.78224858 131.53026184 71.59725043 131.51266514 65.41211724 131.49168181 C58.93923863 131.472885 52.46635567 131.4711622 45.99345398 131.46760559 C35.13695892 131.45935086 24.28053566 131.4406323 13.42407227 131.41381836 C2.24666665 131.38624061 -8.93072149 131.36502527 -20.1081543 131.35229492 C-20.79824731 131.35150675 -21.48834033 131.35071858 -22.19934525 131.34990653 C-25.6616727 131.34599114 -29.12400026 131.34220008 -32.58632791 131.33847082 C-61.26592859 131.30741951 -89.94546178 131.25439839 -118.625 131.1875 C-118.625 130.5275 -118.625 129.8675 -118.625 129.1875 C-120.605 128.8575 -122.585 128.5275 -124.625 128.1875 C-124.625 127.5275 -124.625 126.8675 -124.625 126.1875 C-125.285 126.1875 -125.945 126.1875 -126.625 126.1875 C-126.955 125.1975 -127.285 124.2075 -127.625 123.1875 C-129.00014541 121.4787354 -129.00014541 121.4787354 -130.625 120.1875 C-131.285 120.1875 -131.945 120.1875 -132.625 120.1875 C-132.74875 119.383125 -132.8725 118.57875 -133 117.75 C-133.309375 116.4815625 -133.309375 116.4815625 -133.625 115.1875 C-134.615 114.6925 -134.615 114.6925 -135.625 114.1875 C-136.25 111.625 -136.25 111.625 -136.625 109.1875 C-151.94116766 109.1174284 -167.25732792 109.0645209 -182.57361984 109.03206348 C-189.6852021 109.01659256 -196.79668478 108.99549885 -203.90820312 108.96118164 C-210.76814979 108.92809419 -217.6279928 108.91065836 -224.48801422 108.90286827 C-227.10834636 108.89731501 -229.72867269 108.8864712 -232.34896088 108.87030983 C-236.01238867 108.84860839 -239.67538571 108.84553009 -243.33886719 108.84692383 C-244.42787323 108.836138 -245.51687927 108.82535217 -246.6388855 108.8142395 C-247.63725433 108.81836349 -248.63562317 108.82248749 -249.66424561 108.82673645 C-250.53073101 108.82397107 -251.39721642 108.82120569 -252.28995895 108.81835651 C-255.21444626 109.28068476 -256.46846356 110.17491101 -258.625 112.1875 Z " fill="#030303" transform="translate(526.625,126.8125)"/>
<path d="M0 0 C0.84240234 -0.00386719 1.68480469 -0.00773438 2.55273438 -0.01171875 C8.12991578 -0.00313187 13.52963916 0.42152829 19.0625 1.125 C19.0625 1.785 19.0625 2.445 19.0625 3.125 C20.7125 3.125 22.3625 3.125 24.0625 3.125 C24.0625 3.785 24.0625 4.445 24.0625 5.125 C25.856875 5.2796875 25.856875 5.2796875 27.6875 5.4375 C31.6249176 5.91391352 34.60390375 7.13630716 38.0625 9.125 C38.0625 9.785 38.0625 10.445 38.0625 11.125 C39.3825 11.455 40.7025 11.785 42.0625 12.125 C42.0625 12.785 42.0625 13.445 42.0625 14.125 C43.2071875 14.2796875 43.2071875 14.2796875 44.375 14.4375 C47.24666484 15.17211194 48.29292094 15.7966065 50.0625 18.125 C50.0625 18.785 50.0625 19.445 50.0625 20.125 C51.5475 20.62 51.5475 20.62 53.0625 21.125 C53.0625 21.785 53.0625 22.445 53.0625 23.125 C54.5475 23.62 54.5475 23.62 56.0625 24.125 C56.0625 24.785 56.0625 25.445 56.0625 26.125 C57.0525 26.455 58.0425 26.785 59.0625 27.125 C59.0625 27.785 59.0625 28.445 59.0625 29.125 C59.7225 29.125 60.3825 29.125 61.0625 29.125 C61.3925 30.775 61.7225 32.425 62.0625 34.125 C62.7225 34.125 63.3825 34.125 64.0625 34.125 C66.96358294 37.95442948 67.59930089 41.40036912 68.0625 46.125 C68.7225 46.125 69.3825 46.125 70.0625 46.125 C74.92599507 62.7648825 77.42617819 84.69595328 70.0625 101.125 C69.4025 101.125 68.7425 101.125 68.0625 101.125 C67.7325 103.105 67.4025 105.085 67.0625 107.125 C66.4025 107.125 65.7425 107.125 65.0625 107.125 C64.7325 108.775 64.4025 110.425 64.0625 112.125 C63.4025 112.125 62.7425 112.125 62.0625 112.125 C61.7325 114.105 61.4025 116.085 61.0625 118.125 C60.4025 118.125 59.7425 118.125 59.0625 118.125 C59.0625 119.115 59.0625 120.105 59.0625 121.125 C60.0525 121.455 61.0425 121.785 62.0625 122.125 C62.0625 122.785 62.0625 123.445 62.0625 124.125 C62.7225 124.125 63.3825 124.125 64.0625 124.125 C65.40145632 125.78715268 66.73380142 127.45463607 68.0625 129.125 C68.97 129.846875 69.8775 130.56875 70.8125 131.3125 C71.555 131.910625 72.2975 132.50875 73.0625 133.125 C73.0625 133.785 73.0625 134.445 73.0625 135.125 C74.0525 135.455 75.0425 135.785 76.0625 136.125 C76.0625 136.785 76.0625 137.445 76.0625 138.125 C77.0525 138.455 78.0425 138.785 79.0625 139.125 C79.0625 139.785 79.0625 140.445 79.0625 141.125 C79.7225 141.125 80.3825 141.125 81.0625 141.125 C82.40145632 142.78715268 83.73380142 144.45463607 85.0625 146.125 C85.8875 146.785 86.7125 147.445 87.5625 148.125 C90.18084432 150.21967546 92.00185765 152.49590459 94.0625 155.125 C94.7225 155.455 95.3825 155.785 96.0625 156.125 C96.0625 156.785 96.0625 157.445 96.0625 158.125 C97.0525 158.455 98.0425 158.785 99.0625 159.125 C99.0625 159.785 99.0625 160.445 99.0625 161.125 C99.64 161.228125 100.2175 161.33125 100.8125 161.4375 C103.46825845 162.24898175 105.03118835 163.23377881 107.0625 165.125 C108.08113693 168.14147969 108.19715849 170.95701619 108.1875 174.125 C108.19007813 174.970625 108.19265625 175.81625 108.1953125 176.6875 C108.01964251 179.91156098 107.75043175 182.28072012 105.6875 184.8125 C102.59856367 187.30741011 99.67380708 187.23683516 95.875 187.1875 C94.97394531 187.17847656 94.07289063 187.16945313 93.14453125 187.16015625 C92.11392578 187.14275391 92.11392578 187.14275391 91.0625 187.125 C90.7325 186.135 90.4025 185.145 90.0625 184.125 C89.4025 184.125 88.7425 184.125 88.0625 184.125 C86.69610658 182.4853279 85.3675581 180.81389872 84.0625 179.125 C83.4025 178.465 82.7425 177.805 82.0625 177.125 C80.0625 175.125 80.0625 175.125 78 172.4375 C76.20103096 169.88001175 76.20103096 169.88001175 73.0625 169.125 C73.0625 168.465 73.0625 167.805 73.0625 167.125 C72.4025 167.125 71.7425 167.125 71.0625 167.125 C70.7325 165.475 70.4025 163.825 70.0625 162.125 C68.4125 161.795 66.7625 161.465 65.0625 161.125 C64.7325 159.475 64.4025 157.825 64.0625 156.125 C63.0725 155.795 62.0825 155.465 61.0625 155.125 C61.0625 154.465 61.0625 153.805 61.0625 153.125 C60.44375 153.063125 59.825 153.00125 59.1875 152.9375 C58.48625 152.669375 57.785 152.40125 57.0625 152.125 C56.36038106 150.47295544 55.69278587 148.80576231 55.0625 147.125 C54.0725 146.795 53.0825 146.465 52.0625 146.125 C52.0625 145.465 52.0625 144.805 52.0625 144.125 C51.4025 144.125 50.7425 144.125 50.0625 144.125 C50.0625 143.465 50.0625 142.805 50.0625 142.125 C49.0725 141.795 48.0825 141.465 47.0625 141.125 C47.0625 140.465 47.0625 139.805 47.0625 139.125 C46.0725 138.795 45.0825 138.465 44.0625 138.125 C44.0625 137.465 44.0625 136.805 44.0625 136.125 C42.0825 136.125 40.1025 136.125 38.0625 136.125 C38.0625 136.785 38.0625 137.445 38.0625 138.125 C37.0725 138.125 36.0825 138.125 35.0625 138.125 C35.0625 138.785 35.0625 139.445 35.0625 140.125 C31.18565913 141.31787411 28.14628077 142.125 24.0625 142.125 C24.0625 142.785 24.0625 143.445 24.0625 144.125 C23.0725 144.125 22.0825 144.125 21.0625 144.125 C21.0625 144.785 21.0625 145.445 21.0625 146.125 C14.55136867 147.10050838 8.20315865 147.27571267 1.625 147.25 C0.63951172 147.25386719 -0.34597656 147.25773438 -1.36132812 147.26171875 C-7.30104596 147.25384636 -13.04719007 146.89250677 -18.9375 146.125 C-18.9375 145.465 -18.9375 144.805 -18.9375 144.125 C-20.5875 144.125 -22.2375 144.125 -23.9375 144.125 C-23.9375 143.465 -23.9375 142.805 -23.9375 142.125 C-25.2059375 141.9703125 -25.2059375 141.9703125 -26.5 141.8125 C-30.35192701 141.0421146 -33.37825031 139.76225486 -36.9375 138.125 C-36.9375 137.465 -36.9375 136.805 -36.9375 136.125 C-38.5875 135.795 -40.2375 135.465 -41.9375 135.125 C-41.9375 134.465 -41.9375 133.805 -41.9375 133.125 C-42.68 133.063125 -43.4225 133.00125 -44.1875 132.9375 C-47.79815729 131.87071489 -48.78209336 130.1425693 -50.9375 127.125 C-51.515 126.568125 -52.0925 126.01125 -52.6875 125.4375 C-53.9375 124.125 -53.9375 124.125 -53.9375 122.125 C-55.4225 121.63 -55.4225 121.63 -56.9375 121.125 C-56.9375 120.135 -56.9375 119.145 -56.9375 118.125 C-57.576875 117.8775 -58.21625 117.63 -58.875 117.375 C-60.9375 116.125 -60.9375 116.125 -61.6875 114 C-61.77 113.38125 -61.8525 112.7625 -61.9375 112.125 C-62.5975 112.125 -63.2575 112.125 -63.9375 112.125 C-64.4325 109.65 -64.4325 109.65 -64.9375 107.125 C-65.5975 107.125 -66.2575 107.125 -66.9375 107.125 C-70.06642533 100.18694818 -70.60319599 93.68718722 -70.9375 86.125 C-71.5975 86.125 -72.2575 86.125 -72.9375 86.125 C-72.9375 77.545 -72.9375 68.965 -72.9375 60.125 C-72.2775 60.125 -71.6175 60.125 -70.9375 60.125 C-70.999375 59.155625 -71.06125 58.18625 -71.125 57.1875 C-71.14412051 52.49341428 -69.56338774 48.47193302 -67.9375 44.125 C-67.6075 43.135 -67.2775 42.145 -66.9375 41.125 C-66.2775 41.125 -65.6175 41.125 -64.9375 41.125 C-64.4425 38.155 -64.4425 38.155 -63.9375 35.125 C-63.2775 35.125 -62.6175 35.125 -61.9375 35.125 C-61.6075 33.475 -61.2775 31.825 -60.9375 30.125 C-59.6175 29.795 -58.2975 29.465 -56.9375 29.125 C-56.6075 27.805 -56.2775 26.485 -55.9375 25.125 C-55.2775 25.125 -54.6175 25.125 -53.9375 25.125 C-53.8446875 24.25875 -53.8446875 24.25875 -53.75 23.375 C-52.59549152 20.17789959 -50.72202021 18.9813468 -47.9375 17.125 C-46.9475 17.125 -45.9575 17.125 -44.9375 17.125 C-44.6075 16.135 -44.2775 15.145 -43.9375 14.125 C-43.2775 14.125 -42.6175 14.125 -41.9375 14.125 C-41.9375 13.465 -41.9375 12.805 -41.9375 12.125 C-40.2875 11.795 -38.6375 11.465 -36.9375 11.125 C-36.9375 10.465 -36.9375 9.805 -36.9375 9.125 C-33.4725 8.63 -33.4725 8.63 -29.9375 8.125 C-29.9375 7.465 -29.9375 6.805 -29.9375 6.125 C-29.2775 6.125 -28.6175 6.125 -27.9375 6.125 C-27.9375 5.465 -27.9375 4.805 -27.9375 4.125 C-24.6375 3.795 -21.3375 3.465 -17.9375 3.125 C-17.9375 2.465 -17.9375 1.805 -17.9375 1.125 C-11.91683408 0.24800127 -6.08000637 -0.02778373 0 0 Z " fill="#050505" transform="translate(641.9375,668.875)"/>
<path d="M0 0 C0 0.66 0 1.32 0 2 C1.0725 2.0825 2.145 2.165 3.25 2.25 C7.36368281 3.07273656 8.36457231 3.89396022 11 7 C11.99 7.66 12.98 8.32 14 9 C14 9.66 14 10.32 14 11 C14.66 11 15.32 11 16 11 C16.33 12.65 16.66 14.3 17 16 C17.66 16 18.32 16 19 16 C19 16.99 19 17.98 19 19 C19.66 19 20.32 19 21 19 C22.10789535 23.05308333 22.33731267 27.07111374 22.5625 31.25 C22.60568359 31.99507812 22.64886719 32.74015625 22.69335938 33.5078125 C22.79896725 35.338349 22.89994201 37.16915176 23 39 C23.99 39.33 24.98 39.66 26 40 C26 40.66 26 41.32 26 42 C50.09 42.33 74.18 42.66 99 43 C99 43.66 99 44.32 99 45 C100.32 45.33 101.64 45.66 103 46 C103 46.66 103 47.32 103 48 C103.66 48 104.32 48 105 48 C106.17942085 51.53826255 106.11289189 54.34148726 106.09765625 58.07421875 C106.09553383 59.09996758 106.09553383 59.09996758 106.09336853 60.1464386 C106.08777876 62.32683722 106.07522822 64.50713251 106.0625 66.6875 C106.05748367 68.16731622 106.052921 69.64713406 106.04882812 71.12695312 C106.03781271 74.75133557 106.02055512 78.3756577 106 82 C105.01 82.33 104.02 82.66 103 83 C102.67 83.99 102.34 84.98 102 86 C101.01 86 100.02 86 99 86 C99 86.66 99 87.32 99 88 C26.07 88 -46.86 88 -122 88 C-122 87.34 -122 86.68 -122 86 C-123.65 85.67 -125.3 85.34 -127 85 C-127.495 82.525 -127.495 82.525 -128 80 C-128.66 80 -129.32 80 -130 80 C-130 70.43 -130 60.86 -130 51 C-129.34 51 -128.68 51 -128 51 C-127.896875 50.236875 -127.79375 49.47375 -127.6875 48.6875 C-126.90938773 45.64578838 -126.52797182 44.80550303 -124 43 C-120.82991028 42.60127258 -120.82991028 42.60127258 -116.86645508 42.56762695 C-116.14425278 42.5574353 -115.42205048 42.54724365 -114.67796326 42.53674316 C-112.29174091 42.50655805 -109.90591961 42.49733913 -107.51953125 42.48828125 C-105.86470703 42.47143859 -104.20989564 42.45328891 -102.55509949 42.43388367 C-98.20024625 42.38633241 -93.84544501 42.35655636 -89.49041748 42.33044434 C-85.04624155 42.30066456 -80.60224487 42.25412541 -76.15820312 42.20898438 C-67.43889004 42.12289299 -58.71956073 42.05557385 -50 42 C-49.67 41.01 -49.34 40.02 -49 39 C-48.34 39 -47.68 39 -47 39 C-46.87882812 38.0821875 -46.75765625 37.164375 -46.6328125 36.21875 C-45.74164198 29.69263976 -44.77666013 23.34521474 -43 17 C-42.34 17 -41.68 17 -41 17 C-41 16.01 -41 15.02 -41 14 C-39.37064759 12.62131719 -37.70250393 11.28725907 -36 10 C-35.67 9.34 -35.34 8.68 -35 8 C-34.34 8 -33.68 8 -33 8 C-32.67 7.01 -32.34 6.02 -32 5 C-31.34 5 -30.68 5 -30 5 C-30 4.34 -30 3.68 -30 3 C-27.03 2.505 -27.03 2.505 -24 2 C-24 1.34 -24 0.68 -24 0 C-16.29065524 -1.71318772 -7.70934476 -1.71318772 0 0 Z " fill="#F9F9F9" transform="translate(538,150)"/>
<path d="M0 0 C8.58 0 17.16 0 26 0 C26 0.66 26 1.32 26 2 C28.64 2.33 31.28 2.66 34 3 C34 3.66 34 4.32 34 5 C36.97 5.495 36.97 5.495 40 6 C40 6.66 40 7.32 40 8 C40.99 8 41.98 8 43 8 C44.6875 9.375 44.6875 9.375 46 11 C46 11.66 46 12.32 46 13 C47.11375 13.0928125 47.11375 13.0928125 48.25 13.1875 C51.87129113 14.25742693 52.98712115 15.86885512 55 19 C55 19.99 55 20.98 55 22 C56.485 22.495 56.485 22.495 58 23 C58 23.99 58 24.98 58 26 C58.66 26 59.32 26 60 26 C60.495 28.97 60.495 28.97 61 32 C61.66 32 62.32 32 63 32 C63.495 36.95 63.495 36.95 64 42 C64.66 42 65.32 42 66 42 C66.0292483 45.20831391 66.04688189 48.41659307 66.0625 51.625 C66.07087891 52.52863281 66.07925781 53.43226563 66.08789062 54.36328125 C66.10491895 59.02904289 65.96829423 63.41013285 65 68 C64.34 68 63.68 68 63 68 C63 68.99 63 69.98 63 71 C62.34 71 61.68 71 61 71 C60.896875 72.051875 60.79375 73.10375 60.6875 74.1875 C60.02050668 77.88628113 59.25009992 80.02986811 57 83 C56.34 83 55.68 83 55 83 C54.505 84.485 54.505 84.485 54 86 C53.34 86 52.68 86 52 86 C51.505 87.485 51.505 87.485 51 89 C50.34 89 49.68 89 49 89 C48.505 90.485 48.505 90.485 48 92 C47.34 92 46.68 92 46 92 C45.938125 92.61875 45.87625 93.2375 45.8125 93.875 C45 96 45 96 42.625 97.25 C40 98 40 98 37 98 C37 98.66 37 99.32 37 100 C36.34 100 35.68 100 35 100 C35 100.66 35 101.32 35 102 C30.545 102.495 30.545 102.495 26 103 C26 103.66 26 104.32 26 105 C14.01455089 106.77562209 3.442496 106.12552577 -8 102 C-8 101.34 -8 100.68 -8 100 C-9.98 99.67 -11.96 99.34 -14 99 C-14 98.34 -14 97.68 -14 97 C-14.99 97 -15.98 97 -17 97 C-18.6875 95.625 -18.6875 95.625 -20 94 C-20 93.34 -20 92.68 -20 92 C-20.928125 91.9071875 -20.928125 91.9071875 -21.875 91.8125 C-22.57625 91.544375 -23.2775 91.27625 -24 91 C-24.70211894 89.34795544 -25.36971413 87.68076231 -26 86 C-26.99 85.67 -27.98 85.34 -29 85 C-29 84.34 -29 83.68 -29 83 C-29.66 83 -30.32 83 -31 83 C-31.495 80.03 -31.495 80.03 -32 77 C-32.66 77 -33.32 77 -34 77 C-34.495 74.03 -34.495 74.03 -35 71 C-35.66 71 -36.32 71 -37 71 C-37.13277344 70.21753906 -37.26554688 69.43507813 -37.40234375 68.62890625 C-37.57894531 67.61699219 -37.75554688 66.60507812 -37.9375 65.5625 C-38.11152344 64.55316406 -38.28554688 63.54382813 -38.46484375 62.50390625 C-38.74751097 60.0712562 -38.74751097 60.0712562 -40 59 C-40.09873816 57.00200428 -40.12971799 55.00042842 -40.125 53 C-40.12757813 51.906875 -40.13015625 50.81375 -40.1328125 49.6875 C-40 47 -40 47 -39 46 C-38.60430892 43.98688551 -38.25747809 41.96402792 -37.9375 39.9375 C-37.67259766 38.28041016 -37.67259766 38.28041016 -37.40234375 36.58984375 C-37.26957031 35.73519531 -37.13679687 34.88054688 -37 34 C-36.34 34 -35.68 34 -35 34 C-34.505 31.03 -34.505 31.03 -34 28 C-33.34 28 -32.68 28 -32 28 C-31.67 26.02 -31.34 24.04 -31 22 C-30.34 22 -29.68 22 -29 22 C-28.67 21.01 -28.34 20.02 -28 19 C-27.34 19 -26.68 19 -26 19 C-25.67 18.01 -25.34 17.02 -25 16 C-24.34 16 -23.68 16 -23 16 C-22.67 15.01 -22.34 14.02 -22 13 C-21.34 13 -20.68 13 -20 13 C-19.7525 12.360625 -19.505 11.72125 -19.25 11.0625 C-18 9 -18 9 -15.875 8.25 C-14.946875 8.12625 -14.946875 8.12625 -14 8 C-14 7.34 -14 6.68 -14 6 C-12.02 5.67 -10.04 5.34 -8 5 C-8 4.34 -8 3.68 -8 3 C-5.36 2.67 -2.72 2.34 0 2 C0 1.34 0 0.68 0 0 Z " fill="#FBFBFB" transform="translate(629,690)"/>
<path d="M0 0 C49.99777072 -0.09148849 99.995533 -0.16200462 149.99337091 -0.20426132 C155.89157683 -0.20926435 161.7897826 -0.21444162 167.68798828 -0.21972656 C168.86225064 -0.2207758 170.03651301 -0.22182505 171.24635908 -0.22290608 C190.27790303 -0.24032724 209.30939882 -0.27187433 228.34091416 -0.30861118 C247.85850465 -0.34597304 267.37606985 -0.36822577 286.89369464 -0.37635398 C298.94413656 -0.38185163 310.99444236 -0.39923626 323.04484239 -0.43166587 C331.30015098 -0.45275508 339.55538885 -0.45921277 347.81072244 -0.45400551 C352.57878884 -0.451435 357.34661682 -0.45546769 362.11464119 -0.4768219 C366.47580778 -0.49621205 370.83657444 -0.49731941 375.197759 -0.48359558 C376.77925437 -0.48189812 378.36077417 -0.48703616 379.94222108 -0.49953273 C382.08536975 -0.51548933 384.22705778 -0.50699545 386.37018204 -0.49219131 C387.56250387 -0.4937102 388.75482571 -0.49522908 389.98327851 -0.49679399 C393.60375741 0.09942683 394.81012797 1.10771437 397 4 C397 4.66 397 5.32 397 6 C397.66 6 398.32 6 399 6 C399.44117322 10.49996683 399.52867608 12.34611117 396.625 15.9375 C394 18 394 18 392 18 C392 18.66 392 19.32 392 20 C342.11259305 20.06860842 292.22519085 20.12149942 242.33774604 20.15319599 C236.45327267 20.15694828 230.5687994 20.16083123 224.68432617 20.16479492 C222.92702508 20.16597532 222.92702508 20.16597532 221.13422296 20.16717956 C202.14404704 20.18024732 183.15389825 20.20390868 164.16373845 20.23145839 C144.69022196 20.25947452 125.21671973 20.27616821 105.74318391 20.28226548 C93.71886804 20.28638981 81.69462886 20.29943421 69.67033658 20.3237494 C61.43419778 20.33955982 53.19809886 20.34441105 44.96194597 20.34050413 C40.20417061 20.33857524 35.44652963 20.34161228 30.68877792 20.35761642 C26.33820488 20.3721447 21.98785742 20.37299877 17.6372743 20.36269668 C16.05849199 20.36142219 14.47969598 20.36528756 12.90094092 20.37464955 C10.76406431 20.38659036 8.62801512 20.38026144 6.49115276 20.36914349 C4.70665707 20.37085223 4.70665707 20.37085223 2.88611096 20.37259549 C0 20 0 20 -1.90569705 18.60192853 C-3 17 -3 17 -3 15 C-3.66 15 -4.32 15 -5 15 C-6.125 8.375 -6.125 8.375 -5 5 C-4.34 5 -3.68 5 -3 5 C-2.67 4.01 -2.34 3.02 -2 2 C-1.34 2 -0.68 2 0 2 C0 1.34 0 0.68 0 0 Z " fill="#020202" transform="translate(330,503)"/>
<path d="M0 0 C1.010625 -0.00773438 2.02125 -0.01546875 3.0625 -0.0234375 C8.91188643 0.76996332 11.52156653 3.91825712 15 8.375 C16.2684375 9.365 16.2684375 9.365 17.5625 10.375 C21.05717671 13.24242704 22.7721523 15.33373427 23.28515625 19.9296875 C23.45709815 25.44677964 23.28333817 29.73303914 20 34.375 C19.13375 35.055625 18.2675 35.73625 17.375 36.4375 C14.77442185 38.18719954 14.77442185 38.18719954 14.1875 41.125 C14.0946875 42.23875 14.0946875 42.23875 14 43.375 C15.485 43.87 15.485 43.87 17 44.375 C20.22781413 48.20055748 20.3010442 51.50734137 20.203125 56.2890625 C20 58.375 20 58.375 19 61.375 C18.34 61.375 17.68 61.375 17 61.375 C16.67 62.695 16.34 64.015 16 65.375 C15.360625 65.478125 14.72125 65.58125 14.0625 65.6875 C13.381875 65.914375 12.70125 66.14125 12 66.375 C11.505 67.86 11.505 67.86 11 69.375 C10.34 69.375 9.68 69.375 9 69.375 C8.505 70.86 8.505 70.86 8 72.375 C7.34 72.375 6.68 72.375 6 72.375 C5.938125 73.1175 5.87625 73.86 5.8125 74.625 C4.74290323 78.24517367 2.99140387 79.14883898 0 81.375 C-0.66 82.220625 -1.32 83.06625 -2 83.9375 C-4.13022992 86.53371771 -6.01162949 87.88081475 -9 89.375 C-9.66 89.375 -10.32 89.375 -11 89.375 C-11.66 91.025 -12.32 92.675 -13 94.375 C-19.625 95.625 -19.625 95.625 -23 93.375 C-23.83902226 89.52948132 -24.25360525 87.13581574 -23 83.375 C-22.34 83.375 -21.68 83.375 -21 83.375 C-20.7525 82.75625 -20.505 82.1375 -20.25 81.5 C-18.77229238 78.98789704 -17.56044823 78.61392656 -15 77.375 C-14.505 75.89 -14.505 75.89 -14 74.375 C-13.34 74.375 -12.68 74.375 -12 74.375 C-11.91492188 73.78847656 -11.82984375 73.20195313 -11.7421875 72.59765625 C-10.78998478 69.74605969 -9.43651111 68.70489097 -7.125 66.8125 C-4.14132418 64.34927361 -4.14132418 64.34927361 -1.3671875 61.66015625 C0 60.375 0 60.375 2 60.375 C3.41377341 57.73595629 4.37240135 55.30379371 5 52.375 C3.35 52.045 1.7 51.715 0 51.375 C-0.2475 51.931875 -0.495 52.48875 -0.75 53.0625 C-3.36225813 57.89517755 -6.76248568 60.98498855 -11 64.375 C-12.36244796 66.01795195 -13.69864875 67.68324337 -15 69.375 C-16.625 71.1875 -16.625 71.1875 -18 72.375 C-18.66 72.375 -19.32 72.375 -20 72.375 C-20.495 73.86 -20.495 73.86 -21 75.375 C-21.66 75.375 -22.32 75.375 -23 75.375 C-23 76.035 -23 76.695 -23 77.375 C-24.66215268 78.71395632 -26.32963607 80.04630142 -28 81.375 C-28.66 82.2 -29.32 83.025 -30 83.875 C-32.10319635 86.50399543 -34.37899543 88.27819635 -37 90.375 C-37.721875 91.2825 -38.44375 92.19 -39.1875 93.125 C-39.785625 93.8675 -40.38375 94.61 -41 95.375 C-41.66 95.375 -42.32 95.375 -43 95.375 C-43 96.035 -43 96.695 -43 97.375 C-44.66215268 98.71395632 -46.32963607 100.04630142 -48 101.375 C-48.53625 102.24125 -49.0725 103.1075 -49.625 104 C-52.93556257 107.31056257 -56.09889046 107.41458814 -60.63671875 108.015625 C-62.95130626 108.1287178 -62.95130626 108.1287178 -64 109.375 C-65.99958364 109.41580783 -68.00045254 109.41754356 -70 109.375 C-70 110.035 -70 110.695 -70 111.375 C-72.18652739 111.71465474 -74.37428025 112.04642477 -76.5625 112.375 C-77.78066406 112.560625 -78.99882813 112.74625 -80.25390625 112.9375 C-83.87627848 113.36055077 -87.35712046 113.45001425 -91 113.375 C-91 111.065 -91 108.755 -91 106.375 C-90.34 106.375 -89.68 106.375 -89 106.375 C-89 103.735 -89 101.095 -89 98.375 C-88.34 98.375 -87.68 98.375 -87 98.375 C-86.67 93.755 -86.34 89.135 -86 84.375 C-85.34 84.375 -84.68 84.375 -84 84.375 C-84.0825 83.323125 -84.165 82.27125 -84.25 81.1875 C-83.95952971 76.75782802 -83.03580017 75.49753731 -80 72.375 C-79.46375 71.776875 -78.9275 71.17875 -78.375 70.5625 C-77 69.375 -77 69.375 -75 69.375 C-74.505 67.89 -74.505 67.89 -74 66.375 C-73.34 66.375 -72.68 66.375 -72 66.375 C-71.505 64.89 -71.505 64.89 -71 63.375 C-70.34 63.375 -69.68 63.375 -69 63.375 C-68.67 62.385 -68.34 61.395 -68 60.375 C-67.34 60.375 -66.68 60.375 -66 60.375 C-66 59.715 -66 59.055 -66 58.375 C-64.33784732 57.03604368 -62.67036393 55.70369858 -61 54.375 C-59.9171875 53.01375 -59.9171875 53.01375 -58.8125 51.625 C-58.214375 50.8825 -57.61625 50.14 -57 49.375 C-56.34 49.375 -55.68 49.375 -55 49.375 C-54.67 48.385 -54.34 47.395 -54 46.375 C-52.66666667 46.04166667 -51.33333333 45.70833333 -50 45.375 C-49.67 44.385 -49.34 43.395 -49 42.375 C-48.34 42.375 -47.68 42.375 -47 42.375 C-46.34 40.725 -45.68 39.075 -45 37.375 C-44.34 37.375 -43.68 37.375 -43 37.375 C-43 36.715 -43 36.055 -43 35.375 C-41.33784732 34.03604368 -39.67036393 32.70369858 -38 31.375 C-37.34 30.55 -36.68 29.725 -36 28.875 C-33.89084812 26.23856015 -31.74792766 24.32747492 -29 22.375 C-28.34 22.375 -27.68 22.375 -27 22.375 C-26.505 20.89 -26.505 20.89 -26 19.375 C-25.34 19.375 -24.68 19.375 -24 19.375 C-23.9071875 18.50875 -23.9071875 18.50875 -23.8125 17.625 C-22.67561467 14.47670216 -20.63092771 13.39408406 -18 11.375 C-16.63755204 9.73204805 -15.30135125 8.06675663 -14 6.375 C-10.00071949 1.85407421 -6.05604728 -0.0463473 0 0 Z " fill="#090909" transform="translate(701,539.625)"/>
<path d="M0 0 C0.96430683 -0.00322445 1.92861366 -0.00644889 2.92214191 -0.00977105 C3.98389452 -0.00822245 5.04564712 -0.00667385 6.13957405 -0.00507832 C7.8287179 -0.00847665 7.8287179 -0.00847665 9.55198586 -0.01194364 C13.34519977 -0.01830036 17.1383781 -0.0174532 20.93159676 -0.01662922 C23.6431053 -0.01907503 26.35461132 -0.02299337 29.06611824 -0.02680683 C35.67882409 -0.03512034 42.29152102 -0.03786199 48.90423165 -0.03841921 C54.27835632 -0.03889404 59.65247805 -0.04094716 65.02660179 -0.04411983 C80.25670836 -0.05292837 95.48680788 -0.05753891 110.71691702 -0.05678936 C111.53831798 -0.0567494 112.35971893 -0.05670945 113.20601082 -0.05666828 C114.43961325 -0.05660696 114.43961325 -0.05660696 115.69813694 -0.0565444 C129.02855808 -0.05613789 142.35895097 -0.06570825 155.68936394 -0.07980665 C169.37054521 -0.09416207 183.0517127 -0.10107729 196.73290169 -0.10021287 C204.41641311 -0.09988061 212.09989493 -0.10264043 219.78339958 -0.11339092 C226.32505416 -0.12248497 232.86666572 -0.12468022 239.40832387 -0.1178815 C242.74665236 -0.1146107 246.0848307 -0.11566111 249.42316246 -0.12323475 C253.04062162 -0.13091167 256.65786205 -0.12633831 260.27531624 -0.11860371 C261.3326074 -0.12374727 262.38989856 -0.12889083 263.47922885 -0.13419026 C264.44875118 -0.12959147 265.4182735 -0.12499267 266.41717529 -0.12025452 C267.25207296 -0.12047188 268.08697063 -0.12068925 268.94716823 -0.12091321 C271.68472338 0.16525182 273.83345836 1.00577302 276.33442879 2.12863445 C276.33442879 2.78863445 276.33442879 3.44863445 276.33442879 4.12863445 C276.99442879 4.12863445 277.65442879 4.12863445 278.33442879 4.12863445 C279.51078175 6.48134039 279.46802238 7.94938645 279.45942879 10.56613445 C279.46200691 11.34859539 279.46458504 12.13105633 279.46724129 12.9372282 C279.33442879 15.12863445 279.33442879 15.12863445 278.33442879 18.12863445 C277.67442879 18.12863445 277.01442879 18.12863445 276.33442879 18.12863445 C276.33442879 18.78863445 276.33442879 19.44863445 276.33442879 20.12863445 C273.44368317 21.09221632 271.63528613 21.25389633 268.63203621 21.25447559 C267.65952919 21.25708334 266.68702217 21.25969109 265.68504524 21.26237786 C264.6141465 21.26014714 263.54324776 21.25791641 262.43989754 21.2556181 C261.3042234 21.25717809 260.16854927 21.25873808 258.99846077 21.26034534 C255.17293711 21.26435076 251.34745278 21.26116743 247.52192879 21.25802898 C244.78747157 21.25883286 242.05301604 21.26112696 239.31855965 21.26333904 C232.65037463 21.26779233 225.98220085 21.26682222 219.31401539 21.2639264 C213.89601423 21.26167065 208.47801622 21.2613606 203.06001472 21.26245022 C201.90459805 21.26268007 201.90459805 21.26268007 200.72583961 21.26291456 C199.16117541 21.26323428 197.5965112 21.26355849 196.031847 21.26388715 C181.3501124 21.26674065 166.66838404 21.26345695 151.98665047 21.25808679 C139.38121928 21.25361886 126.77579731 21.25439483 114.17036629 21.25900555 C99.54219092 21.2643536 84.91402102 21.26646597 70.2858448 21.26339328 C68.72684415 21.26307472 67.1678435 21.26276035 65.60884285 21.26245022 C64.84172729 21.26229594 64.07461174 21.26214167 63.28425026 21.26198272 C57.87096208 21.26111826 52.45767737 21.26257892 47.04438972 21.26492977 C40.44998585 21.26773052 33.85559388 21.26698367 27.26119137 21.26164903 C23.8947946 21.25901574 20.52843421 21.2585364 17.16203499 21.26129818 C13.51765657 21.26401324 9.8733348 21.2606241 6.22896004 21.2556181 C5.15806129 21.25784882 4.08716255 21.26007954 2.98381233 21.26237786 C1.5250518 21.25846624 1.5250518 21.25846624 0.03682137 21.25447559 C-0.80491127 21.25431324 -1.64664391 21.25415089 -2.51388359 21.25398362 C-4.66557121 21.12863445 -4.66557121 21.12863445 -7.66557121 20.12863445 C-8.35307121 18.06613445 -8.35307121 18.06613445 -8.66557121 16.12863445 C-9.32557121 16.12863445 -9.98557121 16.12863445 -10.66557121 16.12863445 C-11.79057121 9.50363445 -11.79057121 9.50363445 -10.66557121 6.12863445 C-10.00557121 6.12863445 -9.34557121 6.12863445 -8.66557121 6.12863445 C-8.33557121 4.47863445 -8.00557121 2.82863445 -7.66557121 1.12863445 C-4.78604367 0.16879194 -2.99003929 0.00252376 0 0 Z " fill="#050505" transform="translate(335.66557121276855,570.8713655471802)"/>
<path d="M0 0 C0.952212 -0.00623996 1.90442399 -0.01247993 2.88549089 -0.01890898 C6.07849364 -0.03487294 9.27073661 -0.02222111 12.46374512 -0.00964355 C14.75191188 -0.01506314 17.04007516 -0.02218488 19.32823181 -0.03088379 C25.54510214 -0.04913931 31.76170734 -0.04204024 37.97858238 -0.02936745 C44.47986957 -0.01925141 50.98113381 -0.02862924 57.48242188 -0.03491211 C69.10055586 -0.04265911 80.71856867 -0.03021627 92.33668357 -0.00987476 C102.86981991 0.0079962 113.40277992 0.00489207 123.93591309 -0.0135498 C136.16898535 -0.03495799 148.40193205 -0.04292285 160.63502264 -0.03110075 C167.11016417 -0.02485957 173.58518423 -0.02404746 180.06031799 -0.0372467 C186.14739658 -0.04878783 192.23414166 -0.04081086 198.32118416 -0.01766968 C200.5573121 -0.01237335 202.79346802 -0.01391207 205.02958488 -0.02272034 C208.07796558 -0.03362254 211.12527206 -0.01997596 214.17358398 0 C215.5065082 -0.01338433 215.5065082 -0.01338433 216.86636019 -0.02703905 C220.97387087 0.02530701 223.06047324 0.17627099 226.61261749 2.41468048 C229.24513296 5.2059858 229.56721784 5.9794324 229.71179199 9.88293457 C229.48238985 16.53559671 229.48238985 16.53559671 227.12520218 19.09476185 C223.24974255 21.25229094 219.58747431 20.91113749 215.222229 20.86869812 C214.26326005 20.87126139 213.3042911 20.87382467 212.31626248 20.87646562 C209.09474588 20.88141704 205.87369529 20.86488793 202.65222168 20.84851074 C200.34624238 20.84766476 198.04026227 20.84813904 195.73428345 20.84983826 C189.46605473 20.85070078 183.19799742 20.83303334 176.92980862 20.81211638 C170.38214926 20.79339242 163.8344862 20.79160252 157.2868042 20.78804016 C146.2943219 20.78026798 135.3018998 20.7610157 124.30944824 20.73425293 C112.98718582 20.70671584 101.66494051 20.68548055 90.34265137 20.67272949 C89.6447453 20.67194132 88.94683922 20.67115315 88.22778448 20.6703411 C84.72659446 20.66642598 81.22540431 20.66263486 77.72421408 20.65890539 C48.67836573 20.62780528 19.6325797 20.5747428 -9.41320801 20.50793457 C-9.41320801 19.84793457 -9.41320801 19.18793457 -9.41320801 18.50793457 C-10.40320801 18.17793457 -11.39320801 17.84793457 -12.41320801 17.50793457 C-12.41320801 16.84793457 -12.41320801 16.18793457 -12.41320801 15.50793457 C-13.07320801 15.50793457 -13.73320801 15.50793457 -14.41320801 15.50793457 C-15.53820801 7.88293457 -15.53820801 7.88293457 -14.41320801 4.50793457 C-10.06109004 -0.24448023 -6.03800124 -0.06062956 0 0 Z " fill="#030303" transform="translate(339.4132080078125,639.4920654296875)"/>
<path d="M0 0 C36.3 0 72.6 0 110 0 C110 0.66 110 1.32 110 2 C111.65 2.33 113.3 2.66 115 3 C115.82791734 5.9076457 116.16193659 8.54090519 116.1875 11.5625 C116.20167969 12.32691406 116.21585938 13.09132813 116.23046875 13.87890625 C116 16 116 16 114 19 C113.34 19 112.68 19 112 19 C112 19.66 112 20.32 112 21 C109.19177915 21.93607362 107.47783587 22.12946389 104.57278442 22.14044189 C103.21434418 22.14900711 103.21434418 22.14900711 101.82846069 22.15774536 C100.83722198 22.15886322 99.84598328 22.15998108 98.82470703 22.16113281 C97.25601868 22.16858017 97.25601868 22.16858017 95.65563965 22.17617798 C92.18969062 22.19080518 88.72378735 22.19760222 85.2578125 22.203125 C82.85269163 22.20887556 80.44757078 22.21463331 78.04244995 22.22039795 C72.99688503 22.23090923 67.95133605 22.23675121 62.90576172 22.24023438 C56.43694066 22.24572228 49.96832976 22.26975632 43.49957466 22.29820633 C38.53078594 22.31681812 33.56204802 22.32203752 28.59322739 22.32357025 C26.20817795 22.32660011 23.82312947 22.33463979 21.43811417 22.34775543 C18.10327342 22.36478661 14.76894847 22.36294272 11.43408203 22.35644531 C10.44689178 22.3656601 9.45970154 22.37487488 8.44259644 22.3843689 C-0.08435403 22.33225693 -0.08435403 22.33225693 -4 19 C-6.52138322 14.07184189 -5.90739083 10.26286679 -5 5 C-4.34 5 -3.68 5 -3 5 C-2.67 4.01 -2.34 3.02 -2 2 C-1.34 2 -0.68 2 0 2 C0 1.34 0 0.68 0 0 Z " fill="#0C0C0C" transform="translate(416,788)"/>
<path d="M0 0 C36.3 0 72.6 0 110 0 C110 0.66 110 1.32 110 2 C110.99 2.33 111.98 2.66 113 3 C113 3.66 113 4.32 113 5 C113.66 5 114.32 5 115 5 C116.20272819 7.40545638 116.10071472 8.94996953 116.0625 11.625 C116.05347656 12.44226563 116.04445313 13.25953125 116.03515625 14.1015625 C116.02355469 14.72804688 116.01195312 15.35453125 116 16 C114.515 16.495 114.515 16.495 113 17 C112.505 18.485 112.505 18.485 112 20 C111.34 20 110.68 20 110 20 C110 20.66 110 21.32 110 22 C73.7 22 37.4 22 0 22 C0 21.34 0 20.68 0 20 C-0.99 19.67 -1.98 19.34 -3 19 C-3 18.34 -3 17.68 -3 17 C-3.66 17 -4.32 17 -5 17 C-5.19573608 15.56359829 -5.38127816 14.12580496 -5.5625 12.6875 C-5.66691406 11.88699219 -5.77132813 11.08648438 -5.87890625 10.26171875 C-6 8 -6 8 -5 5 C-4.34 5 -3.68 5 -3 5 C-2.67 4.01 -2.34 3.02 -2 2 C-1.34 2 -0.68 2 0 2 C0 1.34 0 0.68 0 0 Z " fill="#080808" transform="translate(416,713)"/>
<path d="M0 0 C0.80824219 0.10183594 1.61648438 0.20367188 2.44921875 0.30859375 C3.06410156 0.39238281 3.67898438 0.47617187 4.3125 0.5625 C4.3125 1.2225 4.3125 1.8825 4.3125 2.5625 C5.3025 2.8925 6.2925 3.2225 7.3125 3.5625 C8.49556728 5.92863456 8.44604608 7.43030736 8.4375 10.0625 C8.44136719 11.25359375 8.44136719 11.25359375 8.4453125 12.46875 C8.3125 14.5625 8.3125 14.5625 7.3125 16.5625 C6.6525 16.5625 5.9925 16.5625 5.3125 16.5625 C5.209375 17.160625 5.10625 17.75875 5 18.375 C4.21425967 20.87508286 3.34331147 21.93785082 1.3125 23.5625 C0.6525 23.5625 -0.0075 23.5625 -0.6875 23.5625 C-1.1825 25.0475 -1.1825 25.0475 -1.6875 26.5625 C-2.3475 26.5625 -3.0075 26.5625 -3.6875 26.5625 C-4.1825 28.0475 -4.1825 28.0475 -4.6875 29.5625 C-6.125 31.25 -6.125 31.25 -7.6875 32.5625 C-8.3475 32.5625 -9.0075 32.5625 -9.6875 32.5625 C-10.0175 33.5525 -10.3475 34.5425 -10.6875 35.5625 C-11.3475 35.5625 -12.0075 35.5625 -12.6875 35.5625 C-12.6875 36.2225 -12.6875 36.8825 -12.6875 37.5625 C-14.34965268 38.90145632 -16.01713607 40.23380142 -17.6875 41.5625 C-18.409375 42.47 -19.13125 43.3775 -19.875 44.3125 C-20.473125 45.055 -21.07125 45.7975 -21.6875 46.5625 C-22.3475 46.5625 -23.0075 46.5625 -23.6875 46.5625 C-23.97625 47.201875 -24.265 47.84125 -24.5625 48.5 C-25.6875 50.5625 -25.6875 50.5625 -27.6875 51.5625 C-30.3598621 51.69665472 -33.01000488 51.60568541 -35.6875 51.5625 C-35.6875 50.9025 -35.6875 50.2425 -35.6875 49.5625 C-36.47125 49.48 -37.255 49.3975 -38.0625 49.3125 C-40.6875 48.5625 -40.6875 48.5625 -41.875 46.5625 C-42.143125 45.9025 -42.41125 45.2425 -42.6875 44.5625 C-43.3475 44.2325 -44.0075 43.9025 -44.6875 43.5625 C-44.6875 42.5725 -44.6875 41.5825 -44.6875 40.5625 C-45.6775 40.2325 -46.6675 39.9025 -47.6875 39.5625 C-47.6875 38.9025 -47.6875 38.2425 -47.6875 37.5625 C-48.3475 37.5625 -49.0075 37.5625 -49.6875 37.5625 C-52.03619747 35.58959413 -52.68852287 34.55943138 -53.6875 31.5625 C-53.85546875 29.625 -53.85546875 29.625 -53.875 27.5625 C-53.88917969 26.881875 -53.90335937 26.20125 -53.91796875 25.5 C-53.6875 23.5625 -53.6875 23.5625 -51.6875 20.5625 C-51.0275 20.5625 -50.3675 20.5625 -49.6875 20.5625 C-49.6875 19.9025 -49.6875 19.2425 -49.6875 18.5625 C-46.47205233 16.95477617 -43.17486451 17.09018533 -39.6875 17.5625 C-34.14593829 20.38365869 -34.14593829 20.38365869 -32.8125 23.8125 C-32.77125 24.39 -32.73 24.9675 -32.6875 25.5625 C-31.6975 25.5625 -30.7075 25.5625 -29.6875 25.5625 C-29.6875 24.9025 -29.6875 24.2425 -29.6875 23.5625 C-29.0275 23.5625 -28.3675 23.5625 -27.6875 23.5625 C-27.3575 22.5725 -27.0275 21.5825 -26.6875 20.5625 C-26.0275 20.5625 -25.3675 20.5625 -24.6875 20.5625 C-24.3575 19.5725 -24.0275 18.5825 -23.6875 17.5625 C-23.0275 17.5625 -22.3675 17.5625 -21.6875 17.5625 C-21.1925 16.0775 -21.1925 16.0775 -20.6875 14.5625 C-20.0275 14.5625 -19.3675 14.5625 -18.6875 14.5625 C-18.3575 13.5725 -18.0275 12.5825 -17.6875 11.5625 C-17.0275 11.5625 -16.3675 11.5625 -15.6875 11.5625 C-15.419375 10.758125 -15.15125 9.95375 -14.875 9.125 C-14.483125 8.279375 -14.09125 7.43375 -13.6875 6.5625 C-12.6975 6.2325 -11.7075 5.9025 -10.6875 5.5625 C-10.3575 4.5725 -10.0275 3.5825 -9.6875 2.5625 C-9.0275 2.5625 -8.3675 2.5625 -7.6875 2.5625 C-7.6875 1.9025 -7.6875 1.2425 -7.6875 0.5625 C-4.59271121 -0.46909626 -3.16118607 -0.41232862 0 0 Z " fill="#0A0A0A" transform="translate(377.6875,700.4375)"/>
<path d="M0 0 C3.63 0 7.26 0 11 0 C11 0.66 11 1.32 11 2 C11.99 2.33 12.98 2.66 14 3 C16.06546035 7.13092071 15.38235163 12.43583422 14.3125 16.8125 C12.63026964 19.61621727 10.69642704 21.17991175 8 23 C7.34 23 6.68 23 6 23 C5.505 24.485 5.505 24.485 5 26 C4.34 26 3.68 26 3 26 C2.505 27.485 2.505 27.485 2 29 C1.34 29 0.68 29 0 29 C0 29.66 0 30.32 0 31 C-1.66215268 32.33895632 -3.32963607 33.67130142 -5 35 C-6.36244796 36.64295195 -7.69864875 38.30824337 -9 40 C-10.5625 41.8125 -10.5625 41.8125 -12 43 C-12.99 43 -13.98 43 -15 43 C-15 43.99 -15 44.98 -15 46 C-15.99 46 -16.98 46 -18 46 C-18.12375 46.639375 -18.2475 47.27875 -18.375 47.9375 C-18.684375 48.9584375 -18.684375 48.9584375 -19 50 C-22.21451269 51.60725635 -25.43612536 51.05748185 -29 51 C-29 50.34 -29 49.68 -29 49 C-30.11375 48.9071875 -30.11375 48.9071875 -31.25 48.8125 C-34.87129113 47.74257307 -35.98712115 46.13114488 -38 43 C-38 42.01 -38 41.02 -38 40 C-38.99 39.67 -39.98 39.34 -41 39 C-41 38.34 -41 37.68 -41 37 C-41.66 37 -42.32 37 -43 37 C-43.33 35.68 -43.66 34.36 -44 33 C-44.66 33 -45.32 33 -46 33 C-47.33329006 30.33341988 -46.98589615 28.52299672 -46.75 25.5625 C-46.68296875 24.59441406 -46.6159375 23.62632812 -46.546875 22.62890625 C-46 20 -46 20 -44.77734375 18.1640625 C-42.35750335 16.5792 -40.67840876 16.70084122 -37.8125 16.8125 C-36.46091797 16.85310547 -36.46091797 16.85310547 -35.08203125 16.89453125 C-34.05142578 16.94673828 -34.05142578 16.94673828 -33 17 C-33 17.66 -33 18.32 -33 19 C-31.68 19.33 -30.36 19.66 -29 20 C-29 20.66 -29 21.32 -29 22 C-28.01 22.33 -27.02 22.66 -26 23 C-26 23.66 -26 24.32 -26 25 C-25.01 25 -24.02 25 -23 25 C-23 24.34 -23 23.68 -23 23 C-21.34997172 21.64613064 -19.6825613 20.31321858 -18 19 C-17.67 18.34 -17.34 17.68 -17 17 C-15.66666667 16.33333333 -14.33333333 15.66666667 -13 15 C-12.67 14.34 -12.34 13.68 -12 13 C-11.34 13 -10.68 13 -10 13 C-9.67 12.01 -9.34 11.02 -9 10 C-8.34 10 -7.68 10 -7 10 C-6.9071875 9.13375 -6.9071875 9.13375 -6.8125 8.25 C-5.6812921 5.11742429 -3.62052199 3.96539149 -1 2 C-0.67 1.34 -0.34 0.68 0 0 Z " fill="#080808" transform="translate(371,776)"/>
<path d="M0 0 C0.556875 0.2475 1.11375 0.495 1.6875 0.75 C1.6875 1.41 1.6875 2.07 1.6875 2.75 C2.6775 3.08 3.6675 3.41 4.6875 3.75 C4.6875 4.41 4.6875 5.07 4.6875 5.75 C5.6775 6.08 6.6675 6.41 7.6875 6.75 C7.38644935 10.36260785 6.97881912 11.49509577 4.1875 13.9375 C3.3625 14.535625 2.5375 15.13375 1.6875 15.75 C1.3575 16.41 1.0275 17.07 0.6875 17.75 C0.0275 17.75 -0.6325 17.75 -1.3125 17.75 C-1.8075 19.235 -1.8075 19.235 -2.3125 20.75 C-2.9725 20.75 -3.6325 20.75 -4.3125 20.75 C-4.8075 22.235 -4.8075 22.235 -5.3125 23.75 C-5.9725 23.75 -6.6325 23.75 -7.3125 23.75 C-7.3125 24.41 -7.3125 25.07 -7.3125 25.75 C-8.97465268 27.08895632 -10.64213607 28.42130142 -12.3125 29.75 C-12.9725 30.575 -13.6325 31.4 -14.3125 32.25 C-16.40717546 34.86834432 -18.68340459 36.68935765 -21.3125 38.75 C-21.6425 39.41 -21.9725 40.07 -22.3125 40.75 C-22.9725 40.75 -23.6325 40.75 -24.3125 40.75 C-24.6425 41.74 -24.9725 42.73 -25.3125 43.75 C-25.9725 43.75 -26.6325 43.75 -27.3125 43.75 C-27.3125 44.41 -27.3125 45.07 -27.3125 45.75 C-28.97465268 47.08895632 -30.64213607 48.42130142 -32.3125 49.75 C-33.67494796 51.39295195 -35.01114875 53.05824337 -36.3125 54.75 C-37.75 56.5625 -37.75 56.5625 -39.3125 57.75 C-42 57.9375 -42 57.9375 -44.3125 57.75 C-44.8075 56.265 -44.8075 56.265 -45.3125 54.75 C-45.9725 54.75 -46.6325 54.75 -47.3125 54.75 C-49.59786295 53.07992708 -50.23895247 52.10854421 -50.8125 49.3125 C-50.11116707 45.71816874 -48.22590917 44.81070404 -45.3125 42.75 C-44.9825 42.09 -44.6525 41.43 -44.3125 40.75 C-43.6525 40.75 -42.9925 40.75 -42.3125 40.75 C-41.9825 39.76 -41.6525 38.77 -41.3125 37.75 C-40.6525 37.75 -39.9925 37.75 -39.3125 37.75 C-38.9825 36.76 -38.6525 35.77 -38.3125 34.75 C-37.6525 34.75 -36.9925 34.75 -36.3125 34.75 C-35.9825 33.76 -35.6525 32.77 -35.3125 31.75 C-34.6525 31.75 -33.9925 31.75 -33.3125 31.75 C-32.9825 30.76 -32.6525 29.77 -32.3125 28.75 C-31.6525 28.75 -30.9925 28.75 -30.3125 28.75 C-29.9825 27.76 -29.6525 26.77 -29.3125 25.75 C-28.6525 25.75 -27.9925 25.75 -27.3125 25.75 C-27.3125 25.09 -27.3125 24.43 -27.3125 23.75 C-25.66247172 22.39613064 -23.9950613 21.06321858 -22.3125 19.75 C-21.9825 19.09 -21.6525 18.43 -21.3125 17.75 C-20.6525 17.75 -19.9925 17.75 -19.3125 17.75 C-18.9825 16.76 -18.6525 15.77 -18.3125 14.75 C-17.6525 14.75 -16.9925 14.75 -16.3125 14.75 C-15.9825 13.76 -15.6525 12.77 -15.3125 11.75 C-14.6525 11.75 -13.9925 11.75 -13.3125 11.75 C-12.9825 10.76 -12.6525 9.77 -12.3125 8.75 C-11.6525 8.75 -10.9925 8.75 -10.3125 8.75 C-9.9825 7.76 -9.6525 6.77 -9.3125 5.75 C-8.6525 5.75 -7.9925 5.75 -7.3125 5.75 C-7.3125 5.09 -7.3125 4.43 -7.3125 3.75 C-3.10958131 -0.33617095 -3.10958131 -0.33617095 0 0 Z " fill="#F2F2F2" transform="translate(685.3125,571.25)"/>
<path d="M0 0 C0.66 0 1.32 0 2 0 C1.67 2.64 1.34 5.28 1 8 C0.39261364 8.00331015 -0.21477272 8.00662029 -0.84056473 8.01003075 C-15.66593049 8.09149116 -30.49120122 8.18365762 -45.31642532 8.28752708 C-52.48599394 8.33750473 -59.65555198 8.38394842 -66.82519531 8.421875 C-73.07918509 8.45496707 -79.33308892 8.49489122 -85.58698344 8.54279006 C-88.89389876 8.56788535 -92.20074816 8.58869545 -95.50772858 8.60334396 C-99.21263281 8.62033617 -102.91726705 8.64940207 -106.62207031 8.68115234 C-107.70101563 8.68331253 -108.77996094 8.68547272 -109.89160156 8.68769836 C-117.09174065 8.76602526 -123.93409145 9.62449679 -131 11 C-131 10.34 -131 9.68 -131 9 C-127.7 8.67 -124.4 8.34 -121 8 C-121 7.34 -121 6.68 -121 6 C-81.07 6 -41.14 6 0 6 C0 4.02 0 2.04 0 0 Z " fill="#585858" transform="translate(386,196)"/>
<path d="M0 0 C0 0.66 0 1.32 0 2 C0.66 2 1.32 2 2 2 C4.1875 4.25 4.1875 4.25 6 7 C5.75 9.3125 5.75 9.3125 5 11 C4.34 11 3.68 11 3 11 C2.67 11.99 2.34 12.98 2 14 C-1.375 13.75 -1.375 13.75 -5 13 C-6.3125 11 -6.3125 11 -7 9 C-7.66 8.67 -8.32 8.34 -9 8 C-9 6.68 -9 5.36 -9 4 C-8.34 4 -7.68 4 -7 4 C-6.87625 3.360625 -6.7525 2.72125 -6.625 2.0625 C-6.41875 1.381875 -6.2125 0.70125 -6 0 C-3.50907189 -1.24546405 -2.58919267 -0.7767578 0 0 Z " fill="#E3E3E3" transform="translate(704,555)"/>
<path d="M0 0 C0.66 0.33 1.32 0.66 2 1 C0.38113585 2.67262717 -1.2452729 4.33795537 -2.875 6 C-4.23238281 7.3921875 -4.23238281 7.3921875 -5.6171875 8.8125 C-8 11 -8 11 -10 11 C-10 11.99 -10 12.98 -10 14 C-10.66 13.67 -11.32 13.34 -12 13 C-11.67 12.01 -11.34 11.02 -11 10 C-10.34 9.67 -9.68 9.34 -9 9 C-8.67 8.01 -8.34 7.02 -8 6 C-7.34 6 -6.68 6 -6 6 C-6 5.34 -6 4.68 -6 4 C-4.02709413 1.65130253 -2.99693138 0.99897713 0 0 Z " fill="#3B3B3B" transform="translate(250,209)"/>
<path d="M0 0 C2.4375 0.75 2.4375 0.75 5 2 C5.8125 4.125 5.8125 4.125 6 6 C3.69 6.33 1.38 6.66 -1 7 C-1.04254356 5.00045254 -1.04080783 2.99958364 -1 1 C-0.67 0.67 -0.34 0.34 0 0 Z " fill="#DBDBDB" transform="translate(627,631)"/>
<path d="M0 0 C0.90105469 0.02707031 1.80210937 0.05414062 2.73046875 0.08203125 C3.76107422 0.13423828 3.76107422 0.13423828 4.8125 0.1875 C4.4825 0.8475 4.1525 1.5075 3.8125 2.1875 C2.925625 2.06375 2.03875 1.94 1.125 1.8125 C-2.5507748 2.22862545 -2.82375473 2.47673835 -5 5.1875 C-5.721875 6.1775 -6.44375 7.1675 -7.1875 8.1875 C-7.5175 8.1875 -7.8475 8.1875 -8.1875 8.1875 C-8.55171725 3.69548722 -8.55171725 3.69548722 -7 1.53125 C-4.56328437 -0.27528055 -2.99805979 -0.11680752 0 0 Z " fill="#3D3D3D" transform="translate(333.1875,792.8125)"/>
<path d="M0 0 C0 0.66 0 1.32 0 2 C-0.8971875 2.0928125 -0.8971875 2.0928125 -1.8125 2.1875 C-4.85754676 3.31851737 -5.44490515 5.24324095 -7 8 C-7.66 8 -8.32 8 -9 8 C-9 6.68 -9 5.36 -9 4 C-8.34 4 -7.68 4 -7 4 C-6.87625 3.360625 -6.7525 2.72125 -6.625 2.0625 C-6.41875 1.381875 -6.2125 0.70125 -6 0 C-3.50907189 -1.24546405 -2.58919267 -0.7767578 0 0 Z " fill="#CBCBCB" transform="translate(704,555)"/>
<path d="M0 0 C0.8353125 0.37125 0.8353125 0.37125 1.6875 0.75 C1.6875 1.41 1.6875 2.07 1.6875 2.75 C0.945 2.87375 0.2025 2.9975 -0.5625 3.125 C-3.11391485 3.70486701 -5.0392573 4.48708739 -7.3125 5.75 C-7.3125 5.09 -7.3125 4.43 -7.3125 3.75 C-3.10958131 -0.33617095 -3.10958131 -0.33617095 0 0 Z " fill="#C9C9C9" transform="translate(685.3125,571.25)"/>
<path d="M0 0 C0.33 0.66 0.66 1.32 1 2 C-0.375 4 -0.375 4 -2 6 C-2.66 6 -3.32 6 -4 6 C-4 6.66 -4 7.32 -4 8 C-4.66 8 -5.32 8 -6 8 C-5.65120368 4.74456771 -4.97866739 3.98126893 -2.4375 1.75 C-1.633125 1.1725 -0.82875 0.595 0 0 Z " fill="#4E4E4E" transform="translate(399,178)"/>
</svg>
