<svg xmlns="http://www.w3.org/2000/svg" xml:space="preserve" id="pQVGnJVyxM" x="0" y="0" class="pbimage_pbimage__wrapper__image__0LEis false" version="1.1" viewBox="0 0 500 500"><style>.st2{fill:#3e5cd6}.st1{fill:#000005}.st0{fill:#fff}</style><g id="hand-3"><path fill="#FFF" d="M188.4 270.8s-19.7-24-27.1-42.7c-6.6-16.8-17.7-35-19.9-38.6l-.4-.6S130.8 226 130.6 228s45.6 73.8 45.6 73.8 12.1-28.7 12.2-31" class="st0"/><path fill="#000005" d="M190.8 270.5c-6.1-7.4-11.6-15.2-16.8-23.3-4-6-7.4-12.5-10.2-19.1q-4.95-12-11.1-23.4c-2.9-5.4-6-10.8-9.2-16-.4-.7-4.8-.6-5 .3-2.4 8.7-4.7 17.3-7.1 26-1.1 4.1-2.3 8.2-3.2 12.4-.3 1.4.9 2.8 1.5 3.9 4.5 7.9 9.4 15.6 14.2 23.4 6.2 10 12.4 19.9 18.7 29.8l7.2 11.4c1.2 1.9 2.3 3.9 3.6 5.6.1.1.1.2.2.3.5.7 4.6.5 5-.3 3.7-8.6 7.4-17.3 10.7-26.1.5-1.4 1.5-3.2 1.5-4.7 0-.5-4.9-.6-5 .3-.2 1.4-.6 2.7-1.2 4-.9 2.5-1.9 5-2.9 7.5-2.1 5.3-4.4 10.6-6.6 15.9-.5 1.2-1 2.4-1.5 3.5l5-.3-8.9-14.1c-6.2-9.8-12.4-19.6-18.5-29.4-5.2-8.4-10.4-16.7-15.4-25.2-.7-1.1-1.3-2.3-1.9-3.4-.3-.5-.6-1-.8-1.6.1-.9.2-1.8.6-2.7.5-2.1 1.1-4.3 1.6-6.4 2.6-9.8 5.3-19.6 8-29.4.1-.2.1-.4.2-.6l-5 .3c7.4 11.7 13.8 24 19.2 36.7 1.4 3.4 2.8 6.8 4.5 10.1s3.6 6.6 5.5 9.7c3.6 5.9 7.6 11.5 11.7 17.1 2.1 2.9 4.3 5.7 6.6 8.5.5.6 2.5.2 3.1.2.2-.2 2-.4 1.7-.9" class="st1"/><path fill="#3E5CD6" d="M151.1 173.9c2.7-4.1 7.8-5.8 12.5-4.3 5.8 1.8 9 8 7.2 13.8l-3.9 12.3-21-6.7 3.9-12.3c.2-1 .7-1.9 1.3-2.8" class="st2"/><path fill="#FFF" d="M22.6 261.2c6.5 2.1 14.5-4.7 16.6-11.2l29.1-91.6c3-9.6 12.7-15.1 21.5-12.3l63.2 20.1 10.6 3.4c-4.7-1.5-9.7.3-12.5 4.3l-32.5 100.6c-2.9 8.9-12.4 13.8-21.3 11l-54.5-17.3-8.5-2.7-11.8-3.8c-.1 0 .1-.5.1-.5" class="st0"/><path fill="#000005" d="M22.6 262.6c7 2.1 13.9-2.7 17.4-8.5.9-1.5 1.5-3.2 2-4.9l5.1-16.2 8.2-25.6 8.4-26.4 5.8-18.2c.3-1.1.7-2.1 1-3.2 1.7-5.5 5.8-9.9 11.3-11.8 3-.9 6.2-.8 9.1.2l7 2.2 25 7.9 24 7.6 12.6 4 4.1 1.3-.1-2.9c-3.7-1.2-7.8-.7-11.1 1.2-1.5.9-2.8 2.1-3.6 3.7-.5 1.2-.8 2.6-1.2 3.8l-6.1 18.8-8.7 27-8.8 27.2-6.3 19.2c-.4 1.4-.9 2.8-1.3 4.1-1.3 4.3-4.3 7.9-8.3 10-3.7 1.8-7.9 2-11.7.7l-7.5-2.4-26.6-8.5-19.1-6.1-16.9-5.4-3.9-1.2 2.3 2.5.2-.6zc.8.2 2.2.3 2.3-.8s-1.6-1.9-2.4-2.1c-.5-.2-2-.4-2.2.4l-.2.6c-.4 1.3 1.4 2.2 2.3 2.5l19.7 6.2 13.9 4.4 27.3 8.7 10.4 3.3c1.9.7 3.9 1.3 5.9 1.7 6.8 1.4 13.8-1.1 18.2-6.4 1.5-2 2.7-4.4 3.4-6.8l4.8-14.9 8.3-25.5 9-27.9 7.2-22.3 2.1-6.6c.3-1.3.9-2.5 1.9-3.5 2.3-2.4 5.8-3.4 9.1-2.5.8.2 2.2.3 2.3-.8s-1.6-1.9-2.4-2.1l-13.2-4.2-20.9-6.7-26.3-8.4c-4.4-1.4-8.8-2.9-13.3-4.2-6.3-2-13.1-.5-18 3.9-2.8 2.6-4.8 5.9-5.9 9.5l-4.3 13.5-7.9 24.7-8.6 27-6.5 20.3-1.5 4.8c-1.1 3.6-3.3 6.7-6.3 8.9-2.2 1.7-5.4 3.3-8.3 2.5-.8-.2-2.2-.3-2.3.8s1.6 1.8 2.4 2" class="st1"/><path fill="#3E5CD6" d="M74.8 204.1c6.9-3.4 14-7.1 20.1-11.9 1.5-1.2 6.3-4.9 3.5-7.1-1.5-1.2-3.6-.6-5.2.2-1.9 1.1-3.6 2.6-4.9 4.4-2.9 3.8-4.8 8.3-5.6 13-.2 1.6-.2 3.5 1 4.7 1.7 1.7 5 .9 7 .5 3.7-.8 7.1-2.3 10.1-4.6 1.6-1.3 4.2-3.8 3-6.1-1.1-2-3.7-1.3-5.2-.3-1.8 1.3-3.3 3-4.3 5-1.8 3.3-3.4 9.4 1.6 10.8 3.5.8 7.2.3 10.4-1.3 2.2-1 4.1-2.5 5.6-4.4.3-.3.5-.7.7-1.1.4-.8-.6-.9-1.1-.8-.9.1-1.7.6-2.2 1.4l-.1.2c-.2.2.2-.2 0 0l-.2.3c-.4.5-.8 1-1.3 1.4-1.7 1.4-3.9 2.3-6.1 2.3-1.9.1-4.3 0-5.2-2-.5-1.6-.5-3.4.2-4.9.6-1.8 1.5-3.5 2.7-4.9.2-.2.4-.4.7-.6l.2-.2c.1-.1.2-.1 0 0s-.4.2-.5.1c.2.1.3.2.5.3 1.4 1.5-.7 3.5-1.8 4.3-2.3 1.7-5 2.9-7.9 3.3-1.5.2-3.2.6-4-.8-.5-1.3-.6-2.8-.3-4.1.7-3.9 2.3-7.6 4.6-10.8.5-.8 1.1-1.5 1.7-2.2.2-.2.4-.5.7-.7.2-.2.4-.4.7-.5.3-.2.1-.1.1-.1.4-.2-.2 0 .1-.1s-.3 0 .1 0-.1-.1.2 0c-.2 0 .4.1.4.1.2.1.4.2.6.4.4.5.1 1.3-.3 1.7-.9 1.2-2 2.2-3.2 3-5.4 4.1-11.6 7.2-17.6 10.3l-.4.2c-.5.2-1.7.9-1.3 1.6s1.8.2 2.2 0M61.6 236.6c2.4-.8 4.9-1.8 7.2-2.8 3.3-1.4 7.4-2.9 9.8-5.8 2.6-3-1.8-6.2-4.8-5.8-3.6.6-5.4 5.2-6 8.3-.7 3.8.1 8.4 4.2 9.7 2.7.9 6.2.1 8.8-.8 2.8-.9 5.3-2.4 7.5-4.4 1.4-1.4 2.6-3.4 1.6-5.4-.9-1.8-2.9-2.6-4.8-2-3.3 1.3-5.4 5.8-6.1 9-.5 1.8-.2 3.8.7 5.5 1.4 2.1 3.8 2.8 6.1 2.9 4.8.4 9.5-1.6 12.5-5.3.2-.2.3-.5.5-.7.8-1.5-2.4-3.4-3.2-2-1.3 2.1-3.3 3.6-5.6 4.4-2.2.8-4.5 1-6.8.6-.5-.1-.6-.2-.8-.6.2.3-.2-.5-.1-.3-.1-.4-.2-.8-.2-1.2-.1-2.9 1.6-6.1 3.4-8.2.4-.4.8-.8 1.3-1.1.2-.1.3-.2.5-.3.1 0 .2 0 .2-.1.2 0 .3-.2.3-.4s-.2-.3-.4-.3-.3.2-.3.4q0 .15.3.3c-.2-.1-.5-.2-.7-.3 0 0 .1.2.1.3-.1.8-.4 1.5-.9 2-1.5 1.7-3.4 3-5.6 3.8-2.4 1.1-4.9 1.7-7.5 1.7-.1 0-.8-.1-.6-.1-.5-.1 0 0-.4-.2.2.1 0 0-.2-.2-.1-.2-.2-.4-.3-.7-.4-1.3-.5-2.7-.2-4.1.4-2.4 1.6-6.1 3.9-7.2.3-.2.7-.2 1-.1-.1 0-.2-.1.1.1s-.1-.2-.1-.1-.1.1 0 0v.3c.1-.3 0-.1 0 0-.2.4-.5.7-.8 1-2.6 2.3-6 3.7-9.2 5-2.2.9-4.3 1.7-6.5 2.5-1.9.6.7 3.2 2.1 2.7" class="st2"/><path fill="#FFF" d="M154.8 256.5s-16.6-8.3-22.4-16.9-2.4-19.9-2.4-19.9-10.6-11.9-10-21.2 3.9-8.3 6.8-4.1c2.9 4.1 16.3 17.9 16.3 17.9" class="st0"/><path fill="#000005" d="M155.6 255.1c-6.1-3-11.9-6.7-17-11.2-3.6-3-6-7.1-6.9-11.7-.6-3.7-.4-7.6.5-11.2.2-.8-.1-1.7-.7-2.2-.8-1-1.6-1.9-2.3-2.9-2.6-3.3-4.6-7-6-11-.7-2.2-1-4.6-.7-6.9.1-1.2.3-2.3.7-3.4.1-.3.3-.7.5-1 .1-.2.4-.3.5-.5 0 .2-.2.1-.4.1.5 0-.5-.1 0 0-.7-.2-.2-.1-.1 0h.1c-.3-.2-.3-.2-.1-.1 0 0 .6.5.1.1.3.3.6.7.9 1 .8 1 1.7 2.2 2.6 3.3 4.5 5.3 9.4 10.4 14.3 15.3.8.8 2.1 1.6 3.3 1.1s.9-1.6.2-2.3c-5.4-5.6-11.1-11.1-15.9-17.3l-.3-.4c.4.6-.3-.4-.4-.5-.3-.4-.6-.9-1-1.2-.8-.9-1.9-1.7-3-2.2-2.1-.9-4.2-.6-5.3 1.5-1.4 2.6-1.5 6.1-1.2 9 .4 3 1.4 5.8 2.8 8.4 2.1 4.1 4.6 7.9 7.7 11.3l-.6-1.4c-1.9 6.4-1.3 14.1 2 19.8 2.1 3.6 5.3 6.6 8.5 9.1s6.6 4.8 10.1 6.8c1.9 1.1 3.8 2.2 5.7 3.2.8.4 2.4.8 2.9-.2s-.7-2-1.5-2.4M242.4 355.6s-44-108.9-58.4-108.9-43 26.6-35.3 47.7 63.7 91.2 70.4 92.8 23.3-31.6 23.3-31.6" class="st1"/><path fill="#000005" d="M244.4 354.9c-2.1-5.3-4.4-10.5-6.6-15.8q-7.5-17.7-15.6-35.1c-5.8-12.4-11.8-24.8-18.6-36.7-2.7-4.8-5.6-9.4-8.8-13.8-2.2-3-4.7-6.2-8-8-4.4-2.5-10.2.1-14.3 2.2-7.4 4-13.9 9.5-18.9 16.3-5 6.6-9 14.9-8.7 23.4.2 5.9 2.8 11.1 5.6 16.1 7 12.5 15.6 24.2 24.1 35.6 9 12.1 18.4 24 28.3 35.4 3.3 3.8 6.6 7.5 10.2 11 2.3 2.2 5.1 5.1 8.6 3.7 2.4-1 4.2-3 5.8-4.9 2.1-2.6 4-5.2 5.8-8 3.4-5.2 6.4-10.7 9.3-16.2.6-1.1 1.1-2.2 1.7-3.3s-.6-2.6-1.6-3c-1-.5-2.3-.2-2.8.9 0 0 0 .1-.1.1l-.4.8-.5.9-.3.6c-.1.1-.2.4.1-.1l-.2.4-3.9 7.2c-3.3 5.8-6.7 11.7-11 16.8-.4.5-.8 1-1.3 1.4l-.6.7-.1.1-.4.3-1.2.9c-.2.1-.4.2-.6.4s.1-.1.2-.1l-.4.2c-.1 0-.7.2-.3.1s-.1 0-.2 0c.9.1.3 0 .1 0 1.1.3.5.1.3.1-.1 0-.2-.1-.2-.1-.4-.2.6.5.3.1-.2-.2-.4-.3-.6-.4-.5-.4-1-.8-1.5-1.3-.2-.2-1.1-1.1-.5-.4l-1.1-1c-1.6-1.6-3.2-3.2-4.7-4.9-9.3-10.2-17.9-21-26.3-31.9-9.1-11.7-17.9-23.7-25.6-36-2.8-4.3-5.4-8.9-7.6-13.6-.2-.4-.4-.9-.5-1.3l-.1-.3c-.2-.5-.4-1.1-.5-1.6-.5-1.7-.7-3.5-.6-5.2.1-3.9 1-7.7 2.6-11.2 3.5-7.5 8.7-14.1 15.3-19.2 2.8-2.3 6-4.3 9.3-5.9 1.5-.7 3-1.2 4.6-1.6.2 0 .4-.1.7-.1.3-.1.7-.1 1-.1.5 0 1 0 1.5-.1-.5.1-.6 0-.2 0 .1 0 .2.1.3.1.4 0-.6-.3-.2-.1.1.1.3.1.4.2s.2.1.4.2c.5.2-.3-.2-.1-.1s.5.4.8.6.5.4.8.6.3.2.4.4c.4.3-.5-.5-.2-.1l.2.2c.6.6 1.2 1.2 1.8 1.9 1.4 1.6 2.6 3.3 3.8 5l.5.7.2.4c-.3-.5-.1-.2-.1-.1.4.6.7 1.1 1.1 1.7.7 1.1 1.4 2.2 2.1 3.4 6.6 11.2 12.7 22.7 18.1 34.5q8.4 17.85 16.2 36c3 7 6 14 8.9 21.1.1.3.3.7.4 1 1.1 1.8 5.4.9 4.2-2.1" class="st1"/></g><g id="hand-2"><path d="M465.9 241.5s-55.6-62.2-57.8-61.9-43.4 37.9-44.4 41.8 54.3 59.4 57.1 61.9 46.2-39.4 45.1-41.8" class="st2"/><path d="m460 243.5-.6-.1-2.4-.3-8.4-1.2c-7.2-1.3-14.6-2.9-21.3-5.9q-4.5-1.8-8.1-5.1c-3-3.1-5.5-6.7-7.1-10.7-3.1-7.1-4-14.9-3.8-22.6q.15-6.6 1.5-12.9c.1-.2-2.3-.1-2.5-.1-.4 0-2.4 0-2.5.5-.8 3.6-1.3 7.3-1.5 11-.6 7.6.4 15.3 2.9 22.5 2.7 7.2 7.3 13.6 14.3 17.1 6.7 3.3 14.2 5.1 21.6 6.5q7.2 1.35 14.4 2.1c1.2.1 2.4 0 3.5-.3.8-.3 1-.5 0-.5" class="st1"/><path d="m426.1 267.6 4.8-24.6.7-3.5c.2-1.1-4.5-2.5-4.6-1.9l-4.8 24.6-.7 3.5c-.2 1.1 4.5 2.5 4.6 1.9M405.1 211.3l-22.9 5.3-3.3.8c-.7.2.8 1.5 1 1.6.6.5 1.9 1.6 2.8 1.4l22.9-5.3 3.3-.8c.7-.2-.8-1.5-1-1.6-.6-.4-2-1.6-2.8-1.4" class="st1"/><path d="M439.7 298s5.5-16.6 6.7-18.3 28.8-30.9 30.9-33.7-6.7-29.5-9.8-29.6-3 23.8-3 23.8-4.8-10.3-7.1-11.9-26.4-2.4-27.7.5 12 6.4 12 6.4-15.3.6-15.1 3.4 8.6 4.5 8.6 4.5-10.1 1.2-8.9 3.3 11 5 11 5l1.1 4.8s-14.3 5.5-18.8 13.5-8.4 39.4-8.4 39.4 24.5-7.5 28.5-11.1" class="st0"/><path d="M442.2 298.3c1.3-3.9 2.6-7.8 4.1-11.7q1.05-3 2.4-6c.1-.3.3-.6.5-.8.3-.4.6-.8 1-1.1 6.7-7.4 13.6-14.7 20.4-22 2.8-3 5.6-6 8.3-9.2.7-.6 1.1-1.4 1.3-2.3 0-1.9-.2-3.8-.7-5.6-1.2-5.4-2.9-10.7-5-15.8-.8-2-1.7-3.9-2.8-5.7-1.3-1.9-3.3-2.6-5.6-2.4-1.7.1-2.2 1.5-2.5 3-.5 2.3-.9 4.6-1 6.9-.4 4.5-.5 9-.5 13.4v.8l4.9.4c-.7-1.5-1.5-3-2.2-4.5-1.1-2.4-2.5-4.6-4-6.6-1.1-1.3-2.8-1.7-4.4-2-2.3-.4-4.7-.7-7.1-.8-5.3-.4-10.6-.4-15.9.1-1.7.2-8.6 1-5.1 4 2 1.7 4.7 2.6 7.1 3.4 1.7.6 3.4 1.1 5.2 1.6l.1-1.1q-5.7.15-11.4 1.2c-1.4.3-4.1.6-4.9 2.1-.9 1.8 2.4 3.3 3.5 3.8 2.1.9 4.4 1.6 6.7 2l-1-1.2c-1.2.2-2.5.4-3.7.6-1.8.2-3.6.8-5.2 1.6-1.4.9-.5 1.9.6 2.6 1.9 1.2 3.9 2.1 6 2.8 1.6.6 3.2 1.1 4.9 1.6l-1.2-.7 1.2 4.8.4-.3q-5.1 1.95-9.6 4.8c-4.3 2.7-8.5 6-10.5 10.9-1.6 4.4-2.8 9-3.6 13.6-1 5.1-1.9 10.2-2.6 15.3-.4 2.8-.8 5.7-1.2 8.5-.1 1 4 1.1 4.6.9 8-2.3 15.9-5.1 23.5-8.4 1.9-.7 3.6-1.6 5.1-2.8.6-.5-1.4-.9-1.6-1-.7-.1-2.5-.5-3.1 0-1.3 1.1-2.8 1.9-4.3 2.6-2.2 1-4.5 1.9-6.8 2.8-4.6 1.7-9.2 3.3-13.9 4.7-1 .3-2.1.7-3.1 1l4.6.9c.9-7.2 2-14.4 3.4-21.5.8-4.8 2-9.6 3.4-14.2.5-1.8 1.4-3.5 2.4-5.1 1.8-2.3 3.9-4.2 6.3-5.8 3.5-2.4 7.3-4.5 11.3-6 .2 0 .3-.1.4-.3l-1.1-4.9c-.1-.4-.8-.6-1.2-.7l-.5-.1-.4-.1q-.3-.15 0 0l-.4-.1c-1.1-.4-2.1-.7-3.2-1.1-1.2-.4-2.4-.9-3.5-1.5-.5-.3-1.8-.8-2-1.4-.5-1.8 6.9-2.6 8.2-2.8 1.8-.2-.3-1.1-1-1.2l-.3-.1-.4-.1c.5.1.1 0-.1 0-.9-.2-1.8-.5-2.7-.8-.9-.4-3.9-1.6-3.2-3.1.6-1.1 2.9-1.4 3.9-1.6 2-.4 4.1-.6 6.2-.8l1.6-.1h.3c.3 0-.3 0 0 0h1.7c.2 0 1.2 0 1.3-.4s-.9-.6-1.2-.7c-3.1-.7-6.2-1.8-9-3.3-.8-.4-2.6-1.6-1.8-2.5.7-.8 2.3-.9 3.2-1 4.3-.5 8.7-.6 13-.3 1.1.1 2.2.1 3.3.2.2 0 .8.1.3 0l.7.1 1.3.2c.2 0 .8.1.1 0l.5.1.5.1c.1 0-.5-.1 0 0s-.1 0 0 0c.3.1-.2-.2 0 0 .2.1.4.3.5.5 1.6 2 2.9 4.2 4 6.5.8 1.6 1.6 3.1 2.4 4.7.4.8 4.9 1.2 4.9.5 0-3.2 0-6.5.2-9.7.1-2.5.3-5.1.6-7.6.1-1.9.5-3.8 1.2-5.5.1-.2.2-.4.4-.6 0-.1.2-.1.2-.2-.3.4-3.6-.1-3.8-.4-.1-.1.2.1.4.3.2.3.4.5.6.8 1.1 1.7 2 3.6 2.8 5.5 2.1 5 3.7 10.1 4.9 15.3.5 1.8.8 3.7.8 5.6 0 .8-.3 1.7-.9 2.2-2.5 2.9-5.1 5.7-7.7 8.6l-20.4 21.9c-.7.7-1.4 1.5-2 2.2q-1.2 1.8-1.8 3.9c-1.7 4.5-3.3 9-4.8 13.6-.1.4-.2.7-.4 1-.5 1.1 4.3 2.2 4.7 1.1" class="st1"/><path d="M455 245.8s-2.3-6.3-4.3-8.5-11.3-2.8-16-1.3" class="st0"/><path d="M457.2 245.6c-.7-1.8-1.4-3.6-2.2-5.3-1.1-2.4-2.4-4.7-4.9-5.9-2.6-1-5.4-1.5-8.1-1.5-2.8-.2-5.7.2-8.4.9-1 .4-1.5 1.5-1.1 2.5 0 .1.1.2.2.3.6 1.1 1.9 1.7 3.2 1.4 1-.3 2-.5 3.1-.6 1.3-.1 2.6-.2 3.9-.1q1.65 0 3.3.3c.5.1 1.1.2 1.6.3s-.3-.1.2.1c.2.1.5.2.7.3.1 0 .7.4.3.1s.1.1.2.2c-.6-.4-.2-.2 0 0 .4.4-.1-.2.2.2.6 1 1.1 2 1.6 3 .2.5.5 1 .7 1.6l.4.8c-.2-.4 0 .1.1.2.2.5.4.9.5 1.4.4 1.2 1.6 2.1 2.9 2.1 1 0 1.8-.9 1.8-1.9 0-.1-.1-.3-.2-.4" class="st1"/><path d="M447.3 250.2s-.8-5.8-2.7-7.1-12.9 1-14.5 1.2" class="st0"/><path d="M449.8 250.3c-.2-1.3-.4-2.6-.8-3.8-.6-2-1.5-4.1-3.6-5-1.9-.6-3.8-.7-5.8-.4-2 .1-3.9.4-5.9.8-1.5.2-3 .6-4.5.8-1 .1-1.9 1-1.3 2 .7 1 2 1.5 3.2 1.3 2.9-.4 5.7-1 8.5-1.4l1.2-.1.6-.1h.4-.1 1.6c.5 0 0 .1-.1 0 .1 0 .3.1.4.1.5.1-.5-.2-.2-.1s-.4-.2-.4-.2c-.2 0-.1-.2 0 0 0 0 .3.4.1.1s.1.2.2.3.2.4.3.5c.2.3.3.7.4 1 .4 1.3.7 2.7.9 4.1.3 2.1 5.2 2.5 4.9.1M390.1 425c39.7-23.9 73.9-112.5 60.1-126.9-4.5-4.7-11.2-5.8-18.4-5.2-17.4 1.5-32.3 13.2-38.5 29.6L378.7 354" class="st1"/><path d="M391.5 425.4c7.4-4.7 14-10.4 19.7-17 6.5-7.4 12.2-15.4 17.3-23.8 10.2-16.5 18.1-34.3 23.4-53 2.1-7 3.4-14.2 3.7-21.5.1-4.3-.1-9.5-3.2-12.9-4.3-4.6-11.1-5.7-17.2-5.5s-12.2 1.6-17.8 4c-10.9 4.6-19.7 13.1-24.9 23.7-1 2.1-1.9 4.3-2.9 6.4l-4.2 9.1-8.6 18.5-.5 1.1c-.4.9 1.7.6 2 .5.9-.2 2.3-.6 2.7-1.5l14.3-30.7c1.4-3.5 3.1-6.8 5.1-10 3.1-4.6 7-8.6 11.5-11.8 4.3-3.1 9.3-5.2 14.5-6.3 5.5-1.1 11.9-1.4 17.1 1.2 2.9 1.4 5.1 3.3 6.1 6.2.7 2.2 1.1 4.4 1.1 6.7.2 6.6-1 13.2-2.6 19.6-4.4 17.8-11.9 35-20.9 51-4.7 8.4-10.1 16.5-16.1 24.1-5.3 6.8-11.4 13-18.2 18.2-1.4 1.1-2.9 2.1-4.4 3-.6.4-1.4 1.1-.5 1.5s2.8-.3 3.5-.8" class="st1"/><path d="M396.3 165.8c-.5-11.3-4-22.3-10.2-31.8-3.1-4.8-6.8-9.9-11.9-12.7-2.4-1.5-5.3-2-8.1-1.5-2.4.7-4.5 2.4-5.7 4.6-2.5 4-3.7 9.8.6 13 2.1 1.7 4.9 2.1 7.4 1.1 2.2-1 4-2.7 5.1-4.9 2.4-4.3 2.3-10 1.2-14.7-1.2-5.1-3.7-9.8-7.1-13.7-8.4-9.6-21.5-13.7-33.9-14.9-.9-.1-2 .2-1.8 1.4.5 1.2 1.5 2 2.8 2.1 9.1.9 18.4 3.2 25.7 8.9 6.6 5.2 11 13.7 10.3 22.2-.3 3.8-1.6 8.3-5.4 10.1-1.4.7-2 .6-2.4-.9-.3-1.8 0-3.7.8-5.4 1.6-3.7 4.9-7.4 9.2-5 1.9 1.2 3.5 2.6 4.8 4.4 1.5 1.8 3 3.7 4.3 5.7 5.9 9 9.3 19.4 9.8 30.2.2 1.2 1.1 2.1 2.2 2.4.6.4 2.4.6 2.3-.6M316.6 89.3h-18.1c-.9 0-3.8.6-2.1 1.8s4.5 1.5 6.7 1.5h18.1c.9 0 3.8-.6 2-1.8s-4.5-1.5-6.6-1.5M283.8 89.8h-2c-.3 0-.6 0-.9.2-.3.1-.6.2-.9.4s-.5.4-.7.6-.3.4-.4.7l-.1.5c0 .3.1.6.4.9l.4.3c.3.2.7.3 1.1.3h2c.3 0 .6 0 .9-.2.3-.1.6-.2.9-.4s.5-.4.7-.6.3-.4.4-.7l.1-.5c0-.3-.1-.6-.4-.9l-.4-.3c-.3-.3-.7-.3-1.1-.3" class="st2"/></g><g id="hand-1"><path d="M184.6 67.6c-2.4-4.7-7.7-7.1-12.8-5.7-11.1 3.1-34.6 8-32.9 15.7 1 4.5 27.2 72.3 33.5 76.6s33.4-6.6 34.9-9.6c1.3-2.5-12.6-56.8-22.7-77" class="st0"/><path d="M186.4 66.5c-1.7-3.2-4.6-5.6-8-6.7-3.2-1-6.2-.5-9.3.3-5.5 1.5-11.1 2.9-16.5 4.7-4.7 1.6-10.1 3.3-13.7 6.9-2.2 2.2-2.4 4.9-1.5 7.7 2 6.1 4.4 12 6.7 17.9q5.4 13.65 11.1 27.3c3.4 8.1 6.9 16.2 11 23.9 1.1 2.3 2.5 4.6 4.2 6.6 2.2 2.5 5.7 2.7 8.8 2.4 5.1-.5 10.1-1.7 14.9-3.5 4.3-1.4 8.5-3.2 12.5-5.5 1.2-.6 2.3-1.5 3-2.7.3-.9.3-1.8.2-2.7-.4-2.9-.9-5.7-1.6-8.6-2.3-10.3-5.1-20.4-8.1-30.5q-4.5-16.05-10.8-31.5c-1-1.9-1.9-4-2.9-6-.6-1.1-1.9-1.5-3.1-1-1.2.7-.9 2.2-.4 3.2l.1.2.3.6.6 1.4c.4 1 .9 2 1.3 3 .9 2.2 1.8 4.4 2.6 6.6 1.9 5.1 3.6 10.2 5.2 15.3 3.3 10.4 6.3 20.9 8.9 31.4.3 1.1.5 2.2.8 3.3.1.5.2 1 .4 1.5.1.3.1.5.2.8-.1-.4.1.4.1.5.4 1.7.8 3.4 1.1 5.1.2 1.3.5 2.5.7 3.8.1.4.1.8.1 1.2v.3c0 .1.1-.6.3-.7-.1 0-.6.6-.2.3s-.3.2-.4.3-.5.4-.8.5c-1.5.9-3.2 1.8-4.8 2.5q-6.6 2.85-13.5 4.8c-2.2.6-4.5 1.1-6.8 1.4-.9.1-1.8.2-2.7.1-.4 0-.8 0-1.2-.1l-.6-.1c.4.1 0 0-.2 0s-.6-.2-.9-.3c.8.3-.3-.1-.2-.2.2-.2.6.6.3.2l-.2-.2c-.1-.1-.2-.3-.4-.4-.4-.5.4.5 0 0l-.4-.6c-.3-.4-.6-.9-.9-1.3-.7-1.2-1.4-2.4-2-3.6-.4-.7-.8-1.4-1.1-2.1-.2-.4-.4-.7-.6-1.1l-.3-.6-.1-.3c-.2-.4.3.6 0 0-1.8-3.8-3.6-7.6-5.2-11.4-3.9-8.8-7.5-17.6-11.1-26.5-2.9-7.2-5.7-14.4-8.3-21.6-.6-1.7-1.2-3.4-1.8-5.2 0-.1 0-.2-.1-.3s.1.7.1.5v-.5.2c0-.1.1-.6 0-.3s.1-.2.1-.2.1-.3.2-.5c-.2.4.1-.1.2-.2.2-.3.5-.6.8-.9l.2-.2.7-.5c.9-.6 1.8-1.2 2.7-1.7 4.7-2.5 10-4 15.1-5.4 2.6-.7 5.3-1.4 8-2.1 2.5-.7 5.1-1.7 7.7-1.2 2.7.5 5 2.2 6.2 4.7.6 1.1 2 1.6 3.1 1 .9-.9.7-2.4.2-3.4" class="st1"/><path d="M148 81.5s25.6 63.6 29.9 63.6 19.9-3.7 19.9-6.3-18.1-63.3-22.2-65.6-27.6 6.2-27.6 8.3" class="st2"/><path d="M153.1 76.9s3 3.2 4.1 3.2 10.8-3.2 11.6-3.8.5-5.9.5-5.9zM229.1 152.7s-6.6-38.2-13.1-53.4-17.3-23.5-17-16.5c0 0-5.5-7.1-11.1-7.4l2.7 8.3s10.4 31 7.8 38.1-11.6 2.9-15.8 1.5-10-.4-8.1 4.7 27.8 15.9 31 20.6 7.8 26.6 7.8 26.6 16.3-16 15.8-22.5" class="st0"/><path d="M231.5 152.4c-1.6-9.3-3.5-18.6-5.6-27.8-3.3-14.2-6.9-29.3-16.7-40.6-1.9-2.2-4.4-4.8-7.4-5.6s-5.4 1-5.3 4.2l4.6-.6c-3.2-4.1-7.9-8.3-13.2-8.7-1.3-.1-2.9.9-2.4 2.4 2.1 6.5 4.3 12.9 6.1 19.5 1.7 5.6 3 11.2 4.1 16.9q.6 3.3.6 6.6c0 .4 0 .9-.1 1.3 0 .6.1-.2 0 .2s-.1.4-.1.6c-.3 1-.9 1.9-1.9 2.5-1 .5-2.2.6-3.3.3-1.4-.2-2.7-.5-4-1-3-1-5.8-2.2-9-2s-6.5 2.1-6.2 5.7c.3 2.2 1.5 4.2 3.3 5.5 4.4 3.6 9.6 6.2 14.5 8.9 2.6 1.4 5.2 2.9 7.8 4.4 1.1.6 2.1 1.3 3.2 2 .4.3.9.6 1.3.9l.3.2s-.4-.3-.1-.1.4.3.6.5l.8.8c0 .1-.3-.5-.1-.1l.3.6.3.6.1.3-.1-.1c.2.5.4 1.1.6 1.6 1 2.6 1.8 5.4 2.6 8.1 1.3 4.8 2.5 9.5 3.5 14.4l.2.9c.3 1.5 3 2.5 4.1 1.3 2-2 4-4.1 5.9-6.2 3.3-3.5 6.2-7.4 8.7-11.6 1-1.9 2.1-4 2-6.2-.1-2.6-5.1-3.3-4.9-.5v.8c0-.2-.1.2-.1.3s-.1.4-.2.6c-.1.4-.3.8-.4 1.2l-.3.6c-.1.2-.2.5-.2.5-1.1 1.9-2.3 3.8-3.7 5.6-2.6 3.4-5.5 6.7-8.5 9.8l-1.5 1.5-.4.4.2-.2 4.1 1.3c-.8-3.6-1.6-7.2-2.6-10.9-1.3-5.2-2.6-10.9-5.1-15.6-1-1.6-2.4-3-4-4-2.1-1.4-4.3-2.8-6.5-4-5.2-3-10.6-5.7-15.8-9-1-.6-2-1.3-2.9-2 .4.3-.1-.1-.2-.2s-.4-.3-.5-.5l-.9-.9c-.3-.3.2.4 0 0-.1-.1-.1-.2-.2-.3-.2-.2.1.2.1.2-.1-.1-.1-.3-.1-.4-.1-.4-.2-.8-.2-1.2.1-.6.7-1.1 1.5-1.2 2.6-.5 4.9.7 7.5 1.6 2.9 1 6.3 1.8 9.3 1.2s5.4-3 6-6c.3-2.1.4-4.2.1-6.2-.8-5.7-1.9-11.4-3.5-16.9-2-7.3-4.3-14.5-6.6-21.7l-.6-1.8-2.4 2.4c2.2.2 4.3 1.7 6.1 3.2.7.7 1.4 1.5 2.1 2.3.2.2.4.5.6.7.4.5-.3-.4 0 0 .6.9 1.7 1.4 2.8 1.2 1-.1 1.7-.9 1.8-1.9v-.7c0-.2-.2.2 0-.2s-.2.2 0 0-.2.1-.2.1l-.3.1h-.1c.3 0-.6-.2 0 0s-.4-.3.3.1c.4.2.8.5 1.2.8.3.2-.3-.2 0 0l.4.3c.3.2.6.5.8.7q1.65 1.5 3 3.3c4.3 5.6 7.5 12 9.6 18.7 3.9 12.1 6.5 24.7 8.9 37.2.6 3.2 1.2 6.3 1.8 9.5.4 2.7 5.2 2.4 4.7-.5" class="st1"/><path d="M209.7 103.6s-9.7-18.7-12.4-22.5" class="st0"/><path d="M212.1 103c-3.2-6.1-6.4-12.2-9.8-18.2-.8-1.5-1.6-2.9-2.6-4.3-.8-1.1-5.2.8-4.9 1.2 2 3 3.7 6.1 5.3 9.3 2 3.6 3.9 7.2 5.8 10.9l1.2 2.3c.7 1.2 5.3-.5 5-1.2M295.6 276.9S250 144.1 230 145.6s-30.9 23.9-30.1 47.1S265 314.5 265 314.5" class="st1"/><path d="M298 276.5c-1.6-4.7-3.3-9.5-5-14.2q-6.15-16.8-12.6-33.3c-5.3-13.3-10.8-26.6-16.8-39.6-5.2-11.1-10.6-22.3-17.5-32.4-2.2-3.5-4.8-6.6-7.8-9.4-1.3-1.2-2.7-2.1-4.3-2.8-1.8-.7-3.8-.9-5.8-.6-20.6 2.5-29.9 24.6-30.8 42.9q-.3 4.35.3 8.7c.4 2.1 1 4.1 1.6 6.2q2.7 7.8 6.3 15.3c6.2 13.3 13.4 26.1 20.7 38.8 7.2 12.5 14.6 24.8 22.3 37 4.4 7 8.8 14 13.3 20.9l.6 1c.7 1 1.9 1.4 3.1 1.1.7-.1 2.4-1 1.7-2-3.1-4.8-6.2-9.6-9.2-14.4-7-11.2-13.9-22.4-20.7-33.8-7.6-12.9-15.1-25.9-21.9-39.2-2.9-5.6-5.7-11.3-8.1-17.2-1-2.4-2-4.8-2.8-7.2-.4-1.1-.7-2.1-1-3.2-.1-.5-.3-.9-.4-1.4-.1-.2-.1-.4-.2-.7s-.2-.9-.1-.5c-.5-2.3-.6-4.7-.5-7.1 0-5.1.7-10.2 2-15.2 2.3-8.6 6.6-17.4 14.1-22.6 3.3-2.3 7.2-3.8 11.2-4.2 0 0 1-.1 1 0 0 .2-.9-.1-.2 0 .1 0 .3.1.4.1s-.6-.2-.1 0l.4.1.4.2c.6.2-.4-.2 0 0 .6.3 1.2.7 1.7 1.1.1.1.3.2.4.3.4.3-.3-.3.1.1l.9.9c1.4 1.3 2.6 2.7 3.8 4.3 3 3.9 5.6 8 8 12.3 3.1 5.4 5.9 10.9 8.6 16.5 6.1 12.6 11.7 25.6 17 38.6 4.8 11.7 9.3 23.5 13.7 35.4 2.4 6.5 4.7 13 7 19.5l.3.9c.7 2 5.6 1.4 4.8-.9z" class="st1"/></g><g id="character"><path d="M292.3 272.5s22.6-23.3 55.5 0 67.8 118.5 50 144.5-75.8 27.3-82.5 9.4c-2.4-6.4-64.7-4.5-64.7-4.5s-37.7 3-37.7-10.7 57.5-107.8 79.4-138.7" class="st1"/><path d="M294.3 273.9c1.3-1.2 2.6-2.3 4.1-3.3l1-.6c-.4.3.2-.1.3-.2l.6-.4c.9-.5 1.8-1 2.6-1.4 2-1 4.2-1.8 6.4-2.5 5.6-1.6 11.6-1.8 17.3-.6 7.6 1.7 14.7 5.1 20.8 9.9l1.2 1 .6.5.3.3.1.1c.8.7 1.6 1.5 2.4 2.2 1.7 1.7 3.4 3.4 4.9 5.2 3.4 4 6.6 8.3 9.5 12.7 6.6 10.3 12.4 21.1 17.1 32.4 5 11.5 9 23.3 12.1 35.4 2.6 10.4 4.6 21.2 4.5 32 0 4.1-.5 8.2-1.4 12.2-.2.9-.5 1.8-.8 2.7l-.2.6c0 .1-.1.2-.1.3-.2.4-.4.8-.5 1.2-.9 1.7-1.9 3.4-3.2 4.9-6.7 8.2-17.1 12.9-27 15.5-5.4 1.4-10.9 2.3-16.4 2.6-2.7.2-5.5.2-8.2.1-2.4-.1-4.8-.3-7.2-.7-1.2-.2-2.3-.4-3.5-.7-.5-.1-1.1-.3-1.6-.4l-.8-.2c-.5-.1-.1 0 0 0l-.5-.2c-1-.3-2-.7-2.9-1.1-.5-.2-.9-.4-1.4-.6l-.6-.3c-.5-.2.2.1-.4-.2-.8-.4-1.5-.9-2.2-1.5l-.5-.4-.2-.2-.9-.9c-.3-.3-.5-.6-.8-.9s-.3-.5-.1-.1c-.1-.2-.3-.4-.4-.6-.4-.6-.6-1.2-.9-1.8-1.2-2.4-4.7-3.1-7-3.6-3.9-.8-7.9-1.3-11.9-1.5-9.9-.8-19.9-.9-29.9-.9-6 0-12.1 0-18.2.2q-8.1.45-16.2 0l-1.6-.1h-.5c.1 0 .5 0 0 0l-.9-.1c-1.2-.1-2.3-.3-3.5-.5s-2.3-.4-3.5-.7c-.5-.1-1.1-.3-1.6-.4.5.1-.1 0-.3-.1s-.5-.2-.8-.3c-.5-.2-.9-.4-1.4-.5l-.6-.3c-.1-.1-.9-.5-.4-.2-.4-.2-.7-.4-1.1-.7-.2-.1-.4-.3-.6-.4s-.6-.5-.2-.2c-.3-.3-.6-.5-.8-.8-.1-.2-.3-.3-.4-.5.3.4 0-.1-.1-.2s-.4-.9-.4-.9c.1.2-.1-.3-.1-.4s-.1-.5-.1-.7 0-.4-.1-.6c0-.4 0-.2 0 0v-.5c.1-.4.1-.8.2-1.3.2-1.1.5-2.1.9-3.1.2-.7.5-1.3.7-2 .1-.4-.1.2.1-.1.1-.2.1-.3.2-.5l.4-1.1c.7-1.6 1.4-3.2 2.1-4.9 4-8.7 8.6-17.1 13.2-25.4q8.7-15.75 18-31.2c6.3-10.6 12.8-21.2 19.4-31.6 5.6-9 11.4-17.9 17.3-26.7 2.2-3.2 4.4-6.5 6.6-9.6 1.5-2.1-3.2-3.8-4.5-1.9-5.4 7.5-10.4 15.2-15.4 23-6.6 10.1-13 20.4-19.2 30.7-6.6 10.8-13 21.6-19.3 32.5-5.5 9.6-10.9 19.2-15.9 29.1-3.3 6.5-6.8 13.1-8.9 20.1-.7 2.4-1.1 4.8-.2 7.2 1.5 3.8 5.7 6 9.4 7.2 8.6 2.8 18.1 3 27.1 2.7 3.5-.1 7-.3 10.5-.3 9.3-.2 18.6-.2 27.9.1 5 .1 9.9.4 14.8.8.1 0 1 .1.4 0l.7.1 1.6.2c1 .1 2 .2 2.9.4 1.6.3 3.2.6 4.8 1 .6.1-.3-.1 0 0l.4.1c.3.1.5.2.8.3l.3.1c.4.2.1.1-.1-.1.2.1.3.3.5.4-.2 0-.4-.4 0 0-.4-.5-.2-.2 0 .1.3.7.7 1.4 1.1 2.1 2.3 3.4 5.8 5.6 9.5 7.2 9.5 4.1 20.8 4.5 31 3.5 11.5-1.1 23.2-4.2 33.1-10.4 4.7-2.9 8.8-6.6 12-11 2.1-3.1 3.5-6.6 4.1-10.2 2.1-9.5 1.2-19.6-.4-29.1-2.1-12.2-5.2-24.2-9.5-35.8-4.2-12.1-9.5-23.9-15.6-35.1-5.4-10-11.6-19.7-19.3-28.1-8.9-9.7-21-17.4-34.2-19.4-10.8-1.6-21.8 1-30.8 7.2-1.4.9-2.8 2-4 3.2-1.5 1.9 2.7 4.1 4.4 2.5" class="st1"/><path d="M319.3 390.3s-62-21-69.2-19.1-23.8 16.7-20.4 19.4 20.2-9.6 20.2-9.6-18.5 19.5-15.1 21 14.8-4.5 14.8-4.5-9 10.2-4.5 11.1 14.9-8.5 14.9-8.5-4.8 7.1.1 7.3 18-8.6 18-8.6 8.7 14.8 24.6 9.2c0 0 13.4 20.4 12.8 18.5-8.6-24.9 1.9-34.6 3.8-36.2" class="st0"/><path d="M317.8 389.3c-5.4-1.8-10.8-3.6-16.2-5.3-10.5-3.4-21.1-6.7-31.8-9.6-4.5-1.2-9-2.5-13.6-3.4-2.5-.5-5.5-1.4-8.1-1-2.1.5-4.1 1.5-5.8 2.7-2.6 1.6-5 3.5-7.3 5.5-2.2 1.8-4.2 3.9-5.9 6.1-.9 1.1-2.4 3-2.1 4.5.2 1 1.4 1.5 2.2 1.9 1.2.7 2.6 1.2 4.1 1.3 2.1 0 4.2-1.1 6.1-2 4.2-2.2 8.3-4.7 12.1-7.5l.8-.5-4.5-2.1c-4.1 4.2-7.9 8.7-11.5 13.3-1 1.3-1.9 2.6-2.8 4-.6.9-1.1 1.9-1.2 2.9 0 .3.1.5.3.7.3.3.7.6 1.1.8 1 .5 2 1 3 1.3 1.8.5 3.6.4 5.4-.2 3.5-1 6.9-2.4 10.1-4.2l-4.5-2.1c-1.1 1.3-2.2 2.6-3.2 4-1 1.5-3.1 4.1-2.5 6.1.4 1.4 2.9 2.2 4 2.6 1.2.5 2.5.6 3.8.3 2.8-.9 5.4-2.4 7.7-4.2 1.8-1.3 3.5-2.6 5.1-4.1l-4.5-2.1c-1 1.4-1.7 2.9-2 4.6-.2.9.1 1.9.9 2.5 1.6 1.2 3.5 2 5.5 2.3 2.2.2 4.6-1 6.6-1.9 2.6-1.2 5.1-2.6 7.6-4.1 1.4-.9 2.9-1.8 4.3-2.7l-4.5-2c1.2 2 2.8 3.8 4.6 5.3 4.1 3.6 9.1 6 14.5 7 3.4.5 6.8.1 9.9-1.1l-4.5-2c1.7 2.6 3.4 5.2 5.2 7.8 2.3 3.4 4.5 7 7 10.2.7.9 4.7 3.3 5.1 2.5.2-.3-.7-2.1-.8-2.5-.4-1.1-.7-2.3-1-3.4q-.75-3-1.2-6c-.8-5.7-.6-11.6 1.6-17 1.1-2.8 2.8-5.3 5-7.3.2-.1-2-1.3-2.1-1.3-.4-.2-2-1.1-2.4-.8-6.6 5.7-7.7 15.5-6.8 23.6.3 2.4.7 4.7 1.3 7 .4 1.4.8 2.8 1.2 4.1.1.4.4 1.7.6 1.7l1.1.3 2.7 1.3c.9.5.2.1-.1-.4s-.7-1-1-1.4c-1.1-1.5-2.1-3-3.1-4.5-2.2-3.2-4.3-6.4-6.5-9.7-.5-.8-1-1.5-1.5-2.2s-1.8-1.1-2.4-1.4-1.5-.8-2.1-.6c-3.2 1.2-6.6 1.5-9.9 1-.7-.1-1.4-.3-2-.5 0 0-.4-.1-.2-.1-.7-.2.4.3-.2-.1-.8-.5-1.6-1-2.4-1.6-2.1-1.6-3.9-3.6-5.3-5.9-.4-.6-1.8-1.1-2.4-1.4-.4-.2-1.7-.9-2.1-.6-2.8 1.9-5.8 3.7-8.8 5.3-2.1 1.2-4.3 2.1-6.6 2.9-.8.2-1.7.3-2.5.4h-.1c-.7-.1-.2.2 1.3.7l1.5.7-.1-.1c0-.2-.2-.4-.3-.6-.1-.4-.1-.9 0-1.3.4-1.6 1-3.1 2-4.5.1-.1-4-2.6-4.5-2.1-3.1 2.9-6.5 5.3-10.2 7.3-1.1.6-2.2 1-3.4 1.2h-.6c-1.8.1 2.8 1.4 2.9 1.5q-.3-.45-.3-.9c0-2 1.6-4 2.6-5.5 1-1.4 2-2.8 3.2-4 0 0-3.8-2.5-4.5-2.1-2.5 1.3-5 2.4-7.6 3.4-1.8.7-3.6 1.2-5.6 1.3-.3 0-.5-.1-.8-.1l3.5 1.7-.1-.1c0-.1-.1 0-.1-.1 0-.3 0-.6.1-.9.7-2.5 2.8-4.9 4.3-6.9 2.2-2.8 4.5-5.5 6.8-8.1 1.4-1.6 2.8-3.1 4.2-4.6.2-.2-2-1.2-2.1-1.3-.4-.2-1.9-1.1-2.4-.8-2.8 2-5.7 4-8.7 5.7-2.2 1.3-4.4 2.5-6.8 3.5-.9.4-1.8.6-2.8.7h-.9c.1 0 3.3 1.5 3.3 1.5l-.1-.1c0-.1-.1-.2-.1-.4-.4-1.4 1.2-3.3 2-4.3 1.7-2.1 3.6-4.1 5.7-5.9 2.2-2 4.5-3.8 7-5.4 1.9-1.2 4-2.6 6.2-3.1s4.9.3 7.2.7c4.3.9 8.5 2 12.8 3.1 10.1 2.8 20.2 5.9 30.2 9.1 6.1 1.9 12.1 4 18.2 6l.3.1c.8.3.9 0 .2-.4-1.9-.7-2.9-1.2-4-1.6" class="st1"/><path d="M259.6 387s-11.3 10.8-13.3 13.9" class="st0"/><path d="M257.2 387c-3.7 3.5-7.4 7.1-10.8 10.9q-1.35 1.35-2.4 3c-.4.7 1.5.8 1.8.8.6 0 1.3-.1 1.9-.2.3-.1.9-.2 1.1-.5 1.6-2.2 3.4-4.2 5.3-6.1 2.1-2.2 4.3-4.4 6.5-6.5l1.4-1.4c.6-.6-1.6-.8-1.8-.8-1-.1-2.1.2-3 .8" class="st1"/><path d="M268.9 392.7s-9.9 6.6-10.9 11.4" class="st0"/><path d="M267 391.2c-1.2.8-2.4 1.7-3.5 2.6-2.2 1.7-4.2 3.6-5.9 5.8q-1.35 1.65-1.8 3.6c-.1.4.4 1 .6 1.2.5.5 1 .8 1.6 1.1.8.3 2 .6 2.3-.5 0-.2-.1.2 0-.1 0-.1.1-.2.1-.3.1-.2.2-.5.3-.7.3-.5.6-1 1-1.5l1.2-1.5.3-.3.2-.2.8-.8q2.55-2.4 5.4-4.5l1.2-.9c1.6-1-2.4-3.9-3.8-3" class="st1"/><path d="M333.8 229.8s23.7-1.9 24.8-12-12.7-3.9-12.7-3.9 11.5-23.3-12.4-20.3c0 0 15.1-19.4-3.6-28.4s-46.1 7.9-46.1 7.9-4.9-20.5-27.5-11.4-13.5 19.7-13.5 19.7-14.5 5.7-13 12.8 13.5 6.7 13.5 6.7 9.8 18.8 29.3 10.2l26.6 19.6s-4.4 11.1 5.8 18.4c10.2 7.1 33.5-6.7 28.8-19.3" class="st0"/><path d="M334.7 231.9c6.3-.5 13-1.8 18.6-4.7 3.5-1.7 6.9-4.5 7.5-8.6.6-4.8-2.5-8.8-7.3-8.9-3.1 0-6.1.7-9 2l3.5 3.4c3.4-6.9 5.2-17.7-2.8-22.2-3.8-2.1-8.4-2.1-12.6-1.6l2.7 3.9c5.7-7.3 9.1-18.6 2.5-26.4-5.4-6.4-14.1-8.7-22.2-8.6-7.4.1-14.8 2.2-21.7 5-4 1.6-7.9 3.5-11.6 5.7l3.6 2.3c-1.7-6.9-7.1-13.4-14-15.4-7.4-2.1-15.2.4-21.8 3.9-4.9 2.6-10.5 6.5-11.2 12.5-.3 2.8.5 5.6 2.2 7.9l.3-2.8c-1.6.7-3.2 1.4-4.7 2.3-2.9 1.4-5.4 3.5-7.4 6-2.1 2.7-2.3 6.5-.3 9.4 2 3 5.4 4.6 8.8 5.4 2.1.5 4.3.7 6.5.6l-2.9-1.9c3.9 7.5 11.8 13.6 20.3 14.3 4.3.2 8.5-.6 12.4-2.4l-2.1-.3 23.3 17.1 3.3 2.4-1.3-3.1c-3.3 8.4 1 18.7 9 22.6 4.3 2.1 9.4 1.5 13.8.1 4.7-1.5 9-4.3 12.3-8 3.5-4 5.3-9.2 3.5-14.4-.5-1.2-1.6-2-2.9-1.9-1.3.2-1.5 1.4-1.1 2.4.5 1.5.5 3.2.1 4.7-.5 1.8-1.4 3.4-2.5 4.8-2.7 3.3-6.1 5.8-10 7.4-3.4 1.5-7.9 2.4-11.1 1.4-.4-.1-.8-.3-1.2-.4-.1 0-.5-.2-.2-.1l-.6-.3c-1.1-.7-2.1-1.5-2.9-2.5-1.3-1.5-2.3-3.4-2.7-5.4-.4-1.9-.4-3.8 0-5.6.1-.4.1-.8.2-1.1s-.1.4 0 0c0-.1.1-.2.1-.4s.1-.5.2-.7c.5-1.2-.4-2.4-1.3-3.1l-21-15.4-4.5-3.4c-.3-.2-.6-.5-1-.7-1.6-1-3.1.1-4.7.6-3.3 1.2-6.8 1.4-10.2.8-2.6-.5-5-1.6-7.1-3.3l-.4-.3c-.6-.4.4.3-.2-.1-.3-.2-.6-.4-.8-.7-.5-.4-1-.9-1.4-1.4l-.6-.6-.3-.3c-.3-.4.2.3 0 0s-.7-.8-1-1.2c-.5-.6-.9-1.3-1.4-2-.1-.2-.2-.4-.4-.6-.2-.4.4.6.2.3-.5-1.2-1.7-1.9-2.9-1.9h-.3.1-.6q-1.5 0-3-.3c-1.2-.2-2.4-.5-3.5-.9-.5-.2-.9-.4-1.4-.7-.1-.1-.8-.6-.4-.3-.2-.2-.5-.4-.7-.6.3.4-.2-.3-.3-.4-.3-.4-.1-.2-.1-.1-.1-.1-.1-.3-.2-.4-.2-.4-.2-.9-.2-1.4.2-1 .6-2 1.2-2.8 1.7-2.1 3.9-3.8 6.3-5 1.5-.9 3.1-1.6 4.7-2.3 1.1-.4.9-2.1.3-2.8-.1-.1-.2-.2-.3-.4l-.2-.4c-.4-.7.1.4-.1-.1-.1-.2-.2-.4-.3-.7s-.3-1.1-.2-.4c-.1-.3-.1-.6-.2-.9l-.1-.4v-.1.1c0-.4 0-.7.1-1.1 0-.2 0-.4.1-.6s.2-.7.1-.3q.45-1.35 1.2-2.7c.6-.9 1.4-1.7 2.1-2.4 1.2-1.1 2.4-2 3.8-2.9 5.6-3.5 12.9-6.6 19.7-5.5l1.5.3c.6.2 1.1.4 1.6.6.2.1.5.2.7.3s-.3-.2 0 0l.4.2c.5.3.9.6 1.4.9.2.1.6.4.2.1l.6.5c.4.3.7.6 1.1 1 .2.2.3.4.5.5.3.4-.3-.4.1.1.3.4.5.7.8 1.1s.5.8.8 1.2l.3.6c-.2-.4-.1-.2 0 .1.3.6.6 1.3.9 2 .2.5.3 1 .5 1.4.1.3-.2-.6 0-.1v.1c.3 1.3 2.1 3.2 3.6 2.3 2.7-1.6 5.5-3.1 8.4-4.4 6-2.8 12.5-4.7 19-5.7 6.8-.9 14.4-.3 20.1 4 2 1.5 3.5 3.7 4 6.1.4 2.4.3 4.8-.4 7.1-.7 2.4-1.7 4.8-3 7-.2.4-.5.8-.7 1.2l-.3.5c.2-.4 0-.1-.1.1s-.4.5-.5.8c-1.3 1.7.9 4.1 2.7 3.9 1.8-.3 3.7-.3 5.6-.2q1.95.15 3.6.9c.4.1-.5-.3 0 0 .1.1.2.1.3.2.2.1.4.3.7.4s-.5-.4-.1 0l.2.2c.2.2.6.8.2.2l.5.6c.4.5-.1-.2.1.1s.2.5.3.7.3.9.1.3c.1.5.2.9.3 1.4 0 .2 0 .5.1.7s0 .5 0 0v.5c0 1-.1 2-.2 2.9-.1.5-.2.9-.3 1.4 0 .3-.1.5-.2.8.1-.4-.1.2-.1.4-.2.8-.5 1.6-.8 2.4-.3.9-.7 1.8-1.1 2.6-.9 1.8 1.8 4.1 3.5 3.4.6-.3 1.2-.5 1.9-.7q1.95-.75 3.9-.9c.6-.1 1.3-.1 1.9-.1.2 0 1 .2.5.1l.5.2c.3.1-.3-.3.2.1s-.5-.3 0 0-.4-.4 0 0-.2-.4 0 .1c.1.1.1.2.1.4-.2-.5 0 .2 0 .2 0 .2.1.5.1.7 0 .5 0 1-.1 1.5 0 .3-.1.5-.2.7-.1.3-.3.7-.4 1-.4.7-.9 1.2-1.4 1.8-1.2 1.1-2.6 2-4 2.6-3.4 1.5-7 2.6-10.6 3.3-2.2.5-4.4.8-6.7 1-1.2.1-1.5 1.5-1.1 2.4.7 1.6 2 2.4 3.3 2.2" class="st1"/><path d="M257.5 268.6c-17.2-14.3-11.5-64.8-11.5-64.8 17-.7 39.1-23.4 39.1-23.4C281 197.6 302 222 302 222c3.3-15.3 18.2-18.2 20-4.4s-10.9 18.1-10.9 18.1 16.4 41.5 16.2 47.2-29.8 19.1-44.1-5.4c0 0-10.7 3.6-25.7-8.9" class="st0"/><path d="M259.5 267.3c-3.6-3-5.9-7.3-7.5-11.6-1.8-5.2-3-10.5-3.6-16q-1.65-15-.6-30c.1-2.1.3-4.2.5-6.3l-3 2.4c8-.4 15.6-4.4 22.1-8.6 5.7-3.8 11.2-8.1 16.2-12.8 1-1 2.1-1.9 3.1-3l-4-.6c-1.8 7.5.6 15.4 3.8 22.2 2.9 6.1 6.5 11.9 10.7 17.2.9 1.1 1.7 2.2 2.6 3.3 1.1 1.2 4-.1 4.3-1.5.5-2.3 1.3-4.5 2.5-6.6.9-1.5 2.1-2.8 3.5-3.8l.6-.4c-.4.2-.1 0 0 0l.6-.3c.1 0 .8-.3.2-.1.3-.1.7-.2 1-.2-.4.1.6 0 .8 0 .5.1.9.1 1.4.3.6.2 1.2.6 1.8 1.1 3 2.7 3.5 7.6 3 11.4-.5 3.3-2.2 6.4-4.9 8.5-.3.3.5-.3-.1 0l-.6.5-.9.6c-.3.2-.6.3-.8.5.7-.4-.1.1-.3.1-.4.2-.8.4-1.1.5s-1.1.4.1 0c-1 .3-2.8 1.3-2.3 2.7 4.6 11.6 9.1 23.3 13 35.1 1 2.9 1.9 5.9 2.7 8.8.1.3.1.5.2.8.1.4-.1-.4 0 .1 0 .1 0 .2.1.4.1.4.1.8.2 1.2v.4c0 .4.2-.3 0 0-.1.2-.4.7 0 .1l-.4.6c-.3.4.3-.3-.2.2l-.5.5c-.1.1-.9.7-.3.2l-.9.6c-.5.4-1 .7-1.6 1 .6-.4-.4.2-.6.3-.3.2-.7.3-1 .5-.8.3-1.5.6-2.3.9.6-.2-.5.2-.7.2-.5.1-.9.3-1.4.4l-2.7.6c-.3.1-.5.1-.8.1-.6.1-1.1.1-1.7.2-4.4.4-8.7-.4-12.7-2.2-5-2.4-9.1-6.4-11.8-11.2-.5-.7-1.5-1-2.3-.7-.2.1-.3.1-.5.1l-.6.1h.2l-.5.1c-.7.1-1.4.1-2.2.1h-1c-.5 0-1-.1-1.5-.2-6.3-1-12.3-4.6-17.3-8.8-1.7-1.3-5.9 1.3-4.1 2.8 5.6 4.6 12.1 8.5 19.4 9.5 2.8.5 5.7.4 8.4-.3l-2.3-.7c2.7 4.7 6.5 8.6 11.2 11.4 4 2.2 8.5 3.5 13.1 3.6 7.2.3 15.4-1.6 21.1-6.2 1.7-1.4 3.6-3.2 3.4-5.6-.4-2.6-1-5.1-1.9-7.5-2.5-7.9-5.4-15.7-8.3-23.5-2-5.3-4-10.7-6.1-16l-2.3 2.7c6.3-2.1 11.8-7.4 13.1-14 .9-4.6.4-10.6-3.2-14.1-3-3-7.7-2.9-11.3-1.1-5.4 2.7-8.7 8.2-10 13.9l4.3-1.5c-2.4-2.8-4.6-5.8-6.6-8.9-4-6.1-7.7-12.8-9.5-19.9-1.1-3.7-1.3-7.7-.5-11.5.6-2.4-3-1.6-4-.6-2.6 2.6-5.3 5.1-8.1 7.4-5.4 4.7-11.4 8.6-17.9 11.8q-5.1 2.55-10.8 3c-1.4 0-2.7 1-3 2.4-.6 6-1 12-.9 18.1 0 11.2.7 22.8 4.2 33.5 1.7 5.2 4.3 10.4 8.6 14 1.6 1.4 5.8-1.2 4-2.7" class="st1"/><path d="M269.7 249.9s-27.9 18.5-40.6 5.4 5.3-30.6 28.3-25.6" class="st0"/><path d="m268.9 249.8-.6.4c-.2.1-1.1.6-.2.1l-1 .6-1.1.6-.7.4-.3.2c-.1.1.4-.2-.1 0-1.1.6-2.3 1.2-3.5 1.7-2.5 1.2-5.2 2.2-7.8 3-3 1-6.1 1.5-9.2 1.7-6.4.2-12.4-2.3-15.6-8-3-5.3-1.3-11.5 3-15.5 2.5-2.2 5.7-3.7 9-4.2 4.8-.9 9.8-.9 14.6.2.8.2 2.2-.8 2.8-1.2.2-.1 1.8-1.3 1.2-1.4-9.2-2-18.7-.3-26.7 4.6-5.6 3.4-11 9.2-9.8 16.2 1.2 6.8 7.7 11.3 14.2 12 7 .7 14.1-1.7 20.4-4.4 4.5-1.9 8.8-4.2 12.9-6.8.3-.2 1.7-1 1.2-1.4s-2.4 1-2.7 1.2" class="st1"/><path d="M292.4 241.7s-3.7 1.9-7 7.4" class="st0"/><path d="M290.1 240.9c-.5.3-1 .6-1.5 1-1.2 1-2.4 2.1-3.4 3.3-.9 1-1.6 2.1-2.3 3.3-.2.3.4.7.5.8.5.3 1.1.6 1.6.7.6.2 1.2.2 1.8.2.4 0 .7-.1.9-.4.3-.5.7-1.1 1-1.6l-.1.2c1.2-1.7 2.5-3.2 4.1-4.5.6-.5 1.2-.9 1.9-1.3.3-.2.1-.6-.1-.8-.4-.4-.8-.6-1.3-.8-1-.4-2.1-.5-3.1-.1" class="st1"/><path d="M280.6 223.4s4.1-9.2-3-15.6" class="st0"/><path d="M283 223.8c.8-1.9 1.2-3.9 1.2-5.9.2-4.2-1.5-8.2-4.5-11-.9-.8-2.3-1.1-3.4-.6-.8.3-1.8 1.4-.9 2.2 2.7 2.4 4.1 5.9 3.8 9.5 0 .7-.1 1.4-.2 2.1 0 .1 0 .3-.1.4 0 .3.1-.3 0 .2-.1.2-.1.5-.2.7-.1.5-.3 1-.5 1.5-1 2.2 4 2.9 4.8.9M270.3 218.1s1.2 2.4-1.3 3.4-3.6-2.1-1.8-3.6c.8-.8 2-.8 2.8-.1.1.2.2.2.3.3M259.9 221.3s1.2 2.5-1.3 3.4-3.6-2.1-1.8-3.6c.8-.8 2-.8 2.8-.1q.3.15.3.3" class="st1"/></g><g id="device"><path d="M221.6 412.6s83 .3 85.3 3.8 6.8 10.7 6.8 10.7l-80.9-.5z" class="st2"/><path d="M51.2 425.8S26.5 292 32.9 286.5s205.4-5.6 210.2 2.4-5.6 135.4-10.4 137.7-167.2 1.5-181.5-.8" class="st2"/><path d="M118.4 366.5c1.7 1.4 3.6 2.5 5.7 3.2 1.9.7 4 1 6 1 2.2 0 4.3-.2 6.5-.6 2.3-.3 4.6-.8 6.8-1.6 3.3-1.2 6.8-3.4 7.6-7.1.6-2.8-.4-5.6-1.6-8q-1.2-2.4-3-4.5c-.2-.3-1.3-.1-1.5-.1-1.2.1-2.4.2-3.5.4-1.2.2-2.3.4-3.5.7-.1 0-1.5.5-1.4.6 2.5 2.7 4.2 6.1 4.8 9.7.4 2.7-.7 5.4-2.9 7.1-.7.6-1.5 1.1-2.3 1.5-.4.2-.8.4-1.2.5-.9.3.5-.1-.4.1 1.2-.3 2.5-.5 3.7-.6 1.5-.1-.5 0 .4 0h-.7c-.4 0-.8-.1-1.1-.1-.9-.1-1.7-.3-2.6-.6-2.2-.7-4.2-1.7-5.9-3.2-.3-.3-1.2-.1-1.5-.1-1.2.1-2.4.2-3.5.4-1.2.2-2.3.4-3.5.7-.1.1-1.5.6-1.4.6" class="st0"/></g></svg>