<?xml version="1.0" encoding="UTF-8"?>
<svg version="1.1" xmlns="http://www.w3.org/2000/svg" width="457" height="457">
<path d="M0 0 C150.81 0 301.62 0 457 0 C457 150.81 457 301.62 457 457 C306.19 457 155.38 457 0 457 C0 306.19 0 155.38 0 0 Z " fill="#FEFEFE" transform="translate(0,0)"/>
<path d="M0 0 C9.16434669 8.2384966 13.6668773 19.40579047 16.59375 31.11328125 C16.59375 39.69328125 16.59375 48.27328125 16.59375 57.11328125 C-43.79625 57.11328125 -104.18625 57.11328125 -166.40625 57.11328125 C-166.40625 19.0796678 -166.40625 19.0796678 -154.40625 5.11328125 C-153.83390625 4.41976563 -153.2615625 3.72625 -152.671875 3.01171875 C-118.4517108 -34.8644459 -37.13592557 -29.11794164 0 0 Z " fill="#FDFDFD" transform="translate(301.40625,301.88671875)"/>
<path d="M0 0 C13.68885376 9.34018474 21.45037971 23.22250307 25.3203125 39.125 C28.93831341 58.34389487 25.17385447 78.4792834 14.390625 94.7578125 C7.48150687 104.16188995 -2.08995869 113.17688494 -13.984375 115.3046875 C-26.96272962 116.17850608 -36.53827206 114.86911193 -46.83203125 106.2578125 C-60.40126185 93.94453609 -68.15645071 76.90989054 -69.359375 58.63671875 C-70.07316116 40.21655118 -65.33592146 22.90342925 -53.23828125 8.625 C-38.63588241 -6.40762549 -18.57925473 -10.55418397 0 0 Z " fill="#FEFEFE" transform="translate(247.984375,128.6953125)"/>
<path d="M0 0 C11.47275374 11.0637082 19.44745939 26.51425666 20.16113281 42.64111328 C20.1810886 44.03410707 20.19476843 45.42720084 20.203125 46.8203125 C20.20882507 47.56078827 20.21452515 48.30126404 20.22039795 49.06417847 C20.22980674 50.62236111 20.23636546 52.18056328 20.24023438 53.73876953 C20.24999742 56.12437059 20.28108084 58.50912992 20.3125 60.89453125 C20.31902543 62.41145324 20.3242777 63.92838135 20.328125 65.4453125 C20.3404718 66.15785187 20.3528186 66.87039124 20.36553955 67.60452271 C20.34372477 72.43356936 20.34372477 72.43356936 18.97592926 74.68758583 C15.87547041 76.74691367 12.62744475 76.41217564 9.02868652 76.38095093 C8.20744592 76.3856309 7.38620532 76.39031087 6.54007864 76.39513266 C3.77850965 76.40713247 1.01743236 76.39760607 -1.74414062 76.38818359 C-3.71998892 76.39224708 -5.69583494 76.3975877 -7.67167664 76.40411377 C-13.04555238 76.41781966 -18.41925583 76.41247522 -23.79313469 76.40297651 C-29.40917307 76.39539685 -35.02519641 76.4024208 -40.64123535 76.40713501 C-50.07351336 76.41259751 -59.50572096 76.40538798 -68.93798828 76.39111328 C-79.85288399 76.37478585 -90.76761159 76.38007401 -101.68250322 76.3965925 C-111.04305733 76.41019328 -120.40356074 76.41213392 -129.76412153 76.40427649 C-135.3594841 76.39959223 -140.95476759 76.39899577 -146.55012512 76.40888596 C-151.80978604 76.41753287 -157.0692296 76.4115754 -162.32886696 76.39420319 C-164.26267447 76.39022616 -166.19650018 76.39139306 -168.13030052 76.39799118 C-170.76334534 76.40614886 -173.39568692 76.3959555 -176.02868652 76.38095093 C-176.79998225 76.38764309 -177.57127797 76.39433526 -178.36594629 76.40123022 C-183.48621502 76.344354 -183.48621502 76.344354 -185.9729538 74.67766762 C-188.58896611 70.40444298 -187.47361515 63.99647538 -187.44604492 59.07128906 C-187.43768097 56.79916256 -187.46603825 54.52968071 -187.49804688 52.2578125 C-187.59616786 32.02954857 -181.24533264 14.40033685 -166.83984375 -0.1875 C-126.62939253 -37.63215299 -40.43202797 -35.72209431 0 0 Z M-116 -11 C-116.6585498 -10.86078125 -117.31709961 -10.7215625 -117.99560547 -10.578125 C-137.07480366 -6.42483016 -156.10301761 2.13062272 -167.6875 18.5 C-176.19569815 33.60639263 -175 47.17919271 -175 65 C-114.61 65 -54.22 65 8 65 C9.00474958 44.50147274 9.00474958 44.50147274 4 26 C3.57589844 25.04480469 3.15179688 24.08960938 2.71484375 23.10546875 C-4.54368395 8.32556972 -18.49079452 -0.75795829 -33.65869141 -6.24414062 C-60.33497667 -14.85621353 -88.5206288 -17.01577176 -116 -11 Z " fill="#020202" transform="translate(310,294)"/>
<path d="M0 0 C15.86851987 10.90098322 25.86258289 27.41219163 29.65625 46.16650391 C33.02792147 64.49591503 31.13658359 82.82601226 23.25 99.8125 C22.80785156 100.76640625 22.36570312 101.7203125 21.91015625 102.703125 C18.3651411 109.73423538 13.79538679 115.2578709 8.25 120.8125 C7.5384375 121.53566406 6.826875 122.25882813 6.09375 123.00390625 C-4.85336546 133.45522844 -17.33536177 137.39250682 -32.19921875 137.12109375 C-47.7906144 135.76606597 -60.83937451 126.3983813 -70.75 114.8125 C-75.80969899 108.04072895 -79.71888792 100.69339141 -82.75 92.8125 C-83.14445313 91.81992188 -83.53890625 90.82734375 -83.9453125 89.8046875 C-90.64196413 69.62107314 -88.59356681 45.48651212 -79.5 26.5 C-71.24226262 10.93127221 -59.23376717 -0.48836677 -42.48828125 -6.32421875 C-28.00363537 -9.66915787 -12.74491131 -7.55905084 0 0 Z M-62.0625 20.5625 C-73.44508081 35.87893798 -77.83152752 53.96227698 -75.75 72.8125 C-72.81513099 91.25144866 -65.02345863 107.48324512 -49.6875 118.75 C-48.06169103 119.80243207 -46.41720648 120.82695923 -44.75 121.8125 C-44.14027344 122.1734375 -43.53054687 122.534375 -42.90234375 122.90625 C-34.82535116 126.74060253 -23.08624657 125.95353409 -14.8125 123.25 C-2.47064184 117.96591103 7.60266974 106.85694731 13.25 94.8125 C20.81816932 74.86051786 22.07469203 54.55116773 13.9296875 34.57421875 C8.18960194 22.23146646 -0.23191151 11.96201149 -12.921875 6.4296875 C-31.79630962 -0.02735592 -49.19913021 5.38030644 -62.0625 20.5625 Z " fill="#030303" transform="translate(254.75,119.1875)"/>
<path d="M0 0 C8.71380686 5.29111612 13.87132455 12.78373464 16.93359375 22.5 C19.95605448 35.34998275 18.37894248 48.33009107 11.62109375 59.75 C7.06932004 66.3758235 1.06944643 72.46981051 -6.94140625 74.25 C-15.04259548 75.20834257 -21.2478991 74.01204738 -27.94140625 69.25 C-33.6948233 64.1126656 -37.4398002 58.51782389 -39.94140625 51.25 C-40.35390625 50.074375 -40.76640625 48.89875 -41.19140625 47.6875 C-44.16561592 34.31695383 -41.97522146 21.06932295 -34.67578125 9.578125 C-26.17192861 -1.83695648 -13.1505012 -6.75105944 0 0 Z " fill="#FDFDFD" transform="translate(127.94140625,186.75)"/>
<path d="M0 0 C10.00406127 5.85555173 14.10206971 14.11594668 18.34375 24.52734375 C20.73460425 38.39429841 18.63554288 52.61562132 10.5078125 64.2421875 C5.59239456 70.43838335 -0.12972099 74.4376692 -8.05859375 75.59375 C-17.04327616 75.9449797 -22.57973513 73.60843269 -29.15625 67.65234375 C-38.40315328 57.87756607 -41.58890576 45.67442696 -41.34375 32.55859375 C-40.3162513 21.35885791 -35.90597912 11.39999332 -27.59375 3.77734375 C-19.59573181 -2.4956117 -9.46084665 -4.20697484 0 0 Z " fill="#FDFDFD" transform="translate(348.03125,185.84765625)"/>
<path d="M0 0 C7.67608851 6.55377232 11.90328567 14.42176696 15.1640625 23.84765625 C15.5971875 25.08515625 16.0303125 26.32265625 16.4765625 27.59765625 C19.5461643 41.76504915 16.9784163 57.67903566 9.1640625 69.84765625 C2.76794085 78.23478853 -4.51730685 84.98065249 -14.8359375 87.84765625 C-25.2605481 88.98536756 -33.46519149 87.09826552 -42.0234375 81.09765625 C-51.66383007 73.28059749 -58.39095716 62.71708168 -60.58984375 50.33984375 C-62.25148706 33.51240829 -59.57874823 18.66308929 -49.1484375 5.09765625 C-35.94775034 -9.31888368 -15.73597616 -11.31544575 0 0 Z M-44.078125 13.2421875 C-51.41259884 24.11350761 -53.24243642 36.19287554 -51.375 49.01171875 C-48.9238873 60.17149068 -43.2943752 69.39539268 -34.03515625 76.1640625 C-28.30374983 79.56968081 -22.33577516 79.79537452 -15.8359375 78.84765625 C-6.91723643 76.09465749 -1.03370828 70.14042973 3.4140625 62.09765625 C8.61127367 50.5831453 10.23779958 37.71467961 6.5390625 25.53515625 C3.09706976 16.46520346 -2.07631325 8.64455157 -10.671875 3.81640625 C-23.4847682 -1.83172626 -35.52623106 2.90720637 -44.078125 13.2421875 Z " fill="#040404" transform="translate(358.8359375,182.15234375)"/>
<path d="M0 0 C11.72422196 8.86344566 19.57790084 20.37352525 22 35 C23.34986927 51.91959433 19.73615518 66.21974692 8.8125 79.3125 C2.72667604 85.79029228 -4.92351904 90.49774344 -13.8828125 91.23828125 C-24.39945354 91.47902364 -31.23029007 89.67013718 -39.25 82.75 C-46.35757182 75.92093805 -50.91724889 69.39646253 -54 60 C-54.3403125 58.99066406 -54.3403125 58.99066406 -54.6875 57.9609375 C-58.59535399 43.90351828 -56.26656342 28.97528221 -49.6875 16.1875 C-43.9548927 6.70264065 -36.90129248 0.81163768 -26.625 -3.375 C-17.21843442 -4.99682165 -8.49802837 -4.66461119 0 0 Z M-39.3125 16.671875 C-46.80186871 27.00442998 -48.2066649 38.53515159 -47 51 C-44.81731178 62.45911313 -39.73356825 72.29608544 -30 79 C-24.14092808 82.3802338 -18.61150499 82.84500977 -12 82 C-2.53254072 79.15099605 3.28955656 73.54091393 8 65 C13.55278962 51.9966319 15.06117043 39.68871377 10.32421875 26.04296875 C6.28025547 16.75020357 0.29060081 10.07540484 -8.8125 5.625 C-21.74658473 3.08890496 -30.94093628 6.47747079 -39.3125 16.671875 Z " fill="#040404" transform="translate(133,179)"/>
<path d="M0 0 C0.9283667 -0.00064453 1.8567334 -0.00128906 2.81323242 -0.00195312 C9.68838972 0.05079898 16.15984005 0.63036146 22.875 2.1875 C22.875 6.1875 22.875 6.1875 21.25634766 8.421875 C18.18863592 10.69639738 16.55968045 10.60027623 12.7734375 10.4375 C11.56937256 10.40358154 10.36530762 10.36966309 9.12475586 10.3347168 C7.84608643 10.28613525 6.56741699 10.23755371 5.25 10.1875 C-13.2483323 9.83726947 -33.93264107 11.79067689 -48.125 25.1875 C-55.66919505 32.99486464 -58.13934854 42.45553262 -58.73046875 53.08984375 C-58.77055054 53.77622925 -58.81063232 54.46261475 -58.85192871 55.1697998 C-58.94875415 56.84204071 -59.03770552 58.51473448 -59.125 60.1875 C-58.12021858 60.17750725 -58.12021858 60.17750725 -57.09513855 60.16731262 C-50.13630971 60.1010486 -43.17757019 60.05573652 -36.21850586 60.02270508 C-33.61983603 60.00759937 -31.02119177 59.98711366 -28.42260742 59.96118164 C-24.69183042 59.92487757 -20.96138987 59.90779142 -17.23046875 59.89453125 C-16.06476852 59.87904739 -14.8990683 59.86356354 -13.69804382 59.84761047 C-12.0767028 59.84727058 -12.0767028 59.84727058 -10.42260742 59.84692383 C-8.99364388 59.83693108 -8.99364388 59.83693108 -7.53581238 59.82673645 C-5.125 60.1875 -5.125 60.1875 -3.27827454 61.54472351 C-2.125 63.1875 -2.125 63.1875 -2.375 65.8125 C-3.125 68.1875 -3.125 68.1875 -4.125 69.1875 C-6.04717078 69.29195557 -7.97319819 69.32605137 -9.89819336 69.33276367 C-11.75032692 69.34233345 -11.75032692 69.34233345 -13.63987732 69.35209656 C-14.99819907 69.35362512 -16.35652134 69.35473914 -17.71484375 69.35546875 C-19.09867895 69.3586797 -20.4825138 69.36204365 -21.86634827 69.36555481 C-24.77085151 69.37155224 -27.67532498 69.37339409 -30.57983398 69.37280273 C-34.30702146 69.37270109 -38.03401853 69.38635272 -41.76116085 69.40357494 C-44.62041608 69.4146778 -47.47962503 69.41672247 -50.33889961 69.41619301 C-51.71325906 69.41737574 -53.08761961 69.42181388 -54.46195793 69.42952538 C-56.38208452 69.43928998 -58.30226662 69.43519215 -60.22241211 69.43041992 C-61.86336098 69.43255745 -61.86336098 69.43255745 -63.53746033 69.43473816 C-66.125 69.1875 -66.125 69.1875 -68.125 67.1875 C-70.19308229 52.0105566 -68.38608985 36.48022317 -59.92578125 23.52734375 C-48.93702254 9.24910846 -33.07183186 4.44718017 -16.125 1.1875 C-15.18011719 0.99285156 -14.23523438 0.79820312 -13.26171875 0.59765625 C-8.83623897 0.01898206 -4.4589132 -0.00318181 0 0 Z " fill="#040404" transform="translate(114.125,277.8125)"/>
<path d="M0 0 C1.43400146 0.00845947 1.43400146 0.00845947 2.89697266 0.01708984 C20.38695477 0.31175009 39.58051322 3.90413739 53.4375 15.3125 C54.12070312 15.86164063 54.80390625 16.41078125 55.5078125 16.9765625 C64.03119824 24.59251553 69.82953063 36.56351593 70.62255859 47.97558594 C70.7044395 50.88260624 70.71060996 53.77949666 70.6875 56.6875 C70.69910156 58.18216797 70.69910156 58.18216797 70.7109375 59.70703125 C70.70835937 60.65707031 70.70578125 61.60710937 70.703125 62.5859375 C70.70086914 63.44622559 70.69861328 64.30651367 70.69628906 65.19287109 C70.4375 67.3125 70.4375 67.3125 68.4375 69.3125 C65.85668945 69.56646729 65.85668945 69.56646729 62.55078125 69.57128906 C61.31610107 69.57759338 60.0814209 69.58389771 58.80932617 69.59039307 C57.456216 69.58681338 56.10310713 69.58271145 54.75 69.578125 C53.36759371 69.57947175 51.98518787 69.58141236 50.6027832 69.58392334 C47.70421849 69.58687418 44.80577697 69.58257836 41.90722656 69.57324219 C38.18789363 69.56184755 34.46884932 69.56840725 30.74952698 69.58038712 C27.89454973 69.58760688 25.03964115 69.58531728 22.18466187 69.58013153 C20.81309983 69.57879535 19.44153161 69.58044166 18.06997681 69.58509064 C16.1547253 69.59015748 14.23945199 69.58106831 12.32421875 69.57128906 C11.23326904 69.56969788 10.14231934 69.56810669 9.01831055 69.56646729 C6.4375 69.3125 6.4375 69.3125 4.4375 67.3125 C4.6875 64.25 4.6875 64.25 5.4375 61.3125 C7.98688815 60.03780593 9.76790998 60.19233816 12.62158203 60.19897461 C13.70255157 60.19905014 14.78352112 60.19912567 15.89724731 60.19920349 C17.65353958 60.20694542 17.65353958 60.20694542 19.4453125 60.21484375 C20.64106903 60.2162587 21.83682556 60.21767365 23.06881714 60.21913147 C26.90006987 60.22474337 30.73126484 60.23729792 34.5625 60.25 C37.15494707 60.25501347 39.74739506 60.25957664 42.33984375 60.26367188 C48.70574898 60.27471667 55.07162037 60.29146641 61.4375 60.3125 C61.31201382 58.12066202 61.17738553 55.92934657 61.0390625 53.73828125 C60.96510254 52.51794189 60.89114258 51.29760254 60.81494141 50.0402832 C59.67680055 38.79948579 55.8763408 29.6315424 47.1015625 22.3828125 C30.91295327 11.05564748 10.83700377 9.88736941 -8.24804688 10.56640625 C-9.39466797 10.58832031 -10.54128906 10.61023438 -11.72265625 10.6328125 C-12.75011963 10.66648926 -13.77758301 10.70016602 -14.83618164 10.73486328 C-17.5625 10.3125 -17.5625 10.3125 -19.98999023 8.54248047 C-21.5625 6.3125 -21.5625 6.3125 -21.3125 4.0625 C-21.065 3.485 -20.8175 2.9075 -20.5625 2.3125 C-13.6476075 0.68858318 -7.09821184 -0.04451486 0 0 Z " fill="#050505" transform="translate(336.5625,277.6875)"/>
</svg>
