<svg xmlns="http://www.w3.org/2000/svg" xml:space="preserve" id="nsz0VWrh2I" x="0" y="0" class="pbimage_pbimage__wrapper__image__0LEis false" version="1.1" viewBox="0 0 500 500"><style>.st2{fill:#3e5cd6}.st1{fill:#000005}.st0{fill:#fff}</style><g id="calendar"><path fill="#FFF" d="M415.3 94.6c-.2-13.6-1-23.9-1.6-24.8-2-2.6-106.3-.3-106.6 3.6 0 0 1.2 9.3 2.1 21.8 18.9-.3 87.2-1.3 106.1-.6" class="st0"/><path fill="#000005" d="M417.5 95.7c-.1-5.5-.2-11-.6-16.5-.1-1.8-.2-3.6-.4-5.3-.1-1-.2-2.1-.5-3.1-1-2.8-4.5-3.1-7-3.3-9.1-.7-18.3-.5-27.5-.4-12.8.1-25.7.5-38.5 1-10.2.4-20.5.8-30.6 2.1-1.4.2-2.8.4-4.2.7-.9.1-1.8.4-2.6.8-1 .6-.6 1.6-.5 2.6.4 3.4.9 7.7 1.2 11.4.3 2.9.5 5.8.7 8.7.4 1.5 1.7 2.6 3.2 2.7 13-.2 25.9-.4 38.9-.5 16.2-.2 32.5-.3 48.7-.3 6.2 0 12.4 0 18.5.3 1 0 1.5-.6 1-1.5-.6-1.1-1.8-1.8-3-1.9-12.9-.5-25.9-.3-38.8-.2-16.2.1-32.5.3-48.7.5l-18.6.3 3.2 2.7c-.4-5.2-.9-10.5-1.4-15.7-.2-1.5-.3-3-.5-4.5l-.2-1.4v-.3.3c0 .3-.3.2 0 0 .1 0 .3-.1.4-.2.4-.2-.3.1.2-.1 1.1-.3 2.2-.5 3.3-.7 9-1.4 18.3-1.7 27.4-2.1 12.3-.6 24.7-1 37-1.1 10-.1 20-.3 29.9.2 1.4.1 2.8.1 4.3.3.5 0 1 .1 1.5.2s.7.2.1 0c.2 0 .3.1.5.1.4.2-.7-.3-.3-.1-.5-.2-1-.6-1.4-1-.1-.2-.4-.8-.4-.5.1.9.3 1.8.4 2.8.4 4.2.6 8.5.8 12.7.1 2.9.2 5.8.2 8.6 0 1.1 1.2 2 2.1 2.4.4-.1 2.2.4 2.2-.7" class="st1"/><path fill="#FFF" d="M309.2 95.2c1.4 18 2.2 42.5-2.1 54.2 0 0-14.9-.7-15.2 1.6s2 16.2 18.2 17.8 83.2 3 95.7-2.3c8.4-3.5 10-44.4 9.5-71.9-18.9-.7-87.2.3-106.1.6" class="st0"/><path fill="#000005" d="M306.7 95.4c.6 7.6 1 15.2 1.1 22.8.2 7.3-.2 14.6-1.1 21.9-.4 3.2-1.1 6.4-2.2 9.4l3.7-.9c-2.5-.1-5-.1-7.5-.1-2 0-4.1.2-6.1.4q-2.4.15-4.5 1.2c-1.5.9-.7 3.1-.4 4.5.7 2.9 2.1 5.6 4.1 7.8 5 5.8 12.3 6.8 19.5 7.3 6.8.4 13.5.7 20.3.9 17 .4 34.1.5 51.1-.5 6.3-.2 12.7-1 18.9-2.2 1.9-.4 4.2-.9 5.7-2.3 1.8-1.6 2.7-4.3 3.5-6.6 2.6-8.1 3.4-17 4-25.5.8-10.7 1.1-21.4 1-32.1 0-2.4 0-4.8-.1-7.2 0-.4-1.1-.5-1.3-.5-13.1-.5-26.2-.3-39.3-.2-16.3.1-32.6.3-48.9.5l-18.6.3c-.7 0-2.7 0-3 .7s1.5.7 1.8.7c13-.2 25.9-.4 38.9-.5 16.1-.2 32.3-.3 48.5-.3 3.6 0 7.1 0 10.7.1l4.3.1h2.4c.5 0-.5 0 0 0h.9l-1.3-.5c.2 10.1.1 20.1-.4 30.2-.3 9.2-1.2 18.4-2.8 27.5-.5 3.3-1.4 6.5-2.6 9.5-.4 1-1 2-1.7 2.9q-.45.6-.9.9c-.1.1-.2.2-.3.2l-.2.1c-.3.2.3-.1 0 0s-.7.3-1.1.4l-.4.1c.5-.1.2-.1.1 0l-.8.2-1.5.3-.4.1-1 .2c-1.3.2-2.7.4-4 .6-.5.1-.1 0 0 0l-.6.1-1.1.1-2.5.2c-15.5 1.3-31.2 1.3-46.9 1.1-7.4-.1-14.2-.3-21.5-.6-5.6-.3-12-.1-17.2-2.4-5.6-2.5-9.6-7.7-10.5-13.7-.2-.7-.2-1.3-.1-2 0-.1.1-.1.2-.2-.1.2.4-.2.1-.1.1-.1.2-.1.4-.1.3-.1-.5.1 0 0 0 0 .6-.1.2-.1s.4-.1.5-.1l.4-.1c.7-.1-.5 0 .2 0l1.2-.1 1.2-.1h7c.8 0 3.3.2 3.7-.9 2.1-5.8 2.6-12.2 3-18.4.4-7.7.3-15.4 0-23.1-.2-4.2-.5-8.5-.8-12.7-.1-.5-5.1-.2-5 .8" class="st1"/><path fill="#000005" d="M397.7 164.4c-.2.1.8-.2.5-.1s-.3-.1.2 0c-.1 0-.3.1-.4 0s.4.1-.1 0c-.4 0-.7-.1-1.1-.3-.5-.2-1-.6-1.5-.9-1.4-1.3-2.4-2.9-3-4.7-1.2-3.3-2-6.8-2.3-10.4-.1-.2-.3-.3-.5-.3-7.2-.2-14.4-.4-21.6-.5-13.7-.3-27.5-.4-41.2-.1-6.1.1-12.2.3-18.3 1-1.2.1-2.3.7-3.2 1.5-.6.7-.5 1.3.5 1.2 12-1.3 24.1-1.1 36.2-1.1s24.3.2 36.4.6l7.6.2-.5-.3c.5 4.7 1.3 10.3 4.4 14.1 1.3 1.7 3.3 2.8 5.4 2.8.7 0 1.4-.2 2-.4.7-.2 2.5-1 2.5-1.9s-1.6-.5-2-.4M320.3 105.7c8.3.2 16.7.3 25 .3 14.5.1 29 .2 43.5-.1 5.1 0 10.3-.2 15.4-.7 1.4-.2 1.6-2.1 0-1.9-4.3.5-8.6.7-12.9.7-6.9.2-13.8.2-20.7.2q-20.4 0-40.8-.3l-8.9-.1c-1.3-.1-2.3 1.8-.6 1.9M320.4 122.3l28.1-1c15.3-.5 30.6-1.1 45.9-1.7 4-.2 8.1-.2 12.1-.5 1.6-.1.8-2.3-.4-2.2-10.2.6-20.5.8-30.8 1.2l-45.2 1.6-10.1.3c-1.7.2-.9 2.4.4 2.3M319.5 136.5c8.3 0 16.6 0 24.9-.1 14.5-.1 29-.3 43.4-.8 5.2 0 10.4-.4 15.6-1 .6 0 1.1-.6 1-1.2s-.6-1.1-1.2-1h-.2c-4 .6-8.7.7-13 .9-6.9.3-13.8.4-20.7.6-13.6.2-27.2.4-40.8.4h-8.8c-1.3 0-1.8 2.2-.2 2.2" class="st1"/><path fill="#000005" d="M327.1 103.7c1.4 11.2 1.6 22.6.6 33.9-.3 3.8-1.1 7.6-2.4 11.2-.4 1 1.9.3 2.2-.4 2.6-6.6 3-14.2 3.1-21.3.1-6.7-.1-13.4-.7-20.1-.1-1.4-.2-2.7-.4-4.1-.2-1.1-2.5-.1-2.4.8M341.7 103c.7 11.3.7 22.7.1 34-.2 3.6-.6 7.2-1.3 10.7-.3 1.4 2 2.1 2.3.6 1.5-6.8 1.6-14 1.7-21 .1-6.7 0-13.5-.3-20.2 0-1.4-.1-2.8-.2-4.2s-2.3-1.5-2.3.1M355.6 103.3c1.3 10.7 1.6 21.5.7 32.2-.3 4.1-1 8.2-2.1 12.2-.1.3 2.3.5 2.5-.1 2-7.1 2.5-14.7 2.6-22.1.1-6.2-.2-12.4-.8-18.6-.1-1.2-.2-2.4-.4-3.6-.1-.7-2.6-.5-2.5 0M372.5 104.1c1 10.6 1 21.3.2 31.9-.3 3.9-.9 7.8-1.9 11.6-.1.4 2.1-.2 2.2-.9 1.8-7 2.2-14.4 2.4-21.5.1-6.2 0-12.3-.4-18.5-.1-1.2-.1-2.5-.2-3.7-.1-.4-2.4.3-2.3 1.1M391.1 103.3c-.2 13.2-.6 26.5-1.8 39.7-.2 3.2-.6 6.4-1.3 9.6-.3 1.2 1.9 2.4 2.3 1 .6-2.8 1-5.6 1.2-8.5.4-4.1.7-8.3.9-12.4.4-7.9.7-15.9.9-23.8 0-1.7.1-3.4.1-5.2 0-1.3-2.3-2-2.3-.4" class="st1"/><path fill="#3E5CD6" d="m363.5 131 6.8-6.2 1-.9c.2-.2.3-.6.1-.9q-.3-.45-.9-.6c-.9-.3-1.9 0-2.5.6l-6.8 6.2-1 .9c-.2.2-.3.6-.1.9q.3.45.9.6c.9.2 1.8 0 2.5-.6" class="st2"/><path fill="#3E5CD6" d="m360.5 123.4 6.5 6.8.9 1c.3.3.7.6 1.1.6.5.1 1 0 1.4-.2s.7-.6.9-1 .1-.8-.1-1.1l-6.5-6.8-.9-1c-.3-.3-.7-.6-1.1-.6-.5-.1-1 0-1.4.3-.4.2-.7.6-.9 1-.1.2-.1.6.1 1" class="st2"/><path fill="#000005" d="M324.1 82.2h-1.2c.2 0-.2 0-.4-.1l-.7-.2c-.2-.1-.5-.1-.7-.2s-.4-.2-.1 0l-.5-.2c-.1 0-.2-.1-.4-.2-.3-.2.3.2-.1-.1l-.4-.2.1.1c0-.1-.2-.1-.2-.2s.3.4 0 0 .2.4 0 0c-.1-.1-.1-.2-.2-.3 0 0 .2.3.1.1s-.2-.3-.4-.5c.2.3-.1-.2-.1-.3s-.2-.4-.3-.6c-.2-.4-.3-.8-.4-1.3-.3-1.1-.5-2.3-.5-3.5-.2-4.2.5-8.5 3.9-11.3 2.4-2.1 5.7-3 8.8-2.3l.7.2.4.2c.2.1.4.2.6.2l.5.2.5.3-.1-.1.3.2-.1-.1.3.3c-.3-.5 0 0 .2.2-.3-.4 0 .1.1.2s.2.2.2.4l.6 1.2c.4 1.2.6 2.4.7 3.6.2 1.1.9 2 1.8 2.6.2.1 2 1.4 2 .5-.3-5.3-3.3-10.1-8-12.7-3.5-1.9-7.7-1.9-11.1 0-4.1 2.3-5.8 6.8-5.8 11.3-.1 5.5 1.8 10.6 6.4 14 2 1.5 4.4 2.3 6.9 2.2.9-.1-.3-1.7-.5-2-.8-.4-1.9-1.6-2.9-1.6" class="st1"/><path fill="#000005" d="M330.3 85.9c.2-.4.3-.8.4-1.2s.1-.7 0-1.1c-.1-.6-.4-1.2-.9-1.7s-1.1-.8-1.7-1c-1-.3-2.1-.3-3.1 0-1.3.3-2.5 1-3.5 2-.3.3-.6.6-.8 1-.1.2-.3.5-.4.7-.3.7-.3 1.5 0 2.2q.75 1.2 2.1 1.8c.6.3 1.2.5 1.9.5.9 0 1.9-.2 2.7-.5 1.4-.5 2.6-1.5 3.3-2.7.2-.4.1-.8-.2-1.1-.4-.2-.9-.3-1.4-.2-1.2.1-2.3.8-3 1.8l-.2.3.3-.4c-.1.2-.2.3-.4.5l.4-.4-.3.3c.4-.3.5-.4.4-.3h-.1l.4-.2c-.2.1-.5.1.4-.1h-.2l.4-.1h-.30000000000000004.5-.5.5l-.9-.3.4.2c-.5-.2-1-.5-1.4-.9l.2.3c-.2-.3-.4-.6-.4-.9v.3c0-.3 0-.6.1-.8l-.1.4c.1-.3.2-.5.4-.8l-.3.4c.2-.2.3-.4.5-.7l-.4.4.2-.2.1-.1c.2-.2-.5.4-.4.3l.2-.1c.2-.2-.5.3-.5.2h.2c-.2 0-.3.1-.5.2l.2-.1c-.2 0-.3.1-.5.1h.30000000000000004-.5.6l-.5-.1c.3 0 .5.1.8.2l-.4-.2c.4.2.8.5 1.1.8l-.2-.3c.3.4.5.8.5 1.2v-.3c0 .4 0 .7-.1 1.1l.3-.3c-.1.2-.1.4-.2.5-.2.3-.1.8.1 1 .4.2.9.3 1.4.2.6-.1 1.3-.3 1.8-.7.5-.2.9-.6 1.2-1.1M362.1 82.4h.3-.4c-.4 0 .7.1 0 0l-.6-.1c-.1 0-.2-.1-.3-.1.1 0 .5.2.1 0l-.7-.2c-.4-.2 0 0 0 0l-.5-.2c-.3-.1-.5-.3-.8-.5s.2.2-.1-.1l-.4-.3c-.5-.5-1-1-1.4-1.6-1.1-1.8-1.7-3.9-1.8-6-.3-4.1.3-8.5 3.5-11.3.6-.5 1.2-.9 1.9-1.2l.6-.3c.2-.1-.1 0-.1 0l.2-.1c.2-.1.4-.1.6-.2s.9-.2.3-.1c.4-.1.8-.1 1.1-.2s-.2 0-.2 0h1c.6 0-.3-.1.1 0 .2 0 .4.1.6.1s.6.1.3.1.4.1.5.1.4.2.7.2h-.1l.3.2c.4.2.8.5 1.2.7l.3.3c.1.1.4.3.5.5.3.3.5.6.8.9q1.95 2.85 2.1 6.3c.1 1.9 5.1 1.9 5 .1-.3-4.5-2.5-8.8-6.7-10.8-4.2-1.9-9.1-1.8-13.1.4-4.2 2.4-6.3 6.7-6.4 11.5s1 9.8 5 12.6c2.4 1.6 5.2 2.3 8 2 .8-.1 2.2-.6 1.8-1.7s-2.3-1.1-3.2-1" class="st1"/><path fill="#000005" d="M366.9 87.5c.8-1.9.4-4-1-5.5-1.2-1.6-3.1-2.4-5.1-2.2-.7.1-1.4.5-1.9 1s-.9 1.1-1.1 1.7c-.2.5-.2 1-.2 1.6.1.6.3 1.2.5 1.8.7 1.2 1.6 2.2 2.8 2.8.7.4 1.4.7 2.2.8.5.1 1 .1 1.5-.1 1.1-.4 1.9-1 2.3-1.9.2-.5.2-1 0-1.4-.2-.6-.6-1.2-1.1-1.6-.6-.5-1.9-1.3-2.5-.2-.1.2-.2.3-.3.5l.2-.3c-.2.3-.6.6-.9.7l.4-.2c-.3.1-.6.2-1 .2h.4c-.3 0-.5 0-.8-.1l.5.1c-.3-.1-.5-.2-.7-.3l.5.3c-.3-.2-.6-.3-.8-.5l.5.4c-.1-.1-.3-.2-.4-.4l.5.5-.3-.3.4.6c-.1-.1-.1-.2-.2-.3l.2.6c0-.1-.1-.2-.1-.3l.1.5v-.4.4c0-.2 0-.4.1-.6l-.1.4c.1-.4.4-.8.6-1.2l-.2.3c.3-.4.7-.7 1.1-.9l-.4.2c.3-.1.7-.2 1-.2h-.4c.3 0 .6 0 .9.1l-.5-.1c.2.1.4.1.6.2l-.5-.3c.2.1.3.2.5.3l-.5-.4c.1.1.3.2.4.4l-.5-.5.3.3-.4-.6c.1.1.1.2.2.4l-.2-.6c.1.1.1.3.1.4l-.1-.5c0 .2.1.4.1.5v-.5c0 .2 0 .5-.1.7l.1-.4c-.1.2-.1.4-.2.6-.2.5-.2 1 0 1.4.2.6.6 1.2 1.1 1.6.4.4.9.7 1.5.8.3.3.7.1.9-.3M396.4 82.2h-.9c-.2 0-.4-.1-.6-.1.9 0 0 0-.3-.1-.1 0 .6.2.1 0l-.3-.1c-.4-.1.6.3.1 0l-.4-.2c.9.4-.7-.5-.1-.1-.3-.2-.6-.4-.8-.7-.1-.1-.3-.3-.5-.6-.3-.3-.5-.7-.8-1.1-1-1.9-1.5-4-1.6-6.1-.3-4.1.5-8.6 3.8-11.4 1.2-1.1 2.7-1.8 4.2-2.2.7-.2 1.5-.3 2.2-.2h.2l.6.1c.5.1-.2-.1.2 0 .1 0 .7.2.4.1s.3.1.4.2l-.2-.1.4.2c.5.2-.2-.2.2.1.1.1.5.4.2.2.7.5 1.3 1.2 1.8 1.9 1.2 1.9 1.9 4.1 2 6.4.1 1.3 4.8 2.6 4.7 1.2-.2-4.7-3-9-7.3-11-4-1.9-8.9-2.3-12.8-.1-4.1 2.3-5.9 6.8-5.9 11.3 0 4.8 1.2 9.6 5.4 12.4 2.4 1.7 5.4 2.5 8.3 2.4.9-.1 1.2-.6.4-1.2-.7-.9-1.9-1.3-3.1-1.2" class="st1"/><path fill="#000005" d="M401.8 87.3c1-2 .1-4.4-1.2-5.9-.7-.8-1.5-1.4-2.5-1.8-.6-.3-1.3-.3-2-.2q-1.05.15-1.8.9c-.5.5-.9 1-1.1 1.6-.2.5-.2 1-.2 1.5.1.6.2 1.2.5 1.8.6 1.4 1.7 2.5 3 3.2.9.7 2.1.9 3.2.7q.75-.15 1.2-.6c.4-.4.7-.7.9-1.2.2-.4.2-.9 0-1.4-.2-.6-.5-1.2-.9-1.7-.3-.5-.8-.8-1.3-1-.3-.1-.7 0-.9.3-.1.2-.3.4-.4.6l.2-.2c-.3.4-.7.6-1.2.8l.3-.1c-.3.1-.7.1-1.1.1l.4.1c-.3-.1-.7-.2-1-.3l.4.2c-.3-.2-.6-.3-.9-.5l.4.3-.3-.3.2.2-.1-.1c-.1-.1 0-.1.1.2s.2.3.1.2v-.1c-.1-.2.4.7.2.4s.2.6.1.4v-.2l.1.5v-.4.5c0-.2 0-.4.1-.6l-.1.4c.2-.5.4-.9.8-1.3l-.2.2c.3-.4.8-.7 1.3-.9l-.3.1c.4-.1.8-.1 1.2-.1h-.4q.45 0 .9.3l-.4-.2c.2.1.3.2.5.3l-.4-.3.3.3-.3-.3.1.1.1.1c.1.2-.5-.7-.3-.4l.1.2c-.3-.5-.4-.7-.3-.5v.1c.1.3-.2-.7-.1-.3 0 .1 0 .2.1.2l-.1-.5c0 .2.1.3.1.5v-.5c0 .2 0 .5-.1.7l.1-.4c-.1.2-.1.4-.2.6-.2.4-.2.9 0 1.3.2.6.5 1.2.9 1.7.3.4.8.8 1.3 1 .4.1.7.1.9-.3M419.9 75.5c0 3.3 0 6.5-.1 9.8l-.3 23.8c-.2 9.7-.4 19.3-.7 29-.3 8.6-.6 17.1-1.2 25.6-.1 1.4-.2 3-.4 4.6-.1 1.3-.3 2.6-.5 3.9-.1 1-.3 2-.5 3-.1.4-.2.7-.3 1 0 .1-.1.3-.1.4.1-.2.2-.4 0-.1s.4-.5.1-.2.6-.5.1-.1c-.3.2.6-.5.2-.1-.1 0-.1.1-.2.1-.5.2.3-.1.3-.1 0 .1-1 .3-1.1.4-.3.1-.8.2-.1.1l-.7.2c-2.6.5-5.3.8-8 .8l-1.1.1h-.8999999999999999l-2.6.1h-5.9c-4.4 0-8.7-.1-13-.3-9.4-.4-18.9-.9-28.3-1.6-8.2-.6-16.5-1.2-24.7-2-4.4-.4-8.9-.8-13.3-1.2l-.6-.1c-1.3-.1-2.5.6-3.1 1.7-.4.6-.2 1.4.4 1.8.2.1.5.2.7.2l9.6.9c7.7.7 15.4 1.3 23.1 1.9 9.5.7 19 1.3 28.6 1.8 8.6.4 17.3.7 25.9.5 3.2-.1 6.5-.2 9.7-.6 2.3-.2 4.6-.7 6.8-1.7 3.9-1.9 3.8-7.1 4.1-10.9.8-7.9 1.1-15.8 1.4-23.7.4-9.8.6-19.5.8-29.3.2-8.8.3-17.5.4-26.3 0-4.8.1-9.6.1-14.4v-.7c0-1.2-1.7-1.2-2.5-.9-1.2.4-2 1.4-2.1 2.6M290.2 142.5c-2.9 1.8-5.2 4.4-6.5 7.6-1.3 3.6-1.8 7.5-1.5 11.3.1 1.5 3.5.2 3.5-1.2-.3-3.3.1-6.7 1.1-9.9.7-2.4 2.3-4.6 4.4-6 .5-.3 1.5-1 1.2-1.8s-1.7-.3-2.2 0M279.6 143.4c-2.8 2-2.8 5.6-2.7 8.7 0 .2.3.4.5.4.4.2.8.4 1.2.5.2 0 1.9.5 1.9.1-.1-2.9-.1-6.6 2.5-8.5.4-.3-1-.8-1.1-.9-.5-.2-.9-.3-1.4-.3-.3-.1-.7-.2-.9 0M428.8 180.4c2.2-5.2 2.8-11 1.8-16.6-.1-.7-3.8.1-3.6 1 1 5.5.4 11.1-1.7 16.3-.2.6 1.2.3 1.5.3.4-.1 1.7-.4 2-1M438.9 173.4v-5.2c0-.2-.2-.4-.4-.5-.3-.3-.7-.5-1.1-.7s-.8-.3-1.3-.4c-.1 0-.6-.1-.6.1v5.2c0 .2.2.4.4.5.3.3.7.5 1.1.7s.8.3 1.3.4c.1-.1.6.1.6-.1" class="st1"/></g><g id="clock"><path d="M95.2 59.3s-24.6 9-21.2 44.5 37.9 47 60.5 32.5 24.6-40.5 13.3-63.4c-13.1-26.7-52.6-13.6-52.6-13.6" class="st0"/><path d="M93.4 56.6c-3.8 1.5-7.3 3.7-10.3 6.5-6.4 5.8-10.9 13.5-12.8 21.9-1.3 6.1-1.7 12.4-1.1 18.7.5 6 2 11.9 4.5 17.4 4.3 9.4 11.9 16.8 21.4 20.9 9.4 4 19.8 4.7 29.7 2 11.9-3.2 22.2-10.8 28.7-21.3 6.2-10.4 7.5-23 5.1-34.7-1.3-6.2-3.5-12.3-6.5-17.9-2.4-4.5-6-8.3-10.2-11-8.2-5.2-18.2-6.6-27.8-6.1-6.7.3-13.3 1.5-19.7 3.3zc-1.6.5-4 2.5-2.7 4.3s4.6 1.5 6.4.9l.9-.3c.1 0 .3-.1.4-.1s-1.6.4-.9.3l.3-.1 1.4-.4c2.8-.7 5.6-1.2 8.5-1.6l1.4-.2h-.5l.8-.1c.9-.1 1.9-.2 2.8-.2q3-.15 6 0c.2 0 1.1.1.2 0s.1 0 .2 0c.5 0 1.1.1 1.6.2 1 .1 2.1.3 3.1.5l1.5.3.8.2c.9.2-.7-.2 0 0 1 .3 2 .6 3 1s2 .8 2.9 1.2l.7.3c-.6-.3-.4-.2 0 0s1 .6 1.4.9c.9.6 1.8 1.2 2.7 1.9.4.3.8.7 1.2 1 .2.2.6.5.1.1l.7.7c3.7 3.9 5.9 8.7 7.6 13.5 3.9 10.8 5.1 22 1.6 32.8l-.6 1.8c-.1.3-.2.6-.4.9-.1.2-.1.3-.2.4-.2.5.2-.4 0 .1-.6 1.2-1.2 2.5-1.9 3.7s-1.5 2.4-2.3 3.5c-.4.6-.8 1.1-1.2 1.6l-.4.5-.1.1-.5.5c-1 1.1-2 2.1-3.1 3.1-.6.5-1.1 1-1.7 1.4-.3.2-.6.5-.9.7l-.4.3c-1.1.8-2.3 1.6-3.5 2.3-.5.3-.9.5-1.4.8l-.7.4c-.9.5.7-.3 0 0-1 .5-2.1.9-3.2 1.3-.5.2-1 .4-1.5.5-.2.1-.5.1-.8.2s1.2-.3.6-.2l-.5.1c-1.1.3-2.1.5-3.2.7-.5.1-1 .2-1.6.2-.8.1-.3 0 .3 0-.3 0-.6.1-.9.1-1.1.1-2.2.1-3.3.1h-1.6c-.7 0-.4-.1.2 0-.3 0-.6 0-.9-.1-1.1-.1-2.2-.2-3.2-.4-.5-.1-1-.2-1.6-.3l-.8-.2c-.7-.1.9.2-.1 0-2.1-.6-4.2-1.3-6.2-2.2l-.7-.3-.4-.2c.5.3-.3-.1-.4-.2l-.8-.4c-1-.6-1.9-1.2-2.8-1.8s-1.8-1.3-2.7-2.1c-.4-.4-.8-.7-1.2-1.1l-.6-.6c.5.5-.1-.1-.2-.3-1.6-1.7-3.1-3.5-4.4-5.5-.7-1-1.3-2.1-1.9-3.1-.3-.6-.6-1.2-.9-1.7-.1-.3-.3-.5-.4-.8s-.4-1-.2-.5c-1-2.5-1.8-5-2.4-7.6-1.3-5.8-1.7-11.7-1.2-17.6.2-2.6.6-5.3 1.3-7.8.3-1.2.6-2.3 1-3.4l.6-1.5c.1-.2.2-.5.3-.7s.4-.9.1-.3c.9-1.9 1.9-3.6 3-5.4.5-.8 1-1.5 1.6-2.3.3-.3.5-.7.8-1l.4-.5c.1-.1-.6.7 0 .1 1-1.2 2.1-2.3 3.2-3.3.5-.4 1-.9 1.6-1.3l.4-.3c.5-.4-.9.7-.4.3l.8-.5c.8-.6 1.7-1.1 2.5-1.6l1-.5c.8-.4-1.4.6-.3.2l.6-.2c1.6-.6 4-2.5 2.7-4.4s-4.7-1.5-6.5-.8" class="st2"/><path d="M109.9 80.6c.1 4.2.5 8.3 1.2 12.4.3 1.8.5 3.7.6 5.6 0 1 .1 2 0 3.1-.1.5-.1 1-.1 1.5.1.4-.2-.1.3-.2.2-.1.6.2.5.2s.2-1.4.2-1.4c.6-1 1.6-1.7 2.7-2 3.3-1 7.2.2 10.2 1.6 1.2.5 2.6-.1 3.1-1.3.5-1.3-.6-2.4-1.7-2.9-3.7-1.8-7.8-2.5-11.8-2-3.4.5-6.9 2.6-7.6 6.2-.4 1.9.4 3.9 2 5.1 1.5 1 3.5 1.1 5.2.3 1.8-1.1 1.9-3.2 2-5.1 0-2.1-.1-4.1-.3-6.1-.6-4.8-1.6-9.6-1.5-14.5 0-2.8-4.9-3.4-5-.5M150.5 55.9c1.4-2.5 3.2-4.8 5.2-6.9.1-.1-.1-.5-.1-.6-.2-.4-.4-.8-.7-1.2-.1-.1-1.1-1.6-1.3-1.4-2 2.1-3.8 4.4-5.2 6.9-.1.1.1.5.1.6.2.4.4.8.7 1.1.2.4.5.7.8 1.1.1.1.5.5.5.4M156.7 65.2c1.1 0 2.2.1 3.3.5s2.3.5 3.5.5c.6-.1-.5-1.2-.6-1.3-.4-.3-.7-.6-1.1-.9q-.3-.3-.9-.3c-1.1 0-2.2-.1-3.3-.5-1.1-.3-2.3-.5-3.5-.5-.6.1.5 1.2.6 1.3.3.3.7.6 1.1.9.3.1.6.3.9.3" class="st1"/></g><g id="character"><path d="M215.4 290.3c3.1 4.8-4.6.1 11-8.3 30.6-16.6 20.9-46.2 20.9-46.2s18.8-2.8 25.9-6.8c6.1-3.5 2.3-9.2-17.5-11.9-4.6-.6-10-3.4-15.1-8.6-2.8-2.9-17.3-15.9-23.5-22.8 19-19 4.1-44.9-14.5-42-18.1 2.9-12.8 27.5-5.8 24s-10.4-20.2-34.8-13.9-8.4 34.8-4.9 28.6-21.6-15.8-38.8 4.6c-14.9 17.6 14.4 40.7 17.2 35.8s-13.2-4.2-21.6 13.2 19.5 32 21.6 22.3-17.4 1.4-3.5 19.5 43-7.6 43-7.6-2.3 9.5-3.3 14.9c0-.2 30.1-15.4 43.7 5.2" class="st0"/><path d="M213.1 290.9c.1.2.3.5.4.7s.4.7.1.2c.1.1.1.2.1.3v-.1c.2-.3-.2 0 .1-.6l.7-.7 1.2-.3 1.9.5c.4.2.8.6.9 1.1v-.1c.1.4-.1.3 0-.1 0-.1.1-.2.1-.3.1-.5-.1.2 0 0 .1-.3.3-.7.5-1 1.3-2.2 4.1-4.1 6.5-5.6 3.7-2 7.3-4.4 10.6-6.9 2.7-2.2 5.2-4.8 7.3-7.6 6.1-8.1 8.4-18.4 7.3-28.5-.2-2.1-.6-4.2-1.2-6.2l-2 1.9c5.8-.8 11.5-2 17.1-3.5 3.4-.9 7.1-1.9 10.2-3.8 1.8-1.1 3.6-2.8 3.2-5.1s-2.8-4.1-4.8-5.1c-4-1.9-8.3-3.3-12.7-3.9-2.5-.3-5-.8-7.4-1.4-2.3-.8-4.6-2-6.5-3.4-2.9-2.1-5.3-4.8-7.9-7.2-6.7-6.3-13.7-12.5-19.9-19.4l.1 2.2c4.4-4.3 7.5-9.7 8.8-15.7 1-5.1.4-10.5-1.7-15.2-3.9-9.1-13.6-15.4-23.6-14-4.6.6-8.8 2.5-11.7 6.3-2.1 2.9-3.2 6.4-3.1 10 0 3 .6 6.3 2.5 8.8s5.2 3.8 8.2 2.2c2.7-1.4 2.8-4.3 1.4-6.8-1.8-3.3-5.3-5.7-8.5-7.4-10.7-5.4-23.2-6-34.4-1.6-3.9 1.5-7.2 4.4-9.1 8.1-1.5 3.3-2 6.9-1.4 10.4.4 3.1 1.5 6 3.2 8.6 1.3 2.1 3.2 4.1 5.8 4.4 2.1.3 4.1-1.1 4.4-3.2.1-.6.1-1.1-.1-1.7-.9-2.9-4.1-4.6-6.8-5.7-8.8-3.4-19.5-1.6-27.4 3.2-4.8 3-9.8 7.2-12.2 12.4-1.8 4-2.2 8.5-1 12.7 2.1 7.9 8 15 14.7 19.5 2.3 1.6 5.3 3.3 8.2 2.8s4.2-3.7 1.7-5.6-6.5-1.2-9.2-.2c-4.5 1.8-8.5 4.7-11.5 8.5-3.3 4-6.4 9.1-6.4 14.4.1 4.2 1.6 8.3 4.3 11.5 2.6 3.2 5.8 5.8 9.5 7.5 3.1 1.4 7 2.6 10.3 1.5 2.9-.9 4.6-3.9 3.9-6.9-.9-3.3-5.1-3.6-7.6-2.2-2.9 1.8-4.9 4.7-5.6 8-1.1 5 .6 10.2 3.3 14.4s6.4 7.7 11.3 9.1c4.3 1.1 8.9 1.1 13.2-.1 7.7-2 14.8-6.3 21.1-11.1 1.1-.9 2.3-1.8 3.4-2.7l-4.5-1.5c-1.2 4.9-2.4 9.9-3.3 14.9-.4 2 2.8 2.5 4.1 1.8.9-.5 1.9-.9 2.9-1.3l.7-.3c.3-.1-.5.2 0 0l.4-.1 1.8-.6c1.4-.5 2.8-.9 4.3-1.3 6.6-1.7 13.5-2.3 19.8 0 4.2 1.6 7.7 4.4 10 8.1.8 1 2.1 1.4 3.3 1.1 1-.3 1.9-1.3 1.2-2.3-2.5-3.8-6-6.9-10.1-9-3.9-1.9-8.2-2.9-12.6-3-6.9-.1-13.8 1.2-20.3 3.7-1.5.6-3.1 1.2-4.5 1.9l4.1 1.8c.9-5 2.1-9.9 3.3-14.9.2-.9-.9-1.7-1.6-2-1-.4-2.1-.2-2.9.4-3.1 2.7-6.4 5.1-10 7.2-3 1.9-6.3 3.4-9.6 4.7-1.7.6-3.5 1.1-5.4 1.4.4-.1-.4 0-.4 0l-.7.1c-.4 0-.8.1-1.2.1-.8.1-1.6 0-2.3 0-.4 0-.9-.1-1.3-.2l-.5-.1c-.8-.2.5.1-.3-.1l-1.1-.4-.7-.3-.4-.2c.2.1.2.1-.1 0q-2.4-1.2-4.2-3.3c-2.9-3.3-5.3-7.9-5.4-12.3 0-1.6.2-3.2.8-4.7.3-.7.6-1.3 1-1.9.3-.5.6-.9 1-1.2l.6-.6c.5-.4-.1 0 .3-.3l.6-.3c.1-.1.6-.2-.1 0 .1 0 .2-.1.3-.1.6-.1-.6 0 .1 0h-.4c.4.1-.7-.2-.3-.1-.2 0-.4-.1-.5-.2l-.1-.1s.2.2.2.3-.1-.4 0-.1c0 .1.1.2.1.3 0 .5.1-.2 0 .3 0 .3 0 .6-.1.9 0 .1 0 .3-.1.4-.1.3.1-.2-.1.2l-.3.6c-.2.4.3-.3 0 0l-.2.2c-.4.5.2 0-.3.2l-.2.1c-.5.3.3 0-.1 0l-.7.2c.7-.1-.1 0-.3 0h-.5c.7 0 .2 0 0 0-.3 0-.7-.1-1-.1l-.5-.1c.1 0 .6.1.1 0s-.7-.2-1-.3-.7-.2-1-.4l-.5-.2c-.2-.1-.1 0 .1 0l-.4-.2c-5.6-2.8-11.2-8.4-11.3-15.3-.1-4.6 2.4-8.8 5.1-12.3 2.4-3.3 5.6-5.9 9.3-7.7.6-.3 1.2-.5 1.8-.7.3-.1.6-.2.9-.2l.5-.1c-.6.1-.1 0 0 0l.8-.1c.2 0 .5.1-.2 0h.4c.7.2-.2-.1 0 0 .7.2-.4-.2.1 0l-.3-.3c.2.4-.2-.4 0 0 .1.2-.1-.2 0-.2s0 .2 0 .2-.2.6 0-.1c0 .1-.1.3-.2.4-.4.3.3-.3 0 0 .4-.4.4-.2.2-.2s-.3 0 .3-.1c-.5.1.6 0 .1 0-.3 0-.3-.1.3 0-.1 0-.3 0-.4-.1-.6-.1.6.2 0 0l-.6-.2c-.2-.1-1.1-.5-.4-.1-.3-.1-.6-.3-.9-.4l-1.5-.9-1-.7-.3-.2c.4.3-.3-.2-.4-.3-2.7-2.1-5-4.6-7-7.3-4.2-5.8-6.8-13.5-3.2-20.3 2.3-4.3 6.4-7.9 10.5-10.4 3.7-2.2 7.8-3.7 12.1-4.1 1-.1 1.9-.1 2.9-.1h.8c.5 0 1 .1 1.5.1.9.1 1.7.2 2.5.4s-.5-.1.2 0l.4.1c.4.1.9.2 1.3.4s.7.2 1 .4l.4.2c.3.1.5.3.8.4s1.1.8.6.4c.4.3.7.6 1 1 .3.3-.2-.4 0 0 .1.1.1.2.2.3 0 .1.1.1.1.2.3.4 0-.2 0 0s.1.3.1.5c.1.5 0-.3 0 .1 0 .1 0 .2-.1.3 0 .4.2-.4 0-.1-.1.2-.2.4-.3.5.3-.5.2-.2 0 0 .4-.4.4-.2.2-.1s.6-.2.3-.1-.3 0 .4 0c-.2 0-.5-.1.4 0-.6-.1.6.2.1 0-.2-.1.6.3.1 0-.1 0-.2-.1-.2-.1-.4-.2.4.4.1.1l-.9-.9c-.3-.3.2.3-.2-.3-.2-.2-.3-.4-.5-.6l-.9-1.5c-1.2-2.3-2-4.9-2.2-7.5-.3-2.8.3-5.6 1.6-8.1 1.7-2.9 4.3-5 7.5-6.1 5-1.8 10.3-2.5 15.6-2 4.4.3 8.7 1.5 12.7 3.5 1.5.8 2.9 1.7 4.1 2.7.5.4 1 .9 1.5 1.4.4.4.7.9 1 1.4.1.2.2.4.4.7s.2.5 0 .1c0 .1.1.2.1.3.1.2.1.4.2.7v.3c0 .1-.2.6 0 .2l-.3.6c.2-.4.1-.1-.1.1s.4-.2 0 0l-.3.2c-.4.2.5-.1.1 0-.1 0-.5.1 0 0s.1 0 0 0c-.5 0 .7.1.2 0s.6.2 0 0c-.4-.2.6.2.2.1-.1 0-.2-.1-.3-.2-.4-.2.4.4.1.1l-.3-.2c-.1-.1-.6-.7-.2-.2-.3-.4-.6-.9-.9-1.4-.1-.1-.1-.3-.2-.4-.2-.5.1.4-.1-.1-.1-.3-.2-.5-.3-.8-.2-.7-.4-1.3-.5-2-.3-1.3-.3-2.7-.2-4.1.2-2.9 1.3-5.7 3.2-7.9 2.4-2.5 5.8-3.9 9.3-3.9 3.6-.1 7.2 1.1 10 3.4 6.8 5.3 9.4 14.5 7.5 22.7-1.3 5-4 9.5-7.7 13.1-.6.6-.6 1.5 0 2.1l.1.1c5.4 6 11.4 11.5 17.3 17s11.4 11.8 19.1 14.3c2.4.7 4.9 1.1 7.5 1.4 2.3.4 4.5.9 6.8 1.5l2.7.9c.7.2 1.4.5 2 .9.6.3 1.1.6 1.7 1-.4-.3.1.1.2.2l.6.6c-.4-.4.4.9.2.3 0 .2.1.3.1.5.2.5.1-.2 0 .2 0 .1-.1.6 0 .3s-.1.2-.1.3-.5.6-.1.2c-.1.2-.3.3-.5.5s-.4.3-.6.5c-.1.1-.3.2.1 0-.1.1-.2.1-.3.2-.6.4-1.3.7-1.9 1-1.5.7-3.1 1.2-4.7 1.7-4.1 1.2-8.2 2.2-12.4 3-1.5.3-3.1.6-4.6.8l-.7.1c-.2 0-1.1.2-.1 0l-.5.1c-.9.1-2.4.7-2 1.9q.9 3.15 1.2 6.3c.5 4.9.1 9.9-1.2 14.7-1.9 6.5-5.5 12.4-10.6 16.9-3.5 3.2-7.5 5.4-11.5 7.9-3 1.8-6.2 4-8.1 7-.9 1.4-1.6 3.5-.1 4.7 1.4 1.1 4.6.8 4.2-1.5-.2-.8-.5-1.5-1-2.2-.8-1-2.1-1.4-3.3-1.1-.7 0-1.7 1-1 2" class="st1"/><path d="M227.5 205.5s-3.6 1.4-2 4.7 5.7 1.4 5.2-1.9-3.2-2.8-3.2-2.8M232.8 250l11.2.5 1.6.1c.9 0 1.7-.3 2.4-.8.3-.2 1.1-1 .3-1.1l-11.2-.5-1.6-.1c-.9 0-1.7.3-2.4.8-.3.2-1.2 1-.3 1.1" class="st1"/><path d="M221.2 189.2c-5 1.9-9.2 5.3-12.1 9.8-5.7 9.4-1.5 22.1 6.6 28.8 3.6 3.1 8.4 4.5 13.1 3.8 4.3-.7 8.2-3 10.9-6.4 3.1-3.9 4.7-8.8 4.6-13.8-.1-5.6-2-11-5.5-15.4-2.7-3.2-6.3-5.5-10.4-6.4-2.3-.6-4.6-.7-6.9-.4zc-1.1.2-.2 1.9.1 2.4.6.8 1.7 1.7 2.8 1.5h.6-.1.3c1-.1 1.9-.1 2.9 0 1.2.1 2.4.3 3.6.7.4.1.7.2 1.1.4-.3-.1.6.3.7.4.7.3 1.3.8 1.9 1.3.4.3.1.1 0 0l.5.5.5.5c.5.5-.3-.4.2.2.6.8 1.2 1.6 1.6 2.5 1.1 2.2 1.8 4.6 2.1 7 .8 4.6-.1 9.3-2.5 13.2-4 6.4-12.6 10.6-19.5 6.7-.6-.4-1.2-.8-1.7-1.3-.9-.8-1.6-1.6-2.2-2.6-1.4-2.1-2.5-4.5-3.1-7-1.1-4.1-.7-8.4 1.2-12.1 2.7-4.7 6.9-8.3 11.9-10.2 1.8-.9-1.3-4.7-2.9-4.1" class="st2"/><path d="M181.3 231c-.8-4.3-4.6-7.7-8.7-8.8-4.3-1.1-8.9.7-11.8 3.9-3.1 3.4-4.5 8.1-3.6 12.6 1 4.4 4 8.1 8.1 10 4.2 1.9 9.5 1.2 12.6-2.4l-3.9-2.8c.9 8.4.5 16.8-1 25.1-.1 1.2.4 2.3 1.5 2.9.5.4 2.3 1.1 2.5-.1 1.6-8.6 2-17.3 1.2-26-.1-1-.7-1.9-1.5-2.5-.6-.4-1.8-.9-2.3-.3-2.4 2.7-6.6 3.8-9.8 1.9s-4-6.1-3.1-9.4c1-4.3 4.2-7.7 8.4-9 3.2-.9 6.9.2 7.6 3.7.3 1.2 1.3 2.2 2.5 2.5 1.1.2 1.7-.4 1.5-1.5zM209.2 179.1c.6 2.6-.6 5.2-1.5 7.5-.4 1-.9 2-1.6 2.8-.4.6-1.2 1.3-1.6 1.3-2.2 0-4.3-.8-6-2.2-1.1-1-1.2-2.8-.2-3.9.4-.4.8-.7 1.3-.8l-1.9.3c-.6 0-.1.2.1.6s.4.8.6 1.1c.4.7.8 1.4 1.1 2.1.7 1.4 1.1 2.9 1.3 4.5.2 2.3-.3 5.6-2.7 6.6.3-.1.4 0-.1 0-.3 0-.5 0-.8-.1-.7-.1-1.3-.3-1.9-.5-1.3-.4-2.5-1-3.7-1.7-2.4-1.5-4.5-3.5-4.8-6.5-.1-1.2-5.1-.4-4.9.9.7 5.4 7.1 8.8 12 9.6 3.1.6 6.4 0 9.1-1.8 2.1-1.7 3.2-4.3 2.9-7-.2-3-1.7-6-3.2-8.6-1.8-3-6.6-.6-8.5 1.1s-1.7 4.4.5 5.9c2.4 1.6 5.3 2.4 8.2 2.3 3.6.1 6.9-1.6 8.8-4.6.8-1.4 1.4-2.9 1.9-4.4.8-1.7 1-3.7.7-5.6-.5-1.1-5.4-.1-5.1 1.1M183.4 212.8c-1.1-2.5-3.1-4.5-5.5-5.8-2.6-1.5-5.4-2.7-8.3-3.5-5.4-1.5-11.7-1.3-16 2.8-.8.7-.9 1.8-.2 2.6l.2.2c.8.7 2.6 1.2 3.5.4 3-2.9 7.3-3.3 11.2-2.2 2.2.6 4.2 1.4 6.2 2.5 1.6.8 3.3 1.8 4 3.5.5 1.2 1.7 1.9 3 1.7 1.1-.1 2.2-1.2 1.7-2.4h.2zM218 206.9c-1.4 2.9-1.2 6.3.5 9 .2.2.5.4.8.4.4.2.9.3 1.4.4.2 0 1.6.3 1.4 0-1.6-2.7-1.8-6-.4-8.8.1-.3-1.5-.8-1.7-.9-.4-.1-.9-.2-1.3-.3-.3.1-.6.1-.7.2" class="st1"/><path d="M67.2 399.8c2.2-3.5 4.4-6.8 6.7-10.2 5.8-8.5 11.7-16.9 17.9-25.1l2.9-3.9.7-.9c.1-.2.5-.6 0 0l.3-.4c.5-.7 1-1.3 1.5-2 2.1-2.7 4.2-5.3 6.3-8 4.5-5.5 9-10.9 13.7-16.2 4.8-5.4 9.8-10.7 14.9-15.8 2.5-2.5 5.1-5 7.7-7.4l1.9-1.7 1-.9c.2-.2.7-.7-.1 0 .2-.2.4-.4.6-.5 1.3-1.1 2.6-2.3 3.9-3.4 2.6-2.2 5.3-4.3 8-6.3 1.3-.9 2.6-1.9 3.9-2.8l1.9-1.3.5-.4c.5-.4-1 .7-.3.2l1.1-.7c2.6-1.6 5.2-3.2 7.9-4.6l1.1-.5.4-.2-.6.3c.7-.3 1.4-.7 2.1-1 1.3-.6 2.6-1.1 3.9-1.6l.9-.4.4-.2c.8-.3-1.1.4-.5.2s1.3-.5 2-.7c1.3-.4 2.6-.8 3.9-1.1.7-.2-1.2.2-.2 0l1-.2c.6-.1 1.3-.2 1.9-.3s1.2-.2 1.8-.2h.6c.7-.1-.1-.1-.3 0 .1-.1.9 0 1.1-.1 1.3-.1 2.6 0 3.9 0l.8.1h-.3c.2 0 .3 0 .5.1.6.1 1.2.2 1.7.3 1.1.2 2.2.5 3.2.9l.7.3c.8.3-.1-.1.2.1s1 .4 1.4.7c1.8 1 3.5 2.1 4.9 3.5.4.3.7.7 1 1l.4.5.3.3c.1.2-.3-.4 0 0 .6.8 1.2 1.6 1.8 2.5 2.3 3.8 4.1 8 5.1 12.3.6 2.4 1.1 4.8 1.4 7.2.1.6.2 1.2.2 1.8 0 .3.1.5.1.8s0 .3.1.5 0-.2 0 .2l.3 3.9c.3 5.4.3 10.7-.1 16.1-.6 9.9-1.8 19.8-3.6 29.6-1 5.6-2.2 11.1-3.6 16.6-.1.3-.1.5-.2.8-.2.7.6 1.2 1.1 1.4 1 .2 2.1.1 3.1-.2 1.9-.6 4.5-1.7 5.1-3.8 1.1-4 2-8 2.8-12.1 1.9-9.3 3.4-18.7 4.3-28.1 1-10.7 1.2-21.7-.5-32.4-1.4-8.9-4.4-18.2-11.4-24.3-8.2-7.1-19.8-6.9-29.8-4.5-12.7 3-24.4 9.9-34.9 17.6-11.7 8.6-22.3 18.6-32.3 29.2-9.8 10.4-19 21.3-27.8 32.6-7.3 9.3-14.3 18.9-21 28.6-3.4 4.9-6.8 9.9-10 15-.2.2-.3.5-.4.7-1.2 1.9 1.6 2.3 2.8 2 2.5-.4 5.1-1.5 6.3-3.5" class="st2"/><path d="M246.1 408.5c18.8 8.9 32-2 32-2 7 9.5 19.2-7.2 19.2-7.2s7.4 1 10.5-9-5.2-19.6-5.2-19.6 31.2 6.3 34 1.6-10.3-16-39.2-17.6-68.7 22.2-68.7 22.2l-38.3 14.5 8.1-18.4s-57.7-5.7-62.5 1.4-22.4 74.3-1.4 75.7c-.1.1 30.5 17.2 111.5-41.6" class="st0"/><path d="M245.4 410.1c10.3 4.8 22.6 5.3 32.5-.7.8-.5 1.5-1 2.3-1.6l-4.2-.8c1.4 2.1 3.6 3.6 6.1 4.2 2.2.4 4.4 0 6.4-.9 3.5-1.6 6.5-4.5 9-7.3.6-.7 1.2-1.5 1.8-2.2l-2.1.5c3.9.4 7.8-1.3 10.1-4.5 4.8-6.4 4.1-14.7.6-21.5-1-1.9-2.2-3.8-3.6-5.5l-1.9 2.9c4.8 1 9.6 1.7 14.4 2.4 3.8.5 7.7.9 11.5 1 2.8.1 6 .2 8.6-1 5-2.4.7-8.2-2-10.5-6.7-5.7-15.8-8.4-24.2-10-5.9-1.2-11.9-1.8-17.9-1.7-5.1.1-10.1.7-15.1 1.9-9.9 2.2-19.5 5.4-28.7 9.5-6.6 2.9-13.1 6-19.3 9.5-1 .5-1.9 1.2-2.9 1.6s-2.3.9-3.4 1.3l-34 12.9-.9.3 3.9 2.7 8.1-18.3c.8-1.7-1.6-2.8-2.9-2.9-8-.8-16-1.4-23.9-1.8-6.5-.3-13.1-.5-19.6-.4-5.1.1-10.5.2-15.4 1.5-1.7.3-3.3 1.1-4.6 2.2-.8 1-1.4 2-1.9 3.2-1.6 4-2.9 8.1-4 12.3-3.3 12.1-5.8 24.7-6.3 37.3-.2 5.4-.1 11.1 1.5 16.3 1.2 4.1 3.7 8.1 7.9 9.7 1.2.4 2.4.7 3.6.8l-1.9-.6q2.25 1.2 4.8 1.8c3.9.9 8 1.3 12 1.1 7.1-.3 14-1.4 20.8-3.4q15.75-4.5 30.3-12c14.2-7.2 27.9-15.5 40.9-24.8 1.9-1.4 3.9-2.7 5.8-4.1 2.3-1.7-1.4-4.7-3.3-3.4-14.8 10.7-30.2 20.8-46.6 28.9-10.4 5.4-21.3 9.6-32.7 12.5-2.1.5-4.2.9-6.2 1.3-.9.2-1.9.3-2.9.4l-1.3.2c-.6.1.1 0-.2 0l-.8.1c-2.9.3-5.9.4-8.9.3-.6 0-1.2-.1-1.8-.1h-.4c-.4 0 .7.1.2 0l-.8-.1c-.9-.1-1.9-.3-2.8-.5-.7-.1-1.4-.3-2.1-.5-.4-.1-.6-.3.2.1-.1-.1-.3-.1-.4-.1l-.7-.2c-.3-.1-.6-.2-.9-.4-.9-.4 1.4.6-.3-.1-.4-.2-.8-.2-1.3-.3h.2l-.6-.1-.2-.5c-.7-.1.5.2-.1 0l-.9-.4c.1 0 .5.3 0 0l-.5-.3c-.3-.2-.4-.4 0 0l-.4-.4c-.3-.3-.6-.6-.8-.9.3.4.1.1-.1-.1s-.2-.3-.3-.5c-.2-.4-.4-.8-.6-1.1l-.2-.4c.1.2-.1-.4-.2-.4-.2-.4-.3-.9-.5-1.4-.3-.9-.5-1.9-.7-2.9-.4-2.1-.7-4.3-.7-6.5-.2-5.3.1-10.6.8-15.8 1.3-10.4 3.4-20.8 6.5-30.9.9-3.2 2-6.2 3.3-9.2l.6-1.2c-.3.6 0 .1.1-.1l.2-.2c-.2.2-.3.2 0 0s.5-.3.7-.4l.4-.2c.5-.2-.4.1.2-.1.8-.2 1.5-.4 2.3-.6s1.8-.3 2.8-.5l.7-.1h.4l1.7-.2c2.5-.2 5-.3 7.5-.4q8.4-.15 16.8.3c8.5.4 17.1 1 25.6 1.8h1.5l-2.9-2.9-8.1 18.4c-.2.9.2 1.9 1 2.3.9.6 2 .7 2.9.3l30.4-11.5 6.4-2.4c.6-.2 1.2-.5 1.8-.7 4.3-2.4 8.5-4.7 12.9-6.8 8.2-4 16.6-7.5 25.3-10.2 9.2-2.9 18.8-5.1 28.5-4.7 10 .4 20.4 2.1 29.3 6.6.2.1 1.2.6.9.4l1 .6c.7.4 1.3.8 2 1.3.3.2.5.4.8.6l.5.4c.5.4-.4-.3.1.1s.9.8 1.3 1.3l.5.6c.3.4-.3-.4 0 0l.1.2c.1.2.3.4.4.6.2.3.3.7.1.2.1.2.1.4.2.6s.1.7 0 .1v.5c0 .2-.2.7 0 .1-.1.1-.1.3-.1.4s-.1.2-.1.2c.2-.5.2-.3.1-.1-.2.4 0 0 0 .1s-.4.2-.6.3c-.4.2.4-.1.1 0-.1 0-.2.1-.3.1l-.7.2c-.3.1-.6.1-.9.1s.5 0 0 0l-.7.1c-3.3.2-6.6 0-9.8-.4-3-.3-6.9-.8-10.2-1.4-2.5-.4-4.9-.8-7.4-1.3l-1-.2c-1.9-.4-3.2 1.3-1.9 2.9l.2.2.2.2c-.3-.4-.1-.1.1.1.6.8 1.1 1.7 1.6 2.5 1.5 2.5 2.5 5.3 3 8.2.8 5.2-1.3 12.2-6.6 14.1.4-.1-.2.1-.3.1-.2.1-.4.1-.6.1l-.6.1c.4-.1.3 0 0 0s-1.6-.1-.4 0c-.7-.1-1.6-.1-2.1.5-1.8 2.4-3.9 4.6-6.2 6.6-1.5 1.3-3.3 2.3-5.2 2.9-.1 0-.8.1-.3.1h-.8c-.5 0 .3.1-.2 0-.1 0-1-.3-.4 0-.1 0-.9-.4-.4-.1-.2-.1-.4-.2-.6-.4-.3-.3-.7-.6-.9-.9-1-1.3-2.8-2-4.2-.9l-.1.1c.7-.5.1-.1-.1.1-.6.4-1.1.8-1.7 1.1-1.9 1.1-3.9 1.9-5.9 2.5-7.2 2.1-14.6 1-21.3-2.1-.9-.5-2.5-.4-3 .7s.4 2.1 1.2 2.4" class="st1"/><path d="M289.6 377.3s13 7.9 7.7 22" class="st0"/><path d="M287.5 378.7c4.7 2.9 8 7.8 8.9 13.3.3 2.9-.1 5.8-1.2 8.5-.2.7 1.8-.3 1.9-.3.8-.5 2-1.1 2.3-2 1.7-4.4 1.6-9.3-.2-13.6-1.4-2.9-3.4-5.4-5.9-7.4-.5-.4-1.1-.8-1.6-1.2-.6-.4-1.9.5-2.4.9-.2.1-2.2 1.6-1.8 1.8" class="st1"/><path d="M283.2 395s-6.3 26.6-41.7 12.7" class="st0"/><path d="M281.4 393.6c-.2.8-.5 1.7-.9 2.5 0 .1-.1.2-.1.3-.1.3.1-.3 0 0l-.3.6c-.2.5-.5.9-.7 1.4-.6 1-1.3 2.1-2 3-4.1 5.2-10.4 8-17.2 8.2-6.4.2-12.8-1.5-18.7-3.8-2.8-1.1-1.8 3.4 0 4.1 9.5 3.7 20.8 6.3 30.6 1.9 5.2-2.4 9.3-6.6 11.6-11.8.6-1.1 1-2.3 1.3-3.6.2-1.2-.3-2.4-1.3-3.2-.7-.5-2-.8-2.3.4" class="st1"/><path d="M130.8 378.5c4.9.6 9.9.3 14.8-1 2.2-.5 4.4-1.1 6.6-1.6 1-.2 2.1-.5 3.2-.7s2.4-.4 3.2-.5c4.7-.4 9.4-.4 14-.4l14.5-.1h7.8c.7 0-.1-.1-.2 0h.7c.2 0 .5 0 .7.1-.1-.1-1-.2-.3 0l-.3-.1-.5-.2c.4.2.4.2.1 0-.5-.4.1.1.1.1-.2-.2-.3-.2-.1 0 .1.1.2.3.3.4 1.2 1.8 4.5 2.5 6.5 2.4 1.6-.1 3.7-.8 2.5-2.7-2.9-4.5-9.5-5.1-14.3-5.1l-15.5.1c-5 0-10.1 0-15.1.1-5.2.2-10.3.9-15.3 2.2-2.6.7-5.2 1.4-7.9 1.8-1.1.2-2.3.4-3.5.4h-1.1c-.8 0-1.5-.1-2.3-.3-1.2-.2-4.6 0-4 2s3.9 2.7 5.6 3z" class="st2"/><path d="M131.5 377.5c-.5-4.6.9-9.1 2.6-13.4 1.6-4 3.3-8 5.2-11.9 3.8-7.8 8.1-15.4 13-22.6.6-.9-2.9-3.4-3.5-3.8s-4-3-4.6-2.1c-5 7.3-9.4 15-13.2 23-1.9 4-3.7 8-5.2 12.1-1.6 4.3-2.9 8.7-2.3 13.3.1.6 1.2 1.5 1.5 1.8q1.35 1.35 3 2.4c.3.4 3.6 2.4 3.5 1.2" class="st2"/><path d="m258.3 424.3 15.6-.7 34.8-1.5c11.9-.5 23.8-1 35.8-1.5 6.3-.3 12.6-.5 18.9-.8 2.7-.1 4-1.5 5.1-3.7 1.2-2.6 2.2-5.4 3.2-8.1 3.5-9.3 6.7-18.7 9.9-28.1 4.1-11.9 8.1-23.8 12.1-35.7 3.7-10.9 7.3-21.7 11.2-32.5 1.4-3.9 2.8-7.7 4.2-11.5.5-1.4 1-2.7 1.6-4l.3-.8c.1-.2.4-.9.2-.5.2-.4.4-.7.5-1.1.2-.2.3-.5.4-.7.1-.3-.3.3-.1.1-.2.2-.5.4-.7.5.1 0 .2-.1.3-.2.4-.4-.2.1 0 0 .6-.2 1.2-.5 1.8-.7.1 0 .5-.1 0 0l.5-.1 1.3-.4c1.5-.4 3.1-.8 4.7-1 2.2-.4 5.6-1.1 7.4.1.7.4.7.9.5 1.7-1.2 5.8-3.2 11.5-5 17.2-3.3 10.7-6.6 21.3-10 32-3.9 12.3-7.9 24.5-11.9 36.7-3.5 10.7-7.1 21.5-10.9 32.1-1.3 3.8-2.7 7.6-4.1 11.4-.5 1.3-1 2.7-1.5 4l-.6 1.5-.3.6q-.15.3 0 0c0 .1-.1.2-.1.3s-.3.5-.4.8c-.1.1-.1.1-.1.2.1-.2.3-.3.5-.5-.2.1.7-.4.3-.2s.7-.3.4-.2c-.1 0-.1.1-.2.1-.5.2.3-.1.3-.1-.4.1-.9.2-1.3.3-.6.1.4-.1.1 0l-.4.1-.9.2-2.1.3c-1.7.2-3.5.4-5.2.6-2.1.2-4.2.4-6.4.5-2.6.2-4.5.3-7.2.5-5.7.4-11.5.7-17.3.9-12.7.6-25.4 1-38.1 1.4-10.8.3-21.5.6-32.3.8l-9.9.2h-3.6c-.1 0 .3.1.4.1s.1.2 0-.2c-.4-2.3.2-4.8.7-7 .4-1.8.8-3.7 1.3-5.5.3-1-1.7-.6-2.1-.5-.9.2-2.3.8-2.6 1.8-.5 1.9-1 3.9-1.4 5.8-.3 1.4-.6 2.9-.7 4.4-.2 1-.2 2.1.2 3.1.6 1.2 3.6.7 4.7.7 8.1-.2 16.3-.3 24.4-.5 12.4-.3 24.8-.7 37.2-1.1 12.2-.5 24.5-1 36.7-1.7 7.9-.5 16.1-.8 23.9-2.4 1.9-.4 4.3-1.1 5.3-2.9 1-1.9 1.8-3.9 2.5-6 3.2-8.4 6.1-16.9 9-25.5 4-11.9 8-23.8 11.9-35.8s7.8-24 11.6-36.2c2.8-8.9 5.6-17.7 8.1-26.6.6-2.2 1.3-4.4 1.8-6.6.2-.6.2-1.4 0-2-1-2.2-5-1.9-6.9-1.7-3.6.3-7.2.9-10.6 2-2.1.6-5.1 1.3-6.7 3-1.3 1.3-2 3.5-2.6 5.2-3.2 8-6 16.2-8.8 24.3-4 11.7-8 23.4-12 35.2s-7.8 23.1-11.8 34.7c-2.6 7.7-5.2 15.4-8.4 22.9l-.3.7-.1.3-.1.1c-.2.4-.3.7-.5 1.1s-.3.4-.4.7c.2-.5 2.5-1.4 3.2-1.4-2-.1-4 .1-6 .2l-29.7 1.2c-12.6.5-25.2 1.1-37.8 1.6l-27.6 1.2-4.1.2c-1.2 0-2.4.5-3.3 1.3-.9.6-.8 1.4.3 1.3" class="st1"/><path d="M369.8 418.4c-1.1 0-2.1.6-2.7 1.5-.6 1.1-.7 2.5-.4 3.7.5 1.9 1.4 3.6 2.5 5.1.8 1.1 1.8 2.1 3.1 2.7 2.5 1.1 5.1-.5 7.1-1.9 1-.6 1.7-1.6 2-2.7.1-1.6-.2-3.2-1.1-4.5-.7-1.6-2-2.9-3.5-3.8-1.3-.6-2.6-.9-4-.9-.8 0-.1 1.6 0 2 .3.6.6 1.2 1 1.7.2.2.6.8.9.8.9 0 1.8.1 2.7.4.4.1.8.3 1.1.4.2.1.4.2.6.4l.2.2c-.1-.1 0 .1.1.1-.1 0-.2-.2 0 0-.1-.1-.2-.2-.2-.4s-.4-.9-.4-.9c0 .1 0 .2.1.3 0 0 0-.2 0 0v.5c-.2.8-.8 1.5-1.5 2-1.5 1-3.2 2.3-5.1 2.4-.9 0-1.8-.2-2.4-.8l-.2-.2-.2-.2-.2-.2c.3.4.1.1 0 0s.2.4.1.1.2.4 0 0v.1q0 .15 0 0c0-.15 0-.1 0 0v-.9c0-.4.2-.8.4-1.1.4-.8 1.2-1.3 2.1-1.4.8 0 .1-1.6 0-2-.3-.6-.6-1.2-1-1.7-.3-.1-.7-.7-1.1-.8" class="st1"/><path d="M383.6 321c-5.3-7.7-10.4-15.6-15.4-23.5-.7-1-1.8-1.6-2.9-1.8-.6-.1-2-.1-1.4.9 5 8 10.1 15.8 15.3 23.5.7.9 1.8 1.6 2.9 1.8.7.1 2.2.1 1.5-.9M370.7 335.9c-5.5-.2-10.6-2.2-15.7-4l-16.3-5.6c-1.2-.4-2.6.1-3.3 1.2-.6 1-.3 2.3.7 2.9.1 0 .1.1.2.1l16.8 5.8c5.3 1.8 10.7 3.9 16.4 4.1 1.3.1 2.6-.7 2.9-2 .3-1.1-.4-2.3-1.5-2.6 0 0-.1 0-.2.1M361.8 359.8l-10.2-.6c-.7 0 .9 1.6.9 1.6.5.4 1 .8 1.5 1.1.3.2.7.4 1.1.4l10.2.6c.7 0-.9-1.6-.9-1.6-.5-.4-1-.8-1.5-1.1-.3-.2-.7-.4-1.1-.4M322.1 322.2l-9.6-3.7c-1-.4-.4 1-.2 1.4.6 1 1.4 1.8 2.5 2.3l9.6 3.7c1 .4.4-1 .2-1.4-.6-.9-1.4-1.7-2.5-2.3" class="st2"/></g></svg>