<?xml version="1.0" encoding="UTF-8"?>
<svg version="1.1" xmlns="http://www.w3.org/2000/svg" width="370" height="370">
<path d="M0 0 C122.1 0 244.2 0 370 0 C370 122.1 370 244.2 370 370 C247.9 370 125.8 370 0 370 C0 247.9 0 125.8 0 0 Z " fill="#FEFEFE" transform="translate(0,0)"/>
<path d="M0 0 C4.02610821 1.7566944 6.11271196 4.27687382 8.5625 7.875 C8.5625 8.535 8.5625 9.195 8.5625 9.875 C6.59312339 11.49856346 4.62904852 13.01059566 2.5625 14.5 C1.99015625 14.92023438 1.4178125 15.34046875 0.828125 15.7734375 C-0.58953933 16.81305801 -2.01299262 17.84477591 -3.4375 18.875 C-3.1075 19.865 -2.7775 20.855 -2.4375 21.875 C0.87730557 21.44728315 3.47797764 20.46577478 6.4375 19 C12.80965737 16.03570268 19.68703102 15.07073374 26.5625 13.875 C26.8925 11.565 27.2225 9.255 27.5625 6.875 C26.61375 6.895625 25.665 6.91625 24.6875 6.9375 C21.5625 6.875 21.5625 6.875 19.5625 5.875 C19.519779 4.20888095 19.52186168 2.54117115 19.5625 0.875 C21.86259773 -1.42509773 27.41040666 -0.31037365 30.5 -0.3125 C31.89895508 -0.33086914 31.89895508 -0.33086914 33.32617188 -0.34960938 C34.66325195 -0.35250977 34.66325195 -0.35250977 36.02734375 -0.35546875 C36.848396 -0.35957764 37.66944824 -0.36368652 38.51538086 -0.36791992 C40.5625 -0.125 40.5625 -0.125 42.5625 1.875 C42.1875 4.5 42.1875 4.5 41.5625 6.875 C39.2525 6.875 36.9425 6.875 34.5625 6.875 C34.5625 9.515 34.5625 12.155 34.5625 14.875 C35.5628125 14.82859375 36.563125 14.7821875 37.59375 14.734375 C41.84379532 14.88496716 45.04887545 15.74842629 49.0625 17.125 C49.71742432 17.34953857 50.37234863 17.57407715 51.04711914 17.80541992 C55.56851886 19.40130761 59.56670925 21.2436256 63.5625 23.875 C63.8925 22.225 64.2225 20.575 64.5625 18.875 C60.6025 15.905 56.6425 12.935 52.5625 9.875 C54.81769575 4.23701063 54.81769575 4.23701063 58.5 2.125 C59.18964844 1.71765625 59.87929688 1.3103125 60.58984375 0.890625 C66.24290298 -2.01986094 72.58538934 -1.96596243 78.625 -0.1875 C84.8053163 2.41343472 89.22365154 8.08573237 92.0625 14 C93.458081 22.02459073 92.02983021 28.17400468 87.5625 34.875 C82.75733087 33.19403978 79.5137027 30.5679852 75.6484375 27.3359375 C73.57739933 25.58816589 73.57739933 25.58816589 70.5625 25.875 C70.0675 27.36 70.0675 27.36 69.5625 28.875 C70.05878906 29.38546875 70.55507813 29.8959375 71.06640625 30.421875 C82.17544269 42.31086276 88.16163743 54.41728202 88 70.6875 C87.99242676 71.75121826 87.98485352 72.81493652 87.97705078 73.91088867 C87.81706331 81.52313932 86.98518777 87.98684086 83.5625 94.875 C83.15 95.78765625 82.7375 96.7003125 82.3125 97.640625 C79.0472382 104.28246434 74.69251427 109.24601956 69.44140625 114.3671875 C67.29227479 116.69990455 67.29227479 116.69990455 67.61328125 119.4765625 C68.55601206 121.85860661 69.5436225 123.42806129 71.1875 125.375 C73.58547598 128.51504304 73.58547598 128.51504304 73.375 131.8125 C73.106875 132.493125 72.83875 133.17375 72.5625 133.875 C69.12390181 133.59587372 67.8696956 133.22260044 65.54296875 130.58984375 C64.95128906 129.67332031 64.35960937 128.75679687 63.75 127.8125 C63.14542969 126.89339844 62.54085937 125.97429687 61.91796875 125.02734375 C61.47066406 124.31707031 61.02335937 123.60679687 60.5625 122.875 C60.04042969 123.05675781 59.51835937 123.23851562 58.98046875 123.42578125 C57.39533379 123.96711455 55.80483792 124.49286006 54.2109375 125.0078125 C52.55779525 125.54910687 50.91434334 126.12223501 49.2890625 126.7421875 C36.04128424 131.24385972 20.18536346 130.54918236 7.33984375 125.26171875 C4.65598284 123.92167568 2.10480875 122.46569226 -0.4375 120.875 C-0.664375 121.555625 -0.89125 122.23625 -1.125 122.9375 C-2.76820548 126.61515036 -4.57708412 129.99833176 -7.4375 132.875 C-10.25 133.3125 -10.25 133.3125 -12.4375 132.875 C-13.18359375 130.76953125 -13.18359375 130.76953125 -13.4375 127.875 C-11.78515625 124.76171875 -11.78515625 124.76171875 -9.5 121.5625 C-8.74847656 120.49386719 -7.99695313 119.42523438 -7.22265625 118.32421875 C-6.63355469 117.51597656 -6.04445312 116.70773437 -5.4375 115.875 C-6.30955078 115.49601562 -6.30955078 115.49601562 -7.19921875 115.109375 C-16.92612928 109.74514511 -22.41696382 97.45965514 -25.5390625 87.28515625 C-29.52042684 70.44807809 -27.49748826 54.74629475 -18.4375 39.875 C-15.96327598 36.36869744 -13.44874108 32.94049767 -10.4375 29.875 C-9.7775 29.875 -9.1175 29.875 -8.4375 29.875 C-8.7675 28.555 -9.0975 27.235 -9.4375 25.875 C-14.25252319 25.875 -15.43018419 27.01228319 -19.1875 29.875 C-20.17234375 30.6175 -21.1571875 31.36 -22.171875 32.125 C-23.29335937 32.99125 -23.29335937 32.99125 -24.4375 33.875 C-30.2510681 28.3595636 -30.2510681 28.3595636 -30.640625 23.16796875 C-30.80371455 12.36328607 -30.80371455 12.36328607 -27.4375 7.875 C-19.06218123 -0.36226407 -11.9107144 -3.87155153 0 0 Z " fill="#FBFBFB" transform="translate(232.4375,171.125)"/>
<path d="M0 0 C1.09563011 0.00000755 1.09563011 0.00000755 2.21339417 0.00001526 C4.64763918 0.00355712 7.08146629 0.02261008 9.515625 0.04296875 C11.22420109 0.05123576 12.93277864 0.05920485 14.64135742 0.06689453 C20.34972608 0.09944487 26.05758112 0.16260381 31.765625 0.23046875 C32.82597961 0.24249329 33.88633423 0.25451782 34.9788208 0.26690674 C41.59816028 0.34378313 48.2170002 0.43740139 54.83581543 0.5508728 C56.99812266 0.58728302 59.16047999 0.62083004 61.32287598 0.65151978 C64.36266491 0.69649762 67.40192038 0.75452722 70.44140625 0.81640625 C71.35733047 0.82797256 72.2732547 0.83953888 73.2169342 0.85145569 C74.47140602 0.88123756 74.47140602 0.88123756 75.7512207 0.91162109 C76.48186234 0.92494476 77.21250397 0.93826843 77.96528625 0.95199585 C79.765625 1.23046875 79.765625 1.23046875 81.765625 3.23046875 C81.435625 4.88046875 81.105625 6.53046875 80.765625 8.23046875 C54.035625 8.56046875 27.305625 8.89046875 -0.234375 9.23046875 C9.56606544 17.57802911 9.56606544 17.57802911 19.578125 25.60546875 C24.69416081 29.58331725 29.74605646 33.63160666 34.765625 37.73046875 C40.28404257 42.23430122 45.84451131 46.67545092 51.46337891 51.05322266 C54.64602893 53.54048855 57.79457685 56.06271505 60.9140625 58.62890625 C61.61789063 59.20705078 62.32171875 59.78519531 63.046875 60.38085938 C64.39662229 61.49263816 65.74323017 62.60824475 67.0859375 63.72851562 C70.27131137 66.35118399 73.51612294 68.85583644 76.9296875 71.17578125 C77.85322021 71.80637451 77.85322021 71.80637451 78.79541016 72.44970703 C81.50707374 73.52429193 83.0130872 73.10854928 85.765625 72.23046875 C87.76169316 71.06734511 87.76169316 71.06734511 89.59375 69.52734375 C90.30281494 68.96539307 91.01187988 68.40344238 91.74243164 67.82446289 C92.86766235 66.91168579 92.86766235 66.91168579 94.015625 65.98046875 C95.62309808 64.70237022 97.23118637 63.42504511 98.83984375 62.1484375 C99.65630371 61.49665527 100.47276367 60.84487305 101.31396484 60.17333984 C105.81633599 56.60533849 110.39556055 53.13809506 114.97241211 49.66650391 C119.41275013 46.29136259 123.76550976 42.83502987 128.00390625 39.20703125 C129.765625 38.23046875 129.765625 38.23046875 131.99609375 38.56640625 C132.58003906 38.78554687 133.16398438 39.0046875 133.765625 39.23046875 C134.095625 40.88046875 134.425625 42.53046875 134.765625 44.23046875 C129.03260093 49.46120371 122.98902651 54.20683341 116.81640625 58.8984375 C114.10195233 60.97337859 111.4243024 63.08478291 108.765625 65.23046875 C116.05761248 71.85314337 123.54628296 78.1667659 131.51171875 83.96875 C132.15343018 84.44658936 132.7951416 84.92442871 133.45629883 85.41674805 C134.72438509 86.35993022 136.00398004 87.28787501 137.2956543 88.19848633 C139.0546875 89.51953125 139.0546875 89.51953125 141.765625 92.23046875 C142.1640625 95.56640625 142.1640625 95.56640625 141.765625 98.23046875 C140 98.89453125 140 98.89453125 137.765625 99.23046875 C135.96875 98.25390625 135.96875 98.25390625 134.015625 96.60546875 C133.23574219 95.96222656 132.45585937 95.31898438 131.65234375 94.65625 C130.69972656 93.85574219 129.74710938 93.05523437 128.765625 92.23046875 C126.82211338 90.64506859 124.87248424 89.06736689 122.92285156 87.48950195 C120.83723893 85.80035018 118.75606315 84.10586685 116.67578125 82.41015625 C112.06269912 78.65383737 107.42082081 74.93448272 102.765625 71.23046875 C98.92190936 72.60125623 95.92728517 74.38576657 92.640625 76.79296875 C88.57232488 79.7669085 85.14264481 81.8001846 79.9375 81.7890625 C74.86643525 80.48481383 70.7974427 76.42767451 66.765625 73.23046875 C64.08539398 70.97745226 64.08539398 70.97745226 61.77905273 71.45727539 C58.31557057 72.78731638 55.65164861 75.32001248 52.828125 77.66796875 C51.47217538 78.77444463 50.1153913 79.87989863 48.7578125 80.984375 C48.08202148 81.53625488 47.40623047 82.08813477 46.70996094 82.65673828 C43.9934263 84.85548041 41.22948406 86.98257842 38.453125 89.10546875 C33.22692639 93.10351069 28.02190211 97.12787969 22.828125 101.16796875 C21.68657959 102.05572998 21.68657959 102.05572998 20.52197266 102.96142578 C15.02837883 107.23786904 9.54992606 111.53327964 4.09204102 115.85522461 C1.69678316 117.74583383 -0.69317037 119.53633233 -3.234375 121.23046875 C3.36960622 121.38534683 9.9737972 121.52869154 16.578125 121.66796875 C18.17042435 121.70206345 18.17042435 121.70206345 19.79489136 121.73684692 C35.94032775 122.07584127 52.0842948 122.28623369 68.23259926 122.42272758 C71.34047448 122.44919086 74.44833671 122.47686325 77.55619812 122.50489807 C79.63796972 122.52355702 81.71974157 122.54218795 83.80151367 122.56079102 C84.83431048 122.57002625 85.8671073 122.57926149 86.93120098 122.58877659 C93.20036137 122.64374941 99.46951508 122.68929702 105.73879051 122.72884941 C109.70362924 122.75584064 113.66836893 122.79087536 117.63312531 122.82791138 C119.50696451 122.84360538 121.38083696 122.85575453 123.2547226 122.86425781 C125.83477756 122.87632998 128.41444983 122.90044154 130.99438477 122.92749023 C132.13993946 122.92837725 132.13993946 122.92837725 133.30863667 122.92928219 C138.53757765 123.0024214 138.53757765 123.0024214 140.765625 125.23046875 C140.21006944 129.78602431 140.21006944 129.78602431 138.765625 131.23046875 C136.90598218 131.32130955 135.0428287 131.34067051 133.1809845 131.33294678 C131.96822845 131.33024277 130.75547241 131.32753876 129.50596619 131.32475281 C128.14956594 131.31655342 126.79316642 131.30823328 125.43676758 131.29980469 C124.01780331 131.29457505 122.59883752 131.2897474 121.17987061 131.28529358 C117.3139123 131.2716075 113.44801857 131.25115908 109.58210206 131.22872829 C107.1674013 131.21488528 104.75269717 131.20224237 102.3379879 131.18997955 C94.78488887 131.15133454 87.23182852 131.10868839 79.6787861 131.06020427 C70.95702677 131.00423397 62.23533217 130.96118893 53.5134514 130.92952323 C46.77531344 130.90429522 40.03729718 130.86768367 33.29926413 130.82243752 C29.27378209 130.79564994 25.24840999 130.77364568 21.22284889 130.7634201 C17.43312865 130.75346613 13.64375732 130.72935954 9.85418701 130.69448662 C8.46509848 130.68411435 7.07596158 130.67877828 5.68683434 130.67891884 C3.78623019 130.67832498 1.88566451 130.65758637 -0.01481628 130.63592529 C-1.07726657 130.63001751 -2.13971685 130.62410973 -3.2343626 130.61802292 C-8.03104038 129.99836799 -12.05204259 128.07667492 -15.046875 124.23046875 C-17.69155478 120.60347934 -18.35618549 118.19023769 -18.4017334 113.82344055 C-18.41322418 112.9221492 -18.42471497 112.02085785 -18.43655396 111.09225464 C-18.44395599 110.10572906 -18.45135803 109.11920349 -18.45898438 108.1027832 C-18.47606949 106.54132317 -18.47606949 106.54132317 -18.49349976 104.94831848 C-18.60406944 94.06626019 -18.65156403 83.18352698 -18.69433594 72.30102539 C-18.71662047 67.13760188 -18.75840546 61.97490002 -18.81738281 56.81176758 C-18.88845912 50.57718918 -18.92516642 44.34329061 -18.93745422 38.10832787 C-18.94785563 35.7340588 -18.97028144 33.35981034 -19.00505066 30.98577309 C-19.05126882 27.65808583 -19.05325485 24.3330642 -19.04492188 21.00512695 C-19.0803157 19.54052032 -19.0803157 19.54052032 -19.11642456 18.04632568 C-19.03938294 11.67440896 -17.53921854 8.40168387 -13.12775421 3.79698467 C-8.81490154 0.22868079 -5.56235273 -0.0174809 0 0 Z " fill="#090909" transform="translate(56.234375,130.76953125)"/>
<path d="M0 0 C4.02610821 1.7566944 6.11271196 4.27687382 8.5625 7.875 C8.5625 8.535 8.5625 9.195 8.5625 9.875 C6.59312339 11.49856346 4.62904852 13.01059566 2.5625 14.5 C1.99015625 14.92023438 1.4178125 15.34046875 0.828125 15.7734375 C-0.58953933 16.81305801 -2.01299262 17.84477591 -3.4375 18.875 C-3.1075 19.865 -2.7775 20.855 -2.4375 21.875 C0.87730557 21.44728315 3.47797764 20.46577478 6.4375 19 C12.80965737 16.03570268 19.68703102 15.07073374 26.5625 13.875 C26.8925 11.565 27.2225 9.255 27.5625 6.875 C26.61375 6.895625 25.665 6.91625 24.6875 6.9375 C21.5625 6.875 21.5625 6.875 19.5625 5.875 C19.519779 4.20888095 19.52186168 2.54117115 19.5625 0.875 C21.86259773 -1.42509773 27.41040666 -0.31037365 30.5 -0.3125 C31.89895508 -0.33086914 31.89895508 -0.33086914 33.32617188 -0.34960938 C34.66325195 -0.35250977 34.66325195 -0.35250977 36.02734375 -0.35546875 C36.848396 -0.35957764 37.66944824 -0.36368652 38.51538086 -0.36791992 C40.5625 -0.125 40.5625 -0.125 42.5625 1.875 C42.1875 4.5 42.1875 4.5 41.5625 6.875 C39.2525 6.875 36.9425 6.875 34.5625 6.875 C34.5625 9.515 34.5625 12.155 34.5625 14.875 C35.5628125 14.82859375 36.563125 14.7821875 37.59375 14.734375 C41.84379532 14.88496716 45.04887545 15.74842629 49.0625 17.125 C49.71742432 17.34953857 50.37234863 17.57407715 51.04711914 17.80541992 C55.56851886 19.40130761 59.56670925 21.2436256 63.5625 23.875 C63.8925 22.225 64.2225 20.575 64.5625 18.875 C60.6025 15.905 56.6425 12.935 52.5625 9.875 C54.81769575 4.23701063 54.81769575 4.23701063 58.5 2.125 C59.18964844 1.71765625 59.87929688 1.3103125 60.58984375 0.890625 C66.24290298 -2.01986094 72.58538934 -1.96596243 78.625 -0.1875 C84.8053163 2.41343472 89.22365154 8.08573237 92.0625 14 C93.458081 22.02459073 92.02983021 28.17400468 87.5625 34.875 C82.75733087 33.19403978 79.5137027 30.5679852 75.6484375 27.3359375 C73.57739933 25.58816589 73.57739933 25.58816589 70.5625 25.875 C70.0675 27.36 70.0675 27.36 69.5625 28.875 C70.05878906 29.38546875 70.55507813 29.8959375 71.06640625 30.421875 C82.17544269 42.31086276 88.16163743 54.41728202 88 70.6875 C87.99242676 71.75121826 87.98485352 72.81493652 87.97705078 73.91088867 C87.81706331 81.52313932 86.98518777 87.98684086 83.5625 94.875 C83.15 95.78765625 82.7375 96.7003125 82.3125 97.640625 C79.0472382 104.28246434 74.69251427 109.24601956 69.44140625 114.3671875 C67.29227479 116.69990455 67.29227479 116.69990455 67.61328125 119.4765625 C68.55601206 121.85860661 69.5436225 123.42806129 71.1875 125.375 C73.58547598 128.51504304 73.58547598 128.51504304 73.375 131.8125 C73.106875 132.493125 72.83875 133.17375 72.5625 133.875 C69.12390181 133.59587372 67.8696956 133.22260044 65.54296875 130.58984375 C64.95128906 129.67332031 64.35960937 128.75679687 63.75 127.8125 C63.14542969 126.89339844 62.54085937 125.97429687 61.91796875 125.02734375 C61.47066406 124.31707031 61.02335937 123.60679687 60.5625 122.875 C60.04042969 123.05675781 59.51835937 123.23851562 58.98046875 123.42578125 C57.39533379 123.96711455 55.80483792 124.49286006 54.2109375 125.0078125 C52.55779525 125.54910687 50.91434334 126.12223501 49.2890625 126.7421875 C36.04128424 131.24385972 20.18536346 130.54918236 7.33984375 125.26171875 C4.65598284 123.92167568 2.10480875 122.46569226 -0.4375 120.875 C-0.664375 121.555625 -0.89125 122.23625 -1.125 122.9375 C-2.76820548 126.61515036 -4.57708412 129.99833176 -7.4375 132.875 C-10.25 133.3125 -10.25 133.3125 -12.4375 132.875 C-13.18359375 130.76953125 -13.18359375 130.76953125 -13.4375 127.875 C-11.78515625 124.76171875 -11.78515625 124.76171875 -9.5 121.5625 C-8.74847656 120.49386719 -7.99695313 119.42523438 -7.22265625 118.32421875 C-6.63355469 117.51597656 -6.04445312 116.70773437 -5.4375 115.875 C-6.30955078 115.49601562 -6.30955078 115.49601562 -7.19921875 115.109375 C-16.92612928 109.74514511 -22.41696382 97.45965514 -25.5390625 87.28515625 C-29.52042684 70.44807809 -27.49748826 54.74629475 -18.4375 39.875 C-15.96327598 36.36869744 -13.44874108 32.94049767 -10.4375 29.875 C-9.7775 29.875 -9.1175 29.875 -8.4375 29.875 C-8.7675 28.555 -9.0975 27.235 -9.4375 25.875 C-14.25252319 25.875 -15.43018419 27.01228319 -19.1875 29.875 C-20.17234375 30.6175 -21.1571875 31.36 -22.171875 32.125 C-23.29335937 32.99125 -23.29335937 32.99125 -24.4375 33.875 C-30.2510681 28.3595636 -30.2510681 28.3595636 -30.640625 23.16796875 C-30.80371455 12.36328607 -30.80371455 12.36328607 -27.4375 7.875 C-19.06218123 -0.36226407 -11.9107144 -3.87155153 0 0 Z M8.5625 25.875 C7.62277344 26.39578125 6.68304688 26.9165625 5.71484375 27.453125 C-5.75817711 34.30914285 -14.23863066 43.82726938 -18.3515625 56.74609375 C-18.78651286 58.77478013 -19.12462596 60.82393685 -19.4375 62.875 C-19.9325 63.37 -19.9325 63.37 -20.4375 63.875 C-21.62605031 78.44935458 -18.55527705 91.77312525 -9.43359375 103.4375 C-0.2577455 114.16127396 12.06676208 121.91043327 26.40234375 123.11328125 C42.4557802 123.49791592 55.77413067 117.99369658 67.4609375 107.1328125 C71.20924231 103.10582331 73.97293283 98.71198945 76.5625 93.875 C77.21605469 92.68197266 77.21605469 92.68197266 77.8828125 91.46484375 C82.52560624 81.22147714 82.53681648 66.28884813 78.9375 55.6875 C78.1964841 54.05931628 77.40555952 52.45276343 76.5625 50.875 C76.16160156 50.05386719 75.76070313 49.23273438 75.34765625 48.38671875 C68.57895133 35.77142233 58.54190008 28.1328971 45.5625 22.875 C34.48205736 19.57690854 18.63765021 20.25012139 8.5625 25.875 Z " fill="#080808" transform="translate(232.4375,171.125)"/>
<path d="M0 0 C1.4540625 0.0309375 1.4540625 0.0309375 2.9375 0.0625 C4.3241797 4.59457511 3.44705771 7.23439253 1.6875 11.5625 C1.03007812 13.21765625 1.03007812 13.21765625 0.359375 14.90625 C-1.0625 18.0625 -1.0625 18.0625 -2.546875 20.53125 C-4.37400778 23.58275011 -5.68513763 26.79332778 -7.0625 30.0625 C-7.98967919 32.2088548 -8.91809152 34.35467728 -9.84765625 36.5 C-10.23391426 37.39160576 -10.23391426 37.39160576 -10.62797546 38.30122375 C-12.03740142 41.55423473 -13.44773034 44.80685369 -14.85839844 48.05932617 C-15.29214279 49.05939445 -15.29214279 49.05939445 -15.73464966 50.07966614 C-16.32078041 51.43106895 -16.90694174 52.7824585 -17.49313354 54.13383484 C-19.36849172 58.45834795 -21.23838686 62.78518643 -23.10546875 67.11328125 C-24.00780028 69.20052612 -24.9101433 71.28776601 -25.8125 73.375 C-26.43910522 74.83196289 -26.43910522 74.83196289 -27.07836914 76.31835938 C-27.45985107 77.19943359 -27.84133301 78.08050781 -28.234375 78.98828125 C-28.7308252 80.13937378 -28.7308252 80.13937378 -29.23730469 81.3137207 C-30.0625 83.0625 -30.0625 83.0625 -31.0625 84.0625 C-36.82069221 84.82739419 -39.73606649 82.72130618 -44.1875 79.5 C-48.33060249 76.24289559 -48.33060249 76.24289559 -53.2734375 75.07421875 C-55.43928708 76.27063784 -56.87887606 77.62377785 -58.5625 79.4375 C-64.92846764 86.03372604 -64.92846764 86.03372604 -68.6796875 86.12890625 C-69.85917969 86.09603516 -69.85917969 86.09603516 -71.0625 86.0625 C-71.01424072 85.36278076 -70.96598145 84.66306152 -70.91625977 83.94213867 C-69.76043204 70.94359278 -69.76043204 70.94359278 -73.453125 58.89550781 C-76.88358881 55.47083871 -80.93172293 53.18374949 -85.23632812 51.01464844 C-87.65248846 49.7548857 -89.73947659 48.18469069 -91.875 46.5 C-92.45894531 46.06558594 -93.04289063 45.63117188 -93.64453125 45.18359375 C-95.0625 44.0625 -95.0625 44.0625 -97.0625 42.0625 C-96.9115448 40.06570435 -96.9115448 40.06570435 -96.0625 38.0625 C-94.4835968 36.90866089 -94.4835968 36.90866089 -92.4777832 36.01123047 C-91.3900914 35.51523346 -91.3900914 35.51523346 -90.28042603 35.00921631 C-89.54851044 34.69679993 -88.81659485 34.38438354 -88.0625 34.0625 C-87.11846817 33.65260834 -87.11846817 33.65260834 -86.15536499 33.23443604 C-84.25154119 32.42746429 -82.33759595 31.65139611 -80.41796875 30.8828125 C-79.34491486 30.44856209 -79.34491486 30.44856209 -78.25018311 30.00553894 C-75.91812383 29.06284456 -73.58415595 28.1249896 -71.25 27.1875 C-69.6132849 26.52778069 -67.97664876 25.86786549 -66.34008789 25.20776367 C-62.95089103 23.841606 -59.56075445 22.47781512 -56.16992188 21.11572266 C-52.00115972 19.44085509 -47.83493313 17.75979402 -43.66960144 16.07641602 C-40.53000626 14.8083581 -37.38905759 13.54368085 -34.24771118 12.27996826 C-32.76971513 11.68490092 -31.29214262 11.08878031 -29.81503296 10.49151611 C-22.02693249 7.34456751 -14.24100665 4.3451103 -6.22485352 1.81323242 C-1.06474231 0.02172943 -1.06474231 0.02172943 0 0 Z " fill="#070707" transform="translate(230.0625,79.9375)"/>
<path d="M0 0 C3.65646515 0.91411629 4.70410452 1.29739904 7.3984375 3.5546875 C8.35363281 4.34456055 8.35363281 4.34456055 9.328125 5.15039062 C10.00359375 5.71951172 10.6790625 6.28863281 11.375 6.875 C12.81949294 8.07130279 14.26481983 9.26659924 15.7109375 10.4609375 C16.4337793 11.0600293 17.15662109 11.65912109 17.90136719 12.27636719 C20.89509251 14.73515043 23.94244636 17.12141157 27 19.5 C32.07319414 23.45823832 37.07974081 27.49109798 42.0625 31.5625 C53.74030032 41.16993545 53.74030032 41.16993545 66 50 C65.70643111 53.02444225 65.0395364 53.96377555 62.76171875 56.05078125 C61.74722656 56.79714844 60.73273438 57.54351562 59.6875 58.3125 C59.12208496 58.73418457 58.55666992 59.15586914 57.97412109 59.59033203 C56.69968133 60.53966993 55.42178168 61.48437448 54.14111328 62.42529297 C50.11773575 65.38433346 46.1231387 68.38199694 42.125 71.375 C41.26447021 72.01775879 40.40394043 72.66051758 39.51733398 73.32275391 C33.7438584 77.64891138 28.08080095 82.08812945 22.47265625 86.62548828 C17.75882556 90.42633803 12.96450056 94.11066538 8.125 97.75 C7.42793945 98.2761792 6.73087891 98.8023584 6.01269531 99.34448242 C1.12392445 103 1.12392445 103 0 103 C0 69.01 0 35.02 0 0 Z " fill="#FDFDFD" transform="translate(46,144)"/>
<path d="M0 0 C0.495 0.99 0.495 0.99 1 2 C-0.11831996 4.91455446 -1.30856088 7.72560194 -2.59375 10.56640625 C-2.97809204 11.43329575 -3.36243408 12.30018524 -3.75842285 13.19334412 C-4.9982612 15.98640356 -6.2486294 18.77459069 -7.5 21.5625 C-9.1180248 25.18727491 -10.73165623 28.81399013 -12.34375 32.44140625 C-12.73820312 33.32728424 -13.13265625 34.21316223 -13.5390625 35.12588501 C-17.18764036 43.35208025 -20.63082036 51.656059 -24 60 C-27.57816465 59.35897253 -29.99038931 57.86626089 -32.984375 55.83984375 C-33.91894531 55.21142578 -34.85351562 54.58300781 -35.81640625 53.93554688 C-37.26853516 52.94651367 -37.26853516 52.94651367 -38.75 51.9375 C-39.73355469 51.27427734 -40.71710938 50.61105469 -41.73046875 49.92773438 C-44.15718572 48.29028943 -46.58014787 46.64756564 -49 45 C-47.71695548 42.15790941 -46.41881679 40.19256971 -44.12890625 38.08203125 C-43.27594971 37.29094971 -43.27594971 37.29094971 -42.40576172 36.48388672 C-41.49334717 35.65655029 -41.49334717 35.65655029 -40.5625 34.8125 C-39.93359863 34.23516113 -39.30469727 33.65782227 -38.65673828 33.06298828 C-34.14249238 28.95153441 -29.48223629 25.0614079 -24.71484375 21.24609375 C-21.68830257 18.74212083 -18.81100045 16.11372764 -15.9375 13.4375 C-10.83243514 8.68356399 -5.52103956 4.26292657 0 0 Z " fill="#F9F9F9" transform="translate(220,96)"/>
<path d="M0 0 C10.55078917 7.35909276 18.3691122 19.71084128 22 32 C22 32.66 22 33.32 22 34 C22.66 34 23.32 34 24 34 C24.103125 33.2575 24.20625 32.515 24.3125 31.75 C25.04253504 28.82985982 26.06789398 27.26812446 28 25 C29.98 25.495 29.98 25.495 32 26 C32.81016143 28.3335391 33.12304379 29.61165786 32.36669922 31.9987793 C31.22048319 34.23877527 30.06566201 36.470724 28.875 38.6875 C28.483125 39.47189453 28.09125 40.25628906 27.6875 41.06445312 C24.80195023 46.51965097 24.80195023 46.51965097 21.7109375 48.37109375 C17.23382907 47.75823309 14.25041538 45.10104292 10.75 42.375 C10.0178125 41.84003906 9.285625 41.30507812 8.53125 40.75390625 C3.27928848 36.75657998 3.27928848 36.75657998 1.953125 33.1640625 C2 31 2 31 3 30 C5.69312522 29.53832139 7.36402059 29.57302791 9.6640625 31.1171875 C11.15045407 32.36406573 12.57946994 33.67857669 14 35 C13.16284448 24.39603012 6.47495273 16.04816097 -1 9 C-14.70548308 -1.8433873 -29.66986254 -5.4217891 -46.9921875 -3.703125 C-48.68875569 -3.49658626 -50.38336974 -3.27249873 -52.07421875 -3.0234375 C-53.02748047 -3.01183594 -53.02748047 -3.01183594 -54 -3 C-54.66 -3.66 -55.32 -4.32 -56 -5 C-55.625 -7.625 -55.625 -7.625 -55 -10 C-35.91511867 -14.20510747 -16.31638643 -10.55126323 0 0 Z " fill="#090909" transform="translate(295,115)"/>
<path d="M0 0 C-13.17335043 11.36562059 -13.17335043 11.36562059 -19.4375 16.4375 C-23.2607911 19.53685432 -26.99806821 22.71739344 -30.70385742 25.95507812 C-33.2429526 28.17260667 -35.79317722 30.37695951 -38.34814453 32.57617188 C-39.75641531 33.79004051 -41.15819585 35.0114321 -42.55859375 36.234375 C-44.625 37.9375 -44.625 37.9375 -48 40 C-52.78180029 38.81505476 -56.79285186 35.62143901 -60.8125 32.875 C-61.50537109 32.40707031 -62.19824219 31.93914062 -62.91210938 31.45703125 C-64.61091105 30.30887563 -66.30584864 29.15500633 -68 28 C-67 25 -67 25 -65.16967773 24.01000977 C-64.36989502 23.71924561 -63.5701123 23.42848145 -62.74609375 23.12890625 C-61.83714355 22.78875488 -60.92819336 22.44860352 -59.99169922 22.09814453 C-58.51080811 21.55456299 -58.51080811 21.55456299 -57 21 C-54.94753933 20.20091486 -52.89682167 19.3973417 -50.84765625 18.58984375 C-47.37203071 17.23112963 -43.89633915 15.87258611 -40.42041016 14.51464844 C-34.00209775 12.00030022 -27.60557554 9.44187304 -21.23828125 6.80078125 C-20.61544754 6.5432457 -19.99261383 6.28571014 -19.35090637 6.02037048 C-16.34833854 4.77832422 -13.34955627 3.52834039 -10.35571289 2.26538086 C-9.28699951 1.82202393 -8.21828613 1.37866699 -7.1171875 0.921875 C-6.17472168 0.52581055 -5.23225586 0.12974609 -4.26123047 -0.27832031 C-2 -1 -2 -1 0 0 Z " fill="#F6F6F6" transform="translate(212,95)"/>
<path d="M0 0 C5.47404047 0.60822672 9.49728197 2.71470195 13.6015625 6.34375 C16.25467133 10.8785792 15.80478781 15.0393451 15.625 20.1875 C15.60695312 21.16654297 15.58890625 22.14558594 15.5703125 23.15429688 C15.52332887 25.56220771 15.45765694 27.96809335 15.375 30.375 C13 31 13 31 10.375 31.375 C8.375 29.375 8.375 29.375 8.1796875 25.6796875 C8.192991 24.20299892 8.21685165 22.72637642 8.25 21.25 C8.25902344 20.49589844 8.26804688 19.74179688 8.27734375 18.96484375 C8.3009313 17.10142746 8.33680281 15.23817407 8.375 13.375 C7.63894531 13.97828125 6.90289062 14.5815625 6.14453125 15.203125 C5.16871094 16.00234375 4.19289062 16.8015625 3.1875 17.625 C1.74310547 18.80835938 1.74310547 18.80835938 0.26953125 20.015625 C-0.68566406 20.79421875 -1.64085937 21.5728125 -2.625 22.375 C-3.48738281 23.13296875 -4.34976563 23.8909375 -5.23828125 24.671875 C-7.625 26.375 -7.625 26.375 -11.625 26.375 C-12.4375 24.1875 -12.4375 24.1875 -12.625 21.375 C-11.00523476 19.38948131 -9.57114672 17.9945207 -7.625 16.375 C-6.206417 15.14804547 -4.78982793 13.91878269 -3.375 12.6875 C-2.68921875 12.10613281 -2.0034375 11.52476562 -1.296875 10.92578125 C0.47826363 9.46149533 0.47826363 9.46149533 1.375 7.375 C-0.275 7.375 -1.925 7.375 -3.625 7.375 C-4.25 5 -4.25 5 -4.625 2.375 C-2.625 0.375 -2.625 0.375 0 0 Z " fill="#070707" transform="translate(223.625,132.625)"/>
<path d="M0 0 C0.78375 0.04125 1.5675 0.0825 2.375 0.125 C2.33197754 0.84977539 2.28895508 1.57455078 2.24462891 2.32128906 C0.93671775 17.33828773 0.93671775 17.33828773 6.55859375 30.5234375 C9.88160513 33.54404543 13.47208435 35.91922316 17.375 38.125 C17.045 39.775 16.715 41.425 16.375 43.125 C10.53680356 43.125 7.72139696 40.12773914 3.71875 36.328125 C1.37939836 33.96632289 1.37939836 33.96632289 -1.875 32.21484375 C-4.21086203 30.28634774 -4.59988573 29.26762693 -5.13476562 26.22998047 C-5.28921334 22.61435947 -5.24562117 19.0542505 -5.125 15.4375 C-5.1146875 14.18904297 -5.104375 12.94058594 -5.09375 11.65429688 C-4.89565924 0.23312663 -4.89565924 0.23312663 0 0 Z " fill="#0A0A0A" transform="translate(263.625,215.875)"/>
<path d="M0 0 C5.8551307 -0.01020058 10.30011003 0.9960549 15.1171875 4.43359375 C18.56648934 8.20626764 18.38961021 11.76715928 18.22265625 16.640625 C18.18785156 17.23230469 18.15304687 17.82398438 18.1171875 18.43359375 C15.0980709 17.01950159 12.48187513 15.3564376 9.7890625 13.39453125 C8.98984375 12.81445312 8.190625 12.234375 7.3671875 11.63671875 C6.5421875 11.0334375 5.7171875 10.43015625 4.8671875 9.80859375 C4.02671875 9.19757813 3.18625 8.5865625 2.3203125 7.95703125 C0.25067374 6.45183942 -1.81694244 4.94395173 -3.8828125 3.43359375 C-1.8828125 0.43359375 -1.8828125 0.43359375 0 0 Z " fill="#F5F5F5" transform="translate(298.8828125,176.56640625)"/>
<path d="M0 0 C0.66 0.33 1.32 0.66 2 1 C0.86476605 4.40570184 0.17570121 4.86318087 -2.67578125 6.84765625 C-3.42150391 7.37037109 -4.16722656 7.89308594 -4.93554688 8.43164062 C-5.71994141 8.96982422 -6.50433594 9.50800781 -7.3125 10.0625 C-8.08529297 10.60455078 -8.85808594 11.14660156 -9.65429688 11.70507812 C-13.02438815 14.04936346 -16.28585474 16.23306644 -20 18 C-20.5170101 10.50335351 -18.90938426 7.35020006 -13.9375 1.625 C-9.47234562 -0.8450854 -5.001204 -0.49126158 0 0 Z " fill="#F4F4F4" transform="translate(229,177)"/>
<path d="M0 0 C2.5625 0.1875 2.5625 0.1875 4.5625 2.1875 C4.02678571 5.72321429 4.02678571 5.72321429 2.5625 7.1875 C0.125 7.375 0.125 7.375 -2.4375 7.1875 C-3.0975 6.5275 -3.7575 5.8675 -4.4375 5.1875 C-3.69457547 0.28419811 -3.69457547 0.28419811 0 0 Z " fill="#161616" transform="translate(302.4375,239.8125)"/>
<path d="M0 0 C2.5 0.125 2.5 0.125 3.5 1.125 C3.6875 3.5625 3.6875 3.5625 3.5 6.125 C2.84 6.785 2.18 7.445 1.5 8.125 C-2.03571429 7.58928571 -2.03571429 7.58928571 -3.5 6.125 C-3.625 3.625 -3.625 3.625 -3.5 1.125 C-2.5 0.125 -2.5 0.125 0 0 Z " fill="#191919" transform="translate(262.5,278.875)"/>
<path d="M0 0 C1.67542976 0.28604898 3.34385343 0.61781233 5 1 C5 2.98 5 4.96 5 7 C2.625 7.625 2.625 7.625 0 8 C-0.66 7.34 -1.32 6.68 -2 6 C-1.44444444 1.44444444 -1.44444444 1.44444444 0 0 Z " fill="#0D0D0D" transform="translate(261,199)"/>
<path d="M0 0 C1.4540625 0.0309375 1.4540625 0.0309375 2.9375 0.0625 C3.2675 1.7125 3.5975 3.3625 3.9375 5.0625 C1.6275 5.3925 -0.6825 5.7225 -3.0625 6.0625 C-3.44468767 4.40635343 -3.77645102 2.73792976 -4.0625 1.0625 C-3.0625 0.0625 -3.0625 0.0625 0 0 Z " fill="#0D0D0D" transform="translate(223.0625,239.9375)"/>
<path d="M0 0 C1.32 0.66 2.64 1.32 4 2 C2.35 3.65 0.7 5.3 -1 7 C-1.04254356 5.00045254 -1.04080783 2.99958364 -1 1 C-0.67 0.67 -0.34 0.34 0 0 Z " fill="#D6D6D6" transform="translate(167,147)"/>
</svg>
