<?xml version="1.0" encoding="UTF-8"?>
<svg version="1.1" xmlns="http://www.w3.org/2000/svg" width="495" height="495">
<path d="M0 0 C163.35 0 326.7 0 495 0 C495 163.35 495 326.7 495 495 C331.65 495 168.3 495 0 495 C0 331.65 0 168.3 0 0 Z " fill="#FEFEFE" transform="translate(0,0)"/>
<path d="M0 0 C1.29373283 -0.01248528 1.29373283 -0.01248528 2.61360168 -0.02522278 C5.46030215 -0.04928386 8.30677313 -0.05809135 11.15356445 -0.06469727 C13.1402849 -0.07366849 15.12700466 -0.08279042 17.11372375 -0.09205627 C21.27895751 -0.10853962 25.44411097 -0.11624486 29.609375 -0.11914062 C34.92773065 -0.12451526 40.24532347 -0.16216037 45.56346416 -0.20788479 C49.66863201 -0.23773994 53.77361833 -0.24486606 57.87888527 -0.24586678 C59.83837174 -0.25005441 61.79785949 -0.26242972 63.75723839 -0.28338432 C84.17756944 -0.48433742 84.17756944 -0.48433742 91.3293457 5.30639648 C97.13735127 11.52883916 99.63535313 17.19473916 99.59677124 25.74980164 C99.60130235 26.49022463 99.60583347 27.23064763 99.61050189 27.99350768 C99.62314278 30.46985667 99.62152571 32.94598564 99.61987305 35.42236328 C99.62585862 37.19995913 99.63266424 38.97755238 99.64022827 40.75514221 C99.65789568 45.58182382 99.66258406 50.40843451 99.66385984 55.23514533 C99.66528194 58.25294528 99.66955273 61.27072724 99.67485428 64.28852272 C99.69335924 74.82338225 99.70152458 85.35819117 99.69995117 95.89306641 C99.69875067 105.70136268 99.71983387 115.50943858 99.7514385 125.31767911 C99.7776277 133.74675169 99.78831731 142.17575244 99.78704035 150.60486537 C99.78653136 155.63541046 99.79217944 160.66575983 99.81339645 165.69626427 C99.83282256 170.43154002 99.83287346 175.16643431 99.81836319 179.90172386 C99.81627919 181.63425761 99.82095151 183.3668155 99.83308411 185.09930801 C99.89891602 195.15584736 99.88699447 204.44253498 93.43481445 212.74389648 C92.80188477 213.25952148 92.16895508 213.77514648 91.5168457 214.30639648 C90.57905273 215.11077148 90.57905273 215.11077148 89.62231445 215.93139648 C83.92291469 219.34909447 78.06388144 219.60440158 71.59936523 219.59692383 C70.75448547 219.60364105 69.90960571 219.61035828 69.03912354 219.61727905 C66.26340758 219.63618012 63.48793439 219.64017909 60.7121582 219.64233398 C58.77074079 219.64876684 56.82932434 219.65549556 54.88790894 219.6625061 C50.82458245 219.67445874 46.76134086 219.67818894 42.69799805 219.67700195 C37.50749588 219.67679875 32.31754115 219.70411105 27.12716866 219.73854637 C23.11898325 219.76085066 19.11092893 219.76483843 15.10268784 219.7637825 C13.18983955 219.76613274 11.27698733 219.77492358 9.36420059 219.79044724 C6.68178852 219.81018123 4.00054871 219.80424076 1.31811523 219.79223633 C0.53860504 219.80347534 -0.24090515 219.81471436 -1.04403687 219.82629395 C-8.80289361 219.73865594 -16.13632136 216.84072942 -21.6706543 211.30639648 C-25.87665732 205.21838533 -26.81931873 200.23772413 -26.82455444 192.98324585 C-26.8289367 192.24367728 -26.83331895 191.50410871 -26.837834 190.74212897 C-26.85119358 188.26273505 -26.85739448 185.78337666 -26.86352539 183.30395508 C-26.87142866 181.52650798 -26.87969775 179.74906248 -26.88830566 177.97161865 C-26.91450189 172.13270597 -26.92983189 166.2937862 -26.9440918 160.45483398 C-26.94945265 158.44293844 -26.95483016 156.43104294 -26.96022415 154.41914749 C-26.98185021 146.04824889 -27.0005857 137.67735219 -27.01184654 129.30643272 C-27.02807807 117.32029368 -27.06123979 105.33447917 -27.11824739 93.34846246 C-27.1569863 84.91517427 -27.17648397 76.48197275 -27.18176711 68.04859793 C-27.1854154 63.01461565 -27.19738118 57.98097971 -27.22986984 52.94709396 C-27.26001961 48.20769043 -27.2662377 43.46884156 -27.25448608 38.72936249 C-27.25426592 36.99520166 -27.26252339 35.26101457 -27.28013992 33.52694321 C-27.45010918 15.82458635 -27.45010918 15.82458635 -21.6706543 8.30639648 C-15.02097552 2.06495903 -9.1071319 0.00749278 0 0 Z " fill="#FEFEFE" transform="translate(310.670654296875,196.693603515625)"/>
<path d="M0 0 C4.29622076 2.24596357 6.64954247 5.11411927 8.92578125 9.31640625 C9.92578125 13.31640625 9.92578125 13.31640625 9.92578125 22.31640625 C41.93578125 22.31640625 73.94578125 22.31640625 106.92578125 22.31640625 C106.92578125 19.34640625 106.92578125 16.37640625 106.92578125 13.31640625 C108.38381042 7.67163408 110.87955976 3.42177332 115.92578125 0.31640625 C120.79252877 -1.30584292 126.05264528 -1.58348162 130.99609375 -0.03515625 C136.74125858 2.87473243 138.95529735 7.40495454 140.92578125 13.31640625 C140.9931899 14.87759053 141.01092581 16.44143145 140.98828125 18.00390625 C140.97925781 18.81214844 140.97023438 19.62039062 140.9609375 20.453125 C140.94353516 21.37544922 140.94353516 21.37544922 140.92578125 22.31640625 C141.50432861 22.29545898 142.08287598 22.27451172 142.67895508 22.25292969 C156.8961433 21.80594616 168.47276 21.73954568 179.9140625 31.25 C185.93518539 37.43480391 189.0482804 44.14230496 189.05859375 52.703125 C189.05988281 53.72341797 189.06117188 54.74371094 189.0625 55.79492188 C189.05863281 56.85388672 189.05476563 57.91285156 189.05078125 59.00390625 C189.05464844 60.07447266 189.05851562 61.14503906 189.0625 62.24804688 C189.06056641 63.77268555 189.06056641 63.77268555 189.05859375 65.328125 C189.05746582 66.26100342 189.05633789 67.19388184 189.05517578 68.1550293 C188.92578125 70.31640625 188.92578125 70.31640625 187.92578125 71.31640625 C182.08472165 71.68726718 182.08472165 71.68726718 179.92578125 71.31640625 C177.88359716 68.25313011 177.68057916 67.60269591 177.65234375 64.1484375 C177.62140625 62.93124023 177.62140625 62.93124023 177.58984375 61.68945312 C177.56410154 60.00205101 177.5456953 58.31451867 177.53515625 56.62695312 C177.35110229 50.13905108 175.98716641 44.71510869 171.54980469 39.78881836 C165.32342638 34.19217636 158.49343504 33.96333734 150.55078125 33.69140625 C149.16052734 33.63339844 149.16052734 33.63339844 147.7421875 33.57421875 C145.47024355 33.48053034 143.19829529 33.39481277 140.92578125 33.31640625 C140.9721875 34.23421875 141.01859375 35.15203125 141.06640625 36.09765625 C141.46019421 49.48644674 141.46019421 49.48644674 136.92578125 55.31640625 C132.84801468 59.2896147 129.14773282 61.11441065 123.48828125 61.62890625 C117.928332 61.1411914 115.01919795 59.45952371 111.17578125 55.44140625 C105.5807834 47.6705759 106.92578125 44.01459215 106.92578125 33.31640625 C74.91578125 33.31640625 42.90578125 33.31640625 9.92578125 33.31640625 C9.92578125 37.60640625 9.92578125 41.89640625 9.92578125 46.31640625 C8.30772567 52.78862857 6.27850511 55.67655403 0.92578125 59.31640625 C-3.117726 61.49367938 -6.5140243 61.71642331 -11.07421875 61.31640625 C-16.87807184 59.22701914 -20.42714822 55.57079044 -23.20703125 50.078125 C-24.29473498 46.61413159 -24.26695319 43.62769872 -24.19921875 40.00390625 C-24.18117187 38.74964844 -24.163125 37.49539062 -24.14453125 36.203125 C-24.12132812 35.25050781 -24.098125 34.29789063 -24.07421875 33.31640625 C-27.40877483 33.36884775 -30.74085106 33.46404649 -34.07421875 33.56640625 C-35.00878906 33.58058594 -35.94335938 33.59476563 -36.90625 33.609375 C-43.70720643 33.84717068 -49.47017657 34.97755409 -54.59716797 39.72729492 C-59.28136223 45.01625604 -60.31727897 49.66034502 -60.48828125 56.5859375 C-60.5076474 57.26694016 -60.52701355 57.94794281 -60.54696655 58.64958191 C-60.60640007 60.80923218 -60.65300075 62.96893682 -60.69921875 65.12890625 C-60.73743203 66.59963169 -60.77648569 68.07033554 -60.81640625 69.54101562 C-60.91207058 73.13261414 -60.9962345 76.72437538 -61.07421875 80.31640625 C-59.96985348 80.31179729 -58.8654882 80.30718832 -57.72765732 80.30243969 C-30.87979197 80.19153639 -4.03195625 80.10932248 22.81608963 80.05734539 C35.79951356 80.03154278 48.78278635 79.99635277 61.76611328 79.93920898 C73.07985716 79.88943722 84.3934916 79.85713022 95.70734191 79.84596378 C101.70027824 79.83943452 107.69290145 79.82404586 113.68573761 79.78775597 C119.32295546 79.75389512 124.95973029 79.74333334 130.59704018 79.75086784 C132.66913317 79.74948887 134.74124052 79.73949773 136.81324577 79.72037888 C139.63689043 79.69559589 142.45885021 79.70144706 145.28253174 79.71513367 C146.10743426 79.70056946 146.93233677 79.68600525 147.78223634 79.67099971 C151.76001958 79.7233185 153.52778767 79.94139787 156.47379684 82.71726704 C157.92578125 85.31640625 157.92578125 85.31640625 157.80078125 87.50390625 C156.92578125 89.31640625 156.92578125 89.31640625 154.92578125 91.31640625 C152.07995778 91.50990118 149.3317897 91.57678548 146.4850769 91.55691528 C145.15944266 91.55947856 145.15944266 91.55947856 143.80702794 91.56209362 C140.82813949 91.56540342 137.84947336 91.55436037 134.87060547 91.54345703 C132.74225876 91.54289324 130.61391167 91.54320885 128.48556519 91.54434204 C122.69244615 91.5449178 116.89940929 91.53312741 111.10630941 91.51919413 C105.0577851 91.50672392 99.00925907 91.5055192 92.96072388 91.50314331 C81.50016522 91.4969176 70.03964454 91.48049207 58.57910264 91.46044433 C45.53456971 91.4381192 32.490035 91.42710044 19.44548774 91.41705346 C-7.39443551 91.39612676 -34.23432501 91.36092966 -61.07421875 91.31640625 C-61.03702153 110.34478045 -60.97711584 129.37295467 -60.89031601 148.40116882 C-60.85053867 157.23668719 -60.81813956 166.07211665 -60.80322266 174.90771484 C-60.79019936 182.61052984 -60.76321744 190.31314912 -60.71960568 198.01585388 C-60.69700602 202.09288199 -60.68130716 206.16966884 -60.6823349 210.24676514 C-60.68308241 214.08824461 -60.66509586 217.92919109 -60.63305092 221.77053261 C-60.62456739 223.17652262 -60.62279149 224.58257253 -60.62841606 225.98857689 C-60.65880096 234.75515709 -60.51477579 241.82471036 -54.0390625 248.375 C-53.37003906 248.83003906 -52.70101562 249.28507813 -52.01171875 249.75390625 C-51.00431641 250.46353516 -51.00431641 250.46353516 -49.9765625 251.1875 C-45.84628093 253.63852951 -41.90390618 253.45847028 -37.26148987 253.44770813 C-36.45728904 253.44982384 -35.65308822 253.45193956 -34.82451767 253.45411938 C-32.1207098 253.46012699 -29.41694851 253.4591187 -26.71313477 253.45825195 C-24.7783195 253.46128289 -22.84350496 253.46480416 -20.90869141 253.46878052 C-16.73769107 253.47667405 -12.56669931 253.4818161 -8.39569283 253.48507118 C-1.80355833 253.49097444 4.78852199 253.50750757 11.38063049 253.52641296 C13.63598916 253.5327504 15.89134785 253.53907602 18.14670658 253.54539013 C19.27621459 253.54855594 20.4057226 253.55172175 21.56945813 253.5549835 C36.92007516 253.59709344 52.27066694 253.63004857 67.62133789 253.64233398 C77.97160766 253.65070268 88.32174339 253.67314811 98.67194611 253.71168965 C104.15167157 253.73148867 109.63119647 253.74384211 115.11096001 253.73885536 C120.26317457 253.73422374 125.41500851 253.74793273 130.5671463 253.77586746 C132.46021081 253.78280402 134.35331447 253.78287947 136.24637794 253.77566719 C138.82673215 253.76682767 141.40581788 253.78239193 143.98606873 253.80415344 C144.73888781 253.79571091 145.4917069 253.78726837 146.26733869 253.77857 C149.73601907 253.83283341 151.61435308 254.08408878 154.42982578 256.18435955 C155.92578125 258.31640625 155.92578125 258.31640625 155.80078125 260.94140625 C154.92578125 263.31640625 154.92578125 263.31640625 152.92578125 265.31640625 C150.32983979 265.51832102 147.8399543 265.59445817 145.2424469 265.58383179 C144.03871041 265.59062846 144.03871041 265.59062846 142.81065601 265.59756243 C140.10621633 265.61028012 137.40197614 265.6085813 134.69750977 265.60693359 C132.76434569 265.6129146 130.83118402 265.61971915 128.89802551 265.62728882 C123.63309777 265.64500815 118.36823498 265.64964693 113.10328031 265.65092039 C108.70766413 265.65281712 104.31206316 265.66017277 99.91645283 265.66726458 C89.53910203 265.68357169 79.16178596 265.68843174 68.78442383 265.68701172 C58.08951141 265.68581238 47.39480148 265.7068673 36.69994026 265.73849905 C27.51593026 265.76469165 18.3319862 265.77537763 9.14793915 265.7741009 C3.6640452 265.77359177 -1.81966924 265.77924657 -7.30352592 265.800457 C-12.46884136 265.81988733 -17.63380711 265.81993099 -22.79913521 265.80542374 C-24.68927651 265.80333989 -26.57943995 265.8080111 -28.46954346 265.82014465 C-41.69069576 265.89947876 -52.56152717 265.07365485 -63.1328125 256.2421875 C-69.16741626 250.25615198 -72.2700325 243.05674166 -72.35102975 234.53246611 C-72.34793255 233.80512922 -72.34483535 233.07779232 -72.34164429 232.32841492 C-72.3461754 231.54151285 -72.35070651 230.75461079 -72.35537493 229.94386321 C-72.36799984 227.31627495 -72.3663998 224.68889447 -72.36474609 222.0612793 C-72.37073254 220.17354059 -72.37753836 218.28580434 -72.38510132 216.39807129 C-72.4027568 211.2760717 -72.40745652 206.15413896 -72.40873289 201.03211188 C-72.41015532 197.83022159 -72.41442666 194.62834825 -72.41972733 191.42646217 C-72.4382262 180.25084989 -72.44639813 169.07528529 -72.44482422 157.8996582 C-72.44362291 147.49091123 -72.46472369 137.08237165 -72.49631155 126.67367715 C-72.52248401 117.72995521 -72.5331911 108.78630097 -72.5319134 99.84254104 C-72.53140405 94.50408594 -72.53707256 89.16581517 -72.5582695 83.8273983 C-72.57766809 78.80484776 -72.57776517 73.7826571 -72.56323624 68.76009369 C-72.56114905 66.92071061 -72.56584363 65.0813049 -72.57795715 63.24196053 C-72.68712639 45.51179089 -72.68712639 45.51179089 -68.07421875 38.31640625 C-67.38779297 37.11951172 -67.38779297 37.11951172 -66.6875 35.8984375 C-61.53001194 28.88239518 -54.80620268 23.8091736 -46.07421875 22.31640625 C-42.25673933 22.09107509 -38.4590427 22.12674755 -34.63671875 22.19140625 C-33.61900391 22.20042969 -32.60128906 22.20945313 -31.55273438 22.21875 C-29.05964719 22.24215927 -26.56706016 22.27494925 -24.07421875 22.31640625 C-24.08654541 21.70949951 -24.09887207 21.10259277 -24.11157227 20.47729492 C-24.12115967 19.67525635 -24.13074707 18.87321777 -24.140625 18.046875 C-24.15295166 17.25434326 -24.16527832 16.46181152 -24.17797852 15.64526367 C-23.97900113 11.17927472 -22.50558956 7.78422401 -19.38671875 4.5859375 C-13.49839515 -0.57861299 -7.83396241 -2.58181435 0 0 Z " fill="#030303" transform="translate(120.07421875,116.68359375)"/>
<path d="M0 0 C1.29373283 -0.01248528 1.29373283 -0.01248528 2.61360168 -0.02522278 C5.46030215 -0.04928386 8.30677313 -0.05809135 11.15356445 -0.06469727 C13.1402849 -0.07366849 15.12700466 -0.08279042 17.11372375 -0.09205627 C21.27895751 -0.10853962 25.44411097 -0.11624486 29.609375 -0.11914062 C34.92773065 -0.12451526 40.24532347 -0.16216037 45.56346416 -0.20788479 C49.66863201 -0.23773994 53.77361833 -0.24486606 57.87888527 -0.24586678 C59.83837174 -0.25005441 61.79785949 -0.26242972 63.75723839 -0.28338432 C84.17756944 -0.48433742 84.17756944 -0.48433742 91.3293457 5.30639648 C97.13735127 11.52883916 99.63535313 17.19473916 99.59677124 25.74980164 C99.60130235 26.49022463 99.60583347 27.23064763 99.61050189 27.99350768 C99.62314278 30.46985667 99.62152571 32.94598564 99.61987305 35.42236328 C99.62585862 37.19995913 99.63266424 38.97755238 99.64022827 40.75514221 C99.65789568 45.58182382 99.66258406 50.40843451 99.66385984 55.23514533 C99.66528194 58.25294528 99.66955273 61.27072724 99.67485428 64.28852272 C99.69335924 74.82338225 99.70152458 85.35819117 99.69995117 95.89306641 C99.69875067 105.70136268 99.71983387 115.50943858 99.7514385 125.31767911 C99.7776277 133.74675169 99.78831731 142.17575244 99.78704035 150.60486537 C99.78653136 155.63541046 99.79217944 160.66575983 99.81339645 165.69626427 C99.83282256 170.43154002 99.83287346 175.16643431 99.81836319 179.90172386 C99.81627919 181.63425761 99.82095151 183.3668155 99.83308411 185.09930801 C99.89891602 195.15584736 99.88699447 204.44253498 93.43481445 212.74389648 C92.80188477 213.25952148 92.16895508 213.77514648 91.5168457 214.30639648 C90.57905273 215.11077148 90.57905273 215.11077148 89.62231445 215.93139648 C83.92291469 219.34909447 78.06388144 219.60440158 71.59936523 219.59692383 C70.75448547 219.60364105 69.90960571 219.61035828 69.03912354 219.61727905 C66.26340758 219.63618012 63.48793439 219.64017909 60.7121582 219.64233398 C58.77074079 219.64876684 56.82932434 219.65549556 54.88790894 219.6625061 C50.82458245 219.67445874 46.76134086 219.67818894 42.69799805 219.67700195 C37.50749588 219.67679875 32.31754115 219.70411105 27.12716866 219.73854637 C23.11898325 219.76085066 19.11092893 219.76483843 15.10268784 219.7637825 C13.18983955 219.76613274 11.27698733 219.77492358 9.36420059 219.79044724 C6.68178852 219.81018123 4.00054871 219.80424076 1.31811523 219.79223633 C0.53860504 219.80347534 -0.24090515 219.81471436 -1.04403687 219.82629395 C-8.80289361 219.73865594 -16.13632136 216.84072942 -21.6706543 211.30639648 C-25.87665732 205.21838533 -26.81931873 200.23772413 -26.82455444 192.98324585 C-26.8289367 192.24367728 -26.83331895 191.50410871 -26.837834 190.74212897 C-26.85119358 188.26273505 -26.85739448 185.78337666 -26.86352539 183.30395508 C-26.87142866 181.52650798 -26.87969775 179.74906248 -26.88830566 177.97161865 C-26.91450189 172.13270597 -26.92983189 166.2937862 -26.9440918 160.45483398 C-26.94945265 158.44293844 -26.95483016 156.43104294 -26.96022415 154.41914749 C-26.98185021 146.04824889 -27.0005857 137.67735219 -27.01184654 129.30643272 C-27.02807807 117.32029368 -27.06123979 105.33447917 -27.11824739 93.34846246 C-27.1569863 84.91517427 -27.17648397 76.48197275 -27.18176711 68.04859793 C-27.1854154 63.01461565 -27.19738118 57.98097971 -27.22986984 52.94709396 C-27.26001961 48.20769043 -27.2662377 43.46884156 -27.25448608 38.72936249 C-27.25426592 36.99520166 -27.26252339 35.26101457 -27.28013992 33.52694321 C-27.45010918 15.82458635 -27.45010918 15.82458635 -21.6706543 8.30639648 C-15.02097552 2.06495903 -9.1071319 0.00749278 0 0 Z M-17.6706543 40.30639648 C-17.6706543 86.17639648 -17.6706543 132.04639648 -17.6706543 179.30639648 C17.9693457 179.30639648 53.6093457 179.30639648 90.3293457 179.30639648 C90.3293457 133.43639648 90.3293457 87.56639648 90.3293457 40.30639648 C54.6893457 40.30639648 19.0493457 40.30639648 -17.6706543 40.30639648 Z " fill="#050505" transform="translate(310.670654296875,196.693603515625)"/>
<path d="M0 0 C11.63966858 7.52723047 18.14391719 16.82834338 22.26953125 29.98046875 C24.72216683 42.56455224 21.9687882 54.89536658 15.625 65.875 C8.53495473 76.22344905 -1.64068967 82.73022268 -13.7578125 85.73046875 C-26.20014206 87.65199059 -38.15313356 85.87784547 -48.6875 78.8125 C-60.08084332 70.13361611 -66.86975277 60.37075598 -69.3125 46.125 C-70.57281654 32.07556969 -66.21070676 19.57290331 -57.34765625 8.71875 C-42.61402622 -7.26710537 -18.80603998 -10.85824927 0 0 Z " fill="#FCFCFC" transform="translate(370.3125,265.875)"/>
<path d="M0 0 C3.86016847 1.45605651 6.39974253 2.9201958 9.375 5.8125 C10.08398438 6.47894531 10.79296875 7.14539063 11.5234375 7.83203125 C13 10 13 10 12.78012943 12.41759014 C11.92673035 15.24253959 11.06836452 16.42631992 8.99449158 18.48652649 C8.3536412 19.13287552 7.71279083 19.77922455 7.05252075 20.44515991 C6.3454599 21.13783966 5.63839905 21.83051941 4.90991211 22.54418945 C4.16849472 23.28619095 3.42707733 24.02819244 2.66319275 24.79267883 C0.21060528 27.24247999 -2.25584529 29.67780982 -4.72265625 32.11328125 C-6.42603583 33.80920046 -8.12853432 35.50600505 -9.83018494 37.20365906 C-14.31114289 41.66934493 -18.80398315 46.12288873 -23.29937744 50.57403564 C-27.88453624 55.11827632 -32.45839179 59.67386222 -37.03320312 64.22851562 C-46.01108812 73.16350187 -55.00118484 82.08609634 -64 91 C-67.1929565 89.47798846 -69.34843698 87.89575181 -71.85058594 85.37646484 C-72.59105164 84.63584808 -73.33151733 83.89523132 -74.09442139 83.13217163 C-75.27744843 81.93366074 -75.27744843 81.93366074 -76.484375 80.7109375 C-77.29996887 79.89251373 -78.11556274 79.07408997 -78.95587158 78.23086548 C-81.55864562 75.61690027 -84.15437762 72.99606495 -86.75 70.375 C-88.5138634 68.60110546 -90.2781809 66.82766234 -92.04296875 65.0546875 C-96.36726136 60.70834858 -100.6857933 56.35634919 -105 52 C-104.15356901 50.95203782 -103.29723808 49.91207308 -102.4375 48.875 C-101.96183594 48.29492188 -101.48617187 47.71484375 -100.99609375 47.1171875 C-98.22540048 44.17840912 -95.06660344 41.62851724 -92 39 C-83.42 47.58 -74.84 56.16 -66 65 C-61.86440366 62.93220183 -59.22052181 60.44802938 -56.0625 57.1875 C-55.55009766 56.66607422 -55.03769531 56.14464844 -54.50976562 55.60742188 C-53.48295258 54.56234278 -52.45789168 53.51553934 -51.43457031 52.46704102 C-48.60207775 49.57043655 -45.72462552 46.71903313 -42.84887695 43.86547852 C-40.27221032 41.30819875 -37.69857698 38.74788881 -35.125 36.1875 C-34.25230469 35.32318359 -33.37960938 34.45886719 -32.48046875 33.56835938 C-28.07663855 29.18108493 -23.84257087 24.73770655 -19.79589844 20.02075195 C-16.23033891 16.00877041 -12.37636104 12.27390923 -8.5625 8.5 C-7.73556641 7.67757812 -6.90863281 6.85515625 -6.05664062 6.0078125 C-4.04005041 4.00287887 -2.02114764 2.00033747 0 0 Z " fill="#030303" transform="translate(228,240)"/>
<path d="M0 0 C0.92304932 0.00749268 1.84609863 0.01498535 2.79711914 0.02270508 C24.07766899 0.35900052 43.0417717 8.68762993 58.5625 23.25 C74.84613212 40.35310062 82.0751276 60.47723397 81.76953125 83.81640625 C81.31230716 99.97633252 75.69566683 114.9653937 66.5625 128.25 C67.66658203 127.90775391 67.66658203 127.90775391 68.79296875 127.55859375 C69.76878906 127.27113281 70.74460937 126.98367188 71.75 126.6875 C72.71292969 126.39746094 73.67585938 126.10742188 74.66796875 125.80859375 C77.73573966 125.21656778 79.59970866 125.31357372 82.5625 126.25 C84.5625 128.25 84.5625 128.25 84.625 130.6875 C83.5625 133.25 83.5625 133.25 80.52734375 134.7734375 C76.46193576 136.39015471 72.31995051 137.45881952 68.0625 138.4375 C67.34191406 138.61474609 66.62132812 138.79199219 65.87890625 138.97460938 C61.39215709 140.0253038 57.18965091 140.78258049 52.5625 140.25 C50.11429781 137.91429336 49.59190036 136.51900801 49.22192383 133.13378906 C49.23763428 131.93979492 49.25334473 130.74580078 49.26953125 129.515625 C49.27919922 128.22011719 49.28886719 126.92460937 49.29882812 125.58984375 C49.32389217 124.22655646 49.34928698 122.86327521 49.375 121.5 C49.39005482 120.12110816 49.40374183 118.74220065 49.41601562 117.36328125 C49.45138091 113.99179085 49.50074096 110.62109346 49.5625 107.25 C51.5425 106.92 53.5225 106.59 55.5625 106.25 C58.4128026 109.45945602 58.99701699 111.74988548 59.25 116 C59.31574219 116.98484375 59.38148438 117.9696875 59.44921875 118.984375 C59.48660156 119.73203125 59.52398437 120.4796875 59.5625 121.25 C69.84800344 102.47645973 75.06912173 83.88989729 70.0625 62.5 C64.67852819 44.92626104 54.05285753 29.05220527 37.71875 20.08203125 C25.52914498 13.66850374 14.07546845 10.05000661 0.1875 10.0625 C-0.56055908 10.06185547 -1.30861816 10.06121094 -2.0793457 10.06054688 C-7.47253694 10.11216197 -12.20962781 10.87875484 -17.4375 12.25 C-20.875 12.5 -20.875 12.5 -23.4375 12.25 C-25.4375 10.25 -25.4375 10.25 -25.875 7.8125 C-25.4375 5.25 -25.4375 5.25 -23.5625 3.5625 C-16.00685093 0.38912739 -8.10882621 -0.08738442 0 0 Z " fill="#040404" transform="translate(373.4375,137.75)"/>
<path d="M0 0 C35.97 0 71.94 0 109 0 C109 13.92243785 109 13.92243785 103.44152832 19.62461853 C99.53535179 22.78501942 95.92867653 22.70052394 91.06054688 22.63110352 C89.74232689 22.64183647 89.74232689 22.64183647 88.3974762 22.65278625 C85.50403223 22.66964007 82.61214493 22.65029024 79.71875 22.62890625 C77.7014554 22.62973525 75.68416088 22.63219582 73.66687012 22.63621521 C69.4435589 22.63907095 65.22077868 22.62439366 60.99755859 22.59692383 C55.59030286 22.56284171 50.18399643 22.56886154 44.77669525 22.5875864 C40.61244833 22.59816656 36.44842142 22.58920928 32.28419495 22.57420158 C30.29074253 22.56902679 28.29726707 22.56949303 26.30381775 22.57574654 C23.51519551 22.58121095 20.72792162 22.56078441 17.93945312 22.53344727 C17.11953384 22.53997314 16.29961456 22.54649902 15.45484924 22.55322266 C10.19970817 22.46584271 7.10994134 21.56332487 3 18 C0 13 0 13 0 0 Z " fill="#FDFDFD" transform="translate(293,385)"/>
<path d="M0 0 C1.30337059 -0.01029488 1.30337059 -0.01029488 2.6330719 -0.02079773 C5.49911948 -0.0390663 8.36461969 -0.03522812 11.23071289 -0.02954102 C13.22701699 -0.03410283 15.22331951 -0.0394084 17.21961975 -0.04542542 C21.40168644 -0.05435667 25.58356216 -0.05193323 29.765625 -0.04199219 C35.12016978 -0.03050328 40.47405501 -0.0507129 45.82851315 -0.07990932 C49.95069046 -0.09827136 54.07270973 -0.09797883 58.19491768 -0.0922718 C60.16884855 -0.09211859 62.14279013 -0.0981633 64.11668205 -0.11056328 C66.87898795 -0.12547121 69.64007551 -0.11479772 72.40234375 -0.09765625 C73.62055313 -0.1121582 73.62055313 -0.1121582 74.8633728 -0.12695312 C80.10358509 -0.05899423 83.16668052 0.853367 87.26586914 4.40405273 C90.26586914 9.40405273 90.26586914 9.40405273 90.26586914 22.40405273 C54.62586914 22.40405273 18.98586914 22.40405273 -17.73413086 22.40405273 C-17.73413086 7.51216084 -17.73413086 7.51216084 -13.73413086 3.40405273 C-9.37372698 0.03152982 -5.31066682 -0.02936357 0 0 Z " fill="#FDFDFD" transform="translate(310.734130859375,205.595947265625)"/>
<path d="M0 0 C11.63966858 7.52723047 18.14391719 16.82834338 22.26953125 29.98046875 C24.72216683 42.56455224 21.9687882 54.89536658 15.625 65.875 C8.53495473 76.22344905 -1.64068967 82.73022268 -13.7578125 85.73046875 C-26.20014206 87.65199059 -38.15313356 85.87784547 -48.6875 78.8125 C-60.08084332 70.13361611 -66.86975277 60.37075598 -69.3125 46.125 C-70.57281654 32.07556969 -66.21070676 19.57290331 -57.34765625 8.71875 C-42.61402622 -7.26710537 -18.80603998 -10.85824927 0 0 Z M-52.3125 16.125 C-59.60106569 26.15998175 -61.53383511 35.87195549 -60.3125 48.125 C-58.01368278 58.84845988 -52.24017767 66.60360295 -43.15625 72.58203125 C-33.54722959 77.79571677 -23.80636089 79.72899969 -13.25 76.9375 C-2.16521049 73.27125751 6.17048095 65.40058341 11.734375 55.20703125 C15.52315443 45.96741348 15.1779451 33.80250244 11.625 24.5625 C6.64501993 14.39388148 -0.66504553 8.24379428 -11.109375 3.984375 C-26.80867737 -0.22763295 -41.57051795 4.06613748 -52.3125 16.125 Z " fill="#050505" transform="translate(370.3125,265.875)"/>
<path d="M0 0 C3.65316671 1.24976756 4.78065836 1.67098753 7 5 C7.25878906 8.12280273 7.25878906 8.12280273 7.265625 11.93359375 C7.26753845 12.60793961 7.2694519 13.28228546 7.27142334 13.97706604 C7.27278282 15.40178806 7.2691029 16.82652257 7.26074219 18.2512207 C7.25005538 20.426229 7.26063625 22.60040826 7.2734375 24.77539062 C7.27211554 26.16146015 7.26955238 27.54752916 7.265625 28.93359375 C7.26336914 30.19228271 7.26111328 31.45097168 7.25878906 32.74780273 C7.01565477 35.80326678 6.83589843 37.56435993 5 40 C1.375 40.75 1.375 40.75 -2 41 C-6.64010272 36.11264081 -5.52044546 29.61381397 -5.50097656 23.30102539 C-5.50000433 21.07241552 -5.54163613 18.84725344 -5.5859375 16.61914062 C-5.59114529 15.19531964 -5.59383268 13.77148675 -5.59375 12.34765625 C-5.60083984 11.05867432 -5.60792969 9.76969238 -5.61523438 8.44165039 C-4.85435314 4.1852445 -3.2745306 2.71330306 0 0 Z " fill="#F4F4F4" transform="translate(243,126)"/>
<path d="M0 0 C2.52179213 2.3909007 2.9818936 3.85086013 3.40405273 7.328125 C3.41380127 8.62234375 3.4235498 9.9165625 3.43359375 11.25 C3.4388356 11.94512695 3.44407745 12.64025391 3.44947815 13.35644531 C3.45588529 14.82225207 3.45457822 16.28811033 3.44604492 17.75390625 C3.43752617 19.99311987 3.46632168 22.22978772 3.49804688 24.46875 C3.49965891 25.89583257 3.49908131 27.32291965 3.49609375 28.75 C3.49794678 30.04421875 3.4997998 31.3384375 3.50170898 32.671875 C3 36 3 36 1.16430664 38.45703125 C-1 40 -1 40 -4.125 39.9375 C-7 39 -7 39 -9 36 C-9.20721835 33.49348686 -9.30405966 31.10069836 -9.30078125 28.59375 C-9.30506638 27.87264038 -9.3093515 27.15153076 -9.31376648 26.40856934 C-9.31950381 24.88550872 -9.32001442 23.36242071 -9.31567383 21.83935547 C-9.31251128 19.50831472 -9.33598708 17.17854032 -9.36132812 14.84765625 C-9.36360093 13.3671891 -9.3643047 11.88671854 -9.36328125 10.40625 C-9.372491 9.7093103 -9.38170074 9.01237061 -9.39118958 8.29431152 C-9.3637161 5.42392165 -9.32117159 3.46557842 -7.66479492 1.06445312 C-5.01418573 -0.63031973 -3.05515251 -0.44554307 0 0 Z " fill="#F9F9F9" transform="translate(116,127)"/>
<path d="M0 0 C4.55555556 0.55555556 4.55555556 0.55555556 6 2 C6.02358948 3.38541409 5.98923805 4.77191536 5.9296875 6.15625 C5.30129366 16.39768788 5.30129366 16.39768788 9.44140625 25.2578125 C12.2020051 27.43893754 14.94644006 29.26174822 18 31 C20 33 20 33 20.1875 35.5625 C20 38 20 38 19 39 C15.35568755 39.59977951 14.11550271 39.07953143 11.02734375 36.953125 C9.98665703 36.06450813 8.95689304 35.16296584 7.9375 34.25 C7.1630957 33.58484375 7.1630957 33.58484375 6.37304688 32.90625 C4.8957057 31.62651497 3.44714891 30.31378031 2 29 C1.29093506 28.39720215 0.58187012 27.7944043 -0.14868164 27.17333984 C-2.4499161 24.47182473 -2.4919242 23.15479532 -2.4609375 19.6484375 C-2.45707031 18.63265625 -2.45320313 17.616875 -2.44921875 16.5703125 C-2.42472656 15.51585937 -2.40023438 14.46140625 -2.375 13.375 C-2.37371094 12.3128125 -2.37242187 11.250625 -2.37109375 10.15625 C-2.28091819 2.28091819 -2.28091819 2.28091819 0 0 Z " fill="#030303" transform="translate(345,283)"/>
<path d="M0 0 C1.31419922 -0.01224609 2.62839844 -0.02449219 3.98242188 -0.03710938 C5.23474609 -0.03904297 6.48707031 -0.04097656 7.77734375 -0.04296875 C8.93355225 -0.04707764 10.08976074 -0.05118652 11.28100586 -0.05541992 C14.0625 0.1875 14.0625 0.1875 16.0625 2.1875 C15.50694444 6.74305556 15.50694444 6.74305556 14.0625 8.1875 C9.61071895 8.4694205 5.14714192 8.41933445 0.6875 8.4375 C-0.570625 8.458125 -1.82875 8.47875 -3.125 8.5 C-4.32898438 8.50515625 -5.53296875 8.5103125 -6.7734375 8.515625 C-7.88251465 8.5249707 -8.9915918 8.53431641 -10.13427734 8.54394531 C-12.9375 8.1875 -12.9375 8.1875 -14.83837891 6.79980469 C-15.9375 5.1875 -15.9375 5.1875 -15.6875 3.0625 C-13.56697904 -2.2388024 -4.84614862 0.00236975 0 0 Z " fill="#020202" transform="translate(346.9375,212.8125)"/>
<path d="M0 0 C3.4375 0.8125 3.4375 0.8125 5.4375 3.8125 C5.8125 7.3125 5.8125 7.3125 5.4375 10.8125 C3.8125 12.8125 3.8125 12.8125 1.4375 13.8125 C-2.00516385 13.74224155 -3.84603249 13.41340824 -6.5 11.1875 C-8.04350034 7.73732276 -7.49583407 5.41250284 -6.5625 1.8125 C-3.5625 -0.1875 -3.5625 -0.1875 0 0 Z " fill="#040404" transform="translate(347.5625,389.1875)"/>
<path d="M0 0 C2.625 0.375 2.625 0.375 5 1 C5 3.31 5 5.62 5 8 C2.625 8.625 2.625 8.625 0 9 C-2 7 -2 7 -2.25 4.5 C-2 2 -2 2 0 0 Z " fill="#090909" transform="translate(345,271)"/>
<path d="M0 0 C2.875 -0.125 2.875 -0.125 6 0 C6.66 0.66 7.32 1.32 8 2 C7.625 4.125 7.625 4.125 7 6 C4.125 6.625 4.125 6.625 1 7 C0.34 6.34 -0.32 5.68 -1 5 C-0.625 2.375 -0.625 2.375 0 0 Z " fill="#0D0D0D" transform="translate(313,303)"/>
<path d="M0 0 C2.5625 0.1875 2.5625 0.1875 4.5625 2.1875 C4.1875 4.3125 4.1875 4.3125 3.5625 6.1875 C0.6875 6.8125 0.6875 6.8125 -2.4375 7.1875 C-3.0975 6.5275 -3.7575 5.8675 -4.4375 5.1875 C-3.69457547 0.28419811 -3.69457547 0.28419811 0 0 Z " fill="#0D0D0D" transform="translate(377.4375,302.8125)"/>
<path d="M0 0 C0 2.31 0 4.62 0 7 C-1.8125 7.6875 -1.8125 7.6875 -4 8 C-5.8125 6.875 -5.8125 6.875 -7 5 C-6.8125 2.375 -6.8125 2.375 -6 0 C-3.50907189 -1.24546405 -2.58919267 -0.7767578 0 0 Z " fill="#0A0A0A" transform="translate(350,333)"/>
</svg>
