<svg xmlns="http://www.w3.org/2000/svg" xml:space="preserve" id="aEvu9Oc6Q4" x="0" y="0" class="pbimage_pbimage__wrapper__image__0LEis false" version="1.1" viewBox="0 0 500 500"><style>.st2{fill:#000005}.st1{fill:#fff}.st0{fill:#3e5cd6}</style><g id="character"><path fill="#3E5CD6" d="m282.4 205.6 5.8 7.2c1.6 2.1 3.4 5.5 6.5 5.2 1.4-.2 2.6-.9 3.6-1.9l3.4-3.2 7-6.6-4.2-.4 7.1 17.8c.4 1.3 1 2.6 1.8 3.7 1 1 2.5 1.5 4 1.1 1.3-.3 2.4-1.2 3.1-2.3.3-.5.5-1 .8-1.5.1-.2.2-.4.4-.6.7-.9.2.4-.9-.1l-1-.6c.8.9 1.5 2 2.1 3.2l2.3 3.8 4.4 7.3c.7 1 2 1.5 3.2 1.1.9-.3 2.2-1.4 1.5-2.5l-7-11.7c-1-1.7-1.9-3.9-4.1-4.3-2.1-.3-4.1.8-5.1 2.7-.2.4-.3.8-.5 1.1-.1.2-.6.8-.6 1-.3.2-.1.2.8.1.8.3 1.1.2.8-.1 0-.3-.5-1-.6-1.3l-2.5-6.3-5.2-13c-.6-1.6-3.2-1.4-4.2-.4l-5.7 5.4-2.5 2.4-1.4 1.4c-.3.2-1.3.9-1.3 1.3 1.6.4 2 .3 1.4-.2-.2-.2-.4-.4-.5-.6l-1.2-1.5-2.1-2.7-4.9-6.1c-1.9-2.1-6.3-.2-4.5 2.1M182.5 216.4c-3.3-2.2-6.8-4.1-10.4-5.9-1.8-.9-3.8-2-5.9-1.6s-2.8 2.3-3.7 4l-2.8 5.7-1.3 2.6c-.3.4-.5.8-.6 1.3-.4.6.2.7 2 .1-.2-.2-.5-.3-.7-.5-3.5-2.5-7-5-10.5-7.4-1.1-.8-3.5-.8-4.2.6-5.4 10.3-9.9 21.1-13.5 32.1-.7 2.3 4.2 2.9 4.8 1 3.6-11.1 8.1-21.8 13.5-32.2l-4.2.6c3.5 2.5 7 5 10.5 7.4 1.7 1.2 4 2 5.9.6 1.5-1 2.2-3.3 2.9-4.9l2.8-5.7c.5-.8.9-1.6 1.2-2.5.5-.7-.1-.7-1.7 0l.6.2 1.4.6c3.5 1.6 6.9 3.6 10.2 5.7 1.1.7 2.4.7 3.5.1.6-.3.9-1 .6-1.7 0 .1-.2-.2-.4-.2" class="st0"/><path fill="#FFF" d="m174.8 323.9 55.5 18-25.5 36.8s-44.7-13.4-62.7-32.1 14.2-71.1 20.9-77.9 8.6-24.9 8.6-24.9c-.5-10.1 6.7-14.2 17-17.5s14.6 4.5 6 8.3-8.8 5.7-8.8 5.7 8.1-2.8 15.9-1.1 12 6.8 9.1 9-10.1-.5-14.2 1c0 0 14.1 4.5 13.3 11.1s-13.8.1-13.8.1 5.4 13.6-8.4 18.8z" class="st1"/><path fill="#000005" d="m174.9 326.3 18.8 6.1 29.9 9.7 6.8 2.2-1.8-3.9-8.6 12.4-13.7 19.8-3.1 4.5 1.7-.8c-13-3.9-25.6-9-37.6-15.1-8.5-4.3-17-9.3-23.7-16.1 0 0-.6-.7-.2-.2-.1-.1-.3-.3-.4-.5-.3-.3-.5-.7-.8-1l-.6-.9c-.2-.3.3.5 0 0-.1-.2-.3-.5-.4-.7-.4-.8-.7-1.5-1-2.3.2.6-.1-.4-.2-.6-.1-.5-.3-1-.4-1.5-.7-3.5-.8-7-.4-10.6 1-8.6 3.9-17 7.3-25 3.3-7.6 7.2-14.9 11.6-21.9.9-1.4 1.7-2.7 2.6-4l.6-.9.3-.4c.3-.4-.2.2 0 0 .4-.5.7-1 1.1-1.5 1.7-2.2 3.7-4.1 5.1-6.6 2.2-4.2 3.7-8.8 4.6-13.5.6-2.7 1-5.3 1.4-8.1.2-1.9 0-3.8.7-5.7.7-2 2-3.7 3.6-5.1 1.9-1.5 3.9-2.7 6.2-3.6 2.6-1.2 5.3-2.1 8.1-2.6 1-.2 2.1-.2 3.1 0 .4.1.8.2 1.1.4l.6.3c-.5-.3.7.4 0 0l.1.1c.2.2.2.2 0-.1l.1.2c.1.3.1.2 0-.1 0 .1.1.2.1.4.2-.6 0 0 0 .1.2-.5 0 .1-.1.2l-.1.2c-.2.4-.5.8-.8 1.1-.8.7-1.7 1.3-2.7 1.7-1.6.7-3.2 1.4-4.7 2.3-1.5.8-2.9 1.7-4.1 2.9-.5.5-.8 1.1-1 1.7-.2 1.7 1.1 4 3 3.3 1.8-.6 3.7-1 5.6-1.2 3.8-.6 7.8-.3 11.5.9 1.4.5 2.8 1.1 4 2 .3.2.5.4.8.6l.4.4c.2.2.3.4.4.6s-.2-.3 0 0l.2.4c.1.3-.1-.2-.1-.2v-.1c0 .3.2-.1 0 .1.4-.5-.2.2 0 0l-.3.3c-1.1.5-2.3.6-3.4.5-3.5-.1-7-.9-10.4.2-.9.3-1 1.6-.9 2.4.2 1 1 1.9 2 2.2l.3.1.3.1.3.1.4.1.7.3c.5.2 1.1.5 1.6.7 2.4 1 4.6 2.4 6.5 4.2.1 0 .3.3.1 0 .1.1.2.2.3.4.2.2.4.5.5.7-.3-.5.1.2.2.4s.1.4 0 0c0 .2.1.3.1.5.1.4 0-.4 0 0v.3c.1-.4-.1.3-.1.5.1-.3-.1.2-.2.3.3-.4-.5.4-.1.1l-.6.3c-.2.1.1 0-.4.1s-1.1.1-1.6.1c-1.2-.1-2.4-.4-3.5-.8-1.6-.5-3.2-1.1-4.7-1.9-2.1-1-2.8 1.4-2.2 3 .2.4-.1-.2-.1-.3.1.3.2.5.2.8s.2.8.3 1.2l.1.6.1.4c.1.6 0-.4 0 .1s.1 1.1.1 1.7v1.6c-.1 1.3-.5 2.6-1.1 3.8-.7 1.4-1.8 2.6-3.1 3.6q-1.2.9-2.4 1.5c-1.1.5-2.3.7-2.7 2-.2.8-.5 1.6-.7 2.5l-9.3 32-2.9 10.2c-.7 2.3 3 5.1 3.9 2.1l4.4-15 7-24.1 1.6-5.5-.9 1.2c5.5-2.1 9.6-6.5 10.2-12.6q.45-4.8-1.2-9.3l-2.2 3c1.8.9 3.6 1.6 5.5 2.2 2.5.8 6 1.6 8.4.2 3.2-1.9 2.6-6.4.9-9.1s-4.7-4.7-7.6-6.2c-2-1.1-4.2-2-6.4-2.7l1.1 4.6c3.2-1.1 7.1.1 10.4 0 3-.1 5.9-1.6 5.7-5s-3.4-6.1-6.3-7.6c-4.1-2.1-8.7-3-13.3-2.7-3.2.1-6.3.7-9.4 1.7l3 3.3c0-.1-.3.7-.1.2.1-.3-.4.4 0 0l.6-.6c1.7-1.4 3.7-2.5 5.7-3.4 2.5-1.2 5.1-2.2 6.5-4.8 1.1-2.1.9-4.6-.4-6.5-3.2-4.8-9.7-3.4-14.3-1.8-4.8 1.7-10 3.9-13.2 8-1.5 2-2.5 4.4-2.9 6.9-.1.7-.2 1.4-.2 2.2v1c0 .2.1.6.1.1 0 .3 0 .5-.1.8-.4 3.6-1.1 7.1-2.1 10.6-1.1 4.3-2.7 9-5.8 12.3-1.5 1.7-3 3.5-4.2 5.4-4.4 6.4-8.3 13-11.6 20-4.3 8.4-7.5 17.2-9.7 26.3-1.8 7.9-2.5 16.9 1.1 24.5 1.8 3.8 4.8 6.8 8 9.5 4 3.3 8.2 6.3 12.7 8.9 14.3 8.5 30.1 14.8 46 19.7l.9.3c.7.2 1.4-.2 1.7-.8l8.6-12.4 13.7-19.8 3.1-4.5c1-1.4-.5-3.5-1.8-3.9l-18.8-6.1-29.9-9.7-6.8-2.2c-1.2-.4-2 .9-2 1.9 0 1.1.8 2.3 2.1 2.7" class="st2"/><path fill="#FFF" d="M335.8 303.6 294 349.9l36.9 25.4s32.7-38.8 42.9-62.7-34-51-42.7-54.9-16.8-20.2-16.8-20.2c-3.2-9.6-11.3-10.9-22.1-10.4s-12 9.4-2.6 9.9 10.3 2.3 10.3 2.3-8.6.2-15.3 4.6-8.8 10.6-5.4 11.6c3.5 1.1 9.3-4.1 13.7-4.1 0 0-11.6 9.2-8.5 15s12.9-4.8 12.9-4.8-.3 14.6 14.5 14.6z" class="st1"/><path fill="#000005" d="m334 302.4-14.2 15.7-22.5 24.9-5.2 5.7c-.8.8-.7 2.1.1 2.8l.2.2 12.5 8.6 19.9 13.7 4.5 3.1c1.1.6 2.6.4 3.5-.6 8.8-10.4 17.1-21.3 24.9-32.5 5.9-8.2 11.3-16.9 16-25.9 1.8-3.6 3.6-7.4 4-11.5.3-4.1-.5-8.1-2.1-11.8-3.4-8.1-9.7-14.9-16.2-20.6-6.2-5.5-12.8-10.4-19.9-14.6-2.1-1.3-4.3-2.5-6.5-3.6-3.8-1.8-6.9-5.1-9.5-8.5q-3.6-4.65-6.3-9.9c-.5-1-.9-2-1.3-3-1-2.2-2.4-4.1-4.3-5.7-3.8-3.2-8.9-4-13.7-4.1-5.1-.1-11.5-.2-15.3 3.8-2.8 2.9-2.3 7.2 1.3 9.2 2.5 1.4 5.4 1.3 8.2 1.6 1.8.1 3.7.5 5.4 1.1.6.2-.4-.1.1 0 .1 0 .3.2.4.2s-.5-.5-.2-.2 0 .1-.2-.4l2.8-3.1c-6.7.2-13.8 2.3-19 6.5-2.7 2.2-5.7 5.4-6.1 9.1s2.7 5.6 6.1 5c2-.5 4-1.2 5.8-2.2 1.6-.8 3.7-1.9 5.3-1.9l-.9-3.8c-4 3.2-8.5 7.6-9.8 12.7-.8 3 .3 6.8 3.5 7.7 3.1.9 6.3-1 8.7-2.7 1.9-1.4 3.6-2.9 5.2-4.6l-4.3-.8c-.1 5.5 2.8 11.6 7.7 14.3 2.7 1.4 5.7 2.1 8.7 2.1l-1.5-.7 21.2 24 3 3.4c1.8 2 6-.7 4-2.9l-16-18.1-7.7-8.7c-.2-.2-.3-.4-.5-.6-1.2-1.1-3.3-.7-4.8-1-2.5-.4-4.8-1.7-6.3-3.7-.2-.2-.4-.5-.6-.8s-.1-.2-.2-.3l-.1-.2c-.3-.5-.6-1.1-.8-1.7-.2-.5-.4-1.1-.6-1.6-.1-.2-.1-.5-.2-.7s.1.4 0 .1c0-.1 0-.2-.1-.4-.2-1.1-.3-2.2-.4-3.2 0-2.3-3.2-2-4.3-.8l-.9.9c-.3.3-.6.6-1 .9.4-.3-.1 0-.2.2s-.5.4-.7.6c-.9.8-1.9 1.5-3 2.2-.1 0-.4.2 0 0-.1.1-.3.1-.4.2s-.5.2-.7.3-.9.3-.5.2-.5.1-.6.1h-.2c.6.1-.2-.1 0 0s-.1 0-.1-.1c-.1-.2.2.2 0 0s-.5-.7-.3-.4c-.5-.8-.5-1.8-.2-2.7q.6-1.65 1.5-3c.8-1.2 1.7-2.2 2.7-3.3l1.5-1.5.6-.6.3-.3c.4-.4-.3.2 0 0 .4-.4.8-.7 1.3-1.1.8-.5 1.2-1.4 1-2.3s-1-1.5-1.9-1.5c-3.5.1-6.5 1.8-9.5 3.2-.7.3-1.4.6-2.1.8-.2.1-.4.1-.6.1l-.4.1c-.8.1.1 0-.2 0 0 0-.1.1-.4-.1.3.2 0-.2 0 0v-.1c.2.4.1.2 0 .1s-.1-.2-.1-.3c0 .2 0 .3 0 0v-.4s0 .3 0 0 .1-.5.2-.8c.2-.5.4-1 .7-1.5.8-1.3 1.8-2.4 3-3.4 2.8-2.2 6-3.8 9.5-4.6 1.5-.4 3-.6 4.5-.8.5-.1 1-.1 1.5-.1.7-.1-.2 0 0 0 1.4-.1 3.7-1.4 2.8-3.1-1.1-2-4.1-2.5-6.1-2.8-1.3-.2-2.6-.4-4-.5-1.3 0-2.6-.2-3.8-.4-.7-.1-1.4-.4-1.9-.9l-.2-.2s-.2-.3-.3-.4c.3.5-.2-.8-.1-.2v-.5c0-.5-.1.4 0-.1 0-.2.1-.3.1-.5-.2.5 0 .1 0 0s.3-.5 0-.1c.1-.2.2-.3.4-.5s.5-.5.1-.2c.2-.1.4-.3.5-.4.7-.4 1.4-.8 2.2-1 1.2-.3 2.5-.5 3.7-.5 4.4-.1 9.6-.2 13.5 1.9 1.7.9 3.1 2.2 4.2 3.8.8 1.2 1.1 2.7 1.8 4 1.6 3 3.4 6 5.3 8.8 2.7 3.9 5.8 7.8 9.7 10.5.9.6 1.9 1.2 2.9 1.6.6.2-.5-.2.1 0l.6.3c1 .5 2 1.1 3 1.6 6.4 3.6 12.4 7.8 18.1 12.5 6.4 5.2 12.8 11.4 17 18.5 1.9 3.1 3.2 6.6 3.8 10.3.5 3.4 0 6.9-1.5 10.1-3.9 8.6-9 16.6-14.3 24.4-8.4 12.4-17.6 24.4-27.2 36l-.5.6 3.5-.6-12.5-8.6-19.9-13.7-4.5-3.1.3 3 14.1-15.6 22.5-24.9 5.2-5.7c.8-.8.7-2.1-.1-2.8l-.2-.2c-1.7-.7-3.1-.5-4 .5" class="st2"/><path fill="#FFF" d="M211.2 457.8c-3.8-2.9 6.7-61.2 6.7-61.2s-88.1-33.5-88.1-59.4 28.7-73.7 28.7-73.7l37.3 19.1-11.4 36.4s69.9 31.6 90 26.8 51.6-42.1 51.6-42.1l-15.3-23.9 24.9-26.8s49.8 32.5 47.9 56.5-51.7 82.3-51.7 82.3l8.6 67" class="st1"/><path fill="#000005" d="M213.4 457c-.1-.1 0 .1-.1-.2-.1-.2-.1-.3-.2-.5l-.3-1.5c-.1-1.6-.1-3.2 0-4.9.2-4.9.8-9.8 1.4-14.7 1.3-10.7 3-21.3 4.8-31.9l1.2-7.2c.1-.1.1-.3 0-.4h-.1c-6.8-2.6-13.6-5.5-20.2-8.5-13.6-5.9-26.8-12.7-39.4-20.4-6-3.6-11.8-7.8-17.1-12.4-4-3.5-8-7.6-10-12.7-.8-2.1-1.2-4.4-1.1-6.6.2-3.8.8-7.6 1.7-11.3 2.2-8.7 5.2-17.3 8.9-25.5 5.2-11.9 11.1-23.5 17.7-34.7l.3-.6-4.6 1.3 32.7 16.8 4.7 2.4-.1-.4-10 31.8-1.5 4.6c-.1.1-.1.3.1.3 5.9 2.7 11.9 5.1 17.9 7.6 12.4 5 24.9 9.8 37.7 13.7 6.1 1.9 12.2 3.6 18.5 4.8 4.9 1.1 9.9 1.5 14.9 1.2 6.1-.6 11.9-3.5 17-6.7 6.3-4.1 12.1-8.7 17.6-13.7q11.85-10.65 22.2-22.8l.5-.6v-.2l-13.4-21-1.9-2.9-.2.4 21.8-23.5 3.1-3.4-4.5 1c4.5 2.9 8.8 6.1 13 9.4 8.6 6.5 16.4 13.8 23.5 22 5.8 6.8 12.2 15.8 11.3 25.2-.5 3.8-1.6 7.5-3.1 11-1.9 4.5-4.1 8.9-6.6 13.1-5.7 9.7-11.9 19.1-18.6 28.1-5.6 7.6-11.3 15.1-17.3 22.4-1.6 2-3.2 4-4.9 6-.5.6-1.1 1-1 1.9.6 5.9 1.5 11.7 2.2 17.5l3.7 28.6 2.5 19.4.1 1c.1.9 5-.1 4.8-1.3l-1.8-14.1-3.6-28.4-2.8-22c-.1-.7-.1-1.5-.3-2.2 0-.1-.1-.2 0-.3 0 .3 0 .2.1 0 1.2-1.2 2.2-2.6 3.3-3.9q7.95-9.75 15.6-19.8c6.8-9 13.3-18.2 19.2-27.8 5-8 10.1-16.6 12.6-25.9 1.1-3.6 1.2-7.5.4-11.2-1.3-4.6-3.4-9-6.2-12.9-6.2-9-14.4-16.7-22.7-23.7-5.6-4.7-11.5-9.2-17.6-13.3l-1-.6c-1-.6-3.7.2-4.5 1l-21.8 23.4-3.1 3.3c-.2.1-.2.3-.2.4l8.1 12.7 5.3 8.3 1.5 2.4c0 .1.2.5.3.5s0-.2.2-.3c-.3.1-.7.8-.9 1.1-.6.7-1.2 1.4-1.9 2.1-2 2.2-4 4.4-6.1 6.6-5.8 6.2-11.9 12-18.4 17.5-3.3 2.8-6.8 5.5-10.4 7.9q-4.5 3.15-9.6 5.1l-.6.2c-.1 0-.8.3-.2.1l-1 .3c-.9.2.4 0-.3.1-.2 0-1.1.2-.4.1-1.1.2-2.2.2-3.2.2q-4.35-.15-8.7-.9c-7.5-1.4-14.8-3.3-22-5.7-7.9-2.5-15.6-5.3-23.3-8.2-9.9-3.8-19.8-7.8-29.5-12.2l-.5-.2.1.4 10-31.8 1.4-4.5c.1-.1.1-.3-.1-.4l-32.7-16.7-4.7-2.4c-1.1-.6-4 .2-4.6 1.2-5.7 9.6-10.8 19.4-15.5 29.5q-5.85 12.45-9.9 25.5c-1.2 4-2.2 8.1-2.8 12.2-.4 2.9-.9 6-.3 9 .9 4.9 4.3 9.1 7.7 12.6 4.8 4.7 10 8.9 15.7 12.5 12.6 8.4 26.1 15.2 39.9 21.5 5.3 2.4 10.7 4.8 16.1 7 1.8.7 3.5 1.5 5.3 2.2.9.5 1.9.9 2.9 1.2.1 0 .3.1.4.1l-.1-.4c-1.2 6.7-2.3 13.4-3.4 20.1-1.7 10.8-3.4 21.8-4.1 32.7-.1 2-.2 3.9-.1 5.9.1.9.1 2.3.9 2.9s2.4-.1 3.1-.3c.1.5 1.9-.2 1.2-.7" class="st2"/><path fill="#000005" d="M296.3 395.8h17.4c.6 0-.6-1.5-.7-1.7l-1.2-1.5c-.2-.2-.6-.7-.9-.7h-17.4c-.6 0 .6 1.5.7 1.7l1.2 1.5c.2.2.6.7.9.7M276.1 355.7l-4.9 6.3-2.4 3c-.7 1-1.4 2-2.3 2.8l.7-.4-.2.1h2.5c.7.3.7.3.1-.1l-.8-.5-1.2-.8-2.9-1.9-5.4-3.5-11.1-7.4c-1.1-.6-2.3-.7-3.5-.4-1 .3-1 .9-.2 1.4l20 13.2c1.7 1.1 3.4 2.3 5.6 1.9 1.7-.3 2.5-2.1 3.5-3.3l7.3-9.3c.9-1.2-3.8-2.3-4.8-1.1" class="st2"/><path fill="#000005" d="m277 357.4 6.5 4.6c2 1.4 4.6 3.9 7.3 2.7.9-.5 1.7-1.2 2.2-2.1l2.3-3.2 4.8-6.6c1.3-1.9-2.9-4.5-4.2-2.7l-4 5.5-2 2.8c-.5.9-1.1 1.7-1.8 2.5-.4.3-.8.3-.1.4s.3 0 0-.2l-.8-.5-2.8-1.9-5.7-4c-.8-.6-2.4-.9-3 .1s.4 2.1 1.3 2.6M275.6 365.5c1.3 17 1 34.1-.9 51.1-.5 4.9-1.2 9.7-2 14.5-.5 2.8 4.2 4.2 4.7 1.2q4.2-25.8 3.6-51.9c-.1-5-.4-9.9-.7-14.9-.2-2.9-5-3.2-4.7 0M228.3 328.3s-16.8 11-22.9 4.8 6.5-9.2 6.5-9.2-19.8-9.7-2.3-20c0 0-20.2-5.2-12.4-20.9s35-18.7 35-18.7-7.4-16.2 12.5-21.9 19.3 6.2 19.3 6.2 12.7-3.7 15.3 1.8-5.6 11.5-5.6 11.5 3.2 17.7-14.4 22l-7.6 26.9s8.7 5.1 5.7 15.3-25.6 13.1-29.1 2.2" class="st2"/><path fill="#000005" d="m226.7 327.2-.3.2-.3.2c.5-.3.2-.1-.1.1-1 .6-2 1.1-3 1.7-2.6 1.5-5.4 2.6-8.4 3.4-2.3.6-4.9 1-6.9-.6-.9-.7-1.4-1.7-1.5-2.8q0-.45.3-.9c.3-.4.7-.8 1.1-1l.3-.2c-.4.3.1-.1.2-.1.3-.2.6-.3.9-.5l1-.4c.1-.1.6-.2 0 0l.5-.2c.6-.2 1.2-.4 1.9-.6 1-.2 3.1-2.1 1.4-3-2.7-1.3-5.1-3.1-7-5.4-1.4-1.5-2-3.5-1.8-5.5.5-2.8 3.4-5 5.8-6.4 1.1-.6 2.2-2.5.3-3-.8-.2-1.5-.5-2.2-.7l-1.1-.4-.5-.2c-.2-.1-.3-.1-.4-.2-.9-.4-1.8-.9-2.6-1.5-3.7-2.4-6.7-6.1-6.2-10.9.6-6 5.1-10.8 9.9-14 4.7-3 9.8-5.2 15.2-6.5 1.2-.3 2.5-.6 3.8-.9l1.6-.3h.2l.7-.1c.9-.2 1.8-.3 2.8-.4s3.2-1.1 2.6-2.4c-2.1-4.6-1.9-10.3 1.2-14.1 3.4-4.2 9.5-6.1 14.9-6.7 2.1-.4 4.3-.3 6.4.3.2 0 .4.1.5.2s.3.1.4.2c0 0 .6.4.9.5.3.2.5.4.8.6-.3-.3.3.3.4.5.2.3.4.5.6.8.1.1.1.2.2.4 0-.1-.1-.2 0 .1.2.5.3 1 .5 1.4 0 .2.1.4.1.6.1.4 0 .3 0 .1v.4c-.1 1.5 1.8 1.7 2.9 1.4l.8-.2.9-.2.5-.1.3-.1c.5-.1-.3.1 0 0 1.9-.4 3.9-.5 5.9-.4 1.6.1 3.3.6 4.1 2.2 1 2.1-.1 4.4-1.4 6.1-.7.9-1.4 1.7-2.2 2.4-.4.4-.8.7-1.2 1-.6.4-.9 1-.8 1.7 0 .2.1.4.1.5l.1.6c0 .3 0-.4 0 0v.5c.1 1.7 0 3.3-.3 5-.6 4.5-3.2 8.5-7 11-1.1.7-2.4 1.2-3.6 1.6-1.5.5-3.2.7-3.7 2.4l-.9 3.2-3.8 13.5-2.9 10.1q0 .75.6 1.2c5.2 3.2 7.2 9.8 4.6 15.3-.7 1.2-1.6 2.2-2.8 2.9-.5.4-1.1.7-1.7 1-.4.2-.7.4-1.1.5 0 0-.8.3-.3.1l-.7.2c-3.2 1.1-6.7 1.4-10 .7-2.9-.6-6.1-2.3-7.2-5.6-.7-2.1-5.5-.8-4.8 1.4 2.8 8.5 14.2 9 21.5 7.1 4-1 8.1-3 10.7-6.3 2.8-3.8 3.4-8.9 1.6-13.3-1.2-2.9-3.3-5.4-5.9-7l.6 1.2L261 287l1-3.3-2 1.8c5.9-1.5 11.3-4.9 14.2-10.4 1.7-3.5 2.5-7.3 2.4-11.2 0-.9-.1-1.8-.2-2.8l-.8 1.7c3.6-2.6 7.8-7.2 6.8-12-1.2-5.8-8.9-5.7-13.5-5.1-1.7.2-3.5.6-5.1 1.1l2.9 1.4c0-1.7-.5-3.5-1.5-4.9-2.4-3.6-7.2-4.4-11.2-4.3-3.7.1-7.5.9-11 2.1-3.2 1-6.1 2.5-8.7 4.6-3.5 2.9-5.6 7.2-5.6 11.8-.1 2.5.4 5 1.4 7.3l2.6-2.4c-9.4 1-18.4 4-26.4 8.8-5.7 3.5-10.7 8.6-12.5 15.2-1.5 5.6.8 10.7 5.2 14.2 2.8 2.2 6.1 3.8 9.5 4.7l.3-3c-4.4 2.6-10 7-8.3 12.9 1 3.6 4.3 6.4 7.3 8.4.8.5 1.6 1 2.5 1.5l1.4-3c-4.5 1.1-12.9 5-9.2 10.8 4.5 7 15.4 2.8 21.1 0 2.3-1.1 4.4-2.3 6.5-3.7.7-.4 1-1.3.6-2-.1-.2-.2-.3-.4-.5-1.2-.6-2.6-.1-3.6.5" class="st2"/><path fill="#FFF" d="M251.1 344c-3.1-3.7-4.4-23.5-4.4-23.5s-9.9 4.3-15.8-6 4.6-16.5 14.8-8c0 0 1.4-27.3-10.3-36.6 0 0 26.6 3.7 38.3-4.7 0 0 30.1 30.8 26 49.4-3.6 16.2-12.6 19.4-12.6 19.4v2.9l-9.2 19.1z" class="st1"/><path fill="#000005" d="M253.2 342.7c-1.2-1.5-1.4-3.1-1.9-5-.6-2.6-1-5.2-1.4-7.9-.4-3.4-.8-6.8-1-10.2-.1-1.2-1.8-1.4-2.6-1l-.9.3-.4.1c-.6.2.3 0-.1 0s-.9.2-1.4.2l-.8.1h-.4c-.6 0-1.2-.1-1.8-.2-1.2-.2-2.3-.7-3.3-1.3-3-1.9-5-4.9-5.8-8.4-.2-1.1-.1-2.3.4-3.3.4-.7 1-1.2 1.8-1.4 1.3-.3 2.7-.3 4.1.1 2.2.7 4.3 1.8 6 3.3 1.3 1.1 4.1-.3 4.2-1.9.1-3.4.1-6.9-.2-10.3-.5-6.5-1.6-13.1-4.3-19.1-1.4-3.3-3.5-6.2-6.2-8.5l-2.7 3.6c3.3.4 6.7.7 10.1.8 6.7.3 13.4-.2 20-1.6 3.6-.8 7-2.2 10.1-4.2l-2.8.1c6.1 6.3 11.6 13.2 16.4 20.6 3.5 5.4 6.9 11.2 8.5 17.5.8 2.7 1.1 5.4.9 8.2-.5 3.9-1.7 7.7-3.6 11.1-.8 1.5-1.8 2.9-2.9 4.2-.4.5-.8.9-1.2 1.3s-.9.8-1.3 1.2c-.2.1-.9.6-.2.1l-.5.4c-.3.2-.6.4-.9.5l-.3.2c-.4.2.7-.3.3-.1l-.2.1c-1.2.3-2 1.4-2 2.6v2.9l.1-1-9.3 19.1 3.6-1.7-23.5-10.5-3.3-1.5c-2.1-.9-5.4 2.6-2.8 3.8l23.5 10.5 3.3 1.5c1.3.6 3-.5 3.6-1.7l9-18.5c.7-1.4.4-3 .4-4.5l-2 2.6c3.6-1.3 6.6-4.4 8.8-7.5 2.4-3.5 4.2-7.4 5.2-11.5.9-3.2 1.2-6.6.8-9.9-1-6.7-4.2-13.1-7.6-18.8q-5.25-8.55-11.7-16.2c-2.4-2.8-4.8-5.6-7.3-8.3-.6-.6-2.1-.4-2.8.1-4.8 3.4-11.1 4.4-17.1 4.8-5.4.4-10.7.3-16.1-.2-1.1-.1-2.2-.2-3.4-.4-1.6-.2-4.5 2.1-2.7 3.6 4.7 3.8 6.9 10.1 8.1 15.9 1.1 5.4 1.7 10.8 1.7 16.3v3.1l4.2-1.9c-3.5-2.8-8-5-12.6-4.2-3.9.5-7.1 3.3-8 7.1-.9 4.2 1.6 8.7 4.5 11.7 2.5 2.5 5.8 3.9 9.3 4 2.1.1 4.2-.3 6.2-1l-2.6-1c.2 3.5.6 7 1.1 10.5.4 2.6.8 5.2 1.4 7.8.4 1.9.9 4.1 2.1 5.6.8.9 2.1 1 3.1.3.7-.7 1.9-2.1 1.1-3.1" class="st2"/><path fill="#FFF" d="M280.7 303.3s28-4.6 28.4-20-20.9-16-32.3.4" class="st1"/><path fill="#000005" d="M280.1 304.8c3.2-.6 6.3-1.4 9.4-2.4 5.8-1.9 11.6-4.5 16.1-8.7s7-10 5.2-16c-1.8-5.8-8-8.2-13.6-7.8-9.1.7-17.2 6.5-22.3 13.7-.6.8-.1 1.5.9 1.5 1.2-.1 2.4-.7 3.1-1.7 3.7-5.3 9-9.4 15.2-10.3 4.8-.7 10 1.1 12 5.8 1 2.5 1.1 5.2.4 7.7-.7 2.2-1.9 4.2-3.6 5.7-.9.8-1.8 1.6-2.8 2.2l-.6.4-.6.4c-.6.4-1.2.7-1.8 1l-.9.4-.5.2c-.6.3-1.2.6-1.9.8-1.2.5-2.4.9-3.6 1.3l-1.8.6-.6.2-.7.2c-1 .3-2 .5-3 .8s-1.8.4-2.7.5c-1.2.2-2.2.9-2.8 2-.4 1.5.7 1.6 1.5 1.5M264.1 283.2c.3 1.1 1.3 1.7 2.4 1.5.1 0 .2-.1.3-.1 2.1-.8 1-3.4-.9-3.2-.9-.1-1.7.7-1.8 1.6zM273.8 278.9c.3 1.1 1.3 1.7 2.4 1.5.1 0 .2-.1.3-.1 2.1-.8 1-3.4-.9-3.2-.9-.1-1.7.7-1.8 1.6-.1.1-.1.1 0 .2M256 307.6c1.5-1.2 3.2-2.1 5.1-2.6l-3.7-2.1.7 3.4c.3 1.5.6 2.7 2.1 3.4.8.4 1.7.5 2.5.3.6-.2 1.1-.6 1.5-1 .6-.5 1.4-.9 2.2-1.2h-1.2.2l-1.8-.8.2.1-.6-.9c.9 1.6.3 3.8 2 5 2 1.4 4.2.3 6.2-.3.7-.1 1.2-.8 1.1-1.6 0-.2-.1-.5-.3-.6-.8-1-2.1-1.5-3.3-1.2-1.1.4-2.2.8-3.4 1l2.4.4-.2-.1.9.8c.2.3 0-.4 0-.4l-.2-.8c-.1-.5-.2-1-.4-1.6-.4-1.4-1.6-2.4-3-2.5-1.1-.1-2.3.2-3.2.8-.4.2-.8.4-1.1.7l-.7.5-.2.2c-.3.2-.2.2.1 0l1.8.1h-.2l1.1.6c.2.4.4.5.3.3l-.1-.6-.2-1.1-.5-2.3c-.5-1.6-2.1-2.5-3.7-2.1-2.5.8-4.8 2-6.8 3.6-.9.7.3 2.1.9 2.5 1.3.8 2.6.8 3.5.1" class="st2"/></g><path id="arrow" d="M171 158.5c4-19.3 21.2-35.6 41-37.8s39.8 10.8 47 29.2c3.4 8.7 3.9 22.1-5.6 27.2l4.4 1.2c-2.1-4.4 1.3-8.8 4.3-11.7 3.7-3.6 7.7-6.8 12.1-9.6 8-5.1 18.6-8.8 27.8-4.6 7.4 3.4 12.1 10.6 15.4 17.8 1.7 3.9 3.1 7.8 4.2 11.9 1 3.5 2.9 9.8-1 12.2q-.75.45-1.8.6h-.3c.1 0 .3 0 .3.1s-.2-.2-.2-.2c-1.4-1.9.4-4.5 1.5-5.9 2.7-3.3 6-6.2 9.6-8.4 6.8-4.1 15.2-6.2 23-4.2 8.9 2.4 15.4 10 20.5 17.2q9.3 13.2 16.5 27.6c1.2 2.5 2.4 5 3.6 7.6.5 1 .9 2 1.3 3.1.2.5.2 1 0 1.4-.1.3 0 .2-.4.1-2-.4-3.8-1.2-5.5-2.3-1.8-1.2-3.3-2.8-4.4-4.6-.6-.9-1.4-2.2-.8-3.2s2-1.4 2.9-1.8c2.4-1.1 4.8-2.1 7.3-2.8 1.2-.4 2.5-.6 3.7-.9.6-.1 1.1-.2 1.6-.3l.4-.1-.8-.3s.5.7.5.9c1 2.5 1.7 5 2.1 7.7.5 2.7.7 5.5.6 8.3 0 1.8 4.9 2.6 4.9 1 .1-3.2-.2-6.5-.8-9.6-.3-1.5-.7-3.1-1.1-4.6-.3-1.3-.8-2.6-1.5-3.7-2.1-2.8-6.1-2.2-9.1-1.6s-6 1.5-8.8 2.7q-1.95.75-3.9 1.8c-1.95 1.05-2.5 1.2-3.1 2.5-1 2.3 1.6 5.4 3 7 1.8 2 3.9 3.6 6.3 4.7 2.6 1.4 5.5 2.1 8.5 2.1 1.2.1 2.3-.5 3-1.5.4-1.1.3-2.4-.3-3.4-1.2-3-2.7-5.9-4.1-8.8-2.8-5.7-5.8-11.2-9.1-16.6-3.1-5.2-6.5-10.3-10.1-15.1-3.2-4.5-7.2-8.5-11.7-11.7-8.8-5.9-19.8-7.5-29.9-4.2-4.8 1.5-9.2 3.9-13.1 7-2 1.6-3.8 3.4-5.4 5.3s-3.3 4.6-2.2 7.2c1.8 4.2 8.6 4.3 11.8 1.8 4.3-3.4 2.1-10.1.9-14.5-2.7-9.3-6.7-18.9-13.9-25.6-8.6-8-21.1-9.6-32-5.8-5.6 2.1-10.9 5-15.5 8.8-4.3 3.4-9.3 7.1-11.6 12.2-1.1 2.2-1.2 4.8-.1 7 .6 1.4 3.1 1.9 4.4 1.2 9-4.8 10-16.6 7.6-25.5-2.8-10.2-10-19.2-18.4-25.4-9.1-6.7-20-10.3-31.3-10.4-23.5.3-43.8 16.7-49.1 39.6-.4 1.4 4.5 2.4 4.9.7" class="st2"/><g id="banknote"><path d="M69.1 198.8c.4 2.4 29.3 23.5 29.3 23.5 15.3-4.1 42.2-53 39.9-60.3s-31.6-22.8-31.6-22.8l-5.5 14.7s2.9 9 2.6 9.6-11.4 23.8-11.4 23.8-3.9-.6-4.5.6-2.6 5.8-2.6 5.8z" class="st0"/><path d="M67.4 198.1c.2 1.1 1.7 2.1 2.4 2.8 1.9 1.7 3.8 3.3 5.8 4.9 4.7 3.8 9.6 7.4 14.4 11.1 1.8 1.3 3.5 2.6 5.3 3.9 1.2 1.1 2.7 1.9 4.3 2.3 1 0 2-.3 2.8-.9 1-.5 1.9-1.1 2.7-1.7q3.3-2.4 6-5.4c4.5-4.9 8.6-10.2 12.2-15.8 3.8-5.8 7.3-11.8 10.4-17.9 2.5-4.6 4.4-9.4 5.9-14.4.4-1.3.6-2.7.4-4.1-.4-1.8-2-3.4-3.3-4.6-4.6-4.4-10-7.8-15.4-11.1-4.2-2.6-8.4-5-12.7-7.3l-.7-.4c-.3-.2-2.9-1.4-3.1-.9l-3.8 10.2-1.1 2.8c-.3.5-.5 1-.6 1.6 0 .3.1.6.2.9l.9 3c.4 1.2.7 2.4 1 3.6.3.7.4 1.5.4 2.2-.3.8-.6 1.6-1.1 2.3-2 4.1-3.9 8.1-5.9 12.2-1.5 3.1-3 6.3-4.5 9.4h.6c-1.7-.2-4.4-.7-5.3 1.1-.6 1.2-1.1 2.5-1.7 3.8-.2.5-.4.9-.6 1.3-.2.3 0 .1-.1.2-.5.2-1 .4-1.6.5l-2.9.9-7.1 2.3zc-.3.1 1.1.8 1.2.8.5.2 1.6.8 2.2.6l10.2-3.3 5.2-1.7c.3 0 .5-.2.7-.3.2-.3.4-.7.5-1.1l.9-2c.4-1 .8-2.7 1.9-3.1.7-.2 1.4-.3 2.1-.2.3 0 .6 0 .8.1.1 0 .6.1.3 0 0 0 .5.1.6 0l9.8-20.4c.6-1 1.1-2.1 1.6-3.2.4-1.2-.5-3-.8-4.2s-.7-2.3-1-3.5c-.3-.6-.5-1.3-.6-2 0-.3.1-.5.2-.8l.8-2.3 4.4-11.7-3.1-.9c5.4 2.9 10.7 5.9 15.8 9.2q5.7 3.45 10.8 7.8c1.8 1.5 4.6 3.7 4.7 6.3.1 2.4-.8 4.9-1.6 7-1.4 3.7-2.9 7.3-4.7 10.8q-6.45 12.9-15 24.6c-2.6 3.6-5.5 7-8.6 10.2-2.3 2.5-5 4.6-8.1 6.2-.6.3-1.2.5-1.8.7l3.2 1.2c-8.6-6.2-17.2-12.5-25.3-19.4l-2.7-2.4c-.4-.4-1.1-1-1.2-1.4s-1.3-.8-1.7-.9c0-.4-1.8-.8-1.7-.7" class="st0"/><path d="M80.7 194.8c2.8 3.2.1 8.5.1 8.5l11.3 8.6c6.9-5 15.4-.6 15.4-.6 8-7.1 22.8-39.4 22.8-39.4-3.8-4.4-.2-12.2-.2-12.2l-12.7-8.5c-9.9 6.3-13.1 1.9-13.1 1.9l-2.6 4.2-1.9 10.5-3.4 3.5-3.9 9-6.5 5.9z" class="st1"/><path d="M79.1 195.3c1.7 2.1 1.1 5.3 0 7.6-.2.5.1.9.4 1.1l11.3 8.6c.9.6 2.1.5 2.9-.1 3.8-2.6 8.9-2.4 12.9-.4.8.4 1.8.3 2.6-.3 2.1-2 3.9-4.3 5.4-6.7 2.1-3.2 4-6.5 5.9-9.8 3.5-6.2 6.7-12.6 9.7-19 .6-1.4 1.3-2.7 1.9-4.1.1-.3.1-.6-.1-.9-2.6-3.1-1.6-8 0-11.3.2-.4 0-.9-.4-1.1l-12.7-8.5c-.8-.5-1.8-.6-2.7-.1-1.7 1.2-3.6 2.1-5.6 2.7-.6.2-1.2.3-1.9.4h-.6c-.1 0-.8-.1-.4 0-.2 0-.4-.1-.6-.1.4.1-.1-.1-.2-.1-.4-.2.1 0-.2-.1l-.3-.2c-.4-.3.1.2-.2-.2l-.1-.1c-1-.9-2.5-.9-3.4.1l-2.3 3.8c-.4.8-.6 1.6-.7 2.5l-1.6 8.7.3-.6-2.5 2.6c-.6.5-1 1.1-1.3 1.7l-3.4 7.8c-.1.2-.2.5-.3.7.2-.4.2-.2 0-.1s-.4.3-.5.4l-3.2 2.9c-.8.8-1.8 1.5-2.6 2.3-.4.6-.8 1.1-1.2 1.8l-4.4 7.1c-.8 1.4 2.8 2 3.6.8 1.7-2.9 3.5-5.7 5.2-8.5 0 0-.3.3 0 .1s.5-.4.8-.7l2.4-2.2 2.4-2.2c.4-.3.7-.6 1-.9.8-1.6 1.5-3.2 2.1-4.9l1.3-2.9c.1-.3.3-.6.4-.9.1-.4 0-.1 0-.1.6-.7 1.3-1.4 2-2 .6-.5 1.2-1.1 1.6-1.8.4-1.4.7-2.9.8-4.4.4-2 .6-4.1 1.1-6.1.1-.3 0 .1-.1.2.1-.1.1-.2.2-.3.3-.4.6-.9.8-1.4l1.6-2.5-3.4.1c1 1.1 2.5 1.9 4 2 4.3.7 8.5-1.3 12-3.5l-2.7-.1 12.7 8.5-.4-1.1c-1.8 4-2.7 9.5.3 13.1l-.1-.9c-4.8 10.9-10.3 21.4-16.6 31.5-1.7 2.8-3.7 5.4-6 7.7l2.6-.3c-5.6-2.9-12.9-2.7-18 .9l2.9-.1-11.3-8.6.4 1.1c1.5-2.9 1.9-6.7-.3-9.4-.8-1.3-4.5-.7-3.2.8" class="st0"/><path d="M99.1 186.2s4 4.9 9.4 0-.8-10.2-4.5-9.4-8.1 4-4.9 9.4" class="st0"/><path d="M97.3 186.6c1.3 1.5 3.1 2.5 5.2 2.8 2 .2 3.9-.2 5.6-1.2 1.8-1 3.2-2.5 4.1-4.4 1.2-3-.8-5.9-3.4-7.3-1.4-.8-3-1.1-4.5-.9-1.7.2-3.3.8-4.7 1.7-1.4.8-2.5 2.1-3.1 3.7-.6 2-.3 4 .8 5.6.4.7 1.7.8 2.4.6s1.6-.7 1.2-1.4q-.6-1.05-.9-2.1c-.1-.3-.1-.7-.1-1v-.7000000000000001c.1-.3.1-.6.2-.8.1-.1.1-.3.2-.4s.2-.4.1-.2c.1-.2.3-.5.5-.7l.3-.3.2-.1c.2-.2-.2.1 0 0s.4-.4.7-.5.2-.2.4-.2l.2-.1c.2-.1-.3.1 0 0l.8-.4c.1-.1.3-.1.4-.1h-.1l.2-.1.8-.2c.3-.1-.2 0-.2 0h.4-.1.4c.3 0-.4-.1 0 0l.4.1.2.1c.3.1 0 0 0 0 .2.1.5.3.8.4l.4.2c-.3-.2.1.1.2.1.2.2.4.4.7.6l.3.3.1.1c-.2-.2 0 .1.1.1.3.4.6.9.8 1.5-.1-.2 0 .1 0 .2s0 .3.1.4v.9c0 .2 0-.1 0 0v.2c0 .2-.1.3-.1.4-.1.2-.1.3-.2.4l-.1.2c0 .1-.1.3-.1.1-.4.7-1 1.3-1.6 1.8-.3.3-.7.5-1 .7l-.3.2c.2-.1 0 0 0 0l-.6.3c-.1 0-.2.1-.2.1s.4-.1.1 0l-.4.1c-.5.1.4 0-.1 0h-.2.1-.7c.1 0 .4.1.2 0l-.5-.1-.2-.1c-.3-.1.3.1.1 0s-.5-.2-.7-.3c-.1 0-.2-.2-.3-.2.1 0 .3.2.1.1l-.2-.1c-.3-.2-.6-.4-.8-.7l-.2-.2s.1.2.1.1c-.6-.6-1.5-.9-2.4-.6-1.2 0-2.5.6-1.9 1.3M93 197.4c.8.9 2.1 1 3 .3l.3-.3c1.9-1.7-.3-3.6-1.6-3.3s-2.8 1.4-1.7 3.3" class="st0"/><path d="m91.3 198.1.4.4c.5.3 1 .6 1.6.6 1.2.1 2.5-.2 3.5-.8.8-.4 1.5-1.1 1.9-2 .2-.5.2-1.1-.1-1.6s-.7-1-1.3-1.2c-.7-.3-1.5-.4-2.3-.3-.9.1-1.8.5-2.5.9s-1.3 1-1.6 1.8c-.2.7-.1 1.4.3 2 0 .1.1.2.2.3s.3.2.4.2c.5.1.9 0 1.3-.1s.9-.3 1.2-.6l.2-.2c.1-.1.2-.3.1-.5-.2-.4-.4-.8-.4-1.2v.2c0-.3.1-.5.2-.7l-.1.2c.1-.2.2-.3.3-.4l-.2.2c.1-.1.2-.2.4-.3l-.3.2c.1-.1.2-.2.3-.2-.7.4-.2.1 0 0l-.3.1h.1l.2-.1c.1 0-.6.1-.4.1h.1-.4.2-.3c.1 0 .2 0 .4.1l-.4-.2.6.3-.2-.1c.3.2.5.4.7.7l-.1-.2q.3.45.3.9v-.2c0 .2-.1.5-.2.7l.1-.2c-.1.2-.2.4-.4.5l.2-.2-.5.5.3-.2c-.1.1-.2.2-.4.2l.3-.1h-.1c-.2.1.6-.2.3-.1h-.1c-.2.1 0 0 .4-.1H95h.3-.2.4c-.1 0-.3 0-.4-.1l.3.1c-.2 0-.4-.1-.6-.2l.2.1c-.2-.1-.4-.3-.6-.5s-.7-.3-1-.3c-.5 0-1 .1-1.4.3-.1.2-1.1.7-.7 1.3M113.6 170c.8.9 2.1 1 3 .3l.3-.3c1.9-1.7-.3-3.6-1.6-3.3s-2.8 1.4-1.7 3.3" class="st0"/><path d="M112.5 170.4c.3.4.7.7 1.1 1 .5.4 1.1.7 1.8.8.4.1.9.1 1.3 0 .3-.1.6-.2.8-.3.7-.4 1.3-1 1.6-1.8.2-.8.1-1.6-.2-2.3-.5-.9-1.3-1.7-2.2-2.2-.6-.3-1.2-.5-1.9-.5-.6.1-1.2.3-1.8.7-.5.3-.9.8-1.1 1.4-.2.9-.1 2 .4 2.8.2.4.5.8.9 1.1.3.3.7.4 1.2.4.3 0 .6-.2.7-.5.1-.4 0-.8-.1-1.1-.1-.2-.2-.3-.2-.5l.1.4c-.1-.2-.1-.3-.1-.5v.4-.5.3c.1-.2.2-.4.3-.5l-.2.3c.2-.3.4-.5.7-.7l-.2.2c.4-.2.7-.4 1.2-.4h-.3.4-.4c.1 0 .3.1.4.1l-.4-.1c.1.1.3.1.4.2l-.4-.2c.1.1.2.2.3.2l-.4-.3c.1.1.2.1.2.2l-.3-.4c.1.1.1.2.2.3l-.2-.4c.1.1.1.2.1.3l-.2-.4c0 .1.1.2.1.3v-.4.4-.3c0 .2-.1.4-.2.6l.2-.2c-.3.4-.6.7-1 1l.2-.2c-.3.2-.6.3-.9.4l.3-.1h-.6l.4.1c-.1 0-.3-.1-.4-.1l.4.1-.3-.2.4.2c-.1-.1-.2-.2-.3-.2l.4.3c-.1-.1-.2-.1-.2-.2l.3.4c-.3-.4-.7-.7-1.1-.9-.3-.2-.7-.2-1.1-.1-.8.1-.5 1.1-.1 1.6M101.1 167.9c2-2.2 2.4-5.3 2.5-8.1s-.1-6.3-1.4-9c-1.6-3.4-9.1-8.5-12-3.7-1.4 2.3.7 4.2 2.5 5.3 1 .7 2.1 1.1 3.3 1.1 1.3-.2 2.3-1.1 2.8-2.3.5-1.3.6-2.7.4-4.1-.1-1.7-.3-3.3-.6-5-.5-3-1.4-6-2.7-8.8-1.1-2.9-3.1-5.4-5.7-7.2-2.5-1.6-5.6-3.2-8.5-1.8.5.4 1 .8 1.5 1.1.3.2 1.3.9 1.7.8 1-.4 2.1-.6 3.1-.4.2 0 .4.1.6.1 1.1.3.4.2.2-.1.5.3.9.7 1.3 1.2 1.3 1.6 2.3 3.5 3 5.4 1.8 4.4 2.8 9.1 2.9 13.8 0 1.9-.3 4-2.2 5-.4.2-.9.3-1.4.4h-.3l1.6.9c-.1-.2-.2-.4-.3-.5-.4-.8-.5-1.7-.2-2.5s.9-1.4 1.7-1.8c.4-.2.8-.4 1.2-.4.5-.1 1 .1 1.5 0s-.5-.7-.1-.1c.1.2.3.3.4.5.3.4.6.8.8 1.2.6 1.1.9 2.3 1.1 3.5.4 2.5.5 5.1.2 7.7-.1 2.3-.9 4.5-2.3 6.2.1-.2 3 2.1 3.4 1.6M86.7 146.6c.2-4.6-1.3-9.1-4.2-12.8-3-3.8-7.3-6.4-12.1-7.3-.9-.1-1.8 0-2.5.5-.3.2-1.2.8-.4 1 9.3 1.7 16 10.1 15.6 19.6-.1.6 3.5.1 3.6-1M60.1 142.8l-.2-.2.1.1c-.2-.2-.2-.2-.3-.4-.2-.2-.4-.5-.6-.8l.2.3c-.4-.6-.8-1.3-1-2l.1.3c-.1-.4-.2-.8-.3-1.3q-.15-.6-.6-.9c-.4-.3-.9-.5-1.3-.5-.6-.1-1.8.1-1.7 1 .3 2.2 1.5 4.3 3.3 5.7.4.3.9.5 1.3.5.4.1.8 0 1.2-.2.3-.2.5-.5.4-.8-.1-.2-.4-.5-.6-.8M85.1 184.1c-.9.6-2.6.9-3.6.1-1.2-1.1-1.6-3.4-1.8-4.9-.5-3-1.3-8 2.7-9l-2.6-1.7c.5.9-.2 2-.9 2.5-.8.5-1.7.8-2.6.8-1.9.2-3.8-.3-5.4-1.4-3.3-2.3-4.6-6.9-5.3-10.7q-.45-1.2-1.5-1.8c-.2-.1-1.6-.9-1.5-.2 1.1 5.9 3.7 11.4 9 14.6 2.3 1.5 5 2.2 7.8 1.9 2.5-.3 4.8-2.3 3.2-4.9-.4-.6-1.8-2-2.6-1.7-2.3.6-3.4 2.9-3.6 5.1-.1 2.7.4 5.4 1.3 7.9 1.3 3.7 6.4 8.4 10.5 5.6.3-.2-2.2-2.9-3.1-2.2M370.3 108c1.5.6 23.2-9 23.2-9 2.7-10.2-16.4-41.8-21.4-42.8s-23.5 10.6-23.5 10.6l6.6 8s6.1 1.3 6.4 1.7 9.9 14.4 9.9 14.4-1.6 2-1.1 2.8 2.4 3.3 2.4 3.3z" class="st0"/><path d="M371 108.7c1 .2 2 .1 2.9-.3 1.5-.5 3.1-1.1 4.6-1.6 3.8-1.5 7.6-3.1 11.3-4.7l4.1-1.8c.7-.3 1.3-.4 1.5-1.1.3-1.4.3-2.9 0-4.3-.3-1.8-.7-3.7-1.3-5.4-2.9-8.7-7.1-16.9-12.4-24.3-1.7-2.8-3.8-5.3-6.2-7.6-2.2-2-5.2-2.8-8.1-2-4.5 1.2-8.8 3.6-12.9 5.9-2.6 1.4-5.1 2.9-7.6 4.5-.2.1-.1.2 0 .4L350 70c1.1 1.4 2.2 3 3.5 4.2q.6.6 1.5.9c.4.2.8.3 1.3.4 1 .2 2.1.5 3.1.7.6.1 1.1.3 1.7.4.2 0 .2.1.1 0-.5-.3-.9-.6-1.4-.9v.1c.2.5.5.9.9 1.3l7.5 11c.4.6.8 1.2 1.2 1.7 0 .1.2.2.2.3 0-.2-.4.4-.5.6-.7 1.1-.9 1.8-.1 2.9.4.5.8 1 1.1 1.6.3.3.6.7.8 1.1 0-.1 0 .1-.1.3l-.3 1.2-.8 3.7-1.2 5.6c-.2.8 3.4 1.9 3.5 1.4l2-9.4c.2-.5.3-.9.3-1.4-.1-.5-.6-1-.9-1.4-.5-.7-1.6-1.7-1.6-2.6.2-.9.6-1.6 1.2-2.2v-.1c-1.9-2.8-3.8-5.6-5.8-8.4l-3.4-5c-.2-.3-.5-.7-.7-1-.7-.7-1.7-1.3-2.7-1.5-2.1-.7-4.3-1.2-6.5-1.6l2.7 1.2-6.6-8v.4c5.3-3.5 10.8-6.5 16.6-9 1.6-.7 3.2-1.2 4.9-1.6.5-.1.9-.1 1.4-.1-.4-.1-.8-.3-1.2-.5.3 0-.2-.2 0 0s.2.1.3.2c2.1 2 4 4.2 5.5 6.6 5 7.1 9 14.7 12.1 22.8 1.2 3.2 2.3 6.7 2.3 10.1 0 .6 0 1.3-.2 1.9-.1.3 0 .1-.3.4-.9.5-1.8.9-2.8 1.2-3.8 1.7-7.7 3.3-11.5 4.8-1.8.7-3.5 1.4-5.3 2-.6.2-1.3.4-1.9.6-.2.1-.5.1-.7.2s-.1.1-.1 0c-.1.1.1 0 .4.1-.5-.1-1.1-.3-.9.3s1.9 1 2.4 1.2" class="st0"/><path d="M371.8 100c2.8-.6 4.9 2.7 4.9 2.7l8.7-3.6c-.6-5.7 4.7-9.1 4.7-9.1-1.4-6.9-15.1-26.1-15.1-26.1-3.8.8-7.1-3.9-7.1-3.9l-9 4.5c.3 7.8-3.2 8.1-3.2 8.1l1.6 2.9 5.4 4.6.9 3.1 3.9 5.2 1.2 5.7z" class="st1"/><path d="M372.5 101.7c1.2-.2 2.2 1.1 2.8 1.9s1.7 1.1 2.6.7l8.7-3.6c.5-.3.8-.9.8-1.5-.2-2.1.5-4.1 1.9-5.6.5-.6 1-1.1 1.6-1.6l.3-.2c.2-.2-.3.2 0 0 .1-.1.2-.1.2-.2.5-.3.8-.9.7-1.5-1-4.4-3.6-8.5-5.8-12.3q-3.75-6.15-7.8-12c-.6-.9-1.2-1.7-1.8-2.6-.5-.7-1.3-1-2.1-.8-2 .3-4-1.8-4.9-3.1-.6-.8-1.7-1.1-2.5-.7l-9.1 4.5c-.5.3-.8.9-.8 1.5.1 1.3 0 2.7-.3 4-.1.3-.2.7-.4 1-.1.2-.5.9-.4.7-.2.2-.3.4-.5.6l-.2.1c-.2.1.4-.1 0 0-.2 0-.5.1.3 0-.9 0-1.6.7-1.6 1.6 0 .3.1.7.3 1 .5 1 1 2 1.6 2.9.7.8 1.6 1.5 2.5 2.2 1 .8 2 1.8 3 2.6.6.4-.6-.1-.3-.6 0 .1.2.6.2.7l.6 2.1c.4.8.9 1.6 1.5 2.3.8 1.1 1.6 2.3 2.5 3.3.7.8-.2-1.1 0-.2.1.6.3 1.2.4 1.8.2 1.2.4 2.4.8 3.5.4 1.2 1 2.3 1.7 3.4l1.8 3.4c.6.8 1.7 1.1 2.6.7.8-.5 1-1.5.5-2.2 0 0 0-.1-.1-.1l-1.5-2.8c-.4-1.1-1-2.1-1.6-3 0 0 .3 1.2.3.6 0-.2-.1-.5-.1-.7l-.5-2.2c-.1-1.2-.4-2.4-.9-3.5-.5-.9-1.3-1.8-1.9-2.6l-1.3-1.7c-.1-.2-.3-.4-.4-.6s-.3-.5-.1-.1 0-.2 0-.3c-.1-.4-.2-.7-.3-1.1-.1-.5-.3-1-.4-1.6-.4-1-1.8-1.8-2.6-2.5-1-1-2.1-1.9-3.2-2.8-.3-.2.3.5.1.1-.1-.3-.3-.6-.5-.9l-1-1.8-1.3 2.6c4.5-.5 5-6.4 4.9-9.8L360 66l9.1-4.5-2.5-.7c2.1 2.9 5.5 5.3 9.2 4.7l-2.1-.8q6.9 9.3 12.3 19.5c.5 1.1 1.1 2.1 1.5 3.2l.6 1.5c.1.2.1.4.2.6 0 .1.1.2.1.3.1.2-.1-.3 0 .1l.8-1.5c-3.6 2.3-5.7 6.3-5.5 10.6l.8-1.5-8.7 3.6 2.5.6c-1.4-2.5-4.2-3.8-7-3.5-.8.2-1.3 1.1-1.1 1.9 0 .1 0 .1.1.2.2 1.1 1.2 1.6 2.2 1.4" class="st0"/><path d="M373 86.6s4.2-.7 3.1-5.4-6.1-2.9-6.9-.5-.4 5.9 3.8 5.9" class="st0"/><path d="M373.8 88.3c1-.2 2-.8 2.6-1.6s.9-1.9.8-2.9c-.1-1.9-.7-3.8-1.9-5.3-.6-.9-1.6-1.6-2.7-1.8-.9-.1-1.8.1-2.6.5-.7.4-1.4 1-1.8 1.7-.4.9-.5 1.8-.5 2.7.1 1.8.7 3.5 1.9 4.9.9 1.2 2.4 1.9 3.9 1.9.6 0 .1-1.2 0-1.5-.2-.4-.4-.9-.7-1.3-.1-.2-.4-.6-.7-.6-.6 0-1.1-.1-1.7-.2l-.4-.2s-.1-.1 0 0l-.1-.1c-.1-.1-.2-.1-.3-.2l-.1-.1c-.2-.1.2.2 0 0l-.1-.1c.2.2 0 0 0 0s-.2-.3.1.2c-.2-.3.2.4.1.1-.1-.2 0-.3.1.2l-.1-.2s.1.5.1.2v-.1c-.1-.2.1.4 0 .1v-.4c0-.1-.1 0 0 .1v-1.6c0-.1 0-.2.1-.3 0-.2.1-.4.2-.6.1-.1.1-.3.2-.4l.1-.2c.1-.1 0 0 0 0l.1-.1c.2-.3.5-.5.8-.7s.6-.4 1-.5l.8.1h.5c.4 0 .7 0 1.1.2l.2.1s.2.1 0 0h.1l.2.1.1.1c.1.1-.2-.2 0 0l.1.1c.1.1-.1 0-.1-.2 0 0 0 .1.1.1.2.2-.2-.4-.1-.1s-.3-.5-.1-.1l-.1-.2c0 .1.1.4 0 .1s0 .2 0 .2c-.1-.1-.1-.3 0-.1s0 .2 0 .2 0 .3.1.4v1.2000000000000002c0 .1-.1.2-.1.3-.1.4-.3.7-.5 1.1l-.1.1c-.1.1.1-.1 0 0s-.1.2-.2.2c-.1.1-.3.2-.4.3-.3.2-.5.3-.8.5l-.9.3c-.2 0-.1.6-.1.7.1.4.2.9.5 1.3.2.4.4.8.8 1.1.1.2.3.3.5.3M377.4 93.8c.8-.1 1.3-.9 1.2-1.7 0-.1 0-.2-.1-.2-.4-1.7-2.1-1-2.4-.2s-.1 2.1 1.3 2.1" class="st0"/><path d="M378.3 95.4c.1 0 .2-.1.3-.1.2-.1.4-.2.5-.3.2-.1.3-.3.5-.5.3-.4.4-.8.4-1.2v-.7c0-.3-.1-.5-.2-.7s-.2-.5-.3-.7-.3-.4-.4-.6-.3-.4-.5-.5c-.1-.1-.3-.2-.4-.3l-.1-.1c-.3-.2-.7-.3-1.1-.4-.5-.1-1 .1-1.4.3-.3.2-.6.5-.8.8 0 .1 0 .1-.1.2-.1.2-.1.4-.1.5 0 .2-.1.3 0 .5 0 .4.1.9.2 1.3s.4.8.6 1.1l.1.1c.6.8 1.5 1.3 2.6 1.3.2 0 .3 0 .5-.1.1-.1.3-.2.3-.3.1-.4.1-.7 0-1.1-.2-.5-.5-.9-.8-1.2l-.4-.3c-.2-.1-.5-.2-.7-.3h-.5l.4.1c-.1 0-.2-.1-.3-.1l.4.2c-.1 0-.1-.1-.2-.1l.4.3c-.1 0-.1-.1-.1-.1l.3.4-.1-.1.3.4c0-.1-.1-.1-.1-.2l.2.4c0-.1-.1-.2-.1-.2l.1.4v-.4.4c0-.2 0-.4.1-.7l-.1.3c0-.1.1-.3.2-.4l-.2.2c.1-.2.3-.3.5-.4l-.3.1c.2-.1.4-.1.6-.2h-.3.3l-.4-.1c.1 0 .2 0 .2.1l-.4-.2.2.1-.4-.3.1.1-.4-.4s.1.1.1.2l-.3-.4c0 .1.1.1.1.2l-.2-.4c0 .1.1.2.1.3l-.1-.4c0 .2.1.4.1.5v-.4c0 .2 0 .3-.1.5l.1-.3c0 .2-.1.3-.2.4l.2-.2c-.1.2-.3.3-.5.4l.3-.1c-.1.1-.3.1-.4.1-.3.1-.5.4-.6.7 0 .2 0 .4.1.6 0 .2.1.4.2.6.2.4.6.8 1 1 .3.3.6.4 1 .4M368.5 72.9c.8-.1 1.3-.9 1.2-1.7 0-.1 0-.2-.1-.2-.4-1.7-2.1-1-2.4-.2s-.2 2.1 1.3 2.1" class="st0"/><path d="M370 74c.1 0 .2-.1.3-.1.7-.2 1.1-.9 1-1.6 0-.5-.2-1-.6-1.4-.5-.6-1.2-1.1-1.9-1.4-.3-.2-.6-.3-.9-.4-.2-.1-.3-.1-.5-.1-.3 0-.7 0-1 .2-.3.1-.5.4-.7.6-.1.3-.2.7-.2 1 .1.5.3 1 .7 1.3q.6.6 1.2.9c.3.2.7.4 1.1.6l.9.3c.3 0 .4 0 .6.1.3-.1.1-.4 0-.5s-.2-.3-.4-.4-.3-.3-.5-.4c-.4-.3-.8-.5-1.3-.7-.3-.1-.6-.2-.9-.2h.1c-.1 0-.3 0-.4-.1l.3.1h.1c-.2-.1.4.2.3.1l.3.2.4.2c.1.1.2.2.4.2l.3.2.2.2.2.2c0-.1-.1-.1-.1-.2l.1.2c-.1-.3-.2-.6-.2-.8v.1c0-.3.1-.5.2-.8.1-.2.3-.4.5-.5l-.1.1.6-.3h-.2.2l-.3-.1h.1c.1 0-.4-.2-.3-.1s.3.2-.3-.2c-.1-.1-.2-.1-.4-.2-.1-.1-.2-.2-.4-.2.1 0-.5-.3-.3-.2s-.3-.3-.2-.2l-.2-.2.1.2-.1-.2c.2.3.2.7.2 1v-.1c0 .5-.3.9-.7 1.2l.1-.1c-.1.1-.3.1-.5.2-.2 0-.1.3 0 .4s.2.3.3.4c.2.1.3.3.5.4.4.3.8.5 1.3.7.3.2.7.3 1 .4M366 93.6c-.5 1.3-1.2 2.5-2.1 3.5s-2.4 1.3-3.7.8c-1.2-.3-2.3-.9-3.1-1.7-.4-.5-.6-1-.8-1.6 0-.5-.4-.6-1.1-.3l.2.3c.2.4.3.7.3 1.2q-.15 2.25-1.2 4.2c-.6 1.2-1.4 2.2-2.8 2.2-3 0-6.1-1.6-8.5-3.3-.8-.5-1.8-.6-2.6-.2-.7.4-.8 1-.1 1.4 3.4 2.5 7.4 3.9 11.5 4.1 1.9.1 3.8-.6 5.1-1.9 1.1-1.5 1.9-3.2 2.2-5 .6-1.8-.2-3.7-1.9-4.5-1.3-.7-4-.8-4.8.8-.6 1.4.8 3.1 1.8 4 1.5 1.1 3.1 1.9 4.9 2.3 2.2.7 4.6.5 6.6-.6 1.7-1.2 2.9-2.9 3.6-4.8.7-1.5-2.9-2.1-3.5-.9M336.8 96.8l-3.7-1.8c-.3-.2-.7-.3-1.1-.3-.5-.1-1-.1-1.4-.1h-.4c-.2 0-.3.1-.5.2-.1.2 0 .3.2.4l3.7 1.8c.4.2.7.3 1.1.3.5.1 1 .1 1.4.1h.4c.2 0 .3-.1.5-.2.1-.2-.1-.3-.2-.4M333.1 88.3c.4-.8 2.2-1.1 3-1.3 1.5-.4 2.9-.9 4.4-1.3 2.6-.7 5.7-1.4 8.3-.5.8.4 1.8.1 2.2-.7v-.1c.3-.9-.2-1.9-1.1-2.3-3.7-1.3-7.4-.7-11 .3-1.8.5-3.6 1-5.4 1.6-1.6.5-3 1.2-3.9 2.8-.4.9.4 2 1.1 2.3 1 .5 2 .1 2.4-.8q.15.15 0 0M343.3 74.9c1-.6 2.1-.8 3.2-.6 1.3 0 2.6.2 3.9.4 1 .2 1.9.6 2.7 1.3.4.4 1.2 1.7.6 2l.5-.2 1.5 1.3.1.6c.1-1.1 1.9-1.3 2.8-1.2 1.2.2 2.3.5 3.3 1.1.6.3 1.4.4 1.4-.5-.2-.9-.8-1.6-1.6-2-1.5-.8-3.1-1.3-4.7-1.5-1.3-.1-3 .2-3.8 1.3-1 1.5.9 3.5 2.3 3.8 1.7.4 1.6-1.4 1.3-2.6-.9-3.1-3.9-5.3-6.9-6.2-1.6-.4-3.2-.6-4.9-.7-1.5-.1-3-.1-4.2.9s1.5 3.6 2.5 2.8M250 73.2c-5.1 3.2-9.6 23.9-7.9 26.3s14 4.8 14 4.8c0-6.3 5.1-17.6 4.7-18.4l-3.9-2.3s.5-1.8-.5-2.4c-1-.5-2.1-.9-3.2-1.2l-2.5-4.1z" class="st0"/><path d="M248.9 73.4c-2.3 1.5-3.5 4.4-4.4 6.8-1.4 3.4-2.4 7-3.1 10.6-.5 2.5-1.3 5.6-.8 8.2.4 2.2 4.1 3 5.9 3.5 2.8.9 5.6 1.6 8.5 2.1.3.1 2.3-.3 2.3-.8.2-3.5 1-7 2.2-10.4.5-1.6 1-3.1 1.5-4.7.4-.9.7-1.9.9-2.9 0-.7-.7-.8-1.3-1.2s-2.4-1.1-2.6-1.6.2-1.1 0-1.6c-.2-.8-.9-1-1.6-1.3-.7-.2-1.4-.5-2.1-.8-.2-.2-.4-.4-.5-.7-.7-1.1-1.4-2.2-2-3.3-.3-.9-.6-1.9-.8-2.8-.1-.3-2.5.4-2.4.7.2.9.4 1.8.7 2.7.5 1 1.2 2 1.8 3 .2.4.4.7.6 1 .4.2.9.4 1.4.5.8.3 2 .6 2.3 1.4.2.6.2 1.2 0 1.7h.1l1.8 1.1c.4.3 1.7.7 2 1.2.1.2-.1.8-.2 1.1-.2.8-.5 1.7-.8 2.5-1.6 4.8-3.6 9.8-3.7 14.8l2.3-.8c-2.3-.4-4.5-1-6.8-1.6-1.6-.4-3.2-1-4.8-1.6-.9-.4-2.1-.9-2.5-1.8-.3-.9-.3-1.8-.2-2.7.1-1.4.3-2.9.5-4.3q.9-5.4 2.7-10.5c1-2.8 2.3-6.8 4.9-8.4.4-.3-.4-.2-.5-.1-.3.5-.8.7-1.3 1" class="st0"/><path d="M259.4 85.1 255.3 99s-1.6-1.3-4.6 2.1l-5.5-1.7s.5-3.2-1.4-4.4c0 0 1.9-13.4 4-16.8 0 0 1.1 1 3.1-1.6l3.9 2.5 3.3.7z" class="st1"/><path d="m258.3 84.7-4.1 13.9h1.8c-2.3-1.7-4.7.1-6.3 1.9l1.1-.1-5.5-1.7 1.1 1.2c.4-2-.3-4-1.9-5.3l.5.9c.3-2.3.7-4.7 1.2-7 .6-3.2 1.1-6.8 2.8-9.7l-1.7-.2c1.8 1.5 3.6.1 4.8-1.4h-1.4c1.3.8 2.5 1.7 3.8 2.4 1.3.5 2.7.9 4.1 1l-1.3-1.1 1.2 5.3c.2.9 2.5 1.7 2.2.5l-1.2-5.3c-.2-.6-.7-1-1.3-1.1l-2-.4c-.4-.1-.7-.2-1.1-.2s.7.5.1 0c-1.1-.9-2.5-1.6-3.7-2.3-.4-.2-1.1-.4-1.4 0s-.6.7-.9 1c-.1.1-.7.3-.8.5s-.1-.1-.1.1.5.3.4.2c-.3-.3-1.4-.8-1.7-.2-1.7 2.8-2.2 6.6-2.8 9.8-.5 2.4-.9 4.8-1.2 7.3 0 .4.2.7.5.9 1 .7 1.1 2.4.9 3.6-.1.5.6 1.1 1.1 1.2l5.5 1.7c.4.1.8.2 1.1-.1.7-.9 1.7-1.6 2.8-2h.5s-.3-.2-.4-.2c.4.3 1.5.8 1.8 0l4.1-13.9c-.1-1.2-2.3-2.3-2.6-1.2" class="st0"/><path d="M253.7 86.4c-1.1-.7-2.5-.4-3.2.6-.1.1-.1.2-.2.4-1.4 2.4 1.4 3.6 2.7 2.9s2.4-2.3.7-3.9" class="st0"/><path d="M254.8 85.7c-.5-.4-1.2-.5-1.9-.4-1 .2-2 .7-2.8 1.4-.6.5-1.1 1.3-1.4 2.1-.1.5-.1 1 .2 1.4s.7.7 1.1.8c1.4.6 2.9-.2 4-1.1.7-.5 1.2-1.2 1.4-2 .3-.8 0-1.6-.6-2.2-.1-.1-.3-.1-.5 0-.3.1-.6.2-.8.4-.3.1-.5.3-.7.6-.1.1-.3.3-.2.4.5.4.8.9.8 1.5v-.1c0 .3 0 .5-.1.7 0 .1 0 .1-.1.2v.1c0 .1-.1.2-.2.3l-.1.1-.1.2c-.1.1.2-.2.1 0l-.2.1c-.1.1.3-.2 0 0s.2-.1.1-.1l-.1.1c.2-.1.3-.2.2-.1l.2-.1c-.2.1.2-.1.1 0h-.1c-.1 0 .2 0 0 0h-.4c-.1 0 .1 0 0 0h-.1c-.4-.1-.7-.2-1-.4l.1.1c-.4-.3-.7-.7-.8-1.3v.1-.6c0-.1 0-.2.1-.3 0-.1 0-.1.1-.2v-.1c0 .1 0 0 0 0s.1-.2.2-.3c0-.1.1-.1.1-.2l.1-.1c.1-.1-.1.1 0 0l.1-.2c.1-.1-.2.1 0 0h.1l-.1.1-.1.1c.1-.1-.3.2-.1.1s-.3.1-.1 0-.2.1-.1 0h.1-.1.5s-.2 0 0 0h.30000000000000004l.4.1c.1.1.3.1.4.2l-.1-.1c.1.1.3.1.4 0 .3-.1.6-.2.8-.4.3-.1.5-.3.7-.5 0 0 .3-.3.2-.4M254.7 81.7c-.4-.3-.9-.2-1.1.2l-.1.1c-.5.8.5 1.3.9 1s.9-.8.3-1.3" class="st0"/><path d="M255.4 81.4c-.2-.2-.5-.3-.7-.4s-.5-.2-.8-.2h-.5c-.3 0-.6.1-.9.4-.1.1-.2.3-.3.4s-.1.2-.1.3v.4c0 .1.1.3.1.4.1.2.3.4.5.5.2.2.5.3.7.4.3.1.5.2.8.2h.5c.3 0 .6-.1.8-.3.1-.1.2-.2.3-.4.1-.1.1-.2.1-.3v-.3c0-.1-.1-.2-.1-.3-.1-.2-.2-.4-.4-.6l-.3-.3c-.1-.1-.3-.2-.4-.2-.2-.1-.3-.1-.5-.1h-.4c-.2 0-.4.1-.5.3 0 .2 0 .4.2.5l.1.2-.1-.2c0 .1.1.1.1.2l-.1-.2v.3-.2c0 .1-.1.3-.2.4l.1-.1c-.1.1-.2.3-.4.3l.2-.1h-.1.30000000000000004-.1l.3.1h-.1l.3.1h-.1l.3.2-.1-.1.3.2-.1-.1.2.2-.1-.1.1.2-.1-.1.1.2V83c0-.2.1-.4.2-.5l-.1.1.3-.3-.2.1c.1 0 .1-.1.2-.1h-.30000000000000004.1l-.3-.1h.1l-.3-.1h.1l-.1-.1h.1l-.3-.2c.3.2.6.3.9.4.1 0 .3.1.4.1h.4l.2-.1c.1-.1.1-.2.1-.3l-.1-.2c-.1-.1-.1-.2-.3-.3M250.1 93.9c-.4-.2-.9-.2-1.1.2l-.1.1c-.5.8.5 1.3.9 1s1-.8.3-1.3" class="st0"/><path d="M251 92.9c-.3-.2-.6-.3-.9-.4h-.5l-.4.1c-.1 0-.2.1-.3.1s-.2.1-.3.1c-.1.1-.3.2-.4.3l-.1.2c-.1.1-.2.3-.3.4s-.1.3-.2.4v.2c-.1.3-.1.6 0 .8 0 .2.1.3.2.5l.3.3.1.1c.1.1.3.2.4.3.1 0 .3.1.4.1h.7c.4-.1.7-.2 1-.4.1-.1.3-.2.4-.3s.2-.2.3-.4c0-.1.1-.1.1-.2.1-.1.1-.3.2-.4v-.5c0-.2 0-.3-.1-.5s-.1-.3-.2-.4c-.2-.1-.3-.3-.4-.4-.2-.1-.3-.2-.5-.2h-.4c-.2 0-.3.1-.5.2s-.3.2-.4.3c-.2.2-.3.5-.3.8v.3c.1.2.2.4.3.5l.1.1-.2-.2.2.2-.1-.3c0 .1.1.1.1.2v-.3.2-.3.2l.1-.3c0 .1-.1.1-.1.2l.2-.3-.2.2.2-.2-.2.2.3-.2h-.1l.3-.1h-.2.3-.2l.3.1c-.1 0-.2-.1-.2-.1l.2.2c-.1 0-.1-.1-.2-.1l.2.2s-.1-.1-.1-.2l.1.3s0-.1-.1-.2l.1.3v-.2.3-.2l-.1.3c0-.1.1-.2.1-.3l-.2.3.2-.2-.3.2c.1 0 .1-.1.2-.1l-.3.2c.1 0 .1-.1.2-.1l-.3.1h.2-.3.2l-.3-.1c.1 0 .2 0 .2.1l-.3-.2c.1.1.3.2.4.2h.4c.2 0 .3-.1.5-.2s.3-.2.4-.3c.2-.2.3-.5.3-.8.1-.2 0-.5-.2-.7M262.8 84.1c3.6 0 6.7-3 8.6-5.9 1.2-1.7 2-3.7 2.1-5.7 0-1.8-1.4-2.9-3-2.2-.9.4-3.3 1.9-1.8 3 1.2.9 3.1-.5 4-1.2 1.6-1.3 2.7-3.1 3.2-5.1.3-2-.3-4-1.5-5.6-1.5-2-3.7-3.3-5.8-4.7s-4.1-3.3-3.5-5.9c0-.1-2 .5-2.2 1.1-.9 3.8 3 5.7 5.6 7.4 2.8 1.9 5.8 4.8 5.2 8.5-.2 1-.6 1.9-1.1 2.7-.3.4-1 1.6-1.5 1.7s-.6-.4-.8-.8c.2-.6 0-.7-.6-.1.2 0 .4.1.6.2.8.6 1.2 1.5 1 2.4-.2 1.8-.9 3.4-1.9 4.9-1 1.7-2.5 3.8-4.6 3.8-.5.1-1 .3-1.4.6-.1.3-.9.9-.6.9M253.4 75c-1.3-3.1-1.7-6.4-1.2-9.7.3-1.6.8-3.1 1.4-4.5.2-.4.4-.8.7-1.2.1-.1.2-.3.4-.4.3-.2.1-.2-.3-.1-.1.1-.2.9-.3 1.1l-.6.6c-1.6.9-1.9-1.3-1.8-2.4.2-1.5.7-3.1 1.3-4.5 1.3-3.2 3.2-6.1 5.6-8.5.6-.6-1.7-1.5-2.3-.9-2.7 2.7-4.7 6-6 9.6-1 2.8-2.1 6.7 1.5 8 1.2.5 2.6.4 3.8-.2 1.1-.5 1.6-1.9 1.1-3-.9-1.1-2.4-1.4-3.6-.8-1.4.8-2.1 2.8-2.6 4.2-1.3 4.1-1.1 8.5.6 12.4.2.7 2.6 1 2.3.3M270.3 43.4c2-1.1 4.3-1.5 6.6-1.2.5.1.7-.3.5-.7-.3-.5-.9-.9-1.5-1-2.5-.4-5.1.1-7.4 1.3-.8.4 1.1 2 1.8 1.6M433.7 301.1c4.5-7.9-4.3-38.6-8.3-40.6s-22.1 3.6-22.1 3.6c4.5 8.5 5.8 27 7 27.8l6.8.2s.6 2.8 2.5 2.8q2.55-.15 5.1-.6l6.2 3.6z" class="st0"/><path d="M435.5 301.5c2.1-3.8 1.5-8.9 1-13-.7-5.7-2-11.3-3.7-16.8-.7-2.3-1.5-4.6-2.5-6.8-.6-1.5-1.4-3-2.5-4.2-1.3-1.4-3.3-1.6-5.1-1.6q-3.75 0-7.5.9c-4.4.9-8.7 2-13 3.3-.3.1-.8.4-.6.8 2.9 5.6 4 12.2 5 18.4.4 2.5.8 5 1.3 7.5.4 1.9.9 2.8 3.1 2.9l6.5.2-2.2-.9c1.1 4.8 6.5 3.8 10.2 3.1l-2.2-.4 5.4 3.2.7.4c-.3-.2-.3-.3-.1 0 .2.2.3.4.5.6l2.2 2.3c.7.6 1.6.8 2.5.6.6-.1 1.4-.5.8-1.2-.9-1.2-2-2.3-3.2-3.3-1.3-1-2.9-1.7-4.3-2.5-.6-.4-1.2-.7-1.8-1.1-.9-.5-2-.6-3-.3l-2.1.3c-.3 0-.7 0-1 .1h-.5c.6.2.7.3.5.1 0 0-.4-.4-.4-.5-.2-.2-.3-.5-.4-.8-.1-.2-.2-.5-.2-.7-.2-.8-1.7-.9-2.2-.9l-6.8-.2 2.1.7c-.2-.1 0 .2 0 0s-.1-.2-.1-.3c-.1-.2-.2-.5-.2-.8-.2-.8-.4-1.7-.5-2.5-.4-2.5-.8-5-1.3-7.4-1-5.6-2-11.5-4.7-16.6l-.6.8c3.2-1 6.4-1.9 9.7-2.6q3.6-.9 7.2-1.2c.5 0 .9-.1 1.4-.1.4 0 .7 0 1.1.1.4 0-.2-.1.2 0 0 0 0-.1.1 0-.1-.2-.2-.2 0 .1 2.2 2.6 3.4 6.5 4.4 9.8 1.7 5.2 3 10.5 3.8 15.8q.6 4.05.6 8.1c.1 2-.3 4-1.2 5.8-.7 1.2 3 1.9 3.6.8" class="st0"/><path d="m412.6 292-4.5-21.4s3 .5 4.5-6.1l8.6-1.7s1.7 4.7 5 4.9c0 0 7.1 19.1 6.7 25.2 0 0-2.2-.5-3 4.3l-7-.5-4.9 1.4z" class="st1"/><path d="m414.2 291-4-18.7-.6-2.7-3.1 2c1.2.2 2.7-.8 3.7-1.5 2.3-1.5 3.3-3.8 4-6.5l-2.9 1.9 8.6-1.7h-.3c.7 1.9 2 3.9 3.9 4.6.4.1.7.2 1.1.3.1.1.1.3.1.4.3.6.5 1.2.7 1.9 1.8 5 3.5 10.1 4.7 15.2.8 2.5 1.1 5 1.2 7.6l3.1-2c-1-.2-2.3.7-3 1.2-1.7 1.1-2.9 3-3.1 5l3.1-1.9c-2.2-.2-4.5-.5-6.7-.5-.7.1-1.4.2-2.1.5l-3.3 1h.3zc-.4-.5-3.4 1.7-3.2 2l5.4 6.2q.15.15.3 0l3.1-.9c.5-.2 1.1-.3 1.6-.5h.5c2.2.3 4.4.3 6.6.5.7 0 3-1.2 3.1-1.9s.3-1.5.5-2.1c.2-.5.5-.8.7-1.3-.7 1.8-2.5.7-1.3 1 .6.1 3.1-1.3 3.1-2q0-3.3-.9-6.6c-.6-2.8-1.5-5.6-2.3-8.3-1.1-3.5-2.2-6.9-3.5-10.3h-.1c-2.5-.3-4.1-2.7-4.9-4.8q-.15-.15-.3 0l-8.6 1.7c-.7.1-2.7 1.1-2.9 1.8-.2 1.1-.6 2.1-1 3.1-.2.3-.3.7-.5 1-.1.2-.6.6-.6.8 0-.1 1.3-.6 1.3-.8l-.2.1h-.3c-.5-.1-3.2 1.4-3.1 2l4 18.7.5 2.7c-.2 0 3.2-1.3 3-2.1" class="st0"/><path d="M419.3 286.2s3.6.4 3.8-3.8-4.5-3.8-5.6-2-1.6 4.9 1.8 5.8" class="st0"/><path d="M418.6 287.6c.4 0 .8 0 1.2-.1.9-.1 1.7-.5 2.5-1 1.1-.7 1.9-1.8 2.3-3.1q.6-1.8 0-3.6c-.7-1.9-2.8-2.4-4.6-2.1-1.1.2-2.1.7-3 1.4-.8.7-1.4 1.7-1.7 2.8-.4 1-.4 2.2 0 3.2.6 1.2 1.7 2 3 2.3.9.1 1.8-.3 2.4-1 .3-.3.4-.6.4-1-.1-.3-.3-.6-.6-.6-.2-.1-.5-.1-.7-.2l.3.1c-.4-.2-.8-.4-1.1-.8l.2.2c-.3-.3-.5-.6-.6-1l.1.3c-.1-.4-.2-.8-.2-1.3v.3c0-.3.1-.5.1-.8 0-.1.1-.2.1-.4v-.2c.1-.2-.1.4 0 .1.1-.2.2-.5.3-.7l.1-.1c.2-.3-.1.2-.1.2l.2-.2-.2.2.1-.1.1-.1c.2-.1-.5.3-.2.2l.2-.1c.2-.1-.5.2-.3.1l.2-.1.3-.1c.1 0-.5.1-.3.1h.5-.2.7-.2.1c.2 0 .5.1.7.2l-.3-.1c.3.1.6.3.8.5l-.2-.2c.3.3.5.6.6 1l-.1-.3c.2.5.2 1.1.2 1.6v-.3c0 .3-.1.7-.1 1 0 .1-.1.3-.1.4s.1-.2.1-.2v.1c0 .1-.1.1-.1.2s-.2.3-.2.3.3-.4.1-.2l-.1.1-.1.1.2-.2-.3.2s.5-.3.3-.2l-.1.1-.1.1c-.1 0 .5-.2.3-.1l-.3.1h-.1c-.1 0 .5-.2.2-.1l-.5.1c-.4.1.4 0 .2 0h-1c-.5 0-.9.2-1.3.4s-.8.6-1 1c-.2.3-.2.7 0 1 .2.5.6.6.9.6M421.4 293.2c.7.1 1.3-.4 1.3-1.1v-.2c.1-1.5-1.6-1.3-2-.7s-.5 1.7.7 2" class="st0"/><path d="M420.1 294.1h.6c.2 0 .4-.1.6-.1.7-.2 1.3-.6 2-1 .5-.3.9-.7 1.1-1.2.1-.2.1-.4.1-.6s0-.4-.1-.6q-.15-.45-.6-.6c-.4-.1-.8-.2-1.2-.1s-.8.2-1.1.3c-.5.2-1.1.5-1.5.8-.3.2-.5.4-.7.7l-.3.6c-.1.4-.1.7 0 1.1.2.4.6.7 1 .8.3 0 .6 0 .9-.1.5-.1.9-.3 1.3-.6l.4-.2c.2-.1.4-.3.5-.5.1-.1.2-.4 0-.4s-.4-.1-.5-.3l.1.1c-.3-.2-.4-.5-.4-.8v.2q0-.45.3-.9l-.1.2c0-.1.1-.1.1-.2l-.2.2.1-.1-.3.2c.1-.1.3-.2-.3.2l-.3.2c.2-.1-.6.2-.4.2l-.4.1h.1l-.4.1h.2-.3.3-.2c.2 0 .3.1.5.2l-.1-.1c.2.2.4.5.4.9v-.1c0 .3-.1.6-.2.9l.1-.2c0 .1-.1.1-.2.2l.2-.2-.1.1.3-.2h-.1c-.2.1.4-.2.3-.2l.3-.2.4-.2h.2l.2-.1h-.1l.4-.1h-.2.3-.2c-.2 0-.3 0-.5.1-.2 0-.4.1-.6.2-.5.2-.9.4-1.3.7l-.3.2c-.1.1-.3.2-.3.4v.1c-.1-.1 0-.1.2-.1M418.7 273.7c.7.1 1.3-.5 1.3-1.1v-.2c.1-1.5-1.6-1.3-2-.7s-.5 1.7.7 2" class="st0"/><path d="M417.4 274c.7.1 1.4 0 2.1 0 .5 0 .9-.1 1.3-.2.2 0 .3-.1.5-.2.3-.2.4-.4.5-.7.1-.4.1-.7 0-1.1q-.15-.45-.6-.6c-.3-.1-.5-.2-.8-.2-.9-.1-1.7 0-2.5.1-.3 0-.7.1-1 .2-.2.1-.3.1-.5.2-.2.2-.4.4-.5.7s-.1.7 0 1c.1.2.2.3.4.5s.5.3.8.3h1.1c.5 0 1 0 1.4-.1l.4-.1c.2 0 .3-.1.5-.1l.1-.1c-.1-.1-.2-.1-.3-.1l.2.1-.6-.3.1.1c-.4-.5-.4-1.2 0-1.8l-.1.1c.1-.1.3-.2.4-.3l-.2.1.2-.1-.2.1h-.7c-.4 0-.7.1-1.1.1h-.5c.2 0-.4-.1-.2 0h.1-.2c.1 0 .3.1.4.2l-.1-.1c.2.2.3.5.3.8 0 .4-.1.7-.3 1l.1-.1c-.1.1-.3.2-.4.3l.2-.1h-.2c.5-.1.3-.1.2 0h2.3-1.3c-.4 0-.9.1-1.3.2-.1 0-.6.1-.5.2l.1.1c0-.1.2-.1.4-.1M434.7 351c5.3-3 9.1-8.2 10.3-14.2s-.2-13.4-4.8-17.7c-2.2-2.1-5.8-3.6-8.7-2.2-2.2 1.1-3.2 3.8-2.2 6.1 1.1 2.4 4.6 4.5 6.5 1.7 1.4-2.2 2.2-4.6 2.5-7.2.6-6.2-1.9-12.2-6.6-16.3-.4-.4-1.6-1-2-.4s.5 1.5.9 1.9c2.8 2.7 4.5 6.3 4.7 10.2.1 1.9-.1 3.9-.6 5.7-.3.9-.6 1.9-1.1 2.7-.2.4-.4.8-.7 1.2-.2.2-.5.5-.6.7l-.4.1c.5.5.7.5.5.3 0-.2-.2-.9-.2-1.1 0-.5.2-1 .4-1.4.5-.9 1.3-1.6 2.4-1.9 2.4-.6 4.1.8 5.2 2.8 2.4 4.5 2.9 9.7 1.5 14.6-1.5 4.9-4.8 9.1-9.3 11.7-1.5.8 1.2 3.3 2.3 2.7M426.9 340.1c.5-4.1-1.1-7.9-3.5-11.1-2.6-3.5-6.1-6.2-9.1-9.3s-5.5-7.3-4.3-11.7c.3-1 .9-1.8 1.7-2.4.1-.1.3 0 .4-.1l-.4-.1.1.2c-.1.4.2.8-.1 1.2-.1.1-.2.2-.2.3l-.2.1.6-.1s-1-.8-1.1-.9c-.8-.7-1.6-1.5-2.3-2.4-1.6-1.9-2.6-4.2-3-6.6-.2-2 .7-5 3.1-5.1.6 0 1.4-.4.9-1.1-.6-.6-1.5-1-2.4-.9-2.4.1-4.5 1.8-5.1 4.1-.7 2.7.5 5.6 1.9 7.9 1.4 2.4 3.4 4.5 5.8 6 1.8 1 5.4 1.6 5.8-1.3.4-2.6-2.9-3.7-4.9-3.6-2.7.2-4.2 2.5-4.5 5-.6 6 4 10.7 8.1 14.5 4.5 4.2 9.9 9.5 9 16.3-.2 1.7 3.5 2.3 3.7 1.1M425.3 346.2q-.3 1.05-.9 2.1c-.2.3-.4.7-.6 1s-.2.3-.3.5.1-.1 0 0l-.2.2c-.9 1.2-2 2.2-3.2 3.1-.3.2-.3.7-.3 1q.15.75.6 1.2c.5.7 1.4.9 2.2.5 2.6-1.8 4.6-4.4 5.6-7.4.2-.9-.2-1.8-.9-2.3-.4-.4-1.6-.8-2 .1" class="st0"/></g></svg>