<?xml version="1.0" encoding="UTF-8"?>
<svg version="1.1" xmlns="http://www.w3.org/2000/svg" width="804" height="804">
<path d="M0 0 C265.32 0 530.64 0 804 0 C804 265.32 804 530.64 804 804 C538.68 804 273.36 804 0 804 C0 538.68 0 273.36 0 0 Z " fill="#FEFEFE" transform="translate(0,0)"/>
<path d="M0 0 C7.58982543 4.90684366 12.83498797 10.41026439 15.06640625 19.3359375 C16.12103207 27.37942698 14.01874681 34.96588885 9.48828125 41.671875 C5.86551296 46.06162577 2.20862412 48.91607027 -2.93359375 51.3359375 C-3.59359375 51.3359375 -4.25359375 51.3359375 -4.93359375 51.3359375 C-4.93359375 56.2859375 -4.93359375 61.2359375 -4.93359375 66.3359375 C-2.62359375 66.4596875 -0.31359375 66.5834375 2.06640625 66.7109375 C28.95694428 68.36396557 56.38559687 73.25416729 81.06640625 84.3359375 C82.58292476 84.9918309 84.09988948 85.64669312 85.6171875 86.30078125 C107.66415897 95.89767287 127.75536068 107.68128304 146.06640625 123.3359375 C147.1986279 124.2832587 148.33147517 125.22983252 149.46484375 126.17578125 C160.77817163 135.67274207 170.88347114 145.72122513 180.06640625 157.3359375 C180.72125 158.12355469 181.37609375 158.91117188 182.05078125 159.72265625 C193.8117496 173.95342795 203.24165285 189.9923783 211.12890625 206.6484375 C211.42821045 207.27685547 211.72751465 207.90527344 212.03588867 208.55273438 C213.32252558 211.34705864 214.06640625 213.21904021 214.06640625 216.3359375 C220.33640625 216.3359375 226.60640625 216.3359375 233.06640625 216.3359375 C233.04022217 214.30219971 233.01403809 212.26846191 232.98706055 210.1730957 C232.90414953 203.44776381 232.84895811 196.72240912 232.80734539 189.99670124 C232.78126996 185.91948183 232.74591088 181.84278677 232.68920898 177.76586914 C232.63481372 173.83009387 232.60497025 169.89482238 232.59202003 165.95870018 C232.58279344 164.4583563 232.56477535 162.95803948 232.53775597 161.45791054 C232.50136173 159.35325554 232.49646464 157.25067185 232.4987793 155.14575195 C232.48212471 153.3503875 232.48212471 153.3503875 232.46513367 151.51875305 C233.24424816 147.39453754 234.82458975 145.91462931 238.06640625 143.3359375 C241.8293313 142.63038905 243.43562673 142.95824573 246.71842957 144.92388916 C249.88858338 148.18055022 249.6727887 149.9955738 249.6340332 154.49121094 C249.63476334 155.20380569 249.63549347 155.91640045 249.63624573 156.65058899 C249.6327697 158.99961193 249.59391289 161.34663725 249.5546875 163.6953125 C249.5453593 165.32626258 249.53824322 166.95722669 249.5332489 168.5881958 C249.51417927 172.87606649 249.46507971 177.16308718 249.409729 181.45062256 C249.3585352 185.82764182 249.33573464 190.20479875 249.31054688 194.58203125 C249.25696009 203.16705627 249.1716488 211.75139108 249.06640625 220.3359375 C250.46753662 220.78271851 250.46753662 220.78271851 251.89697266 221.23852539 C262.78287744 225.00775525 270.1518142 233.97331816 275.41015625 243.86328125 C278.69403495 250.91189231 279.22037941 257.19991232 279.2434082 264.89282227 C279.253265 266.32803978 279.253265 266.32803978 279.26332092 267.79225159 C279.2830048 270.95394986 279.29470734 274.11560066 279.3046875 277.27734375 C279.30876303 278.36103682 279.31283855 279.44472988 279.31703758 280.56126213 C279.33788017 286.30036095 279.35218818 292.039436 279.36157227 297.77856445 C279.37261609 303.68397343 279.40699816 309.5890035 279.44674397 315.49427891 C279.47298756 320.05416019 279.48127111 324.61395236 279.48485374 329.17390251 C279.48970184 331.34943124 279.50126462 333.52495646 279.51989174 335.70041084 C279.65941226 353.07891986 278.30347943 367.1855195 265.96484375 380.625 C256.4398527 389.61147565 245.63701946 393.73346848 232.62890625 393.4609375 C231.80197266 393.45191406 230.97503906 393.44289063 230.12304688 393.43359375 C228.10403917 393.41025262 226.08518269 393.37439038 224.06640625 393.3359375 C223.95981689 394.24085938 223.95981689 394.24085938 223.85107422 395.1640625 C222.17734725 407.93376669 214.61614795 420.01352759 206.06640625 429.3359375 C205.44121094 430.04105469 204.81601562 430.74617188 204.171875 431.47265625 C192.90481022 443.51992511 174.75285934 452.74304881 158.09311438 453.46473867 C156.51309 453.46742152 156.51309 453.46742152 154.90114594 453.47015858 C153.67864498 453.47461642 152.45614402 453.47907426 151.19659758 453.48366719 C149.84830951 453.48357791 148.50002144 453.48338809 147.1517334 453.48310852 C145.71285163 453.48641017 144.27397079 453.49013637 142.83509111 453.49425 C138.88512355 453.50424389 134.93517118 453.50798258 130.98519278 453.51063931 C126.72322542 453.51455012 122.46127001 453.52412789 118.1993103 453.53285217 C107.90873866 453.55259447 97.61816606 453.56267987 87.32758021 453.57157996 C82.47791273 453.57596645 77.62824634 453.58133232 72.77857971 453.58656883 C56.6510516 453.60357873 40.52352416 453.61807212 24.39598846 453.62531757 C20.21288553 453.62722737 16.0297826 453.62914772 11.84667969 453.63110352 C10.80702987 453.63158726 9.76738006 453.632071 8.6962257 453.6325694 C-8.1392704 453.64086683 -24.97469539 453.66619998 -41.81016046 453.69868419 C-59.10638924 453.73178458 -76.40258191 453.74976902 -93.69884253 453.75296181 C-103.40533708 453.75512413 -113.11172791 453.76383199 -122.81819153 453.78942299 C-131.08585573 453.81117069 -139.35339101 453.81916041 -147.62108058 453.80945621 C-151.83551204 453.80492331 -156.04967772 453.80673854 -160.26407242 453.82621765 C-164.13086675 453.84393492 -167.99720311 453.84278307 -171.86400288 453.82732036 C-173.90730208 453.82384743 -175.95060656 453.83990631 -177.99383783 453.85692483 C-195.73698925 453.73447299 -212.6987622 447.23793266 -225.93359375 435.3359375 C-226.82820313 434.54574219 -227.7228125 433.75554687 -228.64453125 432.94140625 C-235.89855654 426.15442095 -240.51135643 419.14912272 -244.93359375 410.3359375 C-245.59875 409.02689453 -245.59875 409.02689453 -246.27734375 407.69140625 C-248.41425996 403.21151405 -249.31811614 399.30158692 -249.93359375 394.3359375 C-250.86558594 394.38234375 -251.79757813 394.42875 -252.7578125 394.4765625 C-267.88092942 394.9047195 -280.86180392 391.11413736 -292.18359375 380.6484375 C-301.51614584 370.7502762 -305.40432141 358.35747976 -305.33764648 344.99609375 C-305.34794136 343.52570145 -305.34794136 343.52570145 -305.35844421 342.02560425 C-305.37660142 338.81639729 -305.37289102 335.60768431 -305.3671875 332.3984375 C-305.3717541 330.14981937 -305.37706109 327.90120263 -305.3830719 325.65258789 C-305.39198088 320.95225331 -305.38960444 316.25208886 -305.37963867 311.55175781 C-305.36814287 305.54647544 -305.38838172 299.54178056 -305.41755581 293.53657532 C-305.43595227 288.8969758 -305.43561859 284.25751626 -305.42991829 279.6178894 C-305.42976555 277.40444107 -305.43577073 275.19098297 -305.44820976 272.97756958 C-305.46318564 269.8766043 -305.45239439 266.77671425 -305.43530273 263.67578125 C-305.4449707 262.77366913 -305.45463867 261.87155701 -305.46459961 260.94210815 C-305.33309524 249.47489989 -299.7361312 238.62399339 -292.01953125 230.26171875 C-287.7257614 226.31863528 -281.03250008 220.3359375 -274.93359375 220.3359375 C-274.9424762 219.43027039 -274.95135864 218.52460327 -274.96051025 217.5914917 C-275.04065049 209.05742625 -275.10155527 200.52348713 -275.14084244 191.98913193 C-275.16171946 187.60147808 -275.19003885 183.21413509 -275.23535156 178.82666016 C-275.27880576 174.59265334 -275.30272999 170.35894556 -275.31310272 166.12473297 C-275.32049492 164.50916079 -275.33493025 162.89360501 -275.35651398 161.2781601 C-275.38554357 159.01548367 -275.38955013 156.75404355 -275.38769531 154.49121094 C-275.39657776 153.20325623 -275.40546021 151.91530151 -275.41461182 150.58831787 C-274.93359375 147.3359375 -274.93359375 147.3359375 -273.12005615 144.92388916 C-269.88632458 142.57534229 -267.82992623 142.72072711 -263.93359375 143.3359375 C-260.66238637 145.90396542 -259.11380967 147.38197079 -258.33232117 151.51875305 C-258.34342422 152.71566269 -258.35452728 153.91257233 -258.3659668 155.14575195 C-258.36523666 155.80972488 -258.36450653 156.47369781 -258.36375427 157.15779114 C-258.36722089 159.33911602 -258.40603062 161.51826991 -258.4453125 163.69921875 C-258.4546441 165.21663751 -258.46175858 166.73407138 -258.4667511 168.25151062 C-258.48579409 172.23525975 -258.53486992 176.21808976 -258.590271 180.20147705 C-258.64152277 184.27025927 -258.66427769 188.33919078 -258.68945312 192.40820312 C-258.74299308 200.3845823 -258.83090521 208.36003949 -258.93359375 216.3359375 C-252.66359375 216.3359375 -246.39359375 216.3359375 -239.93359375 216.3359375 C-239.60359375 214.6859375 -239.27359375 213.0359375 -238.93359375 211.3359375 C-226.12603845 178.44470247 -202.06702223 147.71640147 -174.93359375 125.3359375 C-174.41990234 124.90845215 -173.90621094 124.4809668 -173.37695312 124.04052734 C-131.39032467 89.2283817 -76.16404498 65.11437745 -20.93359375 67.3359375 C-20.93359375 62.0559375 -20.93359375 56.7759375 -20.93359375 51.3359375 C-22.91359375 50.6759375 -24.89359375 50.0159375 -26.93359375 49.3359375 C-34.30227233 44.25655712 -39.10366559 38.12975894 -40.93359375 29.3359375 C-41.67917753 21.83708527 -40.58681949 15.22988032 -36.3046875 8.9453125 C-27.13734512 -2.2406972 -13.48707518 -7.00433738 0 0 Z " fill="#FEFEFE" transform="translate(414.93359375,176.6640625)"/>
<path d="M0 0 C7.58982543 4.90684366 12.83498797 10.41026439 15.06640625 19.3359375 C16.12103207 27.37942698 14.01874681 34.96588885 9.48828125 41.671875 C5.86551296 46.06162577 2.20862412 48.91607027 -2.93359375 51.3359375 C-3.59359375 51.3359375 -4.25359375 51.3359375 -4.93359375 51.3359375 C-4.93359375 56.2859375 -4.93359375 61.2359375 -4.93359375 66.3359375 C-2.62359375 66.4596875 -0.31359375 66.5834375 2.06640625 66.7109375 C28.95694428 68.36396557 56.38559687 73.25416729 81.06640625 84.3359375 C82.58292476 84.9918309 84.09988948 85.64669312 85.6171875 86.30078125 C107.66415897 95.89767287 127.75536068 107.68128304 146.06640625 123.3359375 C147.1986279 124.2832587 148.33147517 125.22983252 149.46484375 126.17578125 C160.77817163 135.67274207 170.88347114 145.72122513 180.06640625 157.3359375 C180.72125 158.12355469 181.37609375 158.91117188 182.05078125 159.72265625 C193.8117496 173.95342795 203.24165285 189.9923783 211.12890625 206.6484375 C211.42821045 207.27685547 211.72751465 207.90527344 212.03588867 208.55273438 C213.32252558 211.34705864 214.06640625 213.21904021 214.06640625 216.3359375 C220.33640625 216.3359375 226.60640625 216.3359375 233.06640625 216.3359375 C233.04022217 214.30219971 233.01403809 212.26846191 232.98706055 210.1730957 C232.90414953 203.44776381 232.84895811 196.72240912 232.80734539 189.99670124 C232.78126996 185.91948183 232.74591088 181.84278677 232.68920898 177.76586914 C232.63481372 173.83009387 232.60497025 169.89482238 232.59202003 165.95870018 C232.58279344 164.4583563 232.56477535 162.95803948 232.53775597 161.45791054 C232.50136173 159.35325554 232.49646464 157.25067185 232.4987793 155.14575195 C232.48212471 153.3503875 232.48212471 153.3503875 232.46513367 151.51875305 C233.24424816 147.39453754 234.82458975 145.91462931 238.06640625 143.3359375 C241.8293313 142.63038905 243.43562673 142.95824573 246.71842957 144.92388916 C249.88858338 148.18055022 249.6727887 149.9955738 249.6340332 154.49121094 C249.63476334 155.20380569 249.63549347 155.91640045 249.63624573 156.65058899 C249.6327697 158.99961193 249.59391289 161.34663725 249.5546875 163.6953125 C249.5453593 165.32626258 249.53824322 166.95722669 249.5332489 168.5881958 C249.51417927 172.87606649 249.46507971 177.16308718 249.409729 181.45062256 C249.3585352 185.82764182 249.33573464 190.20479875 249.31054688 194.58203125 C249.25696009 203.16705627 249.1716488 211.75139108 249.06640625 220.3359375 C250.46753662 220.78271851 250.46753662 220.78271851 251.89697266 221.23852539 C262.78287744 225.00775525 270.1518142 233.97331816 275.41015625 243.86328125 C278.69403495 250.91189231 279.22037941 257.19991232 279.2434082 264.89282227 C279.253265 266.32803978 279.253265 266.32803978 279.26332092 267.79225159 C279.2830048 270.95394986 279.29470734 274.11560066 279.3046875 277.27734375 C279.30876303 278.36103682 279.31283855 279.44472988 279.31703758 280.56126213 C279.33788017 286.30036095 279.35218818 292.039436 279.36157227 297.77856445 C279.37261609 303.68397343 279.40699816 309.5890035 279.44674397 315.49427891 C279.47298756 320.05416019 279.48127111 324.61395236 279.48485374 329.17390251 C279.48970184 331.34943124 279.50126462 333.52495646 279.51989174 335.70041084 C279.65941226 353.07891986 278.30347943 367.1855195 265.96484375 380.625 C256.4398527 389.61147565 245.63701946 393.73346848 232.62890625 393.4609375 C231.80197266 393.45191406 230.97503906 393.44289063 230.12304688 393.43359375 C228.10403917 393.41025262 226.08518269 393.37439038 224.06640625 393.3359375 C223.95981689 394.24085938 223.95981689 394.24085938 223.85107422 395.1640625 C222.17734725 407.93376669 214.61614795 420.01352759 206.06640625 429.3359375 C205.44121094 430.04105469 204.81601562 430.74617188 204.171875 431.47265625 C192.90481022 443.51992511 174.75285934 452.74304881 158.09311438 453.46473867 C156.51309 453.46742152 156.51309 453.46742152 154.90114594 453.47015858 C153.67864498 453.47461642 152.45614402 453.47907426 151.19659758 453.48366719 C149.84830951 453.48357791 148.50002144 453.48338809 147.1517334 453.48310852 C145.71285163 453.48641017 144.27397079 453.49013637 142.83509111 453.49425 C138.88512355 453.50424389 134.93517118 453.50798258 130.98519278 453.51063931 C126.72322542 453.51455012 122.46127001 453.52412789 118.1993103 453.53285217 C107.90873866 453.55259447 97.61816606 453.56267987 87.32758021 453.57157996 C82.47791273 453.57596645 77.62824634 453.58133232 72.77857971 453.58656883 C56.6510516 453.60357873 40.52352416 453.61807212 24.39598846 453.62531757 C20.21288553 453.62722737 16.0297826 453.62914772 11.84667969 453.63110352 C10.80702987 453.63158726 9.76738006 453.632071 8.6962257 453.6325694 C-8.1392704 453.64086683 -24.97469539 453.66619998 -41.81016046 453.69868419 C-59.10638924 453.73178458 -76.40258191 453.74976902 -93.69884253 453.75296181 C-103.40533708 453.75512413 -113.11172791 453.76383199 -122.81819153 453.78942299 C-131.08585573 453.81117069 -139.35339101 453.81916041 -147.62108058 453.80945621 C-151.83551204 453.80492331 -156.04967772 453.80673854 -160.26407242 453.82621765 C-164.13086675 453.84393492 -167.99720311 453.84278307 -171.86400288 453.82732036 C-173.90730208 453.82384743 -175.95060656 453.83990631 -177.99383783 453.85692483 C-195.73698925 453.73447299 -212.6987622 447.23793266 -225.93359375 435.3359375 C-226.82820313 434.54574219 -227.7228125 433.75554687 -228.64453125 432.94140625 C-235.89855654 426.15442095 -240.51135643 419.14912272 -244.93359375 410.3359375 C-245.59875 409.02689453 -245.59875 409.02689453 -246.27734375 407.69140625 C-248.41425996 403.21151405 -249.31811614 399.30158692 -249.93359375 394.3359375 C-250.86558594 394.38234375 -251.79757813 394.42875 -252.7578125 394.4765625 C-267.88092942 394.9047195 -280.86180392 391.11413736 -292.18359375 380.6484375 C-301.51614584 370.7502762 -305.40432141 358.35747976 -305.33764648 344.99609375 C-305.34794136 343.52570145 -305.34794136 343.52570145 -305.35844421 342.02560425 C-305.37660142 338.81639729 -305.37289102 335.60768431 -305.3671875 332.3984375 C-305.3717541 330.14981937 -305.37706109 327.90120263 -305.3830719 325.65258789 C-305.39198088 320.95225331 -305.38960444 316.25208886 -305.37963867 311.55175781 C-305.36814287 305.54647544 -305.38838172 299.54178056 -305.41755581 293.53657532 C-305.43595227 288.8969758 -305.43561859 284.25751626 -305.42991829 279.6178894 C-305.42976555 277.40444107 -305.43577073 275.19098297 -305.44820976 272.97756958 C-305.46318564 269.8766043 -305.45239439 266.77671425 -305.43530273 263.67578125 C-305.4449707 262.77366913 -305.45463867 261.87155701 -305.46459961 260.94210815 C-305.33309524 249.47489989 -299.7361312 238.62399339 -292.01953125 230.26171875 C-287.7257614 226.31863528 -281.03250008 220.3359375 -274.93359375 220.3359375 C-274.9424762 219.43027039 -274.95135864 218.52460327 -274.96051025 217.5914917 C-275.04065049 209.05742625 -275.10155527 200.52348713 -275.14084244 191.98913193 C-275.16171946 187.60147808 -275.19003885 183.21413509 -275.23535156 178.82666016 C-275.27880576 174.59265334 -275.30272999 170.35894556 -275.31310272 166.12473297 C-275.32049492 164.50916079 -275.33493025 162.89360501 -275.35651398 161.2781601 C-275.38554357 159.01548367 -275.38955013 156.75404355 -275.38769531 154.49121094 C-275.39657776 153.20325623 -275.40546021 151.91530151 -275.41461182 150.58831787 C-274.93359375 147.3359375 -274.93359375 147.3359375 -273.12005615 144.92388916 C-269.88632458 142.57534229 -267.82992623 142.72072711 -263.93359375 143.3359375 C-260.66238637 145.90396542 -259.11380967 147.38197079 -258.33232117 151.51875305 C-258.34342422 152.71566269 -258.35452728 153.91257233 -258.3659668 155.14575195 C-258.36523666 155.80972488 -258.36450653 156.47369781 -258.36375427 157.15779114 C-258.36722089 159.33911602 -258.40603062 161.51826991 -258.4453125 163.69921875 C-258.4546441 165.21663751 -258.46175858 166.73407138 -258.4667511 168.25151062 C-258.48579409 172.23525975 -258.53486992 176.21808976 -258.590271 180.20147705 C-258.64152277 184.27025927 -258.66427769 188.33919078 -258.68945312 192.40820312 C-258.74299308 200.3845823 -258.83090521 208.36003949 -258.93359375 216.3359375 C-252.66359375 216.3359375 -246.39359375 216.3359375 -239.93359375 216.3359375 C-239.60359375 214.6859375 -239.27359375 213.0359375 -238.93359375 211.3359375 C-226.12603845 178.44470247 -202.06702223 147.71640147 -174.93359375 125.3359375 C-174.41990234 124.90845215 -173.90621094 124.4809668 -173.37695312 124.04052734 C-131.39032467 89.2283817 -76.16404498 65.11437745 -20.93359375 67.3359375 C-20.93359375 62.0559375 -20.93359375 56.7759375 -20.93359375 51.3359375 C-22.91359375 50.6759375 -24.89359375 50.0159375 -26.93359375 49.3359375 C-34.30227233 44.25655712 -39.10366559 38.12975894 -40.93359375 29.3359375 C-41.67917753 21.83708527 -40.58681949 15.22988032 -36.3046875 8.9453125 C-27.13734512 -2.2406972 -13.48707518 -7.00433738 0 0 Z M-217.93359375 204.3359375 C-231.03620751 224.21148557 -237.26053762 249.49968595 -237.20825195 273.09008789 C-237.21336288 274.30312088 -237.21847382 275.51615387 -237.22373962 276.76594543 C-237.23516146 280.05517268 -237.23772521 283.34424157 -237.23517632 286.63348317 C-237.23409722 289.3942573 -237.23901339 292.15500887 -237.24378175 294.9157781 C-237.25482487 301.43385992 -237.25534287 307.95188408 -237.24926758 314.4699707 C-237.24322293 321.16497093 -237.25556313 327.85976126 -237.27683765 334.55472571 C-237.29451647 340.3334492 -237.30044542 346.11210623 -237.2971999 351.89085573 C-237.29539793 355.32896335 -237.2979141 358.76692096 -237.31191444 362.20500374 C-237.32431074 366.04055922 -237.31746812 369.87563332 -237.3059082 373.71118164 C-237.31355194 374.83097412 -237.32119568 375.9507666 -237.32907104 377.10449219 C-237.21969392 393.60175086 -230.61319119 409.43760916 -219.21069336 421.375 C-209.10908598 431.33993552 -195.22583677 438.44120004 -180.90420532 438.47295189 C-179.68656211 438.47802643 -178.4689189 438.48310097 -177.2143774 438.48832929 C-175.86638836 438.4889309 -174.51839927 438.48943001 -173.17041016 438.48983765 C-171.73580335 438.49385446 -170.30119768 438.49829305 -168.86659336 438.5031172 C-164.92383963 438.51506415 -160.98109812 438.52072679 -157.03832984 438.52529836 C-152.78590581 438.53126159 -148.53349634 438.54286964 -144.28108215 438.55358887 C-134.01086545 438.57809647 -123.74064394 438.59273768 -113.47040701 438.60564893 C-110.5686868 438.60936208 -107.66696708 438.61333522 -104.76524734 438.6174016 C-86.73838528 438.6426395 -68.71152244 438.66468832 -50.68464661 438.67712975 C-46.51030474 438.68005935 -42.3359629 438.68302102 -38.16162109 438.68603516 C-37.12413408 438.68678121 -36.08664707 438.68752726 -35.01772106 438.68829592 C-18.21703395 438.70094525 -1.41645277 438.7341637 15.38418484 438.77583699 C32.64082597 438.81828979 49.89741293 438.84182865 67.15410614 438.84705031 C76.83993135 438.85046063 86.52559101 438.86217119 96.21136475 438.89515305 C104.46153216 438.92320069 112.71150008 438.93413222 120.96171147 438.92295758 C125.16796968 438.91778298 129.37381042 438.92057921 133.58000755 438.94542313 C137.4382371 438.96802062 141.29575184 438.96709549 145.1539948 438.94821925 C147.19511218 438.94412427 149.23623462 438.96448701 151.27724266 438.98600614 C167.27796608 438.84942318 182.23465978 431.70711997 193.78125 420.74609375 C206.28650997 407.55678537 211.55950105 390.29129506 211.45458984 372.38305664 C211.4598468 371.25436157 211.46510376 370.1256665 211.47052002 368.96276855 C211.48362218 365.26539884 211.47501099 361.56846717 211.46484375 357.87109375 C211.46686855 355.27054259 211.46978336 352.66999198 211.47354126 350.06944275 C211.47897827 344.62689584 211.47186897 339.18447157 211.45751953 333.74194336 C211.44127101 327.5083692 211.44643267 321.27509073 211.46299875 315.04152399 C211.47843373 308.98456271 211.47656835 302.92772909 211.46785355 296.87075615 C211.46587456 294.32310378 211.46822828 291.77544371 211.47529221 289.22780037 C211.53604384 261.14205939 210.31991228 222.80900455 189.06640625 201.3359375 C188.339375 200.57152344 187.61234375 199.80710937 186.86328125 199.01953125 C173.65073773 186.08402494 156.75251782 182.86577509 138.84817505 182.94152832 C137.46170781 182.93662689 136.07524466 182.93043136 134.68878829 182.92307043 C130.91612757 182.90680665 127.14367766 182.90896081 123.37099433 182.9144454 C119.28770934 182.91713246 115.20447846 182.9025527 111.12121582 182.89035034 C103.1362294 182.86936552 95.1513157 182.86475145 87.16630496 182.86653823 C80.67216958 182.8678492 74.17805676 182.86402468 67.68392563 182.85661316 C65.80869639 182.85451382 63.93346715 182.85241622 62.05823791 182.85032034 C61.12470367 182.84927681 60.19116942 182.84823328 59.22934626 182.84715813 C41.60094939 182.82828429 23.9725942 182.82929738 6.34419142 182.83612746 C-9.75949798 182.84170263 -25.86302828 182.82087351 -41.96668051 182.78776699 C-58.52976994 182.75398201 -75.09278324 182.73886752 -91.65590775 182.74348402 C-100.94371779 182.74572361 -110.23138075 182.74056017 -119.51916122 182.71559143 C-127.42544506 182.69451626 -135.33150111 182.69104787 -143.2377945 182.70989102 C-147.26612575 182.71901014 -151.29403299 182.72031039 -155.32233047 182.69953537 C-159.02000661 182.68067739 -162.71691587 182.68549164 -166.41456415 182.70808119 C-168.36433319 182.71417422 -170.31413326 182.69599466 -172.26381481 182.67654467 C-189.93344179 182.85150169 -206.84853332 190.28130125 -217.93359375 204.3359375 Z " fill="#060606" transform="translate(414.93359375,176.6640625)"/>
<path d="M0 0 C2.83851535 0.01071781 5.67639626 0.00003666 8.51489258 -0.01269531 C23.12254463 -0.02393489 37.72633369 0.50719469 51.8840332 4.42480469 C54.71416025 5.20729459 57.55726032 5.88039888 60.41772461 6.54125977 C109.62275454 18.15123186 157.76877153 48.33758836 187.9074707 89.26074219 C184.44194821 90.41591635 183.87669944 90.07416526 180.5880146 88.84663105 C174.06290944 86.77882846 167.81556124 86.84709213 161.01876831 86.88652039 C159.63148002 86.88377539 158.24419383 86.87971955 156.85691273 86.87447673 C153.06798294 86.86394458 149.27929096 86.87198323 145.4903717 86.88322723 C141.39476022 86.89210267 137.29917874 86.88361589 133.2035675 86.87736511 C125.18773878 86.86789299 117.17200029 86.87446394 109.15617828 86.88662805 C99.80932903 86.90028067 90.46250104 86.89860718 81.11564435 86.89649472 C64.42709405 86.89330687 47.73858646 86.90495872 31.05004883 86.92456055 C14.88239235 86.94354541 -1.28521403 86.95065261 -17.45288086 86.94506836 C-35.07849879 86.9389985 -52.70409472 86.93921112 -70.32971084 86.95055419 C-72.21265467 86.9517614 -74.0955985 86.95296739 -75.97854233 86.95417213 C-77.36799816 86.95507744 -77.36799816 86.95507744 -78.78552381 86.95600104 C-85.28884342 86.95986755 -91.7921548 86.95949142 -98.29547501 86.95758629 C-106.23395494 86.95545505 -114.1723912 86.96075782 -122.11085887 86.97519984 C-126.15536205 86.98240087 -130.19980191 86.98655801 -134.24431038 86.98195648 C-137.95798045 86.97783446 -141.67152064 86.98317274 -145.38517116 86.99558256 C-147.34128077 86.99982738 -149.29740426 86.9944707 -151.25350964 86.98859328 C-161.44180774 87.03812681 -172.229229 87.48006062 -182.0925293 90.26074219 C-177.8155641 83.57614898 -172.55454669 77.98401971 -167.0925293 72.26074219 C-166.15304443 71.27025879 -166.15304443 71.27025879 -165.19458008 70.25976562 C-155.23423298 59.82141893 -144.91391327 50.54231202 -133.0925293 42.26074219 C-132.42318359 41.78975098 -131.75383789 41.31875977 -131.06420898 40.83349609 C-112.8325935 28.1669949 -93.053662 18.47831556 -72.0925293 11.26074219 C-70.97362305 10.865 -69.8547168 10.46925781 -68.7019043 10.06152344 C-61.8648774 7.79742945 -54.86346049 6.21272485 -47.8425293 4.63574219 C-46.48635498 4.32600464 -46.48635498 4.32600464 -45.1027832 4.01000977 C-30.09876843 0.76243893 -15.30752883 -0.06850775 0 0 Z " fill="#FCFCFC" transform="translate(399.092529296875,258.7392578125)"/>
<path d="M0 0 C12.10725061 6.08871879 20.91291795 15.36175348 25.671875 28.2109375 C27.25641811 33.23563464 27.53765942 38.00665061 27.5 43.25 C27.49500488 44.1687793 27.49000977 45.08755859 27.48486328 46.03417969 C27.13214927 59.87516392 20.99171466 71.84604521 10.98046875 81.37109375 C-1.14751001 91.34617687 -14.56816146 94.08674919 -30 93 C-42.76997001 90.45825537 -54.43365927 82.97842171 -61.875 72.3125 C-69.27769504 60.46818794 -71.69016067 47.80848059 -70 34 C-66.84349431 20.57023737 -58.52063448 9.44955984 -47 2 C-32.6130926 -5.57106282 -14.99475002 -7.36064477 0 0 Z " fill="#050505" transform="translate(306,429)"/>
<path d="M0 0 C0.84626953 -0.00322266 1.69253906 -0.00644531 2.56445312 -0.00976562 C15.82549649 0.10270275 26.11738442 4.89787907 35.68359375 14 C46.02330513 24.60850803 50.35329386 36.84039623 50.21484375 51.546875 C49.47884913 61.53981598 45.64657892 70.18748844 39.9375 78.3125 C39.49792969 78.94800781 39.05835938 79.58351563 38.60546875 80.23828125 C31.83959983 89.03196103 20.51056306 94.66043313 9.9375 97.3125 C-6.25309207 99.14904477 -19.13251189 94.32190337 -32.25 85.0625 C-42.22939848 75.30486593 -48.05582954 62.17603992 -48.3125 48.1875 C-48.11164847 34.69392896 -43.0082135 23.22007249 -33.75 13.4375 C-23.97941058 4.28068275 -13.33943737 -0.25515374 0 0 Z " fill="#060606" transform="translate(518.0625,424.6875)"/>
<path d="M0 0 C12.87638731 -0.74382212 23.71128575 0.20965126 34.0625 8.875 C40.44753047 15.10800594 43.95303663 22.28939855 44.26742554 31.33636475 C44.28522645 32.973839 44.29230165 34.6114534 44.29052734 36.24902344 C44.29724457 37.14921204 44.30396179 38.04940063 44.31088257 38.97686768 C44.3298004 41.93776041 44.3337838 44.89842567 44.3359375 47.859375 C44.34237034 49.93052257 44.34909906 52.00166924 44.35610962 54.07281494 C44.36806729 58.41021835 44.37179205 62.74754221 44.37060547 67.08496094 C44.37040251 72.62052135 44.39768815 78.15556708 44.43214989 83.69100571 C44.45447885 87.96863103 44.45844115 92.24613373 44.45738602 96.52381134 C44.45973358 98.5633954 44.46850905 100.60298327 44.48405075 102.64250946 C44.58485265 117.23840601 44.22723639 128.84621227 33.47265625 139.828125 C27.18580165 145.35022794 22.07409447 147.26492257 13.66796875 147.1171875 C11.79081177 147.09180908 11.79081177 147.09180908 9.87573242 147.06591797 C8.92674072 147.04416504 7.97774902 147.02241211 7 147 C6.99945523 146.44951398 6.99891047 145.89902796 6.99834919 145.33186054 C6.98322208 131.78560274 6.93984172 118.23967191 6.86790943 104.69359303 C6.83393095 98.14211964 6.80857547 91.59087223 6.80444336 85.03930664 C7.17533285 46.38502636 7.17533285 46.38502636 1.53817749 8.28231812 C0.89164098 5.54046804 0.41612627 2.7855285 0 0 Z " fill="#FCFCFC" transform="translate(635,408)"/>
<path d="M0 0 C0.93134766 0.00902344 1.86269531 0.01804687 2.82226562 0.02734375 C5.1109436 0.05081737 7.39908672 0.08365271 9.6875 0.125 C9.42195313 1.41792969 9.15640625 2.71085937 8.8828125 4.04296875 C8.52588118 5.79944656 8.16911958 7.55595887 7.8125 9.3125 C7.63847656 10.15748047 7.46445313 11.00246094 7.28515625 11.87304688 C6.93060012 13.62612995 6.58730771 15.3815251 6.25476074 17.13891602 C5.90788153 18.96490255 5.54649873 20.78830312 5.16003418 22.60632324 C2.90873682 34.64945306 3.33106173 46.90859512 3.2734375 59.11328125 C3.25470246 61.62819538 3.23512735 64.14310338 3.2147522 66.65800476 C3.1688741 72.56846727 3.13137856 78.47893501 3.09807932 84.38948077 C3.05585906 91.79031782 3.00038161 99.19104621 2.9453125 106.59179688 C2.84883879 119.76947186 2.76397501 132.94719454 2.6875 146.125 C0.29388027 146.18605596 -2.09816143 146.23052116 -4.4921875 146.265625 C-5.50091919 146.29390381 -5.50091919 146.29390381 -6.5300293 146.32275391 C-12.67922711 146.39028628 -16.48961919 144.74479895 -21.3125 141.125 C-22.199375 140.568125 -23.08625 140.01125 -24 139.4375 C-31.24641869 132.19108131 -34.49893222 123.33690915 -34.60577393 113.26174927 C-34.60486755 112.4033847 -34.60396118 111.54502014 -34.60302734 110.66064453 C-34.60974457 109.73773621 -34.61646179 108.81482788 -34.62338257 107.86395264 C-34.64230103 104.82851706 -34.64628351 101.79330328 -34.6484375 98.7578125 C-34.65486915 96.63703319 -34.66159778 94.51625476 -34.66860962 92.39547729 C-34.68056661 87.95552514 -34.68429201 83.51565071 -34.68310547 79.07568359 C-34.68290225 73.40092746 -34.71021518 67.72667192 -34.74464989 62.05203438 C-34.76694178 57.67326592 -34.77094232 53.29461757 -34.76988602 48.91579819 C-34.7722381 46.82432198 -34.78103937 44.73284228 -34.79655075 42.64142227 C-34.81625905 39.70997777 -34.81035378 36.77960824 -34.79833984 33.84814453 C-34.80957886 32.99382843 -34.82081787 32.13951233 -34.83239746 31.25930786 C-34.739665 22.30533761 -31.2748899 15.41281057 -25.2421875 8.9140625 C-22.2279266 6.11946434 -18.97461918 3.97760147 -15.3125 2.125 C-14.62027344 1.75375 -13.92804688 1.3825 -13.21484375 1 C-8.82795995 -0.32255985 -4.55242976 -0.08364889 0 0 Z " fill="#FDFDFD" transform="translate(159.3125,408.875)"/>
<path d="M0 0 C8.23564063 5.11136417 14.20231751 12.2171065 16.6875 21.66796875 C18.06510214 33.26688681 16.20204673 42.05344597 9.4375 51.48046875 C3.06099617 59.15664216 -5.20046965 62.83365332 -15.04296875 63.98828125 C-24.54189016 64.39021022 -31.41067833 61.58489478 -38.625 55.48046875 C-45.97793218 48.45074238 -50.18101947 40.24078399 -50.6875 29.98046875 C-50.39998649 20.00828955 -46.92457061 11.94253587 -39.91015625 4.87109375 C-28.30394824 -4.97236687 -13.72844974 -6.65904424 0 0 Z " fill="#FBFBFB" transform="translate(301.3125,443.33203125)"/>
<path d="M0 0 C8.23872662 5.07577856 14.0511061 12.05956829 17.13671875 21.31640625 C17.93243897 33.53919058 17.52827902 43.13619291 9.63671875 53.06640625 C3.15997047 59.75706548 -3.93172788 63.48662589 -13.26416016 63.92333984 C-23.89903498 64.00972631 -32.20564274 61.74927907 -40.109375 54.30859375 C-47.20377037 46.25037183 -49.30423816 37.29784938 -49.10546875 26.78515625 C-48.49051364 17.97741216 -45.02060429 11.61582136 -38.86328125 5.31640625 C-27.93571291 -3.4406177 -13.00702527 -6.33788837 0 0 Z " fill="#FCFCFC" transform="translate(534.86328125,442.68359375)"/>
<path d="M0 0 C3.12895992 2.45846851 5.15192633 5.21966058 7.3125 8.5 C11.34802441 14.32486071 17.32292004 17.09940795 24 19 C33.42890079 20.16330594 40.61363826 18.22518989 49 14 C49.73089844 13.69835937 50.46179688 13.39671875 51.21484375 13.0859375 C53.49572753 11.69844146 53.95784506 10.43021663 55 8 C56.73914605 5.04937451 58.52922347 2.38635364 61 0 C65.07728834 -0.8435769 66.90931371 -0.62714462 70.5 1.4375 C72.44835882 4.76594632 72.41624081 6.80826084 71.79296875 10.56640625 C68.93780661 19.32880041 60.54457925 26.0230447 52.671875 30.25 C39.92041244 36.14863574 26.32423155 37.0673256 13.03515625 32.390625 C3.29531806 27.92809939 -4.26620185 20.83405961 -10 11.875 C-11.20865007 8.40013104 -11.08806827 6.49736229 -10 3 C-7.60970722 -0.98382131 -4.28304417 -0.59076471 0 0 Z " fill="#050505" transform="translate(371,528)"/>
<path d="M0 0 C3.93085048 1.61998686 6.60196506 3.40294758 9 7 C9.73981114 11.99802641 9.51803233 15.96393533 7.25 20.5 C4.64662451 23.39263943 2.69249582 24.70765981 -1.1484375 25.37109375 C-5.24855334 25.49337791 -8.12677395 25.39925893 -11.4375 22.8125 C-14.72973638 19.19906983 -15.76296856 16.8567463 -16.375 12.0625 C-15.77375256 7.15231255 -13.47795875 4.19834493 -9.6875 1.125 C-6.14574105 -0.35759677 -3.81764143 -0.46074983 0 0 Z " fill="#F6F7F7" transform="translate(405,189)"/>
</svg>
