<?xml version="1.0" encoding="UTF-8"?>
<svg version="1.1" xmlns="http://www.w3.org/2000/svg" width="420" height="420">
<path d="M0 0 C138.6 0 277.2 0 420 0 C420 138.6 420 277.2 420 420 C281.4 420 142.8 420 0 420 C0 281.4 0 142.8 0 0 Z " fill="#FEFEFE" transform="translate(0,0)"/>
<path d="M0 0 C12.66447629 0.11583362 23.9149207 3.1147269 33 12.25 C37.50699415 17.59195522 39.10019369 23.5510293 40.6875 30.25 C41.01946405 31.58367491 41.352524 32.91707841 41.6875 34.25 C43.55415676 34.25219984 43.55415676 34.25219984 45.45852375 34.25444412 C74.97988973 34.29012394 104.5011423 34.3463329 134.02241342 34.42792095 C137.65369513 34.43793875 141.28497729 34.44778283 144.91625977 34.45751953 C145.63920161 34.4594609 146.36214345 34.46140228 147.10699262 34.46340248 C158.82230727 34.49444796 170.53760231 34.51141022 182.25295035 34.52319422 C194.26844275 34.53559262 206.28383204 34.56306423 218.29925936 34.60461307 C225.05050199 34.62752387 231.80161125 34.64339823 238.5528965 34.64188385 C244.90174391 34.64114155 251.25026468 34.65891888 257.59902763 34.69116783 C259.93434791 34.69971693 262.26970462 34.70138313 264.60503387 34.69580269 C267.7835702 34.68921657 270.96105069 34.70695406 274.13948059 34.73101807 C275.07235155 34.72325765 276.00522252 34.71549723 276.9663623 34.70750165 C283.15627461 34.79096848 283.15627461 34.79096848 285.79137707 37.06795883 C288.5281118 43.73185241 284.19526941 53.7227126 282.51171875 60.34375 C282.1865004 61.63732918 281.86171761 62.93101792 281.53733826 64.22480774 C280.66841483 67.68565745 279.79379411 71.14504247 278.91788483 74.60412979 C278.00920718 78.19587558 277.10506102 81.78876127 276.20068359 85.3815918 C275.10051296 89.75159165 274.0000384 94.12151259 272.8973999 98.4908905 C270.58160633 107.6712747 268.29325677 116.85793606 266.02734375 126.05078125 C265.47511941 128.28518174 264.92279519 130.51955755 264.37036133 132.75390625 C263.59527201 135.88891311 262.82185354 139.02427417 262.05429077 142.16113281 C261.35654345 145.01109074 260.65173975 147.85921463 259.9453125 150.70703125 C259.74393173 151.53834061 259.54255096 152.36964996 259.33506775 153.22615051 C258.46907477 156.6919447 257.68772846 159.24965731 255.6875 162.25 C253.2208158 162.55044675 251.00291413 162.65276533 248.5332489 162.62854004 C247.41504225 162.63533523 247.41504225 162.63533523 246.27424556 162.6422677 C243.76297784 162.65394437 241.2522374 162.64422372 238.7409668 162.63476562 C236.94584813 162.63886838 235.15073212 162.6443275 233.35562134 162.65104675 C229.48304239 162.66279706 225.61060607 162.66524706 221.73801231 162.66069031 C215.61610472 162.65389932 209.49438584 162.669717 203.37251282 162.68908691 C190.3733521 162.72700518 177.37420754 162.73974831 164.375 162.75 C150.35316226 162.76106459 136.33141088 162.77638786 122.3096326 162.82071257 C116.222774 162.83909248 110.13612977 162.84295248 104.04925001 162.83577728 C100.26209308 162.83425673 96.4750436 162.84503146 92.6879158 162.85915565 C90.93071841 162.86316268 89.17350067 162.86202586 87.41631126 162.85538292 C85.0181782 162.84701305 82.62079012 162.85697801 80.22270203 162.87145996 C79.17852939 162.86111906 79.17852939 162.86111906 78.11326236 162.85056925 C73.76605334 162.90174174 71.24865576 163.80925747 67.6875 166.25 C67.0275 166.25 66.3675 166.25 65.6875 166.25 C65.2234375 167.425625 65.2234375 167.425625 64.75 168.625 C63.6875 171.25 63.6875 171.25 62.6875 173.25 C62.6432684 177.75277673 63.12001233 181.3302786 65.5 185.1875 C69.74338034 189.18840147 72.92538682 189.50161973 78.72280884 189.51501465 C79.78550053 189.52158655 79.78550053 189.52158655 80.86966074 189.52829123 C83.24341227 189.54061243 85.61694284 189.53880308 87.99072266 189.53710938 C89.69248279 189.54313335 91.39423993 189.55005753 93.09599304 189.55781555 C96.76006571 189.57270612 100.42408386 189.58145407 104.08818436 189.58552551 C109.87756057 189.59223297 115.66681982 189.61397877 121.45614624 189.63806152 C134.78764386 189.69121346 148.11917748 189.7245994 161.450737 189.75782013 C173.67363085 189.78847481 185.89647453 189.82325246 198.11930311 189.87413073 C203.87912034 189.8975326 209.63885608 189.91123339 215.39871621 189.91762543 C218.97484709 189.9235456 222.55091146 189.93762533 226.12700844 189.95396996 C227.79032214 189.95986722 229.45365204 189.9623138 231.11697578 189.96113014 C233.3801795 189.95997832 235.64300583 189.97092764 237.90615845 189.98498535 C239.17488108 189.98791847 240.44360371 189.99085159 241.75077248 189.9938736 C244.6875 190.25 244.6875 190.25 246.6875 192.25 C246.875 194.8125 246.875 194.8125 246.6875 197.25 C244.79784002 199.13965998 241.50137969 198.39294185 238.99085999 198.40390015 C237.92822934 198.41047353 237.92822934 198.41047353 236.84413141 198.4171797 C234.45215599 198.43061529 232.06021746 198.43675734 229.66821289 198.44287109 C227.96017285 198.45076874 226.25213448 198.45903747 224.5440979 198.46765137 C218.91613368 198.4939251 213.28816184 198.5091909 207.66015625 198.5234375 C205.72348971 198.52879623 203.78682322 198.53417374 201.85015678 198.53956985 C193.79077455 198.5612123 185.73139436 198.5799466 177.67199039 198.59119225 C166.12300449 198.60741193 154.57435614 198.64052586 143.0254975 198.69759309 C134.90649224 198.73634142 126.78757704 198.75583112 118.66848177 198.76111281 C113.82000851 198.76476146 108.97189484 198.77672973 104.1235218 198.80921555 C99.55569421 198.83937983 94.9884421 198.84557832 90.42053604 198.83383179 C88.7492667 198.8336117 87.07797003 198.84186245 85.40679359 198.85948563 C75.00012589 198.96319767 66.19669833 198.47667534 58.25 190.9375 C54.82239876 185.04202586 52.52381535 179.1928826 53.6875 172.25 C55.17902477 167.30353085 56.89710463 163.90119753 60.8601532 160.58377075 C62.50952025 159.03898248 62.50952025 159.03898248 63.6875 157.25 C63.59692349 154.20947348 63.29387126 152.43956459 62.38598633 149.63623047 C62.17992925 148.89965147 61.97387217 148.16307247 61.76157093 147.4041729 C61.319197 145.82351067 60.86319823 144.24660981 60.39493179 142.67342377 C59.46469207 139.48673487 58.65943103 136.27442784 57.85372448 133.05439949 C56.76711525 128.71933436 55.63450076 124.39612136 54.51171875 120.0703125 C54.01837854 118.1639312 53.52520294 116.25750729 53.03218079 114.3510437 C51.74274689 109.36675966 50.45109003 104.38305442 49.15893555 99.3994751 C47.61082887 93.42677731 46.06538013 87.45339097 44.52015877 81.47994614 C43.27535031 76.66893653 42.02835951 71.85851503 40.77633667 67.04937744 C38.66680123 58.94083347 36.57046347 50.83122794 34.57275391 42.69433594 C34.26199417 41.44457977 33.95123444 40.19482361 33.63105774 38.90719604 C33.08244412 36.69274463 32.54446933 34.47561061 32.02067566 32.25515747 C30.31847411 25.43237031 28.06828194 19.05416743 22.51171875 14.4453125 C14.37901341 10.37152592 7.40836241 9.05900704 -1.67578125 8.59375 C-4.3125 8.25 -4.3125 8.25 -7.3125 6.25 C-7.5625 3.6875 -7.5625 3.6875 -7.3125 1.25 C-5.45145698 -0.61104302 -2.49213202 0.0326837 0 0 Z " fill="#040404" transform="translate(58.3125,94.75)"/>
<path d="M0 0 C14.85 0 29.7 0 45 0 C42.74712934 13.51722397 42.74712934 13.51722397 41.08984375 20.13671875 C40.91747696 20.82764114 40.74511017 21.51856354 40.56752014 22.23042297 C40.20931892 23.66159287 39.84884711 25.09219641 39.48608398 26.5222168 C38.92902595 28.72094743 38.38107169 30.9218164 37.83398438 33.12304688 C35.13708728 43.86291272 35.13708728 43.86291272 34 45 C32.64905018 45.09268999 31.29332909 45.11747326 29.93920898 45.11352539 C29.07839218 45.11344986 28.21757538 45.11337433 27.33067322 45.11329651 C26.39526199 45.10813522 25.45985077 45.10297394 24.49609375 45.09765625 C23.54307877 45.0962413 22.59006378 45.09482635 21.60816956 45.09336853 C18.55124835 45.08775152 15.49439923 45.07519616 12.4375 45.0625 C10.37044376 45.05748719 8.30338638 45.05292391 6.23632812 45.04882812 C1.15752412 45.03777656 -3.9212257 45.02050055 -9 45 C-7.48948518 35.16619168 -5.46713569 25.47187786 -3.375 15.75 C-2.26125 10.5525 -1.1475 5.355 0 0 Z " fill="#FDFDFD" transform="translate(274,204)"/>
<path d="M0 0 C14.85 0 29.7 0 45 0 C42.70102612 13.79384328 42.70102612 13.79384328 41.2734375 20.390625 C41.13784424 21.02726074 41.00225098 21.66389648 40.86254883 22.31982422 C40.36961431 24.63050661 39.87206542 26.94020271 39.375 29.25 C38.26125 34.4475 37.1475 39.645 36 45 C24.12 45 12.24 45 0 45 C0 30.15 0 15.3 0 0 Z " fill="#FEFEFE" transform="translate(221,204)"/>
<path d="M0 0 C14.85 0 29.7 0 45 0 C45 14.85 45 29.7 45 45 C33.45 45 21.9 45 10 45 C7.47163581 34.88654325 4.99569085 24.79935445 2.75 14.625 C2.481875 13.42617187 2.21375 12.22734375 1.9375 10.9921875 C1.68484375 9.85265625 1.4321875 8.713125 1.171875 7.5390625 C0.9459668 6.52021973 0.72005859 5.50137695 0.48730469 4.45166016 C0 2 0 2 0 0 Z " fill="#FEFEFE" transform="translate(168,204)"/>
<path d="M0 0 C13.53 0 27.06 0 41 0 C42.485 6.496875 43.97 12.99375 45.5 19.6875 C45.96986328 21.73026123 46.43972656 23.77302246 46.92382812 25.87768555 C47.29339583 27.50559972 47.66256341 29.1336048 48.03125 30.76171875 C48.22557617 31.59981079 48.41990234 32.43790283 48.62011719 33.3013916 C48.8028418 34.11289673 48.98556641 34.92440186 49.17382812 35.76049805 C49.33371216 36.45999069 49.49359619 37.15948334 49.6583252 37.88017273 C50 40 50 40 50 45 C37.13 45 24.26 45 11 45 C9.43121449 38.91331595 7.86387672 32.82629813 6.30029297 26.73828125 C5.76762768 24.66611902 5.23410174 22.59417784 4.69970703 20.52246094 C3.9329707 17.54940168 3.1693047 14.5755685 2.40625 11.6015625 C2.16563843 10.67131256 1.92502686 9.74106262 1.67712402 8.78262329 C1.45689575 7.92188202 1.23666748 7.06114075 1.00976562 6.17431641 C0.81435181 5.41486725 0.61893799 4.65541809 0.41760254 3.87295532 C0 2 0 2 0 0 Z " fill="#FDFDFD" transform="translate(119,204)"/>
<path d="M0 0 C17.16 0 34.32 0 52 0 C50.49525276 9.02848346 48.79505494 18.02472532 47 27 C31.49 27 15.98 27 0 27 C0 18.09 0 9.18 0 0 Z " fill="#FEFEFE" transform="translate(221,169)"/>
<path d="M0 0 C17.16 0 34.32 0 52 0 C52 8.91 52 17.82 52 27 C36.82 27 21.64 27 6 27 C2.57594715 18.43986787 1.64924225 9.07083238 0 0 Z " fill="#FEFEFE" transform="translate(161,169)"/>
<path d="M0 0 C19.47 0 38.94 0 59 0 C59 7.59 59 15.18 59 23 C41.18 23 23.36 23 5 23 C3.35 15.41 1.7 7.82 0 0 Z " fill="#FBFBFB" transform="translate(154,138)"/>
<path d="M0 0 C19.47 0 38.94 0 59 0 C57.35 7.59 55.7 15.18 54 23 C36.18 23 18.36 23 0 23 C0 15.41 0 7.82 0 0 Z " fill="#FBFBFB" transform="translate(221,138)"/>
<path d="M0 0 C5.26820664 3.13081995 9.70191306 7.17214542 11.67578125 13.09375 C12.2501026 19.41128485 11.8736715 24.46987405 8.67578125 30.09375 C4.96207863 34.39382672 1.32139796 37.7560117 -4.4453125 38.4921875 C-16.87147608 38.40437009 -16.87147608 38.40437009 -21.9375 33.546875 C-26.15323597 28.99911209 -27.92980726 25.0236639 -28.76171875 18.84375 C-28.07493869 12.95706378 -25.87442261 7.54350819 -21.5390625 3.37890625 C-15.25642858 -1.22302305 -7.43647619 -2.8996008 0 0 Z " fill="#040404" transform="translate(153.32421875,297.90625)"/>
<path d="M0 0 C5.00330085 2.84163131 8.92457418 6.96122253 10.75 12.4375 C11.45630998 19.24834623 11.5557505 25.10256236 7.35546875 30.75 C2.50874207 35.84436965 -2.68878657 38.26468268 -9.7265625 38.6328125 C-15.53137101 38.18352392 -20.36463773 35.83043822 -24.1875 31.4375 C-28.57194532 25.06012499 -29.0317835 20.14647912 -28.25 12.4375 C-26.70537058 6.78619116 -23.76710881 3.523351 -18.93359375 0.34765625 C-13.16897178 -2.76871711 -5.91546665 -2.66708901 0 0 Z " fill="#050505" transform="translate(289.25,298.5625)"/>
<path d="M0 0 C1.22244667 0.00333092 1.22244667 0.00333092 2.46958923 0.00672913 C3.85090782 0.00684242 3.85090782 0.00684242 5.26013184 0.00695801 C6.2611644 0.01211929 7.26219696 0.01728058 8.29356384 0.02259827 C9.31316696 0.02401321 10.33277008 0.02542816 11.38327026 0.02688599 C14.65417867 0.03250355 17.92501972 0.04505902 21.19590759 0.05775452 C23.40749515 0.06276725 25.61908377 0.06733055 27.83067322 0.07142639 C33.26494116 0.08247868 38.69916957 0.09923389 44.13340759 0.12025452 C43.82254609 1.69457107 43.51055619 3.26866483 43.19810486 4.84266663 C43.02448929 5.71926437 42.85087372 6.59586212 42.67199707 7.49902344 C41.90087307 11.25196382 41.00419036 14.96736645 40.07090759 18.68275452 C39.81083923 19.74719788 39.81083923 19.74719788 39.54551697 20.83314514 C38.25549784 25.99816427 38.25549784 25.99816427 37.13340759 27.12025452 C35.72115714 27.21312712 34.30431825 27.23772223 32.88902283 27.23377991 C31.98816452 27.23370438 31.08730621 27.23362885 30.15914917 27.23355103 C29.17999039 27.22838974 28.2008316 27.22322845 27.19200134 27.21791077 C26.19459427 27.21649582 25.19718719 27.21508087 24.16955566 27.21362305 C20.96997636 27.20800566 17.77046591 27.19545023 14.57090759 27.18275452 C12.40749714 27.17774176 10.2440856 27.17317846 8.08067322 27.16908264 C2.76489434 27.15803059 -2.55084412 27.14127555 -7.86659241 27.12025452 C-6.79591566 20.53016054 -5.70064378 13.96218058 -4.30409241 7.43275452 C-3.93090881 5.66351624 -3.93090881 5.66351624 -3.55018616 3.85853577 C-2.62921443 0.16938615 -2.62921443 0.16938615 0 0 Z " fill="#FDFDFD" transform="translate(283.86659240722656,168.87974548339844)"/>
<path d="M0 0 C14.19 0 28.38 0 43 0 C43.825 3.7125 44.65 7.425 45.5 11.25 C45.76103516 12.4143457 46.02207031 13.57869141 46.29101562 14.77832031 C46.49404297 15.70225586 46.69707031 16.62619141 46.90625 17.578125 C47.11572266 18.52075195 47.32519531 19.46337891 47.54101562 20.43457031 C48 23 48 23 48 27 C34.47 27 20.94 27 7 27 C6.030625 23.65875 5.06125 20.3175 4.0625 16.875 C3.75836182 15.83327637 3.45422363 14.79155273 3.14086914 13.71826172 C2.89973389 12.88053223 2.65859863 12.04280273 2.41015625 11.1796875 C2.16402588 10.33132324 1.91789551 9.48295898 1.66430664 8.60888672 C0.94309096 5.77650495 0.48049914 2.88299482 0 0 Z " fill="#FDFDFD" transform="translate(110,169)"/>
<path d="M0 0 C15.84 0 31.68 0 48 0 C44 18 44 18 42 23 C26.82 23 11.64 23 -4 23 C-4 16 -4 16 0 0 Z " fill="#FBFBFB" transform="translate(288,138)"/>
<path d="M0 0 C14.52 0 29.04 0 44 0 C48 16 48 16 49 23 C34.81 23 20.62 23 6 23 C4.15435575 18.07828201 2.54235039 13.70450872 1.3125 8.6875 C1.06113281 7.68074219 0.80976562 6.67398438 0.55078125 5.63671875 C0 3 0 3 0 0 Z " fill="#FAFAFA" transform="translate(102,138)"/>
<path d="M0 0 C3.13180809 1.62390049 5.24339744 3.00266026 7.375 5.8125 C8.71330915 10.49658201 8.55784697 13.88430606 6.375 18.25 C3.69318176 21.35526323 1.88980521 22.70339826 -2 24 C-7.27832389 23.90739783 -10.31232358 22.7930386 -14 19 C-15.82063934 15.93801565 -16.00264709 14.14558973 -15.9375 10.5625 C-14.76192992 6.09533368 -13.20335403 4.28148461 -10 1 C-6.78501861 -0.6074907 -3.48701742 -0.47314549 0 0 Z " fill="#F9F9F9" transform="translate(149,305)"/>
<path d="M0 0 C3.70390021 2.02666238 5.65363011 3.48044516 8 7 C8.68343706 10.77688904 8.85107095 14.47186889 6.94921875 17.88671875 C4.63717344 20.70345831 2.71976865 22.75923239 -0.953125 23.2734375 C-5.24672199 23.46329043 -8.09582964 23.4342668 -11.5 20.625 C-15.17483665 16.76642152 -15.34320334 14.4157109 -15.28515625 9.2578125 C-14.85933373 5.88623144 -13.46522826 4.25979257 -11 2 C-7.51335549 -0.52481154 -4.20248882 -0.43474022 0 0 Z " fill="#FCFCFC" transform="translate(284,305)"/>
</svg>
