<?xml version="1.0" encoding="UTF-8"?>
<svg version="1.1" xmlns="http://www.w3.org/2000/svg" width="478" height="478">
<path d="M0 0 C157.74 0 315.48 0 478 0 C478 157.74 478 315.48 478 478 C320.26 478 162.52 478 0 478 C0 320.26 0 162.52 0 0 Z " fill="#FEFEFE" transform="translate(0,0)"/>
<path d="M0 0 C1 1 1 1 1.21069336 4.31860352 C1.13320424 9.98915498 -0.14815419 15.38624089 -1.37109375 20.90234375 C-1.61287857 22.02065079 -1.85466339 23.13895782 -2.10377502 24.29115295 C-2.6135418 26.64099634 -3.1272817 28.98998094 -3.64477539 31.33813477 C-4.43982717 34.94806653 -5.22186823 38.56063567 -6.00195312 42.17382812 C-6.49924417 44.45849798 -6.99726508 46.74300912 -7.49609375 49.02734375 C-7.73154404 50.11264877 -7.96699432 51.1979538 -8.20957947 52.31614685 C-8.42973221 53.31130814 -8.64988495 54.30646942 -8.87670898 55.33178711 C-9.06990219 56.21144638 -9.2630954 57.09110565 -9.46214294 57.99742126 C-10 60 -10 60 -11 61 C-13.19921875 61.375 -13.19921875 61.375 -16 61 C-18.13582841 59.38587866 -19.92746844 57.86238098 -21.8125 56 C-22.31458984 55.52304688 -22.81667969 55.04609375 -23.33398438 54.5546875 C-24.5665673 53.380799 -25.78475789 52.19183114 -27 51 C-31.76787661 54.9769677 -36.26519411 59.12793986 -40.63452148 63.53686523 C-41.25667542 64.16047943 -41.87882935 64.78409363 -42.51983643 65.42660522 C-43.85878859 66.7693372 -45.19658526 68.11322225 -46.53332329 69.45815849 C-48.65498373 71.59268931 -50.77984552 73.72398724 -52.90553284 75.85450745 C-58.18300195 81.14528207 -63.45500657 86.44149098 -68.72717285 91.73754883 C-73.18971231 96.21989422 -77.65434466 100.70013542 -82.12172127 105.17765999 C-84.20419325 107.26656384 -86.283604 109.35848154 -88.36289978 111.45054626 C-93.84693024 116.95550441 -99.29743224 122.41218623 -105.22563171 127.44380188 C-108.75549391 130.53964447 -111.98483698 133.94590988 -115.26171875 137.3046875 C-116.80750234 138.87283005 -118.35373943 140.44052566 -119.90039062 142.0078125 C-122.30783788 144.45251757 -124.71203351 146.90013466 -127.10864258 149.35546875 C-129.44229861 151.74346207 -131.78833759 154.11868567 -134.13671875 156.4921875 C-135.20873787 157.59987991 -135.20873787 157.59987991 -136.30241394 158.72994995 C-136.97694107 159.4080069 -137.6514682 160.08606384 -138.34643555 160.78466797 C-138.93297409 161.38310516 -139.51951263 161.98154236 -140.12382507 162.59811401 C-142.4471328 164.33409955 -144.11904308 164.77446772 -147 165 C-149.52603289 163.69673482 -151.66163683 162.39739272 -153.96875 160.77734375 C-154.97295738 160.098675 -154.97295738 160.098675 -155.99745178 159.40629578 C-158.1746517 157.93038331 -160.33706787 156.43422435 -162.5 154.9375 C-163.987193 153.92413925 -165.47539751 152.91226141 -166.96459961 151.90185547 C-169.93016066 149.88748464 -172.89067991 147.86604097 -175.84716797 145.83837891 C-181.38315055 142.04653821 -186.97046623 138.33360573 -192.5625 134.625 C-194.23077671 133.51348292 -195.8987827 132.40155929 -197.56640625 131.2890625 C-198.57102905 130.61931396 -198.57102905 130.61931396 -199.59594727 129.93603516 C-200.05928467 129.62714355 -200.52262207 129.31825195 -201 129 C-203.94242388 130.3256907 -206.00260886 131.75992373 -208.26464844 134.0534668 C-208.87918884 134.67138596 -209.49372925 135.28930511 -210.12689209 135.9259491 C-211.10822113 136.92746758 -211.10822113 136.92746758 -212.109375 137.94921875 C-213.13783539 138.98548149 -213.13783539 138.98548149 -214.18707275 140.04267883 C-216.37952077 142.25292138 -218.5651891 144.46970992 -220.75 146.6875 C-222.9213312 148.88661303 -225.09415664 151.08419366 -227.27008057 153.27876282 C-228.62202456 154.64278233 -229.97129021 156.00946394 -231.31732178 157.37931824 C-235.10007379 161.20146252 -239.00760841 164.79225157 -243.07852173 168.30461121 C-246.0407697 170.91830821 -248.81104892 173.70595779 -251.58203125 176.51953125 C-252.16288986 177.10417648 -252.74374847 177.68882172 -253.34220886 178.29118347 C-255.16813673 180.1291656 -256.99072623 181.97040095 -258.8125 183.8125 C-261.23278562 186.25939957 -263.65638806 188.70294397 -266.08203125 191.14453125 C-266.90704887 191.98199638 -266.90704887 191.98199638 -267.74873352 192.83638 C-270.07391128 195.17648566 -272.24451981 197.16301321 -275 199 C-278.79950036 198.98729264 -279.98794386 198.01131319 -282.7890625 195.3828125 C-283.74590747 194.30702271 -284.69098589 193.2206704 -285.625 192.125 C-286.57511955 191.04391803 -287.52562902 189.96317859 -288.4765625 188.8828125 C-289.72566406 187.45582031 -289.72566406 187.45582031 -291 186 C-291.60585938 185.48179687 -292.21171875 184.96359375 -292.8359375 184.4296875 C-294 183 -294 183 -294.28759766 180.65820312 C-293.9242834 177.3001678 -292.96343821 176.36804276 -290.5625 174.0390625 C-289.46615234 172.96011719 -289.46615234 172.96011719 -288.34765625 171.859375 C-287.57292969 171.12203125 -286.79820312 170.3846875 -286 169.625 C-284.88431641 168.53058594 -284.88431641 168.53058594 -283.74609375 167.4140625 C-280.34475856 164.10145779 -276.89642388 160.88236727 -273.28125 157.8046875 C-267.02204377 152.39295301 -261.31374011 146.3799666 -255.5 140.5 C-242.10231872 126.94970071 -242.10231872 126.94970071 -235.90039062 121.67773438 C-231.90906929 118.15404987 -228.23298223 114.29290169 -224.5 110.5 C-219.97380788 105.90115632 -215.4386473 101.30735499 -210.71875 96.90625 C-210.11998047 96.34228516 -209.52121094 95.77832031 -208.90429688 95.19726562 C-206.39523412 93.61977284 -204.91890697 93.62057893 -202 94 C-200.01245117 94.9519043 -200.01245117 94.9519043 -198.04296875 96.32421875 C-197.27525146 96.84886719 -196.50753418 97.37351562 -195.71655273 97.9140625 C-194.88196533 98.49929687 -194.04737793 99.08453125 -193.1875 99.6875 C-191.32885823 100.95290057 -189.46942773 102.21714312 -187.609375 103.48046875 C-186.57619141 104.1873584 -185.54300781 104.89424805 -184.47851562 105.62255859 C-178.37590335 109.7964566 -172.2560908 113.94344091 -166.10562134 118.04653931 C-164.65997114 119.01567129 -163.21851881 119.99109469 -161.78134155 120.9727478 C-159.74792079 122.36131732 -157.70204387 123.72936842 -155.65234375 125.09375 C-155.03961609 125.51904495 -154.42688843 125.9443399 -153.79559326 126.38252258 C-151.89657713 127.6812138 -151.89657713 127.6812138 -149 129 C-144.65057925 127.73383389 -141.70606263 123.96314258 -138.61425781 120.82543945 C-137.66705368 119.87626396 -137.66705368 119.87626396 -136.70071411 118.90791321 C-134.61355171 116.8142592 -132.53345646 114.71372095 -130.453125 112.61328125 C-128.9987816 111.1526639 -127.54391948 109.69256287 -126.08856201 108.23295593 C-122.25363673 104.38472086 -118.42430717 100.5309694 -114.59655762 96.67559814 C-108.48567301 90.52163885 -102.36818996 84.37425874 -96.24727631 78.23027611 C-94.11791813 76.09076413 -91.99204936 73.94783071 -89.86651611 71.80451965 C-88.54557098 70.47673797 -87.22451154 69.14907 -85.90332031 67.8215332 C-85.32121796 67.23269348 -84.7391156 66.64385376 -84.13937378 66.03717041 C-80.46810618 62.35597619 -76.65977181 58.88646606 -72.72116661 55.49265575 C-70.7936779 53.82107027 -68.95424944 52.08334737 -67.1484375 50.28125 C-66.52453125 49.65863281 -65.900625 49.03601563 -65.2578125 48.39453125 C-64.63648438 47.76933594 -64.01515625 47.14414063 -63.375 46.5 C-62.7459375 45.87480469 -62.116875 45.24960938 -61.46875 44.60546875 C-57.43419214 40.56254044 -53.66769645 36.3786653 -50 32 C-51.47264946 28.87864086 -52.7861632 27.09362034 -55.5 24.9375 C-57.93664912 22.99127814 -59.22262121 21.66606818 -61 19 C-60.625 16.3125 -60.625 16.3125 -60 14 C-47.66387774 10.34644463 -35.26230448 6.94246571 -22.81582642 3.68649292 C-21.23143635 3.27080222 -19.64791168 2.85179888 -18.0652771 2.42947388 C-15.8154085 1.83022592 -13.56259686 1.2436319 -11.30859375 0.66015625 C-10.63020447 0.47714966 -9.95181519 0.29414307 -9.25286865 0.10559082 C-5.87576354 -0.75342666 -3.28922516 -1.36480089 0 0 Z " fill="#050505" transform="translate(382,81)"/>
<path d="M0 0 C0.85711578 -0.00570007 1.71423157 -0.01140015 2.59732056 -0.01727295 C4.41480265 -0.02673782 6.23230202 -0.03326281 8.04980469 -0.03710938 C10.83298676 -0.04681025 13.61542911 -0.07781714 16.3984375 -0.109375 C18.16145393 -0.11590521 19.92447566 -0.12115561 21.6875 -0.125 C22.93918472 -0.1435202 22.93918472 -0.1435202 24.21615601 -0.16241455 C29.99939403 -0.14008747 29.99939403 -0.14008747 32.19722271 1.44074249 C33.8330835 3.6942583 33.85135692 4.98617028 33.8507843 7.75769043 C33.86130577 9.15832985 33.86130577 9.15832985 33.87203979 10.58726501 C33.86439606 11.60969803 33.85675232 12.63213104 33.84887695 13.68554688 C33.85252762 14.76381241 33.85617828 15.84207794 33.85993958 16.95301819 C33.86806205 20.52612943 33.85442048 24.0987896 33.83984375 27.671875 C33.83932535 30.14904785 33.83984227 32.62622111 33.84135437 35.10339355 C33.84125306 40.96467264 33.82635728 46.82578549 33.80570334 52.68702459 C33.78601077 58.68951074 33.79018625 64.69185044 33.79626179 70.69435883 C33.79959891 75.81062849 33.79297649 80.92684625 33.78313255 86.04310608 C33.77927584 88.50236235 33.77813428 90.96162439 33.7797184 93.42088318 C33.78008812 96.85426894 33.76749459 100.28736131 33.7512207 103.72070312 C33.75369812 104.74313614 33.75617554 105.76556915 33.75872803 106.81898499 C33.74810081 108.2196244 33.74810081 108.2196244 33.73725891 109.64855957 C33.73520604 110.46044991 33.73315317 111.27234024 33.73103809 112.10883331 C33.4765625 114.203125 33.4765625 114.203125 31.4765625 117.203125 C28.52019042 117.48224445 25.77614895 117.57487937 22.8203125 117.53125 C21.96223999 117.52937683 21.10416748 117.52750366 20.22009277 117.52557373 C18.40433879 117.51884566 16.58859948 117.50491621 14.77294922 117.484375 C11.98781931 117.4532508 9.20325523 117.44340833 6.41796875 117.4375 C4.65624308 117.42832893 2.89452318 117.41795283 1.1328125 117.40625 C0.29633179 117.40200012 -0.54014893 117.39775024 -1.40197754 117.39337158 C-7.28905687 117.32031531 -7.28905687 117.32031531 -9.5234375 116.203125 C-9.54676727 101.22626194 -9.56441706 86.24940028 -9.57524967 71.27252293 C-9.58041246 64.31896419 -9.58745484 57.36541673 -9.59887695 50.41186523 C-9.60988444 43.70755291 -9.61571371 37.00325475 -9.61831474 30.29893303 C-9.62016952 27.73474887 -9.62379114 25.17056538 -9.62916756 22.60638618 C-9.63637409 19.02867342 -9.63742861 15.45100981 -9.63696289 11.87329102 C-9.64055817 10.80155136 -9.64415344 9.72981171 -9.64785767 8.62559509 C-9.646483 7.65659271 -9.64510834 6.68759033 -9.64369202 5.68922424 C-9.64461381 4.84209649 -9.6455356 3.99496874 -9.64648533 3.12217045 C-9.33940952 -1.66696266 -3.66354035 0.01856829 0 0 Z " fill="#F9F9F9" transform="translate(165.5234375,249.796875)"/>
<path d="M0 0 C-0.67743559 8.53950492 -2.63146407 16.74090346 -4.5625 25.0625 C-4.89564182 26.51486863 -5.22832783 27.96734189 -5.56054688 29.41992188 C-6.36844641 32.94783638 -7.18250521 36.47429496 -8 40 C-10.8898291 38.67627183 -12.51560526 37.52827604 -14.9375 35.3125 C-17.66817893 32.76613062 -17.66817893 32.76613062 -20.31388855 33.00534058 C-24.02746715 34.38046816 -26.33636746 36.81823648 -29.0402832 39.60205078 C-29.6231308 40.18592056 -30.20597839 40.76979034 -30.80648804 41.37135315 C-32.73074777 43.30349459 -34.64055013 45.24930886 -36.55078125 47.1953125 C-37.89115387 48.54569379 -39.2324928 49.89511656 -40.57475281 51.24362183 C-44.11000397 54.79981623 -47.63353417 58.36739512 -51.15429688 61.93792725 C-56.77531564 67.63413667 -62.41483677 73.31204066 -68.05257225 78.9916954 C-70.01205028 80.96873442 -71.967154 82.9500122 -73.92146301 84.93215942 C-79.15834501 90.23209512 -84.36889901 95.45638122 -90.05192566 100.28271484 C-94.44123348 104.15201952 -98.50064749 108.37995227 -102.625 112.52734375 C-103.62225677 113.52647028 -104.61973802 114.5253728 -105.61743164 115.52406311 C-108.21705679 118.1274695 -110.81366231 120.7338667 -113.40960693 123.34094238 C-116.06939763 126.01104274 -118.7320934 128.67824277 -121.39453125 131.34570312 C-126.59916888 136.56100038 -131.8006134 141.77946716 -137 147 C-141.93366519 144.24741325 -146.65940128 141.30947638 -151.33984375 138.1484375 C-152.02446182 137.68950104 -152.7090799 137.23056458 -153.41444397 136.75772095 C-156.30482439 134.82007907 -159.19156831 132.87705141 -162.07836914 130.93408203 C-166.32295425 128.07967042 -170.57668484 125.23996145 -174.84637451 122.42321777 C-176.3095315 121.4562943 -177.76993377 120.48519209 -179.22784424 119.51037598 C-181.39353234 118.06705818 -183.57159502 116.64458283 -185.75390625 115.2265625 C-186.4091478 114.78516937 -187.06438934 114.34377625 -187.73948669 113.88900757 C-191.33316038 111.55490937 -191.33316038 111.55490937 -195.48916626 111.19915771 C-198.29146777 112.09296502 -199.51750402 113.03650594 -201.56176758 115.12353516 C-202.21627396 115.78157135 -202.87078033 116.43960754 -203.54512024 117.11758423 C-204.58432869 118.19246597 -204.58432869 118.19246597 -205.64453125 119.2890625 C-206.37314865 120.02571136 -207.10176605 120.76236023 -207.85246277 121.52133179 C-210.18210496 123.87995958 -212.49774485 126.25176834 -214.8125 128.625 C-217.11900555 130.97424098 -219.42837771 133.32058877 -221.74040222 135.66439819 C-223.17672778 137.12212987 -224.60950871 138.58336608 -226.03804016 140.04873657 C-229.91612465 144.00267163 -233.90979197 147.71921468 -238.10609436 151.33242798 C-240.99087185 153.87245644 -243.67640592 156.5897485 -246.36328125 159.3359375 C-247.50833662 160.49361514 -248.65352252 161.65116368 -249.79882812 162.80859375 C-251.56936557 164.60410316 -253.33822876 166.40120892 -255.10473633 168.20068359 C-256.83240846 169.95844959 -258.5661633 171.71002947 -260.30078125 173.4609375 C-260.82891922 174.0025351 -261.35705719 174.54413269 -261.90119934 175.10214233 C-264.25738839 177.47443072 -265.77998582 178.92666194 -269 180 C-271.64 177.36 -274.28 174.72 -277 172 C-271.82213191 165.81181618 -266.44750627 160.05555689 -260.3046875 154.8125 C-255.82409098 150.91094394 -251.66118676 146.73698251 -247.5 142.5 C-243.51251633 138.43988457 -239.54997445 134.41460888 -235.21875 130.71875 C-229.50510935 125.80288415 -224.29152922 120.36012312 -219 115 C-203.9602122 99.76525199 -203.9602122 99.76525199 -199 96 C-198.40501709 95.53013672 -197.81003418 95.06027344 -197.19702148 94.57617188 C-195 94 -195 94 -191.94165039 95.47851562 C-190.73261541 96.27117625 -189.53530976 97.08189838 -188.34765625 97.90625 C-187.69923767 98.33786942 -187.05081909 98.76948883 -186.38275146 99.21418762 C-184.26584797 100.62827777 -182.16467345 102.06412624 -180.0625 103.5 C-178.614619 104.47062747 -177.16563884 105.43961727 -175.71557617 106.40698242 C-169.24401588 110.73399174 -162.81553779 115.1236965 -156.390625 119.51953125 C-155.43406006 120.16921875 -154.47749512 120.81890625 -153.49194336 121.48828125 C-151.74773584 122.67577269 -150.01108839 123.87447065 -148.28344727 125.0859375 C-147.51572998 125.61058594 -146.7480127 126.13523437 -145.95703125 126.67578125 C-144.98213745 127.3550769 -144.98213745 127.3550769 -143.98754883 128.0480957 C-141.27525164 129.34710648 -139.98472109 129.59015578 -137 129 C-134.5496911 127.22744406 -132.53079875 125.08718803 -130.44921875 122.90234375 C-129.83158157 122.27526016 -129.2139444 121.64817657 -128.57759094 121.00209045 C-126.60210384 118.99202029 -124.64439949 116.96565577 -122.6875 114.9375 C-120.11268047 112.29625823 -117.53119295 109.66158919 -114.94921875 107.02734375 C-114.33319794 106.39609589 -113.71717712 105.76484802 -113.08248901 105.11447144 C-109.36917723 101.32711379 -105.56671094 97.73360727 -101.51098633 94.31079102 C-99.46708923 92.53769625 -97.73910812 90.56893897 -96 88.5 C-92.21353723 84.19023956 -88.17228721 80.29661403 -83.953125 76.4140625 C-74.8759228 67.97868669 -66.10063947 59.25257588 -57.35009766 50.48046875 C-54.71502855 47.83995631 -52.07454416 45.20494135 -49.43359375 42.5703125 C-47.74186613 40.87792535 -46.05044806 39.1852287 -44.359375 37.4921875 C-43.57713562 36.71197235 -42.79489624 35.9317572 -41.98895264 35.12789917 C-35.08541234 29.04241653 -35.08541234 29.04241653 -31.8125 21.0625 C-33.28852844 17.25590033 -35.28918614 15.70306389 -38.50390625 13.296875 C-39.24447266 12.65492187 -39.24447266 12.65492187 -40 12 C-40 11.34 -40 10.68 -40 10 C-30.53524824 7.34263242 -21.06147461 4.7201309 -11.5625 2.1875 C-10.75256592 1.96876221 -9.94263184 1.75002441 -9.1081543 1.5246582 C-5.99585852 0.70074694 -3.2343488 0 0 0 Z " fill="#FAFAFA" transform="translate(374,90)"/>
<path d="M0 0 C8.91 0 17.82 0 27 0 C27 58.08 27 116.16 27 176 C18.09 176 9.18 176 0 176 C0 117.92 0 59.84 0 0 Z " fill="#FEFEFE" transform="translate(340,183)"/>
<path d="M0 0 C1.28753174 0.00136711 1.28753174 0.00136711 2.60107422 0.00276184 C3.48134277 -0.00152328 4.36161133 -0.00580841 5.26855469 -0.01022339 C7.1313389 -0.01597132 8.99414556 -0.01646355 10.85693359 -0.01213074 C13.71474263 -0.00896944 16.57151819 -0.03242828 19.42919922 -0.05778503 C21.23648957 -0.06005776 23.04378272 -0.06076165 24.85107422 -0.05973816 C25.70942871 -0.06894791 26.5677832 -0.07815765 27.45214844 -0.08764648 C29.85888672 -0.06877136 29.85888672 -0.06877136 33.72607422 0.30354309 C36.38649909 4.2941804 36.0061234 7.77636753 35.98486328 12.40901184 C35.98836792 13.34097382 35.99187256 14.27293579 35.9954834 15.23313904 C36.00429858 18.31918243 35.99845226 21.40499729 35.99169922 24.49104309 C35.99304593 26.63191268 35.99498651 28.77278197 35.99749756 30.91365051 C36.00044853 35.40269377 35.99615199 39.8916575 35.98681641 44.38069153 C35.97542193 50.1412082 35.98198154 55.90153851 35.99396133 61.66204834 C36.00118062 66.08346466 35.99889168 70.50483663 35.99370575 74.92625427 C35.99236944 77.05058311 35.9940163 79.17491594 35.99866486 81.29924011 C36.00373115 84.26562703 35.99601828 87.23171011 35.98486328 90.19807434 C35.98891174 91.08024628 35.99296021 91.96241821 35.99713135 92.87132263 C35.95460478 98.96074725 35.95460478 98.96074725 33.72607422 102.30354309 C30.69896406 102.60740074 27.88019947 102.72341107 24.85107422 102.70198059 C23.53067139 102.70628586 23.53067139 102.70628586 22.18359375 102.7106781 C20.32079425 102.71272137 18.45797342 102.70717319 16.59521484 102.69465637 C13.73730681 102.67860617 10.88081306 102.69449591 8.02294922 102.71369934 C6.21565442 102.71171696 4.4083605 102.70787338 2.60107422 102.70198059 C1.74271973 102.70805328 0.88436523 102.71412598 0 102.72038269 C-2.40673828 102.69172668 -2.40673828 102.69172668 -6.27392578 102.30354309 C-8.30214124 99.2612199 -8.52426972 98.68517174 -8.52789307 95.27374268 C-8.53353271 94.45633606 -8.53917236 93.63892944 -8.54498291 92.79675293 C-8.54093445 91.90365921 -8.53688599 91.01056549 -8.53271484 90.09040833 C-8.53621948 89.14708649 -8.53972412 88.20376465 -8.54333496 87.2318573 C-8.55214969 84.10854267 -8.54630445 80.98545384 -8.53955078 77.86213684 C-8.54089739 75.69645138 -8.54283789 73.53076621 -8.54534912 71.36508179 C-8.54829994 66.82476424 -8.54400363 62.28452534 -8.53466797 57.74421692 C-8.52326671 51.91410033 -8.5298375 46.08416774 -8.5418129 40.25405788 C-8.54902681 35.78206995 -8.54674584 31.31012591 -8.54155731 26.83813667 C-8.54021987 24.68786154 -8.54187182 22.53758247 -8.54651642 20.38731194 C-8.55157467 17.38719436 -8.54388157 14.38737834 -8.53271484 11.38728333 C-8.53676331 10.49216537 -8.54081177 9.59704742 -8.54498291 8.67480469 C-8.49352233 1.24187469 -7.45602094 0.08948473 0 0 Z " fill="#FBFBFB" transform="translate(222.27392578125,264.6964569091797)"/>
<path d="M0 0 C1.25472107 0.00607269 1.25472107 0.00607269 2.53479004 0.01226807 C3.39286255 0.01035461 4.25093506 0.00844116 5.13500977 0.00646973 C6.95072726 0.00510763 8.76645449 0.00880579 10.58215332 0.01715088 C13.36736854 0.02785015 16.15193872 0.01725653 18.93713379 0.00445557 C20.69885397 0.00577716 22.46057374 0.00833954 24.22229004 0.01226807 C25.05877075 0.0082196 25.89525146 0.00417114 26.75708008 0 C32.6486217 0.04797473 32.6486217 0.04797473 34.87854004 2.27789307 C35.07593486 4.7692857 35.14786041 7.14960099 35.13250732 9.64215088 C35.13562731 10.41015644 35.13874729 11.178162 35.14196181 11.96944046 C35.14997329 14.55670984 35.14360601 17.14374672 35.1373291 19.73101807 C35.14003757 21.58026264 35.14359768 23.42950613 35.14794922 25.27874756 C35.15709267 30.3116875 35.15352093 35.34454575 35.14719105 40.37748718 C35.14214115 45.63498155 35.14681968 50.89246875 35.14996338 56.14996338 C35.15360598 64.98037985 35.14879623 73.81076291 35.13928223 82.64117432 C35.12839712 92.86246544 35.13192249 103.08367678 35.14293504 113.30496597 C35.15199955 122.06760467 35.15329729 130.8302193 35.1480577 139.59286118 C35.14493339 144.83216409 35.14454126 150.07142945 35.15113068 155.31072998 C35.15689138 160.23545583 35.15293073 165.16007844 35.14134216 170.08479309 C35.13868872 171.89646737 35.13947225 173.70815028 35.14386749 175.51982117 C35.14929755 177.98454475 35.14252004 180.44893327 35.13250732 182.91363525 C35.13696877 183.63794361 35.14143021 184.36225197 35.14602685 185.10850906 C35.10684021 190.0495929 35.10684021 190.0495929 32.87854004 192.27789307 C29.96104869 192.47787631 27.14052075 192.55764194 24.22229004 192.54351807 C23.36421753 192.54543152 22.50614502 192.54734497 21.62207031 192.54931641 C19.80635281 192.5506785 17.99062559 192.54698034 16.17492676 192.53863525 C13.38971154 192.52793598 10.60514136 192.5385296 7.81994629 192.55133057 C6.05822611 192.55000898 4.29650633 192.54744659 2.53479004 192.54351807 C1.28006897 192.54959076 1.28006897 192.54959076 0 192.55578613 C-5.89154162 192.50781141 -5.89154162 192.50781141 -8.12145996 190.27789307 C-8.31885478 187.78650043 -8.39078033 185.40618514 -8.37542725 182.91363525 C-8.37854723 182.14562969 -8.38166721 181.37762413 -8.38488173 180.58634567 C-8.39289322 177.9990763 -8.38652593 175.41203941 -8.38024902 172.82476807 C-8.38295749 170.9755235 -8.38651761 169.12628001 -8.39086914 167.27703857 C-8.40001259 162.24409863 -8.39644085 157.21124038 -8.39011097 152.17829895 C-8.38506107 146.92080458 -8.3897396 141.66331739 -8.3928833 136.40582275 C-8.3965259 127.57540628 -8.39171615 118.74502322 -8.38220215 109.91461182 C-8.37131704 99.69332069 -8.37484241 89.47210935 -8.38585496 79.25082016 C-8.39491947 70.48818146 -8.39621722 61.72556683 -8.39097762 52.96292496 C-8.38785331 47.72362205 -8.38746118 42.48435668 -8.3940506 37.24505615 C-8.3998113 32.3203303 -8.39585066 27.39570769 -8.38426208 22.47099304 C-8.38160864 20.65931876 -8.38239217 18.84763586 -8.38678741 17.03596497 C-8.39221747 14.57124138 -8.38543997 12.10685286 -8.37542725 9.64215088 C-8.37988869 8.91784252 -8.38435013 8.19353416 -8.38894677 7.44727707 C-8.33542688 0.69889917 -6.54693961 0.05331162 0 0 Z M-0.12145996 8.27789307 C-0.12145996 66.35789307 -0.12145996 124.43789307 -0.12145996 184.27789307 C8.78854004 184.27789307 17.69854004 184.27789307 26.87854004 184.27789307 C26.87854004 126.19789307 26.87854004 68.11789307 26.87854004 8.27789307 C17.96854004 8.27789307 9.05854004 8.27789307 -0.12145996 8.27789307 Z " fill="#000000" transform="translate(340.1214599609375,174.72210693359375)"/>
<path d="M0 0 C8.91 0 17.82 0 27 0 C27 40.26 27 80.52 27 122 C18.09 122 9.18 122 0 122 C0 81.74 0 41.48 0 0 Z " fill="#FDFDFD" transform="translate(281,237)"/>
<path d="M0 0 C1.21720482 0.00136711 1.21720482 0.00136711 2.45899963 0.00276184 C3.29250443 -0.00152328 4.12600922 -0.00580841 4.98477173 -0.01022339 C6.74920238 -0.01597126 8.51365674 -0.01646359 10.27809143 -0.01213074 C12.98008121 -0.00897336 15.68097367 -0.03241436 18.38282776 -0.05778503 C20.095717 -0.06005822 21.80860919 -0.06076143 23.52149963 -0.05973816 C24.33094528 -0.06894791 25.14039093 -0.07815765 25.97436523 -0.08764648 C31.54134971 -0.04166415 31.54134971 -0.04166415 33.77070618 1.45179749 C35.61315734 4.10489568 35.43082802 6.09051654 35.42897034 9.30378723 C35.43831352 11.1556942 35.43831352 11.1556942 35.44784546 13.04501343 C35.43915831 14.39291284 35.42984042 15.74080831 35.41993713 17.08869934 C35.4194185 18.46967569 35.41993633 19.85065279 35.42144775 21.23162842 C35.42135807 24.1242832 35.41093541 27.01665906 35.39283752 29.90925598 C35.37012896 33.62073222 35.36961037 37.33180166 35.37635517 41.04332829 C35.37969292 43.89402902 35.37306915 46.74463665 35.36322594 49.59531975 C35.35937186 50.96408539 35.35822658 52.33286139 35.35981178 53.70163155 C35.36018174 55.61200911 35.34610085 57.52237311 35.33131409 59.43269348 C35.3267067 60.52062698 35.3220993 61.60856049 35.31735229 62.72946167 C35.05665588 65.30354309 35.05665588 65.30354309 33.05665588 67.30354309 C30.13916453 67.50352633 27.31863659 67.58329196 24.40040588 67.56916809 C23.54233337 67.57108154 22.68426086 67.572995 21.80018616 67.57496643 C19.98446866 67.57632853 18.16874143 67.57263037 16.3530426 67.56428528 C13.56782739 67.55358601 10.7832572 67.56417962 7.99806213 67.57698059 C6.23634195 67.575659 4.47462218 67.57309662 2.71290588 67.56916809 C1.45818481 67.57524078 1.45818481 67.57524078 0.17811584 67.58143616 C-5.71342578 67.53346143 -5.71342578 67.53346143 -7.94334412 65.30354309 C-8.1973114 62.68476868 -8.1973114 62.68476868 -8.20213318 59.32502747 C-8.2084375 58.07032654 -8.21474182 56.81562561 -8.22123718 55.52290344 C-8.2176575 54.14769857 -8.21355557 52.77249497 -8.20896912 51.39729309 C-8.21031584 49.99246656 -8.21225644 48.58764048 -8.21476746 47.18281555 C-8.21771838 44.23717313 -8.2134222 41.29165191 -8.2040863 38.34602356 C-8.19269167 34.56615806 -8.19925133 30.78657657 -8.21123123 27.0067215 C-8.21845077 24.10542147 -8.2161615 21.20418901 -8.21097565 18.30288696 C-8.2096394 16.90899624 -8.211286 15.51509943 -8.21593475 14.12121582 C-8.22100122 12.17483128 -8.21191282 10.22842529 -8.20213318 8.28205872 C-8.20054199 7.17334412 -8.19895081 6.06462952 -8.1973114 4.9223175 C-7.6842388 -0.36821199 -4.59080745 0.05827203 0 0 Z " fill="#030303" transform="translate(104.94334411621094,299.6964569091797)"/>
<path d="M0 0 C1.25472107 0.00607269 1.25472107 0.00607269 2.53479004 0.01226807 C3.39286255 0.01035461 4.25093506 0.00844116 5.13500977 0.00646973 C6.95072726 0.00510763 8.76645449 0.00880579 10.58215332 0.01715088 C13.36736854 0.02785015 16.15193872 0.01725653 18.93713379 0.00445557 C20.69885397 0.00577716 22.46057374 0.00833954 24.22229004 0.01226807 C25.05877075 0.0082196 25.89525146 0.00417114 26.75708008 0 C32.6486217 0.04797473 32.6486217 0.04797473 34.87854004 2.27789307 C35.12742901 4.62954044 35.12742901 4.62954044 35.1257782 7.63679504 C35.12997269 8.77401001 35.13416718 9.91122498 35.13848877 11.082901 C35.13286926 12.33648911 35.12724976 13.59007721 35.12145996 14.88165283 C35.12335831 16.19707062 35.12525665 17.5124884 35.12721252 18.86776733 C35.1320686 22.48128316 35.1243961 26.09467591 35.11425948 29.70817685 C35.10549289 33.48336227 35.10723614 37.25854366 35.10762024 41.03373718 C35.10668306 47.37320015 35.09799131 53.7126153 35.08435059 60.05206299 C35.06861773 67.39113809 35.06335268 74.73016085 35.06408614 82.0692516 C35.06469557 89.11828247 35.05959833 96.16729621 35.05129433 103.21632195 C35.04775536 106.2214973 35.04593021 109.22666661 35.04540062 112.23184395 C35.04421357 116.42243062 35.03451763 120.61295471 35.02380371 124.80352783 C35.0242569 126.05914017 35.02471008 127.3147525 35.025177 128.6084137 C35.02091202 129.74280884 35.01664703 130.87720398 35.01225281 132.04597473 C35.01057696 133.03799172 35.00890112 134.03000872 35.00717449 135.05208683 C34.87854004 137.27789307 34.87854004 137.27789307 33.87854004 138.27789307 C30.9448973 138.40382505 28.03608325 138.46657373 25.10119629 138.48101807 C23.77867104 138.48956818 23.77867104 138.48956818 22.4294281 138.49829102 C20.56067104 138.50775512 18.69189718 138.51428057 16.82312012 138.51812744 C13.95653356 138.52784057 11.09066146 138.55885335 8.22424316 138.59039307 C6.41239848 138.59692198 4.60054865 138.60217289 2.78869629 138.60601807 C1.92720474 138.61836487 1.0657132 138.63071167 0.17811584 138.64343262 C-2.23840332 138.63433838 -2.23840332 138.63433838 -6.12145996 138.27789307 C-8.36417397 134.91382205 -8.37238699 133.81420548 -8.37542725 129.88139343 C-8.38106689 128.76107727 -8.38670654 127.64076111 -8.39251709 126.48649597 C-8.38846863 125.25677567 -8.38442017 124.02705536 -8.38024902 122.7600708 C-8.38375366 121.46562042 -8.3872583 120.17117004 -8.39086914 118.8374939 C-8.39999473 115.28595963 -8.39644846 111.73454142 -8.39011097 108.18300509 C-8.38505292 104.46968186 -8.38974178 100.75636866 -8.3928833 97.04304504 C-8.39652306 90.80791435 -8.39172312 84.57283102 -8.38220215 78.33770752 C-8.37131279 71.12300526 -8.37484659 63.90841599 -8.38585496 56.69371647 C-8.39492187 50.50428181 -8.39621619 44.31488123 -8.39097762 38.12544209 C-8.38785524 34.42651425 -8.38745598 30.72763958 -8.3940506 27.02871513 C-8.40088421 22.90784857 -8.39142109 18.78717783 -8.38024902 14.6663208 C-8.38429749 13.43457626 -8.38834595 12.20283173 -8.39251709 10.9337616 C-8.38687744 9.81626526 -8.38123779 8.69876892 -8.37542725 7.54740906 C-8.37467319 6.57236136 -8.37391914 5.59731367 -8.37314224 4.59271908 C-7.81379453 -0.55183312 -4.35570028 0.0354684 0 0 Z M-0.12145996 8.27789307 C-0.12145996 48.53789307 -0.12145996 88.79789307 -0.12145996 130.27789307 C8.78854004 130.27789307 17.69854004 130.27789307 26.87854004 130.27789307 C26.87854004 90.01789307 26.87854004 49.75789307 26.87854004 8.27789307 C17.96854004 8.27789307 9.05854004 8.27789307 -0.12145996 8.27789307 Z " fill="#060606" transform="translate(281.1214599609375,228.72210693359375)"/>
<path d="M0 0 C1.11606093 -0.00260775 2.23212187 -0.00521549 3.38200283 -0.00790226 C5.24426557 -0.00455618 5.24426557 -0.00455618 7.14414978 -0.0011425 C8.45103539 -0.00270249 9.75792101 -0.00426248 11.10440922 -0.00586975 C14.74873149 -0.01006763 18.39302778 -0.00797032 22.03735018 -0.00488353 C25.96104393 -0.0026315 29.88473305 -0.00610805 33.8084259 -0.00886345 C41.50158454 -0.01332227 49.19473346 -0.01234419 56.88789248 -0.00945081 C63.13738507 -0.00719721 69.38687492 -0.00688406 75.6363678 -0.00797462 C76.52405918 -0.00812786 77.41175057 -0.00828109 78.32634169 -0.00843897 C80.12937443 -0.00875868 81.93240716 -0.00908289 83.7354399 -0.00941156 C100.66327078 -0.01226668 117.59109626 -0.00897883 134.51892626 -0.00361119 C149.06026324 0.00085688 163.60159224 0.00008095 178.14292908 -0.00452995 C195.00802842 -0.00987515 211.87312301 -0.01199198 228.73822308 -0.00891769 C230.53481738 -0.00859912 232.33141168 -0.00828475 234.12800598 -0.00797462 C235.01208557 -0.00782035 235.89616515 -0.00766607 236.80703503 -0.00750712 C243.0528001 -0.0066418 249.29856218 -0.00810516 255.54432678 -0.01045418 C263.15039899 -0.01325178 270.75646088 -0.01251477 278.3625319 -0.00717343 C282.24712966 -0.00453587 286.13171018 -0.00353227 290.01630783 -0.00682259 C294.2176284 -0.01032748 298.41890498 -0.00615749 302.620224 -0.0011425 C303.86173249 -0.00337322 305.10324099 -0.00560395 306.38237095 -0.00790226 C308.05646235 -0.00399064 308.05646235 -0.00399064 309.76437378 0 C311.22111716 0.00024353 311.22111716 0.00024353 312.7072897 0.00049198 C314.88218689 0.12584114 314.88218689 0.12584114 315.88218689 1.12584114 C316.06968689 3.56334114 316.06968689 3.56334114 315.88218689 6.12584114 C313.29311094 8.71491709 312.27803384 8.37631014 308.675354 8.37752342 C307.56488551 8.38273892 306.45441702 8.38795441 305.31029797 8.39332795 C304.08016633 8.38886651 302.85003469 8.38440506 301.58262634 8.37980843 C299.63432529 8.3844884 299.63432529 8.3844884 297.64666462 8.38926291 C294.02930928 8.39764828 290.41205883 8.39346879 286.79470301 8.38729048 C282.89826892 8.3827822 279.00185342 8.38974164 275.10542297 8.39525032 C267.46753606 8.40416341 259.82968836 8.40221381 252.19179988 8.39642504 C245.98667373 8.39191606 239.78155859 8.39129232 233.57643127 8.39347267 C232.69471483 8.39377914 231.81299838 8.3940856 230.90456325 8.39440136 C229.11361177 8.39504078 227.3226603 8.39568921 225.53170884 8.39634654 C208.72115256 8.40205544 191.91061806 8.39548317 175.10006535 8.38474581 C160.66251943 8.37580979 146.22500567 8.37736167 131.78746033 8.38658333 C115.03880248 8.39727608 98.29016374 8.40150607 81.54150295 8.3953588 C79.75698281 8.39472167 77.97246266 8.39409293 76.1879425 8.39347267 C75.30982684 8.39316412 74.43171117 8.39285557 73.52698594 8.39253767 C67.32625929 8.39080774 61.12554472 8.39373223 54.92481995 8.39843178 C47.37258772 8.40402958 39.82039708 8.40254745 32.26816964 8.39187029 C28.41177724 8.38659868 24.5554543 8.38458202 20.69906235 8.39116859 C16.52656304 8.39818751 12.35424052 8.38983108 8.18174744 8.37980843 C6.9516158 8.38426987 5.72148417 8.38873131 4.45407581 8.39332795 C3.34360732 8.38811246 2.23313883 8.38289696 1.08901978 8.37752342 C-0.35722763 8.37703637 -0.35722763 8.37703637 -1.83269215 8.37653947 C-4.11781311 8.12584114 -4.11781311 8.12584114 -6.11781311 6.12584114 C-6.30531311 3.56334114 -6.30531311 3.56334114 -6.11781311 1.12584114 C-4.4283759 -0.56359607 -2.31532287 0.00038706 0 0 Z " fill="#090909" transform="translate(81.11781311035156,376.87415885925293)"/>
<path d="M0 0 C0.85711578 -0.00570007 1.71423157 -0.01140015 2.59732056 -0.01727295 C4.41480265 -0.02673782 6.23230202 -0.03326281 8.04980469 -0.03710938 C10.83298676 -0.04681025 13.61542911 -0.07781714 16.3984375 -0.109375 C18.16145393 -0.11590521 19.92447566 -0.12115561 21.6875 -0.125 C22.93918472 -0.1435202 22.93918472 -0.1435202 24.21615601 -0.16241455 C29.99939403 -0.14008747 29.99939403 -0.14008747 32.19722271 1.44074249 C33.8330835 3.6942583 33.85135692 4.98617028 33.8507843 7.75769043 C33.86130577 9.15832985 33.86130577 9.15832985 33.87203979 10.58726501 C33.86439606 11.60969803 33.85675232 12.63213104 33.84887695 13.68554688 C33.85252762 14.76381241 33.85617828 15.84207794 33.85993958 16.95301819 C33.86806205 20.52612943 33.85442048 24.0987896 33.83984375 27.671875 C33.83932535 30.14904785 33.83984227 32.62622111 33.84135437 35.10339355 C33.84125306 40.96467264 33.82635728 46.82578549 33.80570334 52.68702459 C33.78601077 58.68951074 33.79018625 64.69185044 33.79626179 70.69435883 C33.79959891 75.81062849 33.79297649 80.92684625 33.78313255 86.04310608 C33.77927584 88.50236235 33.77813428 90.96162439 33.7797184 93.42088318 C33.78008812 96.85426894 33.76749459 100.28736131 33.7512207 103.72070312 C33.75369812 104.74313614 33.75617554 105.76556915 33.75872803 106.81898499 C33.74810081 108.2196244 33.74810081 108.2196244 33.73725891 109.64855957 C33.73520604 110.46044991 33.73315317 111.27234024 33.73103809 112.10883331 C33.4765625 114.203125 33.4765625 114.203125 31.4765625 117.203125 C28.52019042 117.48224445 25.77614895 117.57487937 22.8203125 117.53125 C21.96223999 117.52937683 21.10416748 117.52750366 20.22009277 117.52557373 C18.40433879 117.51884566 16.58859948 117.50491621 14.77294922 117.484375 C11.98781931 117.4532508 9.20325523 117.44340833 6.41796875 117.4375 C4.65624308 117.42832893 2.89452318 117.41795283 1.1328125 117.40625 C0.29633179 117.40200012 -0.54014893 117.39775024 -1.40197754 117.39337158 C-7.28905687 117.32031531 -7.28905687 117.32031531 -9.5234375 116.203125 C-9.54676727 101.22626194 -9.56441706 86.24940028 -9.57524967 71.27252293 C-9.58041246 64.31896419 -9.58745484 57.36541673 -9.59887695 50.41186523 C-9.60988444 43.70755291 -9.61571371 37.00325475 -9.61831474 30.29893303 C-9.62016952 27.73474887 -9.62379114 25.17056538 -9.62916756 22.60638618 C-9.63637409 19.02867342 -9.63742861 15.45100981 -9.63696289 11.87329102 C-9.64055817 10.80155136 -9.64415344 9.72981171 -9.64785767 8.62559509 C-9.646483 7.65659271 -9.64510834 6.68759033 -9.64369202 5.68922424 C-9.64461381 4.84209649 -9.6455356 3.99496874 -9.64648533 3.12217045 C-9.33940952 -1.66696266 -3.66354035 0.01856829 0 0 Z M-2.5234375 8.203125 C-2.5234375 41.533125 -2.5234375 74.863125 -2.5234375 109.203125 C6.7165625 109.203125 15.9565625 109.203125 25.4765625 109.203125 C25.4765625 75.873125 25.4765625 42.543125 25.4765625 8.203125 C16.2365625 8.203125 6.9965625 8.203125 -2.5234375 8.203125 Z " fill="#050505" transform="translate(165.5234375,249.796875)"/>
<path d="M0 0 C1.28753174 0.00136711 1.28753174 0.00136711 2.60107422 0.00276184 C3.48134277 -0.00152328 4.36161133 -0.00580841 5.26855469 -0.01022339 C7.1313389 -0.01597132 8.99414556 -0.01646355 10.85693359 -0.01213074 C13.71474263 -0.00896944 16.57151819 -0.03242828 19.42919922 -0.05778503 C21.23648957 -0.06005776 23.04378272 -0.06076165 24.85107422 -0.05973816 C25.70942871 -0.06894791 26.5677832 -0.07815765 27.45214844 -0.08764648 C29.85888672 -0.06877136 29.85888672 -0.06877136 33.72607422 0.30354309 C36.38649909 4.2941804 36.0061234 7.77636753 35.98486328 12.40901184 C35.98836792 13.34097382 35.99187256 14.27293579 35.9954834 15.23313904 C36.00429858 18.31918243 35.99845226 21.40499729 35.99169922 24.49104309 C35.99304593 26.63191268 35.99498651 28.77278197 35.99749756 30.91365051 C36.00044853 35.40269377 35.99615199 39.8916575 35.98681641 44.38069153 C35.97542193 50.1412082 35.98198154 55.90153851 35.99396133 61.66204834 C36.00118062 66.08346466 35.99889168 70.50483663 35.99370575 74.92625427 C35.99236944 77.05058311 35.9940163 79.17491594 35.99866486 81.29924011 C36.00373115 84.26562703 35.99601828 87.23171011 35.98486328 90.19807434 C35.98891174 91.08024628 35.99296021 91.96241821 35.99713135 92.87132263 C35.95460478 98.96074725 35.95460478 98.96074725 33.72607422 102.30354309 C30.69896406 102.60740074 27.88019947 102.72341107 24.85107422 102.70198059 C23.53067139 102.70628586 23.53067139 102.70628586 22.18359375 102.7106781 C20.32079425 102.71272137 18.45797342 102.70717319 16.59521484 102.69465637 C13.73730681 102.67860617 10.88081306 102.69449591 8.02294922 102.71369934 C6.21565442 102.71171696 4.4083605 102.70787338 2.60107422 102.70198059 C1.74271973 102.70805328 0.88436523 102.71412598 0 102.72038269 C-2.40673828 102.69172668 -2.40673828 102.69172668 -6.27392578 102.30354309 C-8.30214124 99.2612199 -8.52426972 98.68517174 -8.52789307 95.27374268 C-8.53353271 94.45633606 -8.53917236 93.63892944 -8.54498291 92.79675293 C-8.54093445 91.90365921 -8.53688599 91.01056549 -8.53271484 90.09040833 C-8.53621948 89.14708649 -8.53972412 88.20376465 -8.54333496 87.2318573 C-8.55214969 84.10854267 -8.54630445 80.98545384 -8.53955078 77.86213684 C-8.54089739 75.69645138 -8.54283789 73.53076621 -8.54534912 71.36508179 C-8.54829994 66.82476424 -8.54400363 62.28452534 -8.53466797 57.74421692 C-8.52326671 51.91410033 -8.5298375 46.08416774 -8.5418129 40.25405788 C-8.54902681 35.78206995 -8.54674584 31.31012591 -8.54155731 26.83813667 C-8.54021987 24.68786154 -8.54187182 22.53758247 -8.54651642 20.38731194 C-8.55157467 17.38719436 -8.54388157 14.38737834 -8.53271484 11.38728333 C-8.53676331 10.49216537 -8.54081177 9.59704742 -8.54498291 8.67480469 C-8.49352233 1.24187469 -7.45602094 0.08948473 0 0 Z M-0.27392578 8.30354309 C-0.27392578 36.68354309 -0.27392578 65.06354309 -0.27392578 94.30354309 C8.96607422 94.30354309 18.20607422 94.30354309 27.72607422 94.30354309 C27.72607422 65.92354309 27.72607422 37.54354309 27.72607422 8.30354309 C18.48607422 8.30354309 9.24607422 8.30354309 -0.27392578 8.30354309 Z " fill="#080808" transform="translate(222.27392578125,264.6964569091797)"/>
<path d="M0 0 C8.91 0 17.82 0 27 0 C27 16.83 27 33.66 27 51 C18.09 51 9.18 51 0 51 C0 34.17 0 17.34 0 0 Z " fill="#FDFDFD" transform="translate(105,308)"/>
</svg>
