<svg transform="scale(1)" version="1.1" id="Y7iygcVmOf" xmlns="http://www.w3.org/2000/svg" xmlns:xlink="http://www.w3.org/1999/xlink" x="0px" y="0px" viewBox="0 0 500 500" xml:space="preserve" class="pbimage_pbimage__wrapper__image__0LEis false"><title>Page Not Found 2</title><style type="text/css"> .st0{fill:#FFFFFF;} .st1{fill:#000005;} .st2{fill:#59BE4C;}
 .st2{fill:#3E5CD6;}
 .st1{fill:#000005;}
 .st0{fill:#FFFFFF;}</style><g id="device"><path class="st0" d="M31.6,111.8h186.5c4.3-0.1,7.9,3.3,8,7.6c0,0,0,0,0,0v125.2c-0.1,4.3-3.7,7.7-8,7.6c0,0,0,0,0,0H31.6
		c-4.3,0.1-7.9-3.3-8-7.6V119.4C23.8,115.1,27.3,111.6,31.6,111.8C31.6,111.7,31.6,111.7,31.6,111.8z" fill="#FFFFFF"></path><path class="st1" d="M31.5,113.3h183.7c2.4,0,4.8-0.2,6.8,1.4c2.6,2.2,2.3,5.2,2.3,8.3v99.1c0,7.4,0.1,14.9,0,22.3
		c0.1,3.3-2.5,6.1-5.9,6.2c0,0,0,0,0,0c-0.4,0-0.7,0-1,0H50.8c-6.2,0-12.3,0-18.5,0c-3.6,0.2-6.6-2.6-6.8-6.2c0-0.2,0-0.3,0-0.5
		V121.7c0-0.7,0-1.4,0-2.1C25.4,116.2,28,113.4,31.5,113.3C31.4,113.3,31.4,113.3,31.5,113.3c1,0.1,1.8-0.6,2-1.5
		c0-0.9-0.6-1.6-1.5-1.6c0,0-0.1,0-0.1,0c-5.1,0.1-9.9,3.7-10,9.1c0,0.6,0,1.2,0,1.8V244c-0.1,2.2,0.6,4.3,1.8,6
		c1.9,2.4,4.9,3.8,8,3.7c1.9,0,3.7,0,5.6,0H217c0.6,0,1.1,0,1.6,0c4.9-0.3,9.2-4,9.3-9.1c0-2.1,0-4.2,0-6.3V123.1
		c0-3.4,0.3-6.8-2.2-9.6s-6-3.3-9.6-3.3H31.9c-1-0.1-1.8,0.6-2.1,1.5c0,0.9,0.7,1.6,1.5,1.6C31.4,113.3,31.4,113.3,31.5,113.3z" fill="#000005"></path><polygon class="st0" points="107.2,251.7 90.3,278.7 138.6,278.7 155.3,251.7 	" fill="#FFFFFF"></polygon><path class="st1" d="M105.7,250.7l-14.8,23.6l-2.1,3.3c-0.7,1,0.6,2.7,1.7,2.7h35c4.4,0,8.8,0.2,13.2,0c0.7,0,1.4-0.4,1.7-1.1
		c0.5-0.7,0.9-1.5,1.4-2.2l5.3-8.6l9.7-15.7c0.6-1-0.6-2.7-1.7-2.7h-48c-2.3,0-1.6,3.4,0.4,3.4h48l-1.7-2.7l-14.6,23.6l-2.1,3.3
		l1.4-0.7H90.2l1.7,2.7l14.8-23.6l2.1-3.3C109.8,251.1,106.8,248.9,105.7,250.7z" fill="#000005"></path><path class="st0" d="M104.8,251.7c0,0-19.8,28.5-19.5,29.5s25,0,25,0v-2.5H90.3l16.9-27L104.8,251.7z" fill="#FFFFFF"></path><path class="st1" d="M103.1,251.8c-5.1,7.3-10.1,14.6-15,22c-1.2,1.8-2.4,3.6-3.5,5.5c-0.3,0.5-1.5,2-1,2.6
		c0.3,0.4,1.1,0.4,1.5,0.4c0.9,0.1,1.9,0.1,2.8,0.1c2.6,0.1,5.2,0,7.8,0c4.6-0.1,9.2-0.2,13.8-0.4c0.7,0,2.6-0.4,2.6-1.4v-2.5
		c0-0.4-0.9-0.4-1.1-0.4H91.1l0.9,0.8l14.8-23.6l2.1-3.3c0.4-0.7-0.4-0.8-0.9-0.8h-2.5C104.6,250.8,103.8,251.2,103.1,251.8
		c-0.4,0.7,0.4,0.8,0.9,0.8h2.5l-0.9-0.8l-14.8,23.6l-2.1,3.3c-0.4,0.7,0.4,0.8,0.9,0.8h19.9l-1.1-0.4v2.5l2.6-1.4
		c-3.6,0.1-7.2,0.3-10.9,0.4c-2.8,0.1-5.5,0.1-8.3,0.1c-1,0-2.1,0-3-0.1c-0.4,0-0.7,0-1.1-0.1c-0.2,0-1,0-0.6-0.1l-0.2-0.1
		c0-0.1,0.2,0.2,0.2,0.2s-0.1,0.2,0,0.1s0-0.1,0.1-0.2c0.3-0.4,0.5-0.9,0.7-1.3c1-1.7,2.1-3.3,3.2-5c3-4.6,6.2-9.2,9.3-13.8
		c2-3,4-5.9,6.1-8.9C107.2,250.5,103.7,251,103.1,251.8z" fill="#000005"></path><rect class="st0" x="110.3" y="278.7" width="50.1" height="2.5" fill="#FFFFFF"></rect><path class="st1" d="M159.9,278.3h-50.1c-0.1,0-1.4,0-1.4,0.2v2.5c0,0.4,2.2,0.4,2.3,0.4h50.1c0.1,0,1.4,0,1.4-0.2v-2.5
		c0-0.5-3.8-0.6-3.8-0.2v2.5l1.4-0.2h-50.1l2.3,0.4v-2.5l-1.4,0.2h50.1c0.1,0,1.6,0,1.3-0.3S160.2,278.3,159.9,278.3z" fill="#000005"></path><path class="st0" d="M36,112.5h186.5c4.3-0.1,7.9,3.3,8,7.6c0,0,0,0,0,0v125.2c-0.1,4.3-3.7,7.7-8,7.6c0,0,0,0,0,0H36
		c-4.3,0.1-7.9-3.3-8-7.6c0,0,0,0,0,0V120.1C28.1,115.8,31.7,112.4,36,112.5C36,112.5,36,112.5,36,112.5z" fill="#FFFFFF"></path><path class="st1" d="M37.1,113.5h183.7c2.3,0,4.6-0.3,6.3,1.6c2.1,2.3,1.7,5.5,1.7,8.4v99.3c0,7.3,0.1,14.6,0,22
		c-0.1,3.9-3.3,7.1-7.2,7.1H54c-6.2,0-12.3,0-18.5,0c-3.9,0-5.6-3.3-5.6-6.8V122.7c0-0.7,0-1.3,0-2C30,116.7,33.2,113.6,37.1,113.5
		c0.8,0,0.9-0.6,0.5-1.1c-0.7-0.7-1.5-1-2.5-1c-4.7,0.1-8.6,3.4-8.7,8.2c0,0.6,0,1.3,0,1.9v122.8c0,5.9,5.4,9.6,11,9.6h185.3
		c0.5,0,1.1,0,1.6,0c4.4-0.2,7.9-3.8,8-8.2c0-2.2,0-4.3,0-6.5V121c0-2.5-1-4.8-2.8-6.5c-2.3-2-5.2-3.1-8.2-3.1H35
		c-0.8,0-0.9,0.6-0.4,1.1C35.2,113.2,36.1,113.6,37.1,113.5z" fill="#000005"></path><path class="st1" d="M36,110.9h186.5c4.3-0.1,7.9,3.3,8,7.6c0,0,0,0,0,0v104.9H28.1V118.5C28.2,114.2,31.7,110.8,36,110.9
		C36.1,110.9,36.1,110.9,36,110.9L36,110.9z" fill="#000005"></path><path class="st1" d="M36.8,112.3h183.9c1.7,0,3.6-0.2,5.1,0.6c3.3,1.7,2.9,5.2,2.9,8.2v101.6l1-0.8H35.6c-2.6,0-5.3-0.1-7.9,0h-0.3
		l2.4,2V120.8c0-2.6,0.2-5,2.4-6.8C33.4,112.9,35.1,112.3,36.8,112.3c0.6,0,1-0.4,1-1c0-0.2,0-0.4-0.2-0.6c-0.5-0.8-1.3-1.4-2.3-1.3
		c-4.9,0-8.9,3.9-9,8.8c0,0,0,0,0,0.1v89.9c0,4.8,0,9.6,0,14.4v0.2c0.1,1.2,1.2,2.1,2.4,2.1H223c2.6,0,5.3,0.1,7.9,0
		c0.1,0,0.2,0,0.3,0c0.4,0,1-0.3,1-0.8v-97.3c0-2.5,0-4.9,0-7.4c0-5.9-5.1-9.8-10.7-9.9c-5.2,0-10.4,0-15.6,0H35.3c-0.6,0-1,0.4-1,1
		c0,0.2,0,0.4,0.2,0.6C34.9,111.8,35.8,112.3,36.8,112.3z" fill="#000005"></path><ellipse class="st0" cx="129.5" cy="238.4" rx="4.1" ry="3.9" fill="#FFFFFF"></ellipse><path class="st1" d="M129.4,236C129.8,236,129,235.9,129.4,236h0.2l0.3,0.1c0.4,0.1,0,0,0,0l0.5,0.2l0.2,0.1c0.3,0.1-0.3-0.2,0.1,0
		c0.1,0.1,0.3,0.2,0.4,0.3l0.1,0.1c0.1,0.1,0.1,0.1,0-0.1c0,0,0.1,0.1,0.1,0.2c0.1,0.1,0.2,0.3,0.3,0.4c0,0.1,0.1,0.2,0.1,0.2
		l-0.1-0.1c0,0.1,0.1,0.1,0.1,0.2c0.1,0.2,0.1,0.3,0.1,0.5c0,0.1,0,0.1,0,0.2c0.1-0.1,0-0.3,0,0c0,0.2,0,0.3,0,0.5c0,0,0,0.3,0,0.3
		v-0.2c0,0.1,0,0.1-0.1,0.2c-0.1,0.2-0.1,0.3-0.2,0.5s0-0.1,0.1-0.1s-0.1,0.2-0.2,0.3l-0.1,0.2c0,0.1-0.3,0.2,0,0.1s0,0-0.1,0.1
		l-0.2,0.2l-0.1,0.1c-0.1,0.1-0.1,0.1,0.1-0.1c-0.1,0-0.1,0.1-0.2,0.1c-0.2,0.1-0.3,0.2-0.5,0.2c0.3-0.2,0.3-0.1,0.2-0.1l-0.3,0.1
		c-0.1,0-0.1,0-0.2,0.1h0.2h-0.5c-0.3,0,0.1,0,0.1,0c-0.2,0-0.4-0.1-0.6-0.1h-0.1c-0.2,0-0.1,0,0.1,0l-0.2-0.1
		c-0.1,0-0.6-0.2-0.6-0.3s0.4,0.2,0.1,0.1l-0.2-0.2l-0.2-0.2c0,0-0.3-0.2-0.1-0.1s0,0-0.1-0.1c0-0.1-0.1-0.1-0.1-0.2
		c0-0.1-0.4-0.5-0.3-0.5s0.1,0.3,0,0.1s-0.1-0.2-0.1-0.3s-0.2-0.5-0.1-0.5s0,0.4,0,0.1c0-0.1,0-0.2,0-0.3c0-0.1,0-0.5,0-0.6v0.2
		l0.1-0.2c0-0.1,0.1-0.2,0.1-0.3c0-0.1,0.1-0.1,0.1-0.2c0.1-0.3-0.2,0.3,0-0.1c0-0.1,0.3-0.4,0.3-0.5l-0.2,0.2l0.2-0.1l0.2-0.2
		c0.1,0,0.1-0.1,0.2-0.1c-0.2,0.2-0.3,0.2-0.1,0.1l0.1-0.1l0.2-0.1l0.1-0.1l-0.2,0.1c0.2,0,0.4-0.1,0.6-0.2c-0.2,0.1-0.4,0-0.2,0
		S129.3,236,129.4,236c0.9,0,2-0.7,2-1.7c0-0.9-0.8-1.5-1.6-1.5c0,0-0.1,0-0.1,0c-2.5,0-4.7,1.5-5.7,3.8c-0.8,2.1-0.1,4.5,1.7,5.9
		c2,1.5,4.8,1.7,7,0.4c2.1-1.1,3.3-3.5,2.8-5.9c-0.3-1.2-0.9-2.3-1.9-3c-1.1-0.8-2.5-1.3-3.9-1.2c-1,0-1.8,0.7-2,1.6
		C127.6,235.5,128.5,236,129.4,236z" fill="#000005"></path><rect class="st0" x="36" y="118.9" width="186.1" height="97" fill="#FFFFFF"></rect><path class="st1" d="M36.7,119.9h178.6c2.4,0,4.8,0.1,7.2,0c0.1,0,0.2,0,0.3,0l-2.4-1.4V214c0,0.4,0,0.9,0,1.3c0,0.1,0,0.1,0,0.2
		l1.1-0.7H42.9c-2.4,0-4.8-0.1-7.2,0h-0.3l2.4,1.4v-93c0.1-1.3,0.1-2.5,0-3.8c0-0.1,0-0.1,0-0.2c0-1.2-3.6-2.1-3.6-0.7v93
		c-0.1,1.3-0.1,2.5,0,3.8c0,0.1,0,0.1,0,0.2c0,0.9,1.8,1.4,2.4,1.4h178.6c2.4,0,4.8,0,7.2,0h0.3c0.5,0,1.1-0.1,1.1-0.7v-93
		c0.1-1.3,0.1-2.5,0-3.8c0-0.1,0-0.1,0-0.2c0-0.9-1.8-1.4-2.4-1.4H42.9c-2.4,0-4.8,0-7.2,0h-0.3c-0.6,0-1.4,0.2-1,1
		C34.9,119.5,35.8,119.9,36.7,119.9z" fill="#000005"></path><ellipse class="st2" cx="50.1" cy="129.6" rx="2.4" ry="2.3" fill="#3E5CD6"></ellipse><ellipse class="st2" cx="58.8" cy="129.5" rx="2.4" ry="2.3" fill="#3E5CD6"></ellipse><ellipse class="st2" cx="67.7" cy="129.6" rx="2.4" ry="2.3" fill="#3E5CD6"></ellipse><path class="st2" d="M89.2,149.4c-5.7,6.4-11,13-15.9,20c-0.9,1.2,0.6,2.6,1.7,2.9c6.5,1.5,13.2,2.2,19.9,2.1c1,0,2.4-0.4,2.3-1.7
		c-0.3-1.2-1.4-2-2.6-2c-6.2,0.1-12.5-0.5-18.5-1.9l1.7,2.9c4.9-7,10.2-13.6,15.9-20c0.8-0.9-0.3-2.2-1.1-2.6
		C91.4,148.4,90.1,148.5,89.2,149.4L89.2,149.4z" fill="#3E5CD6"></path><path class="st2" d="M92.8,157.9v29.7c0.1,1.2,0.6,2.3,1.3,3.2c0.3,0.4,1.3,1.4,1.3,0.4v-29.7c-0.1-1.2-0.6-2.3-1.3-3.2
		C93.8,157.9,92.8,156.9,92.8,157.9z" fill="#3E5CD6"></path><path class="st2" d="M120,156.2c-5.3-0.9-9.4,5-10.8,9.4c-1.4,4.8,0,9.9,3.6,13.3c3.6,3.3,9,5.9,13.9,4.1c5.2-1.9,6.7-7.5,6.7-12.5
		c0.1-2.9-0.7-5.8-2.5-8.2c-2.1-2.5-4.9-4.4-8.1-5.3c-1-0.3,0.3,0.8,0.5,0.9c0.9,0.7,1.9,1.2,3,1.6c0.7,0.2,0.3,0.1,0.2,0l-0.6-0.4
		l0.2,0.2c0.3,0.4,0.7,0.7,1,1.1c0.5,0.8,1,1.7,1.3,2.6c0.7,2.2,0.8,4.6,0.5,6.9c-0.4,4-1.7,8.1-5.5,10c-1.7,0.8-3.5,1.1-5.3,0.9
		c-0.5,0-0.9-0.1-1.4-0.3c-0.2-0.1-0.9-0.3-0.2,0s0.1,0.1,0-0.1s-0.3-0.3-0.5-0.4c-0.4-0.4-0.7-0.8-1-1.3c-2.2-3.3-2.7-7.5-1.4-11.2
		c0.7-2.1,1.9-4,3.4-5.7c1.6-1.7,3.9-3.6,6.4-3.1c1,0.2-0.3-0.8-0.5-0.9C122.1,157.1,121.1,156.5,120,156.2L120,156.2z" fill="#3E5CD6"></path><path class="st2" d="M159.7,152.7c-5.7,6.4-11,13-15.9,20c-0.9,1.2,0.4,1.9,1.5,2.1c6.5,1.4,13.2,2.1,19.9,2c0.9,0,2.5-0.4,2.5-1.5
		s-1.7-1.4-2.5-1.4c-6.2,0.1-12.5-0.5-18.6-1.9l1.5,2.1c4.9-7,10.2-13.6,15.9-20c0.8-0.9-0.1-1.7-0.9-2
		C161.9,151.7,160.7,152,159.7,152.7L159.7,152.7z" fill="#3E5CD6"></path><path class="st2" d="M162.2,163.1v29.7c0,2.4,4.8,1.1,4.8-1v-29.7C167,159.7,162.2,161.1,162.2,163.1z" fill="#3E5CD6"></path><path class="st2" d="M159.6,123c0,0,21.4-48.6,32-42.2s27.9,40.7,20.6,47.1C204.9,134.3,161.2,130.6,159.6,123z" fill="#3E5CD6"></path><path class="st2" d="M161.8,124.2c3.4-7.7,7.2-15.2,11.5-22.5c2.9-5.2,6.2-10.1,10.1-14.7c1.4-1.7,3.1-3.1,4.9-4.2
		c0.1-0.1,0.7-0.3,0.3-0.2c0.2-0.1,0.4-0.2,0.6-0.3s0.3-0.1,0.5-0.2s0.9-0.2,0.3-0.1h0.5c0.6-0.1-0.1,0,0,0s0.9,0.2,0,0
		c0.4,0.1,0.6,0.4,0,0c0.2,0.1,0.4,0.2,0.6,0.3c0.1,0.1,0.4,0.3-0.1-0.1l0.4,0.3c0.5,0.4,1,0.8,1.4,1.2l0.4,0.3l0,0l0.8,0.8
		c0.5,0.6,1,1.1,1.5,1.7c2.1,2.6,4.1,5.3,5.8,8.1c3.9,6.1,6.9,12.8,9.1,19.7c0.9,2.6,1.3,5.3,1.3,8.1c0,0.9-0.2,1.8-0.5,2.7
		c-0.2,0.4-0.4,0.7-0.6,1.1c0.1-0.1,0,0-0.2,0.2l-0.5,0.4c-0.2,0.1-0.3,0.2-0.5,0.3c-0.1,0.1-0.2,0.1-0.3,0.2c-0.2,0.1,0.4-0.2,0,0
		c-0.5,0.2-0.9,0.4-1.4,0.6c-1.1,0.3-2.2,0.6-3.3,0.8c-1.1,0.2-2.6,0.4-4,0.5c-1.5,0.1-3.1,0.2-4.6,0.3c-6.8,0.2-13.6-0.3-20.3-1.4
		c-1.6-0.3-3.1-0.6-4.7-0.9c-1.2-0.3-2.4-0.6-3.6-1c-0.6-0.2-1.2-0.4-1.7-0.6l-0.8-0.3l-0.4-0.2c-0.5-0.2,0.2,0.1,0,0
		c-0.4-0.2-0.9-0.4-1.3-0.7s-0.3-0.2-0.1,0c-0.2-0.2-0.4-0.3-0.5-0.4c-0.5-0.3,0.4,0.1,0,0c0,0-0.1-0.2-0.2-0.2
		c-0.2-0.3,0.1,0.2,0.1,0.2c-0.1-0.1-0.2-0.3-0.2-0.4c0.3,0.6,0.1,0.1,0,0c-0.4-1.2-1.5-2-2.7-2.2c-0.9-0.2-2.1,0.2-1.8,1.4
		c0.5,2.2,2.6,3.7,4.4,4.7c2.6,1.3,5.3,2.3,8.1,2.9c7,1.7,14.2,2.6,21.4,2.7c6.2,0.2,12.9,0.2,18.9-1.6c1.9-0.6,4-1.5,5-3.3
		c1.2-2.1,1.1-4.8,0.9-7.1c-0.8-7.2-4-14.2-7.3-20.5c-3.4-6.5-7.5-13.1-12.8-18.2c-1.8-1.7-4-3.5-6.5-3.8c-2.1-0.1-4.3,0.5-5.9,1.9
		c-4.5,3.2-7.8,8.2-10.8,12.8c-5.7,9-10.7,18.4-14.9,28.1c-0.1,0.2-0.2,0.4-0.2,0.6C156.6,123.7,161,126.1,161.8,124.2z" fill="#3E5CD6"></path><path class="st0" d="M185.5,92l0.3,17.2c0,1.3,0.7,2.4,1.8,3c0.7,0.4,1.6,0.1,2-0.7c0.1-0.2,0.2-0.4,0.2-0.7l-0.3-17.2
		c0-1.3-0.7-2.4-1.8-3c-0.7-0.4-1.6-0.1-2,0.6C185.5,91.5,185.5,91.8,185.5,92z" fill="#FFFFFF"></path><path class="st0" d="M186,118.6c-0.3,0.3-0.5,0.7-0.6,1.1c0,0.2,0,0.5,0.1,0.7c0.1,0.2,0.3,0.4,0.6,0.4c0.3,0.1,0.5,0.1,0.8,0
		c0.2,0,0.4-0.1,0.6-0.2c0.8-0.4,1.6-0.8,2.2-1.4c0.5-0.3,0.9-0.7,1.2-1.2c0.1-0.1,0.2-0.3,0.2-0.5c0-0.1,0-0.1-0.1-0.2
		c-0.2-0.4-0.6-0.7-1-0.8c-0.8-0.2-1.7,0-2.3,0.4c-0.6,0.3-1.1,0.6-1.6,1c-0.2,0.2-0.4,0.4-0.6,0.6c-0.2,0.1-0.3,0.3-0.4,0.5
		c-0.1,0.2-0.3,0.4,0,0.5h0.3c0.3-0.1,0.6-0.2,0.9-0.3h0.1l-0.5,0.2h0.1l-0.4,0.1l0.3-0.1h-0.3c0.3,0,0.6,0,0.9,0.1l-0.2-0.1
		c0.4,0.2,0.6,0.4,0.8,0.8l0.1-0.4v0.1l0.3-0.3l-0.1,0.1l0.4-0.4l0.2-0.2c0.2-0.2,0.5-0.4,0.7-0.5l0.5-0.3c0.5-0.3,0.6-0.3,0.4-0.3
		l0.4-0.2h-0.1l0.4-0.1c-0.1,0-0.1,0-0.2,0h0.3c-0.2,0-0.3,0-0.5-0.1l0.1,0.1c-0.3-0.1-0.5-0.4-0.5-0.8v0.2c0-0.2,0-0.3,0.1-0.5
		l-0.1,0.2c0,0,0-0.1,0.1-0.1l-0.2,0.3l0,0c0.1-0.1,0.2-0.3,0.3-0.4c0.1-0.1,0.1-0.2,0.1-0.3c-0.1-0.1-0.2-0.1-0.3,0
		c-0.2,0-0.4,0.1-0.5,0.2c-0.5,0.2-1.1,0.5-1.6,0.9l-0.5,0.4C186.5,118.1,186.2,118.4,186,118.6L186,118.6z" fill="#FFFFFF"></path></g><g id="character"><path class="st2" d="M314.8,156.1c-0.2-4.7-0.9-9.3-2-13.8c-0.3-1.3-1.7-3.1-3.2-2.7c-4.5,1-9.2,1-13.7,0
		c-3.7-0.9-7.8-2.4-10.4-5.4c-2.5-2.7-3.2-6.6-1.9-10c1.6-3.6,5.7-5.9,9.4-7c2-0.6,4.6-1,6.4,0.2c1.2,0.8,1.7,2.2,1.2,3.6l0.6-0.5
		c-2.8,1.2-4.3-1-4.9-3.4c-0.8-3.5-1.2-7-1.4-10.6c-0.3-3.6-0.3-7.3-0.1-10.9c0.1-2.7,0.7-5.4,1.6-7.9c0.9-2.5,2.7-4.5,5-5.7
		c2.9-1.3,6.5-1.4,9.6-1.4c2.9,0,6.1,0.2,8.5,2.2c2.1,1.7,3.2,4.3,4.2,6.8c1.4,3.5,2.8,7.5,1.9,11.2c-0.6,3-3,5.3-6,5.8l3.2,2.7
		c-0.2-1.6,2.1-2.7,3.3-2.9c1.5-0.2,3.1,0.1,4.4,0.8c2.7,1.7,4.3,4.6,4.3,7.8c0.1,1.2,0.7,2.3,1.8,2.9c0.7,0.4,2.2,0.5,2.2-0.7
		c-0.1-5.7-3.3-11-8.3-13.8c-2.3-1.3-5.1-1.7-7.7-1c-2.6,0.8-4.3,2.9-4.1,5.6c0.3,1.6,1.6,2.7,3.2,2.7c2.8-0.5,5.2-2.3,6.5-4.9
		c1.6-3,1.5-6.7,0.8-10c-1.4-6.3-4.3-13.4-9.9-17.1c-2.9-1.7-6.3-2.6-9.6-2.5c-3.3,0-7,0-10.1,1.2c-5.6,2-7.9,7.8-8.6,13.3
		c-1,7.2-0.4,14.8,0.7,21.9c0.5,3.3,1.2,6.7,3.5,9.2c1.8,2,5.6,4.3,8.4,2.7c1.2-0.7,1.2-2.8,0.9-4c-0.3-1.6-1-3.1-2.1-4.3
		c-2.1-2.6-5.3-4-8.6-3.9c-3.2,0.3-6.3,1.3-9,3.1c-2.7,1.5-4.8,4-5.7,7c-2.1,7.5,3.2,14.7,9.5,18.2c7.1,3.8,15.4,4.9,23.3,3.1
		l-3.2-2.7c1.1,4.5,1.8,9.1,2,13.8C310.9,156.9,314.9,159.2,314.8,156.1L314.8,156.1z"></path><path class="st2" d="M337.4,177.2c0.3-11,1.1-21.9,1.3-32.9c0.1-0.8-0.1-1.6-0.5-2.3c-0.8-1.1-2.4-1.6-3.5-2.4
		c-1.9-1.3-4.6-3.3-3.4-5.9c1-2,3.5-3.2,5.5-3.5c2.4-0.4,4.8,0.2,6.8,1.6c1.8,1.4,3,3.4,3.2,5.7c0,0.4-0.1,0.8-0.2,1.2l-0.2,0.3
		l1.7-0.7c-0.2-0.2-0.3-0.4-0.5-0.6c-0.5-1.1-0.5-2.4,0-3.5c1-2.1,3.5-3.2,5.6-3.9c2.2-1,4.8-1.1,7.1-0.4c4.6,1.7,5.8,7.5,4.5,11.7
		c-1.6,5.3-6.7,8.7-11.2,11.3c-0.8,0.5-2.1,1.4-1.5,2.5s2.2,0.7,2.9,0.2c5.5-3.2,11.3-7.1,13.9-13.2c1.9-4.6,1.4-10.7-2.4-14.1
		c-5.2-4.6-13.5-2-18.7,1.2c-2.7,1.7-5.1,4.2-5.3,7.5c-0.2,1.5,0.4,3,1.4,4c1.4,1,3.2,1,4.6,0.1c3-1.6,3.4-5,2.3-7.9
		c-1.1-2.6-3.1-4.7-5.7-5.8c-5.9-2.7-14.9,0-18,5.8c-0.7,1.2-1,2.6-0.7,4c0.5,1.6,1.4,2.9,2.8,3.9c1.4,1,2.8,2,4.3,2.9
		c0.7,0.5,0.6,1.2,0.6,1.9c-0.1,2.9-0.2,5.9-0.4,8.8c-0.3,7.9-0.8,15.8-1,23.7C332.6,180.8,337.3,179.2,337.4,177.2L337.4,177.2z"></path><path class="st0" d="M257.2,198.8c1.1-2.2,10.1-1.9,15-10.8s13.1-8.5,23.7-6s10,11.5,0.7,10.2s-10.5,0.3-10.5,0.3s8.4,1.9,14.1,7.4
		s6.6,12,3,12.4s-8.4-5.8-12.6-6.6c0,0,9.6,11.2,5.5,16.4s-11.7-7.2-11.7-7.2s-2,12.5-11,15.9c-5.6,2.1-11.5,3-17.5,2.8
		C255.8,233.7,246.4,221,257.2,198.8z"></path><path class="st1" d="M259.8,199.8c0.6-1.2,2.8-1.5,3.9-2c2.4-0.8,4.7-2,6.7-3.6c1.2-1,2.3-2.1,3.2-3.3c1-1.4,1.7-2.9,2.8-4.2
		c1.7-2.2,4.1-3.8,6.8-4.5c2.8-0.6,5.8-0.7,8.6-0.1c1.6,0.2,3.3,0.6,4.9,1c0.9,0.1,1.7,0.5,2.4,1.1c1.4,1.1,2.5,3,1.8,4.8
		c-0.8,2-3.2,2.5-5.1,2.4c-3.3-0.2-6.5-0.9-9.8-0.5c-0.7,0.1-2,0.2-2.5,0.8s3.5,2,3.8,2l0.3,0.1c0.5,0.1-0.3-0.1-0.1,0l0.6,0.2
		l0.7,0.2l0.3,0.1c0.4,0.1-0.5-0.2,0,0l0.9,0.3l0.7,0.3c3.1,1.3,5.8,3.2,8.1,5.6c2,2.2,4.4,5.6,4.1,8.8c0,0.9-0.5,1.8-1.4,2.1
		c-0.2,0.1-0.3,0.1-0.5,0.1c0.3,0.1,0.6,0.2,0.9,0.3c0.2,0-0.1-0.1-0.2-0.1c-0.4-0.2-0.7-0.5-1.1-0.7c-3.5-2.4-6.7-5-11-6
		c-0.4-0.1-2-0.4-1.3,0.5c-0.3-0.4-0.1-0.1,0.1,0.1s0.4,0.5,0.6,0.8c0.7,0.9,1.3,1.7,1.9,2.6c1.6,2.3,2.8,4.8,3.5,7.5
		c0.4,2,0.2,5.2-2.2,5.9c-0.2,0.1-0.4,0-0.5,0.1c0.2-0.1,0,0.1,0,0c0.2,0,0.4,0.1,0.6,0.1c0.3,0.1,0.6,0.2,0.9,0.3
		c0.4,0.2-0.2-0.2,0,0c0.1,0.1-0.5-0.3-0.6-0.4c-0.9-0.7-1.6-1.5-2.4-2.4c-1.1-1.3-2.1-2.6-3-4.1c-0.4-0.6-5.1-2.8-5.3-1.8
		c-0.6,3.3-1.8,6.4-3.5,9.2c-1.4,2.4-3.4,4.5-5.9,5.9c-3.4,1.9-7.7,2.7-11.5,3.1c-1.7,0.2-3.3,0.3-5,0.4h-1.4c-0.2,0-1.1-0.1-0.2,0
		l4.3,2c-1.1-1.7-2-3.5-2.5-5.5c-1.5-5.2-1.7-10.7-0.6-16.1c0.9-4.6,2.4-9,4.5-13.2c0.4-0.8-4.8-3-5.3-2
		c-4.9,10.2-7.7,23.3-2.1,33.9c0.3,0.8,0.9,1.5,1.6,2c2.4,1.5,5.1,1.4,7.8,1.3c4-0.2,7.9-0.9,11.7-2c3.2-0.9,6-2.6,8.2-5.1
		c2.8-3.4,4.6-7.5,5.2-11.9l-5.2-1.8c2.8,4.5,6.7,8.8,12.1,10.1c1.3,0.5,2.8,0.4,4-0.3c1-0.8,1.7-1.9,1.9-3.2c0.4-3-1.2-6.2-2.7-8.8
		c-1.2-2-2.5-3.9-4-5.7l-1.3,0.5c-0.2,0-0.3-0.1-0.5-0.2c0.3,0.2,0.6,0.4,0.9,0.5c0.9,0.6,1.7,1.2,2.5,1.8c1.6,1.2,3.2,2.3,5,3.2
		c2.1,1,7.3,3,8.2-0.6c0.8-3.4-1.9-7.2-3.9-9.5c-3-3.3-6.7-5.9-10.7-7.6c-2.6-1.2-5.4-2.2-8.3-2.9l3.8,2.1c-0.1,0.1,0,0,0.3-0.1
		c0.5-0.2,1.1-0.3,1.7-0.4c3.4-0.3,6.6,0.6,10,0.6c2,0,4.6-0.6,5.5-2.7s-0.5-4.1-2-5.4c-2.9-2.6-6.9-3.9-10.7-4.7
		c-3.5-0.9-7.2-1.4-10.8-1.4c-2.9,0-5.8,0.8-8.3,2.4c-1.3,0.9-2.4,1.9-3.3,3.2c-1.1,1.4-1.9,3.1-3,4.6c-2.2,2.6-5,4.7-8.3,5.8
		c-1.5,0.6-4.4,1.1-5.2,2.6C254.2,198.4,259.3,200.8,259.8,199.8z"></path><path class="st1" d="M398,200.8c0,0,72.8-11,78.1,28.4s-97.2,112.1-97.2,112.1s0,71.8-1.8,77.9s-134-1.8-134-1.8l14.9-70.9
		c0,0-68.3-69.2-77.1-106.8s76.1-40.9,76.1-40.9l7.3,37.2l-22,10.7c0,0,19.1,34.2,79.6,35.9s90.2-43.8,90.2-43.8l-17-9.6L398,200.8z
		"></path><path class="st1" d="M398.7,203.2c3.6-0.5,7.2-0.8,10.8-1.1c8.1-0.6,16.2-0.5,24.3,0.3c8.8,0.9,17.8,2.7,25.7,6.9
		c1.8,0.9,3.5,2,5.1,3.2c1.6,1.2,3,2.5,4.2,4c0.3,0.4,0.6,0.8,0.9,1.1c0.2,0.2,0.3,0.5,0.5,0.7l0.2,0.3c0.2,0.3-0.2-0.3,0,0.1
		c0.6,0.9,1.1,1.8,1.5,2.7c0.9,1.9,1.5,3.9,1.9,5.9c0.3,1.6,0.4,3.3,0.4,5c0,0.3,0,0.5,0,0.8c0,0.4-0.1,0.9-0.1,1.3
		c-0.1,0.9-0.2,1.8-0.4,2.6c-0.8,3.7-2.1,7.2-3.8,10.6c-4.1,8.4-9.7,16.1-15.7,23.2c-6.9,8.2-14.3,16-22.2,23.4
		c-7.6,7.2-15.5,14.2-23.5,20.9c-6.4,5.3-12.9,10.5-19.5,15.5c-3.5,2.7-7,5.3-10.6,7.9c-0.2,0.1-0.4,0.3-0.6,0.5
		c-0.6,0.6-1,1.4-0.8,2.3c0,2,0,4,0,6c0,8.7-0.1,17.4-0.2,26.1c-0.1,9.8-0.2,20-0.5,29.5c-0.1,3.6-0.2,7.1-0.5,10.7
		c-0.1,1.1-0.2,2.2-0.3,3.3c0,0.3-0.1,0.7-0.2,1s0.3-0.6,0.2-0.4s0.5-0.2,0.2-0.1c-0.1,0-0.2,0.1-0.3,0.1l-0.3,0.1
		c-0.4,0.2-0.1,0,0,0c-0.8,0.2-1.5,0.4-2.3,0.5c-2.3,0.3-4.7,0.5-7.1,0.6c-7.5,0.4-15,0.4-22.4,0.3c-9.6-0.1-19.2-0.4-28.8-0.7
		c-9.8-0.3-19.6-0.6-29.5-1.1c-8.3-0.4-16.6-0.8-24.9-1.2c-5-0.3-10-0.5-15-0.8l-2-0.1l2.2,3.3l4.2-20.2l7.5-35.9l2.5-12.1
		c0.4-1.9,1.1-3.7-0.4-5.4c-4.8-5.3-9.8-10.3-14.6-15.5c-9.4-10.3-18.6-20.9-27.2-31.9c-9.2-11.7-18.1-23.7-25.4-36.7
		c-3.1-5.3-5.7-10.8-7.7-16.6c-0.4-1.3-0.8-2.5-1.1-3.8c-0.3-1.1-0.5-2.3-0.6-3.4c-0.3-2.2-0.1-4.4,0.5-6.5c0-0.2,0.1-0.3,0.1-0.4
		c0.1-0.3,0.2-0.5,0.3-0.8c0.2-0.5,0.4-1,0.6-1.5c0.4-0.9,0.9-1.8,1.5-2.7c1.3-1.9,2.9-3.6,4.6-5.1c3.9-3.2,8.3-5.9,13-7.8
		c10.2-4.4,21.2-6.9,32.1-8.6c7.2-1.1,14.4-1.9,21.6-2.3l1.1-0.1l-2.6-2.1l6.4,32.6l0.9,4.6l0.7-2.4l-22,10.7
		c-1.1,0.5-0.9,2.2-0.4,3.1c2.9,5.1,7.4,9.6,11.8,13.5c11.3,9.9,25.4,16.3,39.9,20c20.5,5.2,42.8,5.8,63.2,0
		c15.5-4.4,29.8-12.2,42-22.8c6-5,11.4-10.8,15.9-17.2l0.2-0.3c0.8-1.4,0.3-3.2-1.1-4c0,0-0.1-0.1-0.1-0.1l-17-9.6l1.6,3.1l2.5-24.8
		l0.4-3.6c0.1-1.3-0.5-2.5-1.6-3.1c-0.7-0.4-1.7-0.2-2.1,0.6c-0.1,0.2-0.2,0.4-0.2,0.6l-2.5,24.8l-0.4,3.6c-0.1,1.3,0.5,2.5,1.6,3.1
		l17,9.6l-1.2-4.1c-3.6,5.2-7.7,9.9-12.4,14.1c-10.7,10.1-23.3,17.9-37.1,23c-19.5,7.1-40.7,7.7-61,4.1
		c-15.4-2.8-30.5-8.5-42.8-18.1c-2-1.6-4-3.3-5.8-5.1l-0.6-0.6l-0.3-0.3c0.1,0.1,0.4,0.4,0.1,0.1s-0.8-0.8-1.1-1.1
		c-0.6-0.7-1.3-1.4-1.9-2.1c-0.9-1.1-1.8-2.2-2.7-3.4l-0.4-0.6c-0.1-0.1-0.6-0.8-0.2-0.3s-0.2-0.3-0.3-0.5s-0.1-0.2-0.1-0.2
		l-0.5,3.1l22-10.7c0.9-0.4,0.9-1.6,0.7-2.4l-6.3-32.6l-0.9-4.6c-0.3-1.2-1.3-2.1-2.6-2.1c-10,0.5-19.9,1.7-29.8,3.6
		c-8.2,1.5-16.3,3.8-24.1,6.9c-6.8,2.8-13.8,6.5-18.6,12.2c-4.8,5.6-6.6,13.1-4.9,20.3c1.9,8.7,6.2,17,10.6,24.7
		c11,19.1,24.9,36.5,39.2,53.1c8.9,10.3,18,20.5,27.5,30.2l0.4,0.4l-0.7-2.4l-5,24l-8,38.2l-1.8,8.8c-0.2,1.2,0.8,3.2,2.1,3.3
		l8.2,0.5c7,0.4,13.9,0.7,20.9,1.1c9.4,0.5,18.8,0.9,28.3,1.3c10,0.4,20.1,0.8,30.1,1c8.8,0.2,17.5,0.4,26.2,0.2
		c5.7,0.1,11.5-0.2,17.1-0.9c1.4-0.2,3.2-0.4,4.2-1.5s1-3.4,1.1-4.8c0.7-8.1,0.7-16.2,0.9-24.4c0.2-10.2,0.3-20.3,0.4-30.5
		c0-6.4,0.1-12.8,0.1-19.2v-1l-0.8,1.8c2.5-1.7,4.9-3.5,7.3-5.4c6.2-4.7,12.4-9.5,18.4-14.4c8.1-6.5,16-13.3,23.6-20.3
		c8.2-7.5,16.1-15.4,23.5-23.6c6.9-7.5,13-15.7,18.1-24.4c4-6.9,7.2-14.7,7.2-22.8c-0.2-9.2-4.5-17.8-11.7-23.5
		c-7.2-5.8-16.5-8.7-25.5-10.3c-8.9-1.5-18-2-27.1-1.7c-5.3,0.1-10.6,0.6-15.9,1.2l-0.8,0.1C394.8,198.9,396.4,203.5,398.7,203.2z"></path><path class="st0" d="M395.2,229.2c0,0-12.1,2-20.2-3.2s-7.5-17.9-7.5-17.9s-10,10.5-13,4.6s8.8-14.9,8.8-14.9
		c-4.4-0.1-10.3,5-13.8,3.8s-1.1-7.3,5.6-11.5s15.4-4.4,15.4-4.4s-0.8-1.8-10.2-2.4s-8-9.6,2.8-9.9s18.9,1.1,21.9,10.8
		c0,0,8.8,14.8,13,16.6L395.2,229.2z"></path><path class="st1" d="M395.1,227c-0.5,0.1-0.9,0.1-1.4,0.2l-1.5,0.1c-0.1,0-0.2,0-0.4,0h-1.2c-3.4,0.1-6.8-0.4-10.1-1.4
		c-3.1-1-5.7-3-7.4-5.7c-0.8-1.3-1.4-2.7-1.8-4.2c-0.4-1.2-0.7-2.4-0.8-3.6c-0.2-1.6-0.3-3.1-0.3-4.7c0.1-2.5-3.6-2-4.8-0.8
		c-0.3,0.3-0.6,0.6-0.9,0.9c-0.3,0.3-0.7,0.6-1,0.9l-0.5,0.4c-0.1,0.1-0.4,0.4-0.1,0.1s-0.2,0.1-0.2,0.2c-1,0.8-2,1.5-3,2.1
		l-0.4,0.2c0.1-0.1,0.6-0.2,0.1,0l-0.7,0.3l-0.4,0.1c-0.4,0.2,0.5-0.1,0.1,0c-0.2,0-1.1,0.1-0.3,0.1c-0.1,0-0.2,0-0.4,0
		c-0.3-0.1,0,0.3,0.1,0.1c0,0-0.3-0.1-0.3-0.1s0.4,0.2,0.2,0.1c-0.1,0-0.2-0.1-0.3-0.2c-0.3-0.2,0.3,0.3,0,0
		c-0.1-0.1-0.2-0.2-0.2-0.3c-0.2-0.3,0.2,0.5-0.1-0.1c-0.2-0.3-0.4-0.8-0.4-1.2c-0.1-0.5,0-1.1,0.2-1.5c0.6-2.2,2.4-4.3,4.1-6.1
		c0.9-0.9,1.8-1.8,2.8-2.6l0.5-0.5c0.5-0.5-0.4,0.3,0,0c0.1-0.1,0.2-0.2,0.4-0.3c0.9-0.5,1.3-1.5,1.2-2.4c-0.2-0.9-1.1-1.6-2-1.6
		c-3.5,0-6.6,1.7-9.8,3c-0.7,0.3-1.4,0.6-2.1,0.8c0.4-0.1-0.3,0.1-0.4,0.1l-0.5,0.1c0.3,0,0.2,0,0,0c-0.5,0-0.1,0,0,0
		c-0.5,0,0.1-0.2,0,0.1c0.1-0.2-0.7-0.1-0.1,0c-0.1-0.1-0.2-0.2-0.2-0.2c0,0,0.2,0.4,0.1,0.1c-0.1-0.1-0.1-0.2-0.1-0.3
		c-0.1-0.3,0,0.4,0,0.1c0-0.2,0-0.5,0-0.7c0,0.4,0.1-0.2,0.1-0.4c0.1-0.5,0.4-1,0.7-1.5c0.8-1.3,1.8-2.4,3-3.4
		c2.7-2.1,5.9-3.6,9.2-4.4c1.6-0.4,3.1-0.6,4.7-0.8l0.8-0.1c0.1,0,0.9,0,0.3,0h0.2c1.4,0,4.2-1.4,3.3-3.3c-0.7-1.1-1.7-1.8-2.9-2.1
		c-3.1-1.2-6.5-1.3-9.8-1.6c-0.6-0.1-1.2-0.2-1.7-0.4c-0.4-0.2-0.8-0.4-1.2-0.6c0.2,0.1-0.2-0.2-0.3-0.3s-0.4-0.7-0.2-0.2
		c-0.1-0.2-0.2-0.4-0.2-0.6c0.1,0.4,0,0,0-0.2c0-0.1,0-0.2,0-0.3c0,0.5,0,0.2,0,0.1s0.4-0.7,0.1-0.2c0-0.1,0.4-0.7,0.2-0.4
		s0-0.1,0.1-0.1l0.4-0.4c0.1-0.1,0.4-0.3,0,0l0.4-0.3c0.1-0.1,0.8-0.4,0.5-0.3s0.2-0.1,0.3-0.1l0.5-0.2l0.4-0.1
		c0.9-0.3-0.5,0.1,0.5-0.1c3.5-0.6,7-0.6,10.5-0.1c2.8,0.2,5.4,1.2,7.7,2.7c1.1,0.8,2,1.8,2.7,3c0.8,1.2,1,2.8,1.8,4
		s1.5,2.4,2.3,3.6c1.7,2.6,3.5,5.2,5.4,7.7c1.5,2,3.4,4.5,5.8,5.6l-0.9-1.5l-2.5,24.9l-0.4,3.6c-0.1,1.4,1.7,2,2.8,1.8
		c1.4-0.2,2.5-1.3,2.7-2.7l2.5-24.9l0.4-3.6c0-0.6-0.4-1.2-0.9-1.5c-0.4-0.2-0.7-0.4-1-0.6c-0.5-0.3,0,0.1-0.3-0.2s-0.5-0.5-0.8-0.7
		c-1-1-1.9-2.1-2.8-3.2c-1.9-2.4-3.5-4.8-5.2-7.3c-0.9-1.3-1.6-2.7-2.5-4c0.7,1,0.1-0.1,0-0.5s-0.3-0.8-0.5-1.2
		c-0.4-0.9-0.9-1.8-1.5-2.6c-0.9-1.4-2.1-2.6-3.5-3.6c-2.8-1.9-6-3-9.4-3.4c-4-0.6-8-0.6-12-0.1c-3.2,0.6-6.9,2.1-8.5,5.1
		c-1.4,2.4-0.7,5.5,1.5,7.1c3.2,2.6,8,1.9,11.7,2.7c0.7,0.1,1.3,0.3,1.9,0.5l0.7,0.3c-0.5-0.2-0.2-0.1,0.1,0.1s0.6,0.5,0.1,0
		c0.3,0.3-0.1-0.2-0.2-0.3l3.3-3.3c-6.8,0.1-14.1,2.1-19.5,6.4c-2.9,2.3-6,5.5-6.4,9.4c-0.3,3.7,3.2,5.2,6.3,4.7
		c2.1-0.4,4.2-1.2,6.1-2.2c0.9-0.4,1.9-0.9,2.9-1.2c0.4-0.1,0.7-0.3,1.1-0.4l0.6-0.1c0.1,0,0.9-0.1,0.4-0.1l-0.8-4
		c-1.6,1.2-3.1,2.6-4.6,4.1c-2.3,2.4-4.7,5.2-5.6,8.5c-0.9,3.1,0.1,6.9,3.5,7.9c3.1,0.9,6.6-0.9,9.1-2.6c1.9-1.3,3.7-2.9,5.4-4.6
		l-4.8-0.8c-0.2,4.7,0.8,9.3,3,13.4c1.9,3.4,4.9,6.1,8.5,7.6c3.7,1.5,7.6,2.3,11.5,2.4c2.4,0.1,4.9,0,7.3-0.4
		c1.3-0.2,2.7-1.3,2.7-2.7S396.3,226.8,395.1,227z"></path><path class="st0" d="M276.1,221.4c0,0,2.7-6-1.1-13.3c0,0,11.7,0.1,9.1-5.9s-12.9-6.2-22.1-2.9"></path><path class="st1" d="M277.7,223.6c2.2-5.1,0.6-11.4-1.8-16l0.1,3c1.4,0,2.7-0.1,4.1-0.4c1.9-0.3,4.2-0.9,5.4-2.6
		c1.8-2.7-0.7-6.8-2.4-8.8c-2.3-2.5-5.6-4-9-4.1c-4.6-0.2-9.2,0.5-13.5,2.1c-1.2,0.4,1.1,5.5,2.7,4.9c3.4-1.2,7-1.9,10.6-2.1
		c2.7-0.1,5.9,0.2,8.2,1.8c0.1,0.1,0.3,0.2,0.5,0.4c0.4,0.3,0.2,0.1,0.1,0.1c0.1,0.1,0.2,0.2,0.3,0.4c-0.1-0.2-0.3-0.2,0,0
		c-0.1-0.1-0.2-0.4-0.1-0.1s-0.2-0.4,0,0s-0.2-0.4,0,0c-0.1-0.1,0-0.4,0-0.1c0,0,0-0.3,0-0.1s0,0.4,0,0.4c-0.1,0.3-0.3,0.7-0.5,0.9
		c-1.1,1.2-3.1,1.7-4.7,1.9c-1.2,0.2-2.4,0.3-3.6,0.3c-1.3,0-0.1,2.6,0.1,3c1.7,3.3,1.8,7.1,0.5,10.5c-0.5,1,0.4,2.6,1,3.4
		C275.9,222.9,277.3,224.6,277.7,223.6L277.7,223.6z"></path><path class="st0" d="M288.7,247.2c0,0-6.2-33.9,22.8-41.6s60.9,19,57.1,54.9s-47.9,33.4-47.9,33.4L288.7,247.2z"></path><path class="st1" d="M292,245.9c-0.1-0.8-0.2-1.6-0.3-2.4c0.1,0.6,0,0,0-0.2s0-0.4,0-0.7c0-0.5-0.1-1-0.1-1.6c0-1.1,0-2.3,0-3.4
		c0-6,1.3-11.9,3.9-17.2c0.7-1.5,1.6-2.9,2.6-4.3c-0.2,0.3,0.4-0.5,0.5-0.6l0.8-0.9c0.3-0.3,0.6-0.7,1-1l0.5-0.4l0.5-0.4
		c1.3-1.1,2.6-2.1,4.1-2.9c0.4-0.2,0.9-0.5,1.3-0.7c0.1-0.1,1-0.5,0.2-0.1l0.5-0.2c1.1-0.5,2.1-0.9,3.2-1.2
		c-0.8,0.2,0.3-0.1,0.4-0.1c0.2-0.1,0.5-0.1,0.8-0.2c0.5-0.1,1.1-0.3,1.7-0.4s1-0.2,1.5-0.3c-0.6,0.1-0.1,0,0,0l1.2-0.1
		c2-0.2,3.9-0.3,5.9-0.2c4.2,0.2,8.4,1.1,12.3,2.6c17.3,6.5,29.3,23.4,31.1,41.6c0.8,8.5-0.2,17.7-4.8,25.2c-0.4,0.7-0.9,1.4-1.4,2
		s0.3-0.4-0.2,0.2l-0.3,0.4c-0.3,0.4-0.6,0.7-0.9,1.1c-0.6,0.6-1.2,1.3-1.8,1.9l-0.9,0.8c0.5-0.5-0.5,0.4-0.6,0.5
		c-0.6,0.5-1.2,1-1.8,1.4l-0.9,0.6c-0.2,0.1-0.4,0.2-0.6,0.4c0.8-0.5,0.1-0.1,0,0c-1.4,0.9-2.8,1.7-4.3,2.3l-0.4,0.1
		c-0.3,0.1-0.7,0.3-1,0.4c-0.7,0.3-1.5,0.6-2.2,0.8l-1,0.3c-0.2,0.1-0.4,0.1-0.6,0.2c0.9-0.2,0.5-0.2,0.3-0.1
		c-0.8,0.2-1.5,0.5-2.3,0.6c-1.4,0.4-2.8,0.7-4.1,0.9l-0.9,0.2l-0.5,0.1h0.3c-0.6,0.1-1.3,0.2-1.9,0.3c-2.1,0.3-4.2,0.4-6.3,0.5H325
		h-0.4h-1.4h-0.5l1.4,0.8l-10.9-15.8l-17.2-25L292,245.9c-1.4-2.1-7.7,0.8-6.5,2.6l9.6,14l16.5,24l5.2,7.5c0.3,0.4,0.5,0.8,0.8,1.1
		c0.5,0.6,1.4,0.9,2.2,0.8c6.3,0.1,12.6-0.6,18.8-2.1c9.6-2.4,19.3-6.9,25.7-14.7c8.2-10,9.6-23.9,7.1-36.3
		c-2.7-13.2-10.5-24.8-21.6-32.4c-10.9-7.5-24.5-10-37.4-6.9c-6.6,1.5-12.6,4.8-17.5,9.4c-3.6,3.7-6.2,8.2-7.8,13.1
		c-2.1,6.8-2.7,14-1.8,21.1c0,0.4,0.1,0.8,0.2,1.2c0.2,1.4,3.2,0.6,3.9,0.3C290.4,248.3,292.3,247.4,292,245.9z"></path><path class="st0" d="M284.9,276.3c-8-14,8.3-56.7,8.3-56.7c9-10.2,45.4,3,45.4,3c-7.1,10.5-8.4,29.4-8.4,29.4
		c6.1-9.5,17.2-3.1,15,6.7c-2.2,9.8-14.4,10.9-14.4,10.9s-0.2,21.6-1.7,25.5s-21,6.5-29-6.4C300,288.8,291.9,288.5,284.9,276.3z"></path><path class="st1" d="M288,276.8c-1.7-3-2-6-2.1-9.5c0-4.3,0.3-8.6,1.1-12.9c1.5-8.4,3.6-16.7,6.4-24.8c0.8-2.4,1.6-4.8,2.5-7.2
		c0.1-0.4,0.3-0.8,0.5-1.2c-0.1,0.2-0.3,0.3,0,0s0.5-0.5,0.8-0.7c0.3-0.2,0.6-0.4,0.9-0.6l0.5-0.3c0.5-0.3-0.4,0.2,0.2-0.1
		c0.7-0.3,1.5-0.6,2.3-0.8c0.4-0.1,0.8-0.2,1.2-0.3l0.6-0.1c-0.6,0.1,0.4,0,0.5-0.1c1.9-0.2,3.9-0.3,5.8-0.2h0.8c0.9,0-0.6,0,0.3,0
		l1.6,0.1c1.2,0.1,2.3,0.2,3.5,0.4c2.1,0.3,4.2,0.7,6.4,1.1l1.8,0.4l0.8,0.2c-0.9-0.2,0.2,0.1,0.4,0.1c1,0.2,2.1,0.5,3.1,0.8
		c1.9,0.5,3.8,1.1,5.7,1.6s3.5,1.1,5.2,1.7l-3.2-3.6c-3.8,5.6-5.6,12.4-6.9,19c-0.7,3.6-1.2,7.3-1.5,10.9c-0.2,2.3,5.1,4.6,6.5,2.6
		c0.9-1.4,2.1-2.6,3.5-3.4c0.5-0.2,1.1-0.4,1.6-0.5c-0.3,0,0.2,0,0.3,0h0.5c0.4,0-0.5-0.1,0,0l0.6,0.1c-0.9-0.1,0.6,0.4-0.3-0.1
		c0.3,0.2,1,0.6,0.3,0.1c0.2,0.1,0.9,0.8,0.3,0.2c0.1,0.1,0.2,0.2,0.4,0.3c0.4,0.3-0.1-0.2,0.1,0.1c0.8,1,1.3,2.1,1.5,3.4
		c0.4,3.1-0.6,6.3-2.7,8.7c-0.9,1-2,1.9-3.2,2.6c-1,0.6-2.1,1.1-3.3,1.5c-1,0.3-2,0.6-3.1,0.8c-0.2,0-0.4,0.1-0.6,0.1
		c-0.4,0.1,0.7-0.1,0.2,0h-0.4c-0.8,0.1-1.6,0.3-1.6,1.2c0,4-0.1,8-0.3,12.1c-0.1,2.9-0.3,5.8-0.6,8.7c-0.1,0.6-0.1,1.2-0.2,1.8
		c0,0.2-0.1,0.5-0.1,0.7s-0.1,0.8-0.1,0.6s-0.1,0.4-0.1,0.4c0,0.1-0.1,0.3-0.1,0.4c0,0.1-0.1,0.2-0.1,0.4c-0.1,0.3-0.2,0.2,0,0
		c-0.2,0.2-0.5,0.5-0.8,0.6l-0.5,0.3c-0.1,0.1-0.4,0.2,0.1,0l-0.4,0.2c-1,0.4-2,0.7-3.1,0.9l-0.4,0.1c0.1,0,0.5-0.1,0,0l-0.9,0.1
		c-0.7,0.1-1.4,0.1-2.1,0.1h-1c-0.2,0-1.1-0.1-0.5,0c-0.8,0-1.6-0.1-2.4-0.3c-0.4,0-0.7-0.1-1.1-0.2l-0.5-0.1c0.7,0.1,0.2,0,0,0
		c-0.8-0.2-1.6-0.5-2.4-0.7c-0.2-0.1-0.6-0.3,0.1,0l-0.5-0.2c-0.4-0.2-0.7-0.3-1-0.5c-0.2-0.1-1.1-0.6-0.4-0.2
		c-0.4-0.2-0.8-0.5-1.2-0.8c-0.2-0.1-1-0.8-0.5-0.3c-0.3-0.2-0.6-0.5-0.9-0.8s-0.6-0.5-0.9-0.8c0.3,0.3,0,0-0.1-0.1
		c-0.2-0.2-0.4-0.5-0.6-0.7c-0.6-1-1.4-1.9-2.3-2.7c-1-0.7-2.1-1-3.3-1.1c-0.3,0,1,0.1,0.7,0s-0.4,0-0.6-0.1s-0.8-0.2-0.1,0
		s0,0-0.2-0.1l-0.7-0.2c-0.8-0.3,0.7,0.4-0.1,0l-0.8-0.4c-0.3-0.2-1-0.6-0.3-0.1c-0.4-0.2-0.7-0.4-1.1-0.7c-0.2-0.1-1.2-0.9-0.7-0.5
		c-0.8-0.6-1.5-1.3-2.2-2c-1.7-1.9-3.2-3.9-4.5-6.2c-1.1-1.4-2.7-2.2-4.5-2.2c-1.6,0.1-1.9,1.1-1.1,2.4c2.9,5.2,7.1,9.5,12.2,12.4
		c2.3,1.3,4.8,2.1,7.4,2.2l-4.5-2.2c6,9.5,19,13.5,29.6,11c1.6-0.3,3.1-0.9,4.4-1.9c1.1-1,1.4-2.2,1.6-3.6c0.6-4.4,1-8.9,1-13.3
		c0.1-3.5,0.2-6.9,0.2-10.4l-1.6,1.2c5-0.5,10.3-2.7,13.5-6.7c2.5-3.2,3.4-7.4,2.3-11.3c-1.2-4.1-4.9-7.2-8.9-8.4
		c-5-1.5-9.5,0.6-12.4,4.9l6.5,2.6c0.3-3.6,0.8-7.1,1.5-10.6c1.3-6.3,3.2-12.9,6.8-18.3c1-1.6-2.4-3.3-3.2-3.6
		c-5.1-1.8-10.3-3.3-15.5-4.5c-4.4-1.1-8.9-1.9-13.4-2.3c-4.3-0.5-8.7-0.4-13,0.6c-2.2,0.6-5.6,1.8-6.6,4c-0.8,1.9-1.4,3.8-2,5.7
		c-2.8,8.1-5,16.3-6.8,24.7c-0.9,4.5-1.5,9-1.8,13.5c-0.3,3.9,0.2,7.8,1.4,11.5c0.3,0.7,0.6,1.4,1,2.1c0.9,1.5,2.4,2.5,4.1,2.7
		C286.7,278.7,288.9,278.3,288,276.8z"></path><path class="st0" d="M299.5,258.6c0,0-24-1.5-25.7-14.5s16.3-15.3,27.3-2.4"></path><path class="st1" d="M297.1,256.7c-0.6,0-1.2-0.1-1.8-0.2l-0.5-0.1l-1.1-0.2c-0.8-0.1-1.7-0.3-2.5-0.4s-1.9-0.4-2.9-0.6l-0.8-0.2
		l-0.3-0.1h0.1l-1.6-0.5c-0.5-0.2-1-0.4-1.5-0.5s0.5,0.2-0.2-0.1l-0.8-0.3c-0.3-0.1-0.5-0.2-0.8-0.4s0.3,0.2,0.3,0.2l-0.4-0.2
		l-0.6-0.4l-0.3-0.2c-0.4-0.2,0.6,0.4,0.1,0.1c-0.2-0.1-0.4-0.3-0.6-0.4l-0.3-0.2c-0.4-0.2,0.5,0.4,0.1,0.1
		c-0.2-0.1-0.4-0.3-0.5-0.4c-0.5-0.4,0.1,0.2-0.3-0.3c-0.7-0.6-1.2-1.3-1.7-2.1c-1.1-1.8-1.6-3.9-1.4-6.1c0.3-4.5,3.8-7.5,8.1-8.1
		c1.9-0.3,3.9-0.1,5.7,0.4c0.2,0,0.4,0.1,0.6,0.2c0.1,0,1.2,0.4,0.6,0.2c0.4,0.1,0.8,0.3,1.1,0.5c-0.6-0.3,0.2,0.1,0.4,0.2
		s0.7,0.4,0.3,0.2l0.3,0.2l0.4,0.3l0.3,0.2l0,0c1.4,1.1,2.7,2.3,3.8,3.6c1.2,1.2,2.7,2.1,4.4,2.4c1.3,0.3,1.6-0.3,0.7-1.3
		c-5-5.8-12.5-10.2-20.2-11c-4.9-0.5-10.6,1.2-12.4,6.3c-1.8,5.4,0.9,10.5,5,13.9c4.5,3.8,10.3,6,16,7.5c3.2,0.8,6.6,1.4,9.9,1.6
		c1.5,0.1,0-1.5-0.4-1.9C300.3,257.5,298.8,256.8,297.1,256.7L297.1,256.7z"></path><path class="st1" d="M303.5,234.5c1,0.5,1.4,1.7,1,2.7c0,0.1-0.1,0.2-0.1,0.3c-1.2,1.9-3.5,0.4-3-1.5c0.1-0.9,0.9-1.6,1.9-1.5
		C303.3,234.5,303.4,234.5,303.5,234.5z"></path><path class="st1" d="M317.8,238c1,0.5,1.4,1.7,1,2.7c0,0.1-0.1,0.2-0.1,0.3c-1.2,1.9-3.5,0.4-3-1.5c0.1-0.9,0.9-1.6,1.9-1.5
		C317.6,237.9,317.7,238,317.8,238z"></path><path class="st1" d="M303.7,270c-0.1-0.4-0.1-0.8,0-1.1c0.2-0.9,1-0.8-0.7-0.7l-2.3-0.1c-1-0.1-0.1,0,0.2,0.4
		c0.2,0.2,0.4,0.4,0.6,0.7c0.4,0.6,0.8,1.2,1.4,1.7c1.6,1.4,4.5,1.3,6.5,0.9c1.6-0.4,2.4-2.4,3.3-3.6l1.7-2.5l0.7-1
		c0.2-0.2,0.5-0.9,0.7-1l-3.5,0.3h0.3l-1.8-0.3c0.7,0.4,1.3,0.8,1.9,1.4l1.8,1.4c1.1,0.9,2.4,2.3,3.9,2.6c1.2,0.3,2.4,0.3,3.6,0.2
		c0.8,0,1.5-0.2,2.1-0.7c0.4-0.6,0.7-1.2,0.9-1.9l1-2.3c0.2-0.5-2.8-0.7-3-0.7c-0.6,0-2.7-0.2-3,0.6l-0.9,2.1
		c-0.1,0.3-0.5,1.8-0.8,1.9l4.8-0.1l-0.2,0l0.8,0.3c-1.7-1.1-3.3-2.5-4.9-3.8c-0.7-0.6-1.4-1.2-2.2-1.6c-1.4-0.5-2.9-0.6-4.4-0.4
		c-1-0.1-2,0.4-2.6,1.2c-0.6,0.8-1.1,1.6-1.7,2.5l-1.7,2.5c-0.5,0.7-1,1.8-1.7,2.2l1.4-0.4h-0.3l4.2,0.3c-1.1-0.3-1.6-1.4-2.2-2.2
		c-0.8-1-2-1.6-3.3-1.7c-2.3-0.3-6.9-0.5-6.5,2.9C297.8,271,303.8,270.6,303.7,270L303.7,270z"></path></g></svg>