<svg xmlns="http://www.w3.org/2000/svg" width="500" height="500" fill="none"><g clip-path="url(#a)"><path fill="#fff" d="M0 0h500v500H0z"/><path fill="#fff" d="m468.402 356.989 19.41-10.077-78.252-194.341z"/><path fill="#000005" d="m469.272 357.948 16.974-8.829 2.437-1.248c.435-.192 1.48-.959 1.218-1.727l-2.089-5.183-5.657-14.203-8.357-20.826-10.271-25.528-11.229-27.832-11.402-28.215-10.707-26.296-8.965-22.265-6.354-16.027c-1.045-2.496-2.002-5.087-3.047-7.582l-.087-.288c-.696-1.631-4.7-.288-4.178 1.344l1.567 5.47 4.265 14.875 6.354 21.978 7.747 26.872 8.443 29.271 8.531 29.751 7.921 27.639 6.702 23.321 4.874 16.795c.784 2.687 1.393 5.374 2.263 7.966 0 .096.088.192.088.383.522 1.728 4.7.288 4.178-1.343l-1.567-5.47-4.265-14.876-6.355-22.073-7.746-26.872-8.444-29.271-8.53-29.655-7.921-27.736-6.702-23.321-4.962-16.794c-.783-2.688-1.393-5.375-2.263-7.966 0-.096-.087-.192-.087-.288l-4.178 1.344 2.089 5.182 5.658 14.204 8.356 20.825 10.358 25.625 11.229 27.831 11.403 28.216 10.619 26.296 8.878 22.361 6.442 15.931c1.044 2.495 1.828 5.182 3.046 7.582.087.096.087.191.087.287l1.219-1.727-16.974 8.829-2.437 1.248c-.609.288-1.654 1.152-1.044 2.015s2.176.384 2.872 0"/><path fill="#fff" d="M412.432 151.419c-3.133-4.031-154.502 51.92-154.502 51.92l95.487 208.065 123.95-50.001z"/><path fill="#000005" d="M413.738 150.268c-1.741-2.112-4.7-1.056-6.789-.576-3.917.864-7.747 2.015-11.577 3.167-12.36 3.743-24.721 7.869-36.994 12.092a4091 4091 0 0 0-44.392 15.547c-12.796 4.607-25.504 9.214-38.212 13.82l-12.622 4.607c-2.002.768-4.004 1.343-6.006 2.207l-.261.096c-1.045.384-1.132 1.824-.696 2.783l2.524 5.567 6.963 15.163 10.272 22.265 12.621 27.448 13.666 29.847 13.84 30.23 12.969 28.216 10.881 23.705 7.834 17.178c1.218 2.688 2.437 5.471 3.743 8.158l.174.384c.435.96 1.567 1.919 2.611 1.439l12.36-4.99 29.595-11.996 35.775-14.492 30.988-12.476c4.961-2.016 10.097-3.839 15.058-6.046l.175-.096c.783-.384 1.131-1.344.87-2.208l-1.741-5.662-4.7-15.259-6.964-22.649-8.53-27.544-9.314-30.231-9.488-30.423-8.704-28.407-7.399-23.897-5.309-17.274c-.871-2.688-1.654-5.471-2.525-8.158 0-.096-.087-.192-.087-.384-.261-1.247-1.218-2.111-2.35-2.111-.87.096-1.48.864-1.48 1.823 0 .192 0 .288.087.48l1.741 5.567 4.701 15.259 6.963 22.649 8.53 27.544 9.314 30.23 9.401 30.519 8.791 28.407 7.399 23.897 5.31 17.275c.87 2.687 1.567 5.566 2.524 8.157l.087.384.871-2.207-12.361 4.99-29.595 11.997-35.775 14.491-30.987 12.477-10.097 4.03c-1.567.672-3.308 1.152-4.788 1.92l-.174.096 2.611 1.439-2.524-5.566-6.963-15.163-10.271-22.362-12.622-27.447-13.666-29.847-13.84-30.231-12.969-28.215-10.881-23.705-7.834-17.179c-1.218-2.687-2.35-5.47-3.743-8.157-.087-.096-.087-.192-.174-.384l-.696 2.783a964 964 0 0 0 15.059-5.566c12.012-4.415 24.024-8.734 36.036-13.052 14.623-5.279 29.246-10.365 43.87-15.548 12.882-4.414 25.765-8.829 38.734-12.86 4.353-1.343 8.705-2.687 13.144-3.839.783-.192 1.654-.384 2.437-.575l1.045-.192c.174 0 .783-.192.087 0l.522-.096c.783-.192 1.828 0 2.524-.288 0 0-.522-.096-.087 0-.435-.192-.87-.48-1.131-.864.696.768 1.828 1.44 2.698.672.871-.768.609-2.016-.087-2.783"/><path fill="#fff" d="M363.166 238.465c.435-6.718 5.396-12.956 10.793-15.452 5.397-2.495 11.142-1.823 16.103 0 9.749 3.647 18.453 13.148 17.757 26.2-.348 5.471-2.263 10.941-4.091 16.316l-32.38 91.172 46.22-26.104"/><path fill="#000005" d="M369.52 237.793c.087-.864.174-1.728.435-2.591.087-.384.174-.768.348-1.152.087-.192.174-.48.261-.672-.174.576-.174.384 0-.096.348-.863.784-1.631 1.219-2.303.261-.384.435-.672.696-1.056.087-.192.61-.767.087-.192-.522.576.174-.288.261-.288.523-.575 1.132-1.247 1.654-1.727.174-.096.348-.288.523-.48-.088.096-1.132.864-.349.288.348-.288.697-.576 1.045-.768l.522-.384c.435-.287.783-.192-.609.288.348-.096.696-.384 1.044-.48s1.132-.479.087-.095c-1.044.383-.261.095-.087 0l.784-.192c.174 0 1.479-.288.261-.096-1.219.192.435 0 .696-.096.522 0 1.045 0 1.567-.096-.087.096-1.48 0-.435 0h.522c.609 0 1.132.096 1.741.192.348 0 .87.288-.348-.096.174.096.348.096.522.096a8.5 8.5 0 0 1 1.48.383c.957.288 1.915.576 2.785.864.348.192.609.288.958.384-.087 0-1.132-.48-.349-.096l.523.288 2.089 1.152a25 25 0 0 1 3.743 2.687c.261.192.609.288-.174-.096.174.192.435.288.522.48.348.288.609.576.87.864.61.671 1.219 1.343 1.741 2.015a29 29 0 0 1 3.047 4.798l-.436-.959a26.9 26.9 0 0 1 2.525 10.748v-1.343c0 7.39-2.786 14.299-5.223 21.017l-7.66 21.594-14.884 42.803-8.531 23.993c-.609 1.727 1.306 2.975 2.525 3.263 2.176.575 4.352.287 6.354-.768l46.22-26.104c1.219-.672 2.612-1.44 3.395-2.879a2.81 2.81 0 0 0-.087-3.167c-1.915-2.208-6.18-1.728-8.356-.48l-46.221 26.104 8.879 2.495 28.463-80.04c2.35-6.526 4.962-13.052 6.79-19.866 1.479-5.662 1.915-11.9.261-17.562-3.221-10.557-12.186-17.659-21.674-20.25-8.008-2.207-16.887-1.152-23.937 3.743-5.31 3.743-10.097 9.981-10.707 17.179-.261 3.167 3.308 3.742 5.484 3.455a11.2 11.2 0 0 0 4.788-1.728c.87-.576 2.176-1.631 2.35-2.975"/><path fill="#3E5CD6" d="M421.137 243.551c1.479 4.415-63.716 197.412-77.295 206.241s-129.783-52.688-130.566-54.799 44.654-191.654 44.654-191.654l55.359 11.421-.435 18.042s-7.05 6.718-1.48 11.997c5.571 5.278 13.318 3.647 11.316-4.223s-1.567-7.774-1.567-7.774 4.614-16.027 7.051-16.986c2.437-.96 92.963 27.735 92.963 27.735"/><path fill="#3E5CD6" d="M419.048 244.319c.087.288.087-.384 0 0 0 .192-.087.48-.087.672-.087.767-.261 1.439-.436 2.111-.609 2.399-1.305 4.799-2.002 7.198-2.437 8.157-5.048 16.219-7.659 24.28a2504 2504 0 0 1-11.229 33.398c-4.352 12.668-8.792 25.241-13.231 37.813s-9.139 25.048-13.84 37.428c-4.178 10.845-8.356 21.69-12.882 32.343-3.134 7.677-6.616 15.259-10.445 22.553-.697 1.151-1.306 2.399-2.002 3.551-.262.479-.61.959-.958 1.439.087-.096-.348.48 0 0l-.174.288c-.174.192-.261.384-.435.576l-.784.864c.348-.192-.435.479 0 0-.174.096-.261.192-.348.288s.609-.384.174-.096l-.261.096c-.348.191.609-.192.261-.096-.087 0-.261.096-.348.096-.435.191.435 0 .174 0-.087 0-.174 0-.348.096-.261 0-.522.095-.783.095.609 0-.262 0 0 0h-2.96a45 45 0 0 1-4.961-.863c-4.091-.96-8.357-2.304-12.187-3.551-10.793-3.743-21.325-8.254-31.771-12.86-11.402-5.087-22.718-10.557-33.947-16.123-9.313-4.607-18.54-9.405-27.68-14.3a797 797 0 0 1-8.791-4.894 40 40 0 0 1-2.698-1.632l-.871-.576c-.174-.096-.522-.288 0 0 0 0-.174-.096-.174-.192-.087-.384.087.288.087.384.087-.096 0-.288 0-.384.087-.576.174-1.151.261-1.631.435-2.208.958-4.511 1.393-6.718a1208 1208 0 0 1 5.484-24.185c2.611-11.324 5.222-22.649 7.921-33.973 2.959-12.669 6.006-25.433 8.965-38.197 2.873-12.284 5.832-24.568 8.705-36.853 2.35-9.981 4.7-19.962 7.137-29.943 1.393-5.854 2.786-11.612 4.178-17.466l.523-2.304-3.308 1.728 18.714 3.839 29.856 6.142 6.79 1.439-.871-.959-.435 18.042.348-.767c-1.566 1.535-2.872 3.454-3.568 5.662-1.306 4.031.87 7.294 3.916 9.309 2.96 2.111 6.703 2.495 10.011.96a6.62 6.62 0 0 0 3.22-3.455 8.7 8.7 0 0 0 0-5.567c-.435-1.919-.957-3.934-1.306-5.854-.087-.384-.087-.768-.174-1.055 0-.096-.087.287 0 .095-.522 1.056-1.218 2.496-3.655 1.536 1.218.48 3.307-.096 3.742-1.631 1.219-4.223 2.612-8.446 4.353-12.477a20 20 0 0 1 1.566-3.071c-.174.288.087-.096.175-.192.174-.288 0 0-.175.096-.435.288-.957.384-1.479.48.348 0 0 .096-.174 0 .174 0 .261.096.435.096.348.096.696.096 1.044.192 6.442 1.344 12.709 3.359 19.063 5.278 9.923 2.88 19.846 5.951 29.682 9.022 9.314 2.879 18.627 5.758 27.941 8.733l9.575 2.975c1.567.48 3.046 1.056 4.613 1.44l.174.096c1.045.192 2.176-.192 2.96-1.056.696-.768.348-1.44-.523-1.727l-12.186-3.839c-9.226-2.879-18.54-5.759-27.767-8.638-10.184-3.167-20.368-6.238-30.552-9.309-6.702-2.015-13.405-4.127-20.194-5.566-.784-.192-1.567-.288-2.35-.384-1.654 0-3.221.96-4.179 2.495-1.392 2.303-2.437 4.799-3.307 7.39-.871 2.495-1.741 4.99-2.524 7.582l-.436 1.343 3.743-1.631c-1.393-.576-3.917.288-3.743 2.303.261 1.919.61 3.839 1.219 5.662.522 1.536.783 3.167.696 4.703-.087.48-.174.96-.435 1.343a2.8 2.8 0 0 1-.696.768c.261-.192-.261 0 .087-.096-.087 0-.261.096-.435.096.348-.096.087 0 0 0-.349.096-.784.096-1.219 0a8 8 0 0 1-3.482-1.439c-2.263-1.44-4.004-3.839-3.308-6.814a9.9 9.9 0 0 1 2.96-4.799c.609-.576.87-1.439.783-2.303l.174-5.566.262-11.229c0-.576-.349-.864-.871-1.056l-18.714-3.838-29.856-6.143-6.877-1.439c-1.131-.192-2.959.384-3.307 1.727a383 383 0 0 0-2.264 9.597c-2.002 8.35-4.004 16.603-5.919 24.953-2.698 11.516-5.483 23.033-8.182 34.549-3.046 12.86-6.093 25.72-9.139 38.676-2.873 12.285-5.745 24.473-8.618 36.757l-6.789 29.367c-1.219 5.375-2.524 10.749-3.482 16.219-.174.96-.435 1.824.261 2.496 1.48 1.151 3.134 2.207 4.788 2.975 7.311 4.222 14.71 8.061 22.196 11.9a861 861 0 0 0 32.467 16.027c11.229 5.279 22.545 10.461 33.947 14.972 8.879 3.551 18.018 7.197 27.419 9.021 4.875.96 10.968 1.919 14.711-2.687 3.742-4.607 6.354-10.557 8.878-16.027 4.265-9.31 8.182-18.811 12.012-28.312 4.7-11.804 9.227-23.801 13.666-35.701 4.7-12.86 9.401-25.816 13.927-38.772 4.265-12.188 8.443-24.281 12.534-36.469 3.308-9.789 6.529-19.578 9.575-29.463 1.828-5.854 3.743-11.708 5.223-17.755.174-.863.696-2.303.435-3.263-.957-1.535-5.136-.096-4.613 1.536"/><path fill="#fff" d="M307.37 298.063c4.091-1.92 8.27-3.743 12.448-5.567l-.61.288c5.745-2.399 11.577-4.702 17.409-6.814l-12.534-12.86c-10.794 26.392-20.107 53.456-27.941 81.095a556 556 0 0 0-6.267 23.705c-.262 1.152.348 2.112.957 3.167 1.219 1.824 2.611 3.551 4.265 4.991 1.567 1.535 3.221 2.879 5.049 3.935.435.191 2.698 1.439 2.959.575a786 786 0 0 1 25.33-82.151c2.873-7.581 5.745-15.163 8.791-22.649.436-1.055-.435-2.399-.87-3.167-.957-1.535-2.089-2.879-3.395-4.126-1.305-1.44-2.785-2.688-4.352-3.839l-1.567-.96c-.696-.48-1.479-.768-2.35-.768-10.271 3.743-20.455 7.87-30.465 12.572-.784.384.957 3.167.87 3.167 1.219 1.824 2.612 3.551 4.265 4.991 1.567 1.535 3.221 2.879 5.049 3.935.957.384 1.828.959 2.959.48"/><path fill="#fff" d="M290.31 388.851c3.482.576 6.876 1.44 10.184 2.495 1.567.576 3.134 1.152 4.7 1.824l.697.288-.436-.192 1.219.575c.783.384 1.654.864 2.437 1.248.61.384 2.438 1.344 3.134.48s-.174-2.783-.522-3.455c-2.176-3.935-5.223-7.198-8.879-9.405-7.399-4.031-15.407-6.718-23.589-7.87-1.218-.192-.957 1.728-.783 2.304.609 1.823 1.654 3.55 2.872 4.99 2.35 2.879 5.397 6.238 8.966 6.718M281.083 227.236c-1.305-.192-2.437.672-2.785 2.016-.261 1.343-.261 2.783.087 4.03.522 2.496 1.567 5.471 3.917 5.855.957.096 1.915-.096 2.785-.672 2.35-1.536 3.395-4.511 2.699-7.39-.784-2.783-3.917-4.415-6.268-3.263M341.056 238.945c-1.218-.192-2.437.671-2.785 2.015-.261 1.344-.261 2.783.087 4.031.522 2.495 1.567 5.47 3.917 5.854.957.096 1.915-.096 2.785-.672 2.351-1.535 3.395-4.51 2.699-7.39-.871-2.783-3.917-4.414-6.267-3.263M381.967 252.38c-1.219-.383-2.437.768-2.785 2.016-.262 1.343-.262 2.687.087 4.031.522 2.495 1.566 5.47 3.917 5.854.957.096 1.915-.096 2.785-.672 2.35-1.535 3.395-4.511 2.698-7.39-.87-2.687-3.917-4.414-6.267-3.263"/><path fill="#000005" d="m291.79 209.194 12.273-3.455 29.508-8.446 35.514-10.173 30.726-8.733c4.962-1.44 10.01-2.591 14.885-4.223l.174-.096c2.263-.671.261-4.894-1.741-4.318l-12.273 3.455-29.508 8.445-35.514 10.077-30.727 8.733c-4.961 1.44-10.01 2.592-14.884 4.223l-.174.096c-2.176.768-.261 4.99 1.741 4.415"/><path fill="#000005" d="M395.285 156.314c-.348-4.799-5.31-7.102-9.14-7.102-4.091 0-7.312 3.647-8.269 7.87-1.393 5.566.435 11.708 1.915 16.986.783 2.784 1.741 5.567 2.611 8.254.697 2.303 1.828 4.51 3.134 6.43 2.872 3.743 9.488 6.526 13.231 2.879.783-.768-3.047-2.591-3.917-1.727a3.5 3.5 0 0 1-3.395 1.055c-1.306-.48-2.263-2.015-2.96-3.167-2.002-3.455-3.133-7.773-4.265-11.612-2.089-7.006-5.571-18.043 1.045-23.513.87-.768 2.524-1.728 3.569-1.344 1.305.672 2.089 2.112 2.176 3.647.174 1.536 4.265 2.112 4.265 1.344M361.251 167.35a12.86 12.86 0 0 0-4.527-5.086c-2.002-1.536-4.352-2.687-6.789-3.167-2.089-.384-4.178.384-5.571 2.207-1.132 1.728-1.741 3.839-1.741 5.95-.174 5.279.522 10.653 2.089 15.644 1.393 4.99 3.482 10.269 6.79 14.107a21 21 0 0 0 7.05 5.087c2.263 1.151 4.875 1.247 7.138.096 0 0-1.654-1.248-1.828-1.344-.348-.192-1.567-1.151-2.002-.96-1.654.864-3.569 1.056-5.31.48-.174-.096-.957-.48-.261 0s.174.096 0 0c-.348-.384-.783-.767-1.132-1.151-.609-.768-1.218-1.536-1.74-2.4-2.176-3.551-3.917-7.581-5.049-11.708a55 55 0 0 1-2.089-13.052c-.087-3.071.174-6.814 2.35-9.117a5.54 5.54 0 0 1 5.484-1.344c.261.096.522.096.696.192s1.132.48.261 0-.174-.096 0 .096c.175.192.436.48.697.672.696.768 1.218 1.631 1.654 2.591.348.672 1.653 1.248 2.263 1.536.348.288 1.654.959 1.567.671M290.397 190.479c-1.219-4.51-4.178-8.253-8.792-7.581s-7.834 4.702-9.226 9.501c-2.612 9.597-1.828 20.538 1.567 29.847 1.828 5.086 4.439 9.981 8.356 13.34 1.305 1.151 5.048-1.152 3.133-2.688-2.785-2.591-4.961-5.854-6.441-9.597a51.4 51.4 0 0 1-3.482-12.572c-.609-4.318-.609-8.637-.087-12.956.436-3.647 1.045-8.445 3.917-10.845 3.395-2.879 6.006 1.728 6.877 4.991.522 2.015 4.7.576 4.178-1.44"/><path fill="#000005" d="M363.862 195.758c-1.393-.384-2.785-.384-4.178-.096-.609.096-1.219.48-1.654.959-1.045 1.248-1.045 2.88-.783 4.511.435 2.303 1.131 5.47 3.307 6.622.871.384 1.741.576 2.699.672a8.3 8.3 0 0 0 3.742-.288c1.306-.384 2.351-1.248 3.134-2.399 1.567-2.112 1.654-5.087.174-7.294a5.8 5.8 0 0 0-3.482-2.207c-1.218-.288-2.524-.384-3.742-.288-.871 0-1.741.192-2.525.576-.261.095.174.287.174.287.436.096.871.192 1.306.192.87.192 1.828.096 2.698-.192.174-.096.349-.096.523-.192.174-.095-.087 0-.174 0-.436 0-.958-.095-1.393-.095-.087 0-.348-.096 0 0-.174-.096.087 0 .087 0 .174.095.348.095.522.191a4.6 4.6 0 0 1 1.915 1.824c.958 1.727.958 3.935.174 5.662-.435.96-1.044 1.728-1.741 2.399-.435.384-.87.576-1.305.864-.174.096-.349.096-.523.096 1.48-.576 2.699.384 1.828 0-1.566-.768-2.263-2.975-2.698-4.702a12.2 12.2 0 0 1-.435-4.031c.087-.672.261-1.248.696-1.824.174-.192.348-.479.609-.575.087-.096.174-.096.262-.192.957-.576.957.575-2.264-.192 1.045.192 2.089.288 3.047.192.087 0 .609-.096.609-.288s-.435-.288-.609-.192M397.374 181.458c-.697-.192-1.393-.192-2.002.192-.523.288-1.045.768-1.306 1.44-.696 1.439-.348 3.167 0 4.702.261 1.248.609 2.399 1.219 3.551a6.93 6.93 0 0 0 3.22 2.879c1.654.864 3.569 1.632 5.31.864a6.23 6.23 0 0 0 2.872-2.495c1.393-2.112 1.393-4.991-.087-7.102-1.305-1.44-2.872-2.591-4.7-3.071-1.48-.768-3.134-.864-4.613-.288-.436.192 1.131.96 1.218 1.056.523.287 1.045.479 1.567.671.261.096.784.288.958.192.348-.192.783-.288 1.218-.384h.871c-.174-.192-.697-.287-.958-.383-.087-.096-.261-.096-.348-.192.174.096.174.096.087 0l.261.192c.348.287.609.671.871 1.055a6.13 6.13 0 0 1 0 5.758q-.654 1.44-1.828 2.304c-.61.48-1.393.864-2.176.959h-.697c1.306.096 2.525 1.44 1.828.768l-.435-.48c-.261-.383-.522-.767-.696-1.151-.436-.96-.697-1.92-.958-2.879-.435-1.344-.435-2.88-.174-4.319.174-.576.435-1.056.87-1.44a1.65 1.65 0 0 1 .784-.479c.087 0 .174-.096.261-.096s.348 0 .261-.096.609.192.696 0c.088-.192-.522-.48-.522-.48-.87-.576-1.828-1.056-2.872-1.248M319.644 202.284c-1.741-.384-3.917-.192-5.136 1.535-.957 1.44-.783 3.167-.522 4.799.522 2.591 1.305 5.47 3.656 6.718 3.133 1.727 6.963.864 9.139-2.207 1.393-2.208 1.741-5.375.174-7.582-2.176-2.975-6.354-3.935-9.488-2.495-.957.383.262 1.247.697 1.439a3.94 3.94 0 0 0 2.959 0c-.348.096.523-.096.261-.096h.175-.087c-.088 0-.523-.096-.175 0s-.174-.096-.174 0 .261 0 .261.096c-.261-.096-.348-.096-.087 0l.087.096c.436.096-.174-.096 0 0 .088.096.175.096.262.096l.348.192c-.087 0-.174-.192 0 0l.783.864c1.045 1.631 1.132 3.647.348 5.374-.348.864-.957 1.632-1.566 2.303-.349.288-.697.576-1.132.768l-.348.096c.261-.096 0 0-.087 0h.435c.261.096.348.096.087 0l.261.096c-.261-.096 0 0 .087 0s-.348-.192-.174-.096-.174-.192-.174-.096l-.174-.192c-.261-.288-.522-.576-.696-.959a14 14 0 0 1-1.045-2.688c-.348-1.247-.522-2.495-.435-3.838.087-.672.261-1.248.609-1.728l.435-.48c.087 0 .174-.192.174-.096-.087 0-.087.096-.174.096-.348 0-.609 0-.957-.096.696.192 2.176.384 2.698-.384.523-.767-.957-1.439-1.305-1.535"/><path fill="#000005" d="M321.123 178.675c-.348-1.44-1.828-2.111-3.046-2.399-1.828-.48-3.656-.576-5.571-.384-3.743.384-7.138 2.111-9.053 5.758-1.915 3.839-1.827 8.35-.522 12.38.871 2.4 1.915 4.607 3.221 6.718 1.218 2.112 2.524 4.127 4.004 5.95 3.569 4.223 9.226 6.239 14.275 3.935.783-.384.783-1.055 0-1.439-.957-.48-2.089-.48-3.047-.096-2.959 1.343-5.918-1.536-7.746-3.839-2.264-2.975-4.179-6.238-5.745-9.693-1.567-3.167-2.002-6.91-1.306-10.461.609-2.783 2.263-5.758 4.787-6.814 1.132-.48 2.438-.672 3.656-.48.435 0 1.48.096 1.654.672.435 1.632 4.613 1.248 4.439.192M413.912 155.258c.784 2.591 1.654 5.087 2.786 7.486 1.74 4.414 3.655 8.829 5.483 13.244a3018 3018 0 0 0 16.974 38.772c6.702 15.067 13.405 30.135 20.194 45.106 6.006 13.34 12.099 26.68 18.192 40.02 3.482 7.582 6.964 15.259 10.533 22.841l.522 1.056c.522 1.055 1.48 1.727 2.611 1.823.871 0 1.306-.672.871-1.535-3.221-6.526-6.181-13.244-9.227-19.866-5.832-12.764-11.664-25.624-17.496-38.389a6844 6844 0 0 1-20.281-45.106c-5.919-13.34-11.838-26.776-17.67-40.308-2.089-4.798-4.091-9.597-6.093-14.395-.696-1.728-1.393-3.455-2.089-5.279-.261-.671-.522-1.343-.784-1.919 0-.096.175.384 0-.096 0-.096-.087-.288-.174-.384s-.174-.48-.261-.768-.261-.767-.348-1.055c-.435-1.056-1.219-1.92-2.263-2.208-.609-.288-1.741-.096-1.48.96M352.981 285.49l9.14-4.51c.696-.384-.435-1.536-.783-1.728a7.5 7.5 0 0 0-1.393-.959c-.261-.096-.783-.384-1.045-.192l-9.139 4.51c-.697.384.522 1.536.783 1.728.435.384.871.672 1.393.96.261.095.696.287 1.044.191M353.591 297.871l7.921.767c.522.096 1.131 0 1.567-.383.435-.288.696-.768.783-1.248 0-1.152-.871-2.207-1.915-2.303l-7.921-.672c-.522-.096-1.132 0-1.567.288s-.696.768-.783 1.247c0 1.248.87 2.208 1.915 2.304M210.142 445.762s24.547 22.073 26.723 16.795c2.176-5.279-14.188-33.014-14.188-33.014z"/><path fill="#000005" d="M209.359 446.817c2.785 2.495 5.571 4.799 8.443 7.102 4.614 3.743 9.488 7.678 14.798 10.173 1.392.672 3.656 1.631 5.135.768 1.48-.864 1.132-3.359.871-4.895-1.393-6.238-4.526-12.188-7.399-17.754-2.263-4.319-4.526-8.638-7.051-12.764-.522-.864-2.35-2.496-3.22-1.344l-10.968 14.3-1.566 2.015c-1.045 1.44 2.263 4.415 3.394 2.975l10.968-14.3 1.567-2.015-3.221-1.344a214 214 0 0 1 5.484 9.885c2.872 5.471 5.745 10.845 7.747 16.795q.522 1.44.783 2.879c.087.384.087.864.087 1.248v-.096.288c0 .192-.087.288-.087.48.087-.288-.261.384-.087.096-.087.096-.174.096-.348.192.522-.096-.087 0-.174 0-.435 0 .348.096-.087 0l-.523-.096-.174-.096c-.348-.096.349.096.087 0l-.696-.192-1.306-.576c-.435-.192.174.096-.348-.192l-.87-.48c-1.132-.672-2.263-1.439-3.395-2.111s-2.35-1.632-3.482-2.495l-1.479-1.056-1.828-1.44c-3.221-2.591-6.355-5.182-9.401-7.965-.522-.48-1.828-1.248-2.437-.48-.61.768.261 2.015.783 2.495M161.92 449.121s-21.674 22.457-23.676 19.098 6.703-29.175 6.703-29.175z"/><path fill="#000005" d="M160.266 447.585c-5.396 5.854-11.228 11.229-17.321 16.123-.784.576-1.654 1.248-2.438 1.728-.348.192-.696.479-1.044.575l-.435.192c-.262.096.087 0 .087 0l-.261.096c-.088 0-.262.096-.349.096-.435.192.174 0 .087 0-.261 0-.348-.096.174.096.436.192.784.48 1.045.768-.087-.096.348.576.174.192.261.672.174.288.087.096-.174-.48 0 .096 0-.096v-.672c.087-2.111.435-4.223.958-6.238.609-2.879 1.392-5.662 2.176-8.541 1.131-4.031 2.437-8.062 3.743-11.997l-2.438.672 14.885 8.829 2.089 1.248c.783.48 2.089.48 2.437-.672.348-1.151-.522-2.303-1.393-2.879l-14.884-8.637-2.089-1.248c-.783-.48-2.089-.48-2.437.672a262 262 0 0 0-3.395 10.941c-.87 2.975-1.654 5.95-2.35 9.021-.61 2.495-1.045 4.99-1.219 7.582-.087 2.111.609 4.51 2.699 5.086 1.653.48 3.394-.576 4.7-1.536 4.265-2.879 8.182-6.622 11.925-10.172 2.785-2.688 5.571-5.375 8.269-8.158.783-.864 0-2.303-.696-2.879-.784-.96-2.002-1.056-2.786-.288"/><path fill="#fff" d="M186.691 456.338c34.909-2.712 61.314-34.57 58.976-71.156s-32.533-64.047-67.443-61.336c-34.909 2.712-61.314 34.57-58.976 71.156s32.533 64.048 67.443 61.336"/><path fill="#000005" d="M243.654 385.78c.871 13.532-2.263 26.968-8.878 38.388-6.528 11.229-16.016 20.058-27.158 25.336-11.838 5.471-24.807 6.91-37.342 4.127-12.099-2.687-23.24-9.309-32.032-18.906-18.018-19.674-22.196-50.097-10.097-74.665 5.745-11.613 14.449-21.018 25.069-27.16 22.979-12.956 50.833-9.309 70.418 9.213 9.227 8.829 15.755 20.634 18.628 33.686.696 3.359 1.131 6.718 1.392 9.981.087 2.015 4.178.48 4.091-1.248-.957-14.107-6.006-27.447-14.449-38.1s-19.672-18.235-32.032-21.786c-13.318-3.838-27.332-3.167-40.301 1.824-12.448 4.702-23.415 13.436-31.51 24.952-7.747 11.229-12.099 24.857-12.273 38.964-.174 14.204 4.004 28.024 11.663 39.444 7.747 11.229 18.28 19.674 30.379 24.281 12.969 4.799 26.983 5.278 40.214 1.344 12.883-3.839 24.372-11.709 33.251-22.649 8.443-10.557 13.666-23.705 14.971-37.717.261-3.455.349-6.91.087-10.461-.174-2.015-4.178-.48-4.091 1.152M117.528 350.079l26.722-27.16s-5.658-10.557-18.801-4.415c-13.144 6.142-12.622 23.705-7.921 31.575"/><path fill="#000005" d="m119.443 350.367 23.415-23.801 3.307-3.359c.261-.192.261-.576.174-.768-1.044-1.727-2.35-3.167-3.917-4.223-3.83-2.687-8.53-3.071-12.882-2.111-5.136 1.056-10.097 3.935-13.318 8.541-2.437 3.743-3.83 8.254-3.83 12.861-.174 4.606.958 9.213 3.134 13.244.696 1.151 4.874.191 4.091-1.056-3.83-6.334-3.917-15.643-.784-22.361 3.482-7.294 12.535-12.381 19.411-7.87 1.654.96 2.96 2.399 4.004 4.127l.174-.768-23.502 23.705-3.307 3.359c-.697.768.435 1.151.957 1.247a3.44 3.44 0 0 0 2.873-.767M210.752 315.817l30.813 25.432s9.401-19.962-2.611-30.038-26.461-1.44-28.202 4.606"/><path fill="#000005" d="m209.011 315.049 10.358 8.542 16.625 13.724 3.83 3.167c.349.288 3.482 2.303 3.656 1.823 2.786-5.95 4.352-13.532 3.047-20.154-1.219-6.046-5.049-9.981-9.836-12.86-5.397-3.167-11.229-4.702-17.235-2.975-2.524.672-4.874 1.919-7.05 3.551-1.654 1.152-2.96 2.879-3.743 4.895-.174.575 3.83 2.303 3.917 2.111 1.131-3.647 4.874-6.046 7.921-7.39 4.352-2.015 10.271-2.687 14.71-.384 4.091 2.208 6.789 6.91 7.486 11.709.522 4.222.261 8.541-.871 12.572a48 48 0 0 1-2.35 6.814l3.656 1.823-10.358-8.541-16.626-13.724-3.829-3.167c-.784-.672-1.654-1.152-2.612-1.536-.087-.096-1.392-.575-.696 0M167.665 320.712s.696-11.421 12.883-9.981 10.619 10.557 10.619 10.557-22.37 1.343-23.502-.576"/><path fill="#000005" d="M169.58 321.575c0-.288.087-.671.174-.959s.174-.576.174-.96-.087.384 0 .096c0-.096.087-.192.087-.288s.174-.48.261-.672c.697-2.111 2.176-3.839 4.004-4.894 2.96-1.632 6.79-1.344 9.923-.288.349.096.784.288 1.132.384.261.096.435.192.696.288l.174.096c.349.192.61.383.958.575.087.096.261.192.348.288.522.384-.261-.288.174.096l.609.672c.436.48-.087-.192.175.288l.348.672s.261.48.087.192.087.192.087.288c.087.192.174.48.174.671.174.48 0-.287.087.384.087.384.087.768.087 1.152.087.576 0-.384 0 0v.672l1.219-1.344c-6.355.48-12.796.672-19.15.384-.783-.096-1.567-.096-2.35-.288-.174 0-.261-.096-.435-.096.348.096-.523-.096 0 0-.088 0-.175-.096-.262-.096.349.288.697.576.958.96-.609-.864-1.654-1.728-2.698-1.152-.784.576-1.045 1.728-.523 2.687l.087.096c1.045 1.44 2.438 1.824 4.091 2.016q3.003.288 6.006.288c4.266 0 8.444-.096 12.709-.288 1.044 0 2.002-.096 2.959-.192.61-.096 1.132-.576 1.219-1.344.87-5.086-2.611-9.693-6.615-11.804-6.355-3.263-15.668-2.879-19.324 4.606-.784 1.536-1.306 3.263-1.393 4.991-.087 1.248.609 2.399 1.654 2.783.696.48 2.002.192 2.089-.96"/><path fill="#3E5CD6" d="M164.793 382.805c5.222 2.015 9.574 5.758 13.665 9.789 1.132 1.151 1.567 1.631 2.612 2.591.435.48.87.864 1.218 1.344-.87-.864.61.863-.348-.384-.348-.384-.609-.768-.783-1.248 0-.192 0 0 .174.288.696 2.015.174 4.799-1.654 5.854-1.044.576-1.654.288-2.698 0 3.046.96 3.046 5.663 2.698 2.975-.087-.767-.087-1.535.087-2.303.696-2.975 2.786-5.47 4.526-7.678 3.83-4.702 8.095-8.925 12.709-12.764 5.222-4.414 10.619-8.349 16.103-12.284.696-.48-1.915-3.839-2.176-4.223-.609-.863-1.393-1.727-2.089-2.495-.261-.192-.871-.96-1.219-.672-5.745 4.127-11.577 8.35-17.06 13.052-2.699 2.304-5.31 4.703-7.747 7.294a62 62 0 0 0-6.877 8.445c-.957 1.44-1.567 2.976-1.915 4.703-.261 1.823.087 3.647.958 5.086 1.392 2.784 3.307 5.279 5.571 7.198 1.044 1.056 2.524 1.536 3.916 1.152 2.699-.864 3.047-4.703 2.264-7.198-.871-2.399-2.176-4.606-3.743-6.526-1.306-1.727-2.786-3.359-4.265-4.894-5.745-5.855-11.664-11.805-19.15-14.78-.958-.384 1.132 3.071 1.219 3.263.696.96 1.392 1.92 2.263 2.783.522.768 1.131 1.248 1.741 1.632"/><path fill="#fff" d="m177.936 337.219.435 6.622Z"/><path fill="#000005" d="m176.021 336.259.435 6.622c.088 1.056 1.132 1.823 1.915 2.207.436.192.871.384 1.393.288.261-.096.609-.192.609-.576l-.435-6.622c-.087-1.055-1.131-1.823-1.915-2.207a3.3 3.3 0 0 0-1.392-.288c-.349 0-.61.192-.61.576"/><path fill="#fff" d="m185.857 432.71.522 7.389Z"/><path fill="#000005" d="m183.855 432.23.435 7.389c0 .576.262 1.152.61 1.632s.87.864 1.392.96c.523.096.958 0 1.393-.384.348-.384.609-.864.609-1.44l-.435-7.39c0-.575-.261-1.247-.609-1.727s-.783-.864-1.393-.96c-.522-.096-.957 0-1.392.384-.349.48-.61.96-.61 1.536"/><path fill="#fff" d="m223.982 384.244 5.658-.479Z"/><path fill="#000005" d="m225.462 385.588 5.658-.48c.261 0 .522-.096.435-.384s-.435-.768-.696-.96c-.435-.383-.958-.671-1.393-.959a2.3 2.3 0 0 0-1.305-.384l-5.658.48c-.261 0-.523.096-.436.384s.436.767.697.959c.435.384.957.672 1.392.96.436.192.871.384 1.306.384"/><path fill="#fff" d="m130.41 395.761 5.31-.384Z"/><path fill="#000005" d="m128.669 397.008 5.31-.383c.348 0 .696-.096.958-.288a4.7 4.7 0 0 0 1.479-.864c.348-.192.784-.48 1.045-.864.087-.096.348-.384.087-.384l-5.31.384c-.348 0-.696.192-.957.288a4.7 4.7 0 0 0-1.48.864c-.348.192-.783.48-1.045.864-.087 0-.435.383-.087.383"/><path fill="#3E5CD6" d="M146.775 479.063c-8.27.096-16.365-2.591-23.154-7.677-.609-.48-2.002 0-2.699.192-.174.096-1.827.576-1.392.863 7.224 5.279 15.755 7.966 24.372 7.774a8.2 8.2 0 0 0 3.047-.576c.609-.288.696-.672-.174-.576M118.05 480.599c-2.698-1.152-5.31-2.591-7.66-4.319-.783-.575-.174.864 0 1.056.435.96 1.132 1.823 1.915 2.495 2.524 1.824 5.31 3.359 8.182 4.607.261.096.174-.384.174-.48-.174-.48-.348-.864-.609-1.248l-1.044-1.439c-.349-.192-.61-.48-.958-.672M250.183 457.278c-3.743 6.334-9.14 11.133-15.494 13.82-2.263.96.696 4.319 2.437 3.551 6.877-2.879 12.796-8.158 16.8-14.876 1.131-1.823-2.612-4.318-3.743-2.495M240.347 479.159c-1.045.768-2.089 1.44-3.134 2.112l-.435.192-.784.384c-.609.288-1.131.575-1.74.767-.436.192-.871.48-1.132.96a1.34 1.34 0 0 0 0 1.152c.696.863 2.002.672 2.785.288 2.525-1.056 4.875-2.4 7.051-4.127.348-.192.696-.672.783-1.056s-.087-.864-.435-1.055c-.957-.384-2.089-.288-2.959.383M163.4 289.425c.957-10.94 2.002-22.169 5.745-32.438 3.482-9.501 9.836-19.674 19.498-22.073 4.265-1.056 9.139-.192 12.534 3.071 3.046 3.071 4.265 7.678 3.221 12.092-.349 1.152-1.654 4.511-2.96 2.879-1.306-1.823-2.089-4.03-2.089-6.334-.348-4.702 1.48-9.405 3.917-13.148 2.959-4.51 7.051-7.869 11.838-9.597 4.352-1.631 9.314-1.631 13.057 1.728 2.002 1.823 4.961-1.152 2.785-3.167-8.792-8.062-22.022-2.784-28.986 5.47-3.568 4.223-6.441 9.789-6.876 15.643a19.4 19.4 0 0 0 1.044 8.35c1.132 2.975 3.308 6.046 6.442 5.854 3.133-.192 5.135-3.455 6.006-6.43a17.34 17.34 0 0 0 0-8.446c-1.48-6.046-6.006-10.364-11.316-11.996-11.838-3.647-22.544 5.566-28.376 16.027-6.877 12.38-8.531 27.256-9.662 41.46-.087 1.247.609 2.399 1.741 2.591.87.288 2.263-.288 2.437-1.536M159.222 235.394c2.35-3.551 6.006-5.854 10.01-6.142.087 0-.522-.672-.435-.576-.349-.384-.784-.768-1.219-1.152a10.6 10.6 0 0 0-1.219-.96c-.174-.192-.348-.288-.609-.288-4.004.384-7.66 2.592-10.01 6.143-.174.288 3.221 3.263 3.482 2.975M239.737 228.196h2.96c.348 0 .783-.192.957-.48.174-.384.087-.864-.087-1.152a3.7 3.7 0 0 0-1.131-1.247c-.436-.288-.958-.48-1.48-.48h-2.96c-.348 0-.783.192-.957.48-.174.384-.087.864.087 1.151.261.48.696.96 1.132 1.248s.957.48 1.479.48"/><path fill="#000" d="M33.72 67.52h3.08v15.92q0 1.4-.4 2.08-.4.72-1.52 1.04-1.04.36-2.84.44-1.76.08-4.44.08a7 7 0 0 0-.48-1.52q-.32-.8-.64-1.4 1.36.04 2.64.04 1.32.04 2.28 0h1.36q.56-.04.76-.2t.2-.6zM20.88 52.56h25.28v2.8H20.88zm24.16 0h.76l.68-.16 2.16 1.64a44 44 0 0 1-3.76 3.4 57 57 0 0 1-4.32 3.24 54 54 0 0 1-4.28 2.64 4 4 0 0 0-.56-.68q-.32-.36-.68-.72a4.2 4.2 0 0 0-.64-.6 38 38 0 0 0 3.88-2.4 55 55 0 0 0 3.84-2.88q1.8-1.52 2.92-2.8zM17.12 65.32H50.6v2.88H17.12zM26.36 60l1.6-2.24q1.72.72 3.72 1.6 2.04.84 4.04 1.72a135 135 0 0 1 3.76 1.72q1.8.84 3.08 1.52l-1.64 2.56q-1.2-.68-2.96-1.56a128 128 0 0 0-3.76-1.8 110 110 0 0 0-4.04-1.84q-2-.92-3.8-1.68m23.2 5.32h.6l.56-.2 2.4 1.08a81 81 0 0 1-3.44 5.32Q47.8 74.2 45.96 76l-2.48-1.48q1-1.08 2.12-2.52t2.12-3a45 45 0 0 0 1.84-3.08zm25.92 2.24 2.44-1.24q1.12 1.44 2.24 3.08a36 36 0 0 1 2 3.28q.92 1.6 1.4 2.88l-2.68 1.4q-.4-1.28-1.28-2.92-.84-1.64-1.92-3.32a38 38 0 0 0-2.2-3.16m.2-9.92h15.24v2.84H75.68zm14 0h2.92v.96q0 .36-.04.56-.24 6.8-.52 11.48-.24 4.68-.6 7.72-.32 3-.76 4.68t-1.08 2.4q-.64.88-1.4 1.2t-1.88.44q-1 .12-2.72.08t-3.52-.12q-.04-.68-.32-1.56a5.1 5.1 0 0 0-.64-1.44q2 .16 3.68.2 1.72.04 2.44.04.64 0 1.04-.12t.72-.52q.52-.52.92-2.12.4-1.64.72-4.6t.56-7.56.48-11.08zM77.2 50.36l3.04.68a50 50 0 0 1-2.04 5.68 44 44 0 0 1-2.56 5.16q-1.4 2.4-2.92 4.24-.32-.24-.8-.56-.48-.36-1-.68a8 8 0 0 0-.92-.56q1.6-1.68 2.92-3.88a36 36 0 0 0 2.44-4.84 49 49 0 0 0 1.84-5.24m-14.4.04 2.68 1.04q-.72 1.44-1.6 3.04a264 264 0 0 1-1.72 3.08q-.84 1.44-1.64 2.56l-2.08-.92A33 33 0 0 0 60 56.52q.8-1.56 1.56-3.16.76-1.64 1.24-2.96m4.84 4.56 2.64 1.12q-1.4 2.28-3.12 4.8a172 172 0 0 1-3.4 4.84q-1.72 2.36-3.24 4.08l-1.92-1a48 48 0 0 0 2.4-3.08 77 77 0 0 0 2.44-3.6 84 84 0 0 0 2.32-3.72 59 59 0 0 0 1.88-3.44m-11.12 3.88 1.48-2a38 38 0 0 1 2.28 2.04q1.16 1.12 2.12 2.24.96 1.08 1.48 1.96l-1.6 2.32q-.56-.96-1.52-2.12a32 32 0 0 0-2.04-2.32 40 40 0 0 0-2.2-2.12m9.84 5.4 2.24-.96a35 35 0 0 1 1.68 2.8q.8 1.48 1.4 2.88.64 1.4.92 2.52l-2.36 1.12q-.32-1.12-.92-2.56a47 47 0 0 0-1.36-2.96 32 32 0 0 0-1.6-2.84m-9.92 4.04q2.68-.08 6.44-.2 3.76-.16 7.72-.36v2.48q-3.8.24-7.44.44t-6.48.36zm10.96 5.56 2.24-.76a40 40 0 0 1 1.64 4q.8 2.16 1.12 3.72l-2.48.84q-.28-1.6-1-3.76a46 46 0 0 0-1.52-4.04m-8.76-.56 2.56.44a50 50 0 0 1-1.12 5.6q-.72 2.72-1.68 4.64a4.4 4.4 0 0 0-.72-.4q-.4-.2-.88-.4-.44-.24-.8-.36 1.04-1.84 1.64-4.36.64-2.56 1-5.16m4.6-3.84h2.72v17.84h-2.72zm50.16-17.08q-.24 1.2-.64 2.84-.36 1.6-1.2 3.64a31 31 0 0 1-1.8 3.72 26 26 0 0 1-2.24 3.48 8 8 0 0 1 1.72-.8q.96-.36 1.96-.52 1.04-.16 1.88-.16 2.32 0 3.92 1.32 1.6 1.28 1.6 3.76v4.44l.08 2.52q.04 1.24.04 2.16h-3.08q.04-.8.08-1.88t.04-2.28q.04-1.2 0-2.28v-1.84q0-1.76-1.08-2.56-1.04-.84-2.64-.84-1.88 0-3.72.84a11.2 11.2 0 0 0-3.16 2.08q-.88.84-1.76 1.92-.84 1.04-1.88 2.24l-2.72-2q2.88-2.8 4.8-5.24t3.12-4.52q1.2-2.12 1.88-3.8.64-1.68 1.04-3.36.4-1.72.48-3.16zm-13.68 4.32q1.6.2 3.48.32t3.28.12q2.68 0 5.76-.12a165 165 0 0 0 6.2-.44 65 65 0 0 0 6-.8l-.04 2.96q-2.08.36-4.44.6-2.36.2-4.8.36-2.44.12-4.72.2-2.24.04-4.16.04h-1.96q-1.08-.04-2.28-.08-1.2-.08-2.32-.16zm30.56 9.68q-.52.12-1.16.36-.6.2-1.24.44-.6.24-1.16.48-2.08.8-4.84 1.96a71 71 0 0 0-5.64 2.68q-2 1-3.52 2.12-1.52 1.08-2.4 2.28-.88 1.16-.88 2.56 0 1.16.52 1.88.56.72 1.56 1.12 1 .36 2.28.48 1.32.12 2.88.12 2.32 0 5.28-.24 3-.28 5.64-.72l-.08 3.2q-1.52.2-3.44.36a87 87 0 0 1-3.84.24q-1.92.12-3.68.12-2.84 0-5.2-.52-2.32-.52-3.72-1.84t-1.4-3.76q0-1.8.84-3.28a10.4 10.4 0 0 1 2.24-2.76 23.3 23.3 0 0 1 3.16-2.28A38 38 0 0 1 116 69.4a57 57 0 0 1 3.6-1.8q1.72-.76 3.24-1.4a59 59 0 0 0 2.84-1.28q.88-.4 1.68-.76t1.6-.8zm29.8-14.04q0 .2-.08.72l-.08 1.04q0 .48-.04.76-.04.76-.04 2.08v6.04q.04 1.6.04 3 .04 1.4.04 2.36l-3.08-1.52v-4.32a110 110 0 0 0-.04-3 84 84 0 0 0-.12-4.64 26 26 0 0 0-.12-1.52q-.08-.76-.12-1zm-21.24 5.56q1.64 0 3.72-.04 2.08-.08 4.4-.16a277 277 0 0 1 4.76-.12q2.4-.04 4.6-.08a232 232 0 0 1 4.12-.04h6.96q1.6 0 2.8.04h1.96l-.04 2.96a142 142 0 0 0-4.52-.12q-2.8-.08-7.2-.08a194 194 0 0 0-5.44.08q-2.8.04-5.64.12t-5.52.24q-2.64.12-4.88.28zm21 11.64q0 2.64-.8 4.44-.76 1.8-2.16 2.68-1.36.88-3.2.88-1.24 0-2.44-.4a6.9 6.9 0 0 1-2.12-1.28 6.7 6.7 0 0 1-1.48-2.12q-.52-1.28-.52-2.88 0-2 .96-3.56a7.08 7.08 0 0 1 6.08-3.4q2.36 0 3.88 1.08 1.56 1.04 2.36 2.88.8 1.8.8 4.12 0 2-.6 4.08-.56 2.08-1.92 4-1.32 1.92-3.64 3.52-2.28 1.56-5.8 2.6l-2.68-2.64q2.72-.64 4.88-1.64t3.64-2.44a9.5 9.5 0 0 0 2.24-3.36q.8-1.92.8-4.4 0-2.72-1.16-3.92t-2.8-1.2a3.9 3.9 0 0 0-1.96.52q-.92.48-1.52 1.44-.56.96-.56 2.28 0 1.88 1.2 2.92a4.35 4.35 0 0 0 2.88 1.04q1.24 0 2.12-.68.88-.72 1.24-2.12.4-1.44.08-3.56zm24.68-15q.68.08 1.44.12.8.04 1.4.04t1.96-.04q1.4-.04 3.12-.08 1.76-.08 3.48-.12a238 238 0 0 0 3.12-.16q1.4-.08 2.04-.12a20 20 0 0 0 1.36-.16q.48-.08.8-.16l1.84 2.32q-.52.36-1.12.76-.56.4-1.12.88-.76.56-2.04 1.64-1.28 1.04-2.84 2.36a1404 1404 0 0 1-5.68 4.76q1.4-.48 2.8-.64 1.44-.2 2.76-.2 3.32 0 5.88 1.24 2.6 1.2 4.04 3.32 1.48 2.12 1.48 4.84 0 3.2-1.68 5.6t-4.76 3.68q-3.08 1.32-7.32 1.32-2.72 0-4.68-.72t-3.04-2q-1.04-1.28-1.04-2.96a4.7 4.7 0 0 1 .76-2.56q.76-1.2 2.16-1.92t3.24-.72q2.68 0 4.44 1.12a7.43 7.43 0 0 1 2.72 2.88q.96 1.76 1.08 3.8l-2.88.48q-.16-2.56-1.6-4.2-1.4-1.68-3.8-1.68-1.36 0-2.28.76t-.92 1.8q0 1.44 1.48 2.28t3.84.84q3.4 0 5.88-.92 2.52-.92 3.84-2.68 1.36-1.76 1.36-4.24 0-1.96-1.16-3.52t-3.2-2.44q-2-.92-4.6-.92-2.52 0-4.52.56a15.4 15.4 0 0 0-3.76 1.52q-1.72 1-3.44 2.52-1.68 1.48-3.6 3.4l-2.28-2.36q1.24-1 2.72-2.24a254 254 0 0 1 3.04-2.52l2.8-2.36q1.32-1.12 2.2-1.84.84-.68 2.08-1.72a700 700 0 0 0 2.64-2.24q1.36-1.16 2.56-2.2 1.24-1.04 2-1.68-.64 0-1.88.08-1.24.04-2.76.12-1.52.04-3.04.12-1.48.08-2.72.16-1.2.04-1.84.08t-1.32.08-1.32.16z"/></g><defs><clipPath id="a"><path fill="#fff" d="M0 0h500v500H0z"/></clipPath></defs></svg>