<svg xmlns="http://www.w3.org/2000/svg" width="500" height="500" fill="none"><g clip-path="url(#a)"><path fill="#fff" d="M0 0h500v500H0z"/><path fill="#000" d="M33.72 67.52h3.08v15.92q0 1.4-.4 2.08-.4.72-1.52 1.04-1.04.36-2.84.44-1.76.08-4.44.08a7 7 0 0 0-.48-1.52q-.32-.8-.64-1.4 1.36.04 2.64.04 1.32.04 2.28 0h1.36q.56-.04.76-.2t.2-.6zM20.88 52.56h25.28v2.8H20.88zm24.16 0h.76l.68-.16 2.16 1.64a44 44 0 0 1-3.76 3.4 57 57 0 0 1-4.32 3.24 54 54 0 0 1-4.28 2.64 4 4 0 0 0-.56-.68q-.32-.36-.68-.72a4.2 4.2 0 0 0-.64-.6 38 38 0 0 0 3.88-2.4 55 55 0 0 0 3.84-2.88q1.8-1.52 2.92-2.8zM17.12 65.32H50.6v2.88H17.12zM26.36 60l1.6-2.24q1.72.72 3.72 1.6 2.04.84 4.04 1.72a135 135 0 0 1 3.76 1.72q1.8.84 3.08 1.52l-1.64 2.56q-1.2-.68-2.96-1.56a128 128 0 0 0-3.76-1.8 110 110 0 0 0-4.04-1.84q-2-.92-3.8-1.68m23.2 5.32h.6l.56-.2 2.4 1.08a81 81 0 0 1-3.44 5.32Q47.8 74.2 45.96 76l-2.48-1.48q1-1.08 2.12-2.52t2.12-3a45 45 0 0 0 1.84-3.08zm25.92 2.24 2.44-1.24q1.12 1.44 2.24 3.08a36 36 0 0 1 2 3.28q.92 1.6 1.4 2.88l-2.68 1.4q-.4-1.28-1.28-2.92-.84-1.64-1.92-3.32a38 38 0 0 0-2.2-3.16m.2-9.92h15.24v2.84H75.68zm14 0h2.92v.96q0 .36-.04.56-.24 6.8-.52 11.48-.24 4.68-.6 7.72-.32 3-.76 4.68t-1.08 2.4q-.64.88-1.4 1.2t-1.88.44q-1 .12-2.72.08t-3.52-.12q-.04-.68-.32-1.56a5.1 5.1 0 0 0-.64-1.44q2 .16 3.68.2 1.72.04 2.44.04.64 0 1.04-.12t.72-.52q.52-.52.92-2.12.4-1.64.72-4.6t.56-7.56.48-11.08zM77.2 50.36l3.04.68a50 50 0 0 1-2.04 5.68 44 44 0 0 1-2.56 5.16q-1.4 2.4-2.92 4.24-.32-.24-.8-.56-.48-.36-1-.68a8 8 0 0 0-.92-.56q1.6-1.68 2.92-3.88a36 36 0 0 0 2.44-4.84 49 49 0 0 0 1.84-5.24m-14.4.04 2.68 1.04q-.72 1.44-1.6 3.04a264 264 0 0 1-1.72 3.08q-.84 1.44-1.64 2.56l-2.08-.92A33 33 0 0 0 60 56.52q.8-1.56 1.56-3.16.76-1.64 1.24-2.96m4.84 4.56 2.64 1.12q-1.4 2.28-3.12 4.8a172 172 0 0 1-3.4 4.84q-1.72 2.36-3.24 4.08l-1.92-1a48 48 0 0 0 2.4-3.08 77 77 0 0 0 2.44-3.6 84 84 0 0 0 2.32-3.72 59 59 0 0 0 1.88-3.44m-11.12 3.88 1.48-2a38 38 0 0 1 2.28 2.04q1.16 1.12 2.12 2.24.96 1.08 1.48 1.96l-1.6 2.32q-.56-.96-1.52-2.12a32 32 0 0 0-2.04-2.32 40 40 0 0 0-2.2-2.12m9.84 5.4 2.24-.96a35 35 0 0 1 1.68 2.8q.8 1.48 1.4 2.88.64 1.4.92 2.52l-2.36 1.12q-.32-1.12-.92-2.56a47 47 0 0 0-1.36-2.96 32 32 0 0 0-1.6-2.84m-9.92 4.04q2.68-.08 6.44-.2 3.76-.16 7.72-.36v2.48q-3.8.24-7.44.44t-6.48.36zm10.96 5.56 2.24-.76a40 40 0 0 1 1.64 4q.8 2.16 1.12 3.72l-2.48.84q-.28-1.6-1-3.76a46 46 0 0 0-1.52-4.04m-8.76-.56 2.56.44a50 50 0 0 1-1.12 5.6q-.72 2.72-1.68 4.64a4.4 4.4 0 0 0-.72-.4q-.4-.2-.88-.4-.44-.24-.8-.36 1.04-1.84 1.64-4.36.64-2.56 1-5.16m4.6-3.84h2.72v17.84h-2.72zM100.16 52h3v11.8q0 2.56-.16 5.56-.12 3-.6 6.16-.44 3.12-1.28 6.12-.84 2.96-2.28 5.44a8 8 0 0 0-.76-.56q-.48-.28-1-.56-.52-.24-.92-.4a22 22 0 0 0 2.2-5.12q.8-2.8 1.16-5.68.4-2.92.52-5.72t.12-5.2zm2.16 0h28.32v8.24h-28.32v-2.4h25.36V54.4h-25.36zm15.56 25h11.16v1.92h-11.16zm-1.68-14.24h15.6v2.08h-15.6zM128.28 77h.52l.52-.08 1.6.72a13.7 13.7 0 0 1-3.04 3.76 18.4 18.4 0 0 1-4.2 2.72 32 32 0 0 1-5.04 1.88 47 47 0 0 1-5.48 1.2q-.12-.44-.52-1.08a6 6 0 0 0-.72-1.04 40 40 0 0 0 5.08-.96q2.48-.6 4.68-1.52 2.2-.96 3.92-2.24 1.72-1.32 2.68-3zm-10.72 1.56q1.44 1.68 3.84 2.96 2.44 1.28 5.52 2.12 3.12.8 6.44 1.2-.4.36-.84 1T131.8 87a40.6 40.6 0 0 1-6.56-1.56q-3.16-1.04-5.72-2.56-2.52-1.56-4.12-3.68zm1.52-3.92 2.36.68q-1.56 2.28-3.96 4.24t-4.8 3.32a3.6 3.6 0 0 0-.56-.52 19 19 0 0 0-.76-.64 8 8 0 0 0-.64-.52 27 27 0 0 0 4.72-2.92q2.24-1.72 3.64-3.64m-1.84-2.96v1.96h10.48v-1.96zm0-3.44v1.88h10.48v-1.88zm-2.52-1.6h15.6v8.64h-15.6zm2.08-6.24 2.4.76q-1.04 2.32-2.68 4.6-1.64 2.24-3.4 3.76a8 8 0 0 0-.4-.68 18 18 0 0 0-.6-.88 4.2 4.2 0 0 0-.56-.72 20.6 20.6 0 0 0 3-3.08 17 17 0 0 0 2.24-3.76m-6.64 6.04 2.4.84a27 27 0 0 1-2.36 3.4 36 36 0 0 1-2.92 3.12 31 31 0 0 1-3.08 2.52 5.3 5.3 0 0 0-.4-.72 9 9 0 0 0-.56-.96 5.3 5.3 0 0 0-.52-.76q2.16-1.36 4.12-3.28 2-1.96 3.32-4.16m-3.6 6 2-1.96.68.24v16.44h-2.68zm2.88-11.68 2.4.76q-1.16 1.76-2.92 3.48-1.72 1.68-3.4 2.84-.2-.24-.56-.6-.32-.36-.68-.72t-.64-.6q1.68-1 3.24-2.32 1.56-1.36 2.56-2.84m32.28-8.44h31.04v2.72h-31.04zm.48 31.2h30.76v2.72H142.2zm15.8-7.4h11.12v2.64H158zm-13.84-16.16h12.48v2.4h-12.48zm-4.28-7.64h2.88v11.84q0 2.48-.16 5.44a68 68 0 0 1-.52 6.04 46 46 0 0 1-1.2 6.04q-.76 2.96-2 5.44-.24-.24-.72-.52l-.96-.56q-.48-.24-.84-.36 1.2-2.4 1.88-5.12.72-2.76 1.08-5.64t.44-5.64q.12-2.76.12-5.12zm9.52 3.72h2.56v16.68h-2.56zM156.32 72h2.96v13.16h-2.96zm-8.88 3h2.8v9.92h-2.8zm1.88-13.84 1.76.6a31 31 0 0 1-1.76 3.84 29.4 29.4 0 0 1-2.28 3.52q-1.24 1.64-2.52 2.68a8 8 0 0 0-.84-.96 9 9 0 0 0-.92-.88q1.28-.92 2.52-2.32a22.4 22.4 0 0 0 2.28-3.08 22 22 0 0 0 1.76-3.4m8.4-1.2h14.4v2.4h-14.4zm5.36-3.92h2.6v16.68h-2.6zm-.44 5.12 1.76.64a25 25 0 0 1-1.84 3.72 27 27 0 0 1-2.44 3.4q-1.28 1.52-2.6 2.52a11 11 0 0 0-.84-1 9 9 0 0 0-.92-.88q1.32-.84 2.6-2.2a24 24 0 0 0 2.44-2.96 21 21 0 0 0 1.84-3.24M151.8 63.2q.32.2 1 .72.68.48 1.44 1.08.76.56 1.4 1.04.68.48.92.72l-1.56 2q-.36-.4-1-1-.6-.6-1.32-1.24a27 27 0 0 0-1.32-1.24 12 12 0 0 0-1.08-.92zm14.4-1.92a20.6 20.6 0 0 0 1.8 3.24 17 17 0 0 0 2.44 2.88q1.4 1.24 2.88 2-.44.36-.96 1-.52.6-.84 1.08-1.48-.96-2.88-2.48a21.3 21.3 0 0 1-2.52-3.36 26 26 0 0 1-1.8-3.8z"/><path fill="#fff" d="m107.457 394.39 309.826 55.906 64.094-267.793-236.042-42.599-87.092 42.414z"/><path fill="#3E5CD6" d="m109.054 398.641 8.305 1.479 22.572 4.065 33.324 6.007 40.672 7.392 44.61 8.04 44.93 8.131 41.949 7.578 35.454 6.376 25.447 4.62c3.939.739 7.985 1.663 12.031 2.218.213 0 .319.092.532.092.745.093 1.491-.647 1.597-1.201l1.704-7.208 4.684-19.497 6.921-28.831 8.411-35.115 9.263-38.533 9.369-38.903 8.73-36.223 7.347-30.679 5.323-21.993c.852-3.511 1.704-6.93 2.555-10.441 0-.185.107-.278.107-.462.639-2.68-1.597-6.746-4.898-7.301l-9.369-1.663-24.807-4.528-35.455-6.376-40.99-7.392-41.949-7.578-38.01-6.838-29.066-5.267-15.331-2.772c-.746-.277-1.597-.185-2.343.092-2.555 1.017-4.897 2.403-7.346 3.604l-32.26 15.709-34.816 16.911-10.221 4.99c-1.277.646-2.555 1.016-2.981 2.31-1.065 3.326-1.597 6.838-2.449 10.164l-5.43 22.732-7.452 31.234-8.518 35.761-8.73 36.315-7.986 33.174-6.175 25.874-3.513 14.692-.426 1.941c-.533 2.125.745 4.528 2.342 6.006 1.065.924 3.62 2.218 4.046.093l5.11-21.161 12.138-50.639 14.693-61.265 12.67-53.041 4.152-17.28c.639-2.68 1.703-5.544 2.023-8.317 0-.092 0-.277.106-.369l-.851 1.109 22.677-11.089 41.736-20.329 15.971-7.855 4.791-2.31c.426-.185.852-.37 1.278-.647.958-.554-.213.277-.213-.092 1.064.277 2.129.462 3.3.554l9.05 1.663 31.941 5.73 43.865 7.946 48.444 8.779 45.675 8.224 35.348 6.376 17.674 3.142.745.185-4.898-7.393-1.703 7.208-4.685 19.498-6.92 28.83-8.411 35.207-9.263 38.534-9.263 38.902-8.73 36.224-7.347 30.586-5.323 21.993c-.852 3.419-2.023 6.93-2.556 10.442 0 .184-.106.277-.106.462l1.597-1.202-8.305-1.478-22.571-4.066-33.325-6.006-40.671-7.3-44.611-8.04-44.93-8.132-41.949-7.577-35.454-6.376-25.446-4.62c-3.94-.739-7.985-1.756-12.031-2.218l-.533-.092c-2.342-.462-1.597 3.234-1.277 4.158.852 1.848 2.342 3.973 4.684 4.343"/><path fill="#3E5CD6" d="m192.633 181.949 6.282 1.109 17.035 3.049 25.126 4.528 30.876 5.544 33.538 6.099 33.964 6.099 31.728 5.729 26.617 4.805 19.271 3.512c3.088.554 6.069 1.108 9.156 1.663l.426.092c2.449.278 4.898.185 7.24-.369.639-.093 3.833-.924 1.704-1.294l-6.282-1.109-17.035-3.049-25.02-4.528-30.876-5.545-33.538-6.098-33.964-6.099-31.621-5.729-26.618-4.805-19.271-3.512c-3.087-.554-6.068-1.109-9.156-1.663l-.426-.093c-2.449-.277-4.897-.184-7.24.37-.639.092-3.939.832-1.916 1.294M186.032 208.746l6.281 1.109 17.035 3.05 25.127 4.528 30.876 5.544 33.538 6.099 33.857 6.191 31.728 5.729 26.617 4.805 19.271 3.512c3.088.554 6.069 1.109 9.157 1.663l.426.092c2.448.278 4.897.185 7.24-.369.638-.093 3.832-.924 1.703-1.294l-6.282-1.109-17.035-3.049-25.02-4.528-30.876-5.544-33.538-6.007-33.964-6.099-31.727-5.729-26.724-4.805-19.271-3.511c-3.088-.555-6.069-1.109-9.156-1.664l-.426-.092c-2.449-.277-4.898-.185-7.24.37-.426-.093-3.727.739-1.597 1.108M180.815 233.789l6.281 1.108 17.035 3.05 25.127 4.528 30.876 5.544 33.538 6.099 33.964 6.099 31.728 5.729 26.617 4.805 19.164 3.511c3.088.555 6.069 1.109 9.157 1.664l.426.092c2.448.277 4.897.185 7.24-.369.638-.093 3.832-.925 1.703-1.294l-6.282-1.109-17.035-3.049-25.02-4.528-30.876-5.545-33.538-6.099-33.964-6.098-31.727-5.73-26.618-4.805-19.271-3.511c-3.087-.554-6.068-1.109-9.156-1.663l-.426-.093c-2.449-.277-4.897-.185-7.24.37-.532.092-3.833.832-1.703 1.294M174.214 260.586l6.281 1.202 17.035 3.049 25.127 4.528 30.876 5.544 33.432 6.007 33.963 6.098 31.728 5.73 26.617 4.805 19.271 3.511c3.088.555 6.069 1.109 9.157 1.664l.426.092c2.448.277 4.897.185 7.239-.37.639-.092 3.833-.924 1.704-1.293l-6.282-1.109-17.035-3.05-25.127-4.528-30.876-5.544-33.537-6.006-33.964-6.099-31.728-5.729-26.617-4.805-19.271-3.512c-3.088-.554-6.069-1.109-9.157-1.663l-.425-.093c-2.449-.277-4.898-.184-7.24.37-.426.092-3.727.832-1.597 1.201M167.4 285.721l6.281 1.109 17.035 3.049 25.127 4.528 30.876 5.544 33.538 6.099 33.964 6.099 31.728 5.729 26.617 4.898 19.271 3.511c3.087.555 6.069 1.109 9.156 1.663l.426.093c2.449.277 4.898.185 7.24-.37.639-.092 3.833-.924 1.81-1.294l-6.175-1.108-17.035-3.05-25.127-4.528-30.876-5.544-33.538-6.099-33.964-6.191-31.728-5.729-26.723-4.805-19.271-3.419c-3.088-.555-6.069-1.109-9.157-1.664l-.426-.092c-2.448-.277-4.897-.185-7.239.37-.639.092-3.94.831-1.81 1.201M160.799 312.611l6.281 1.109 17.035 3.049 25.127 4.528 30.876 5.544 33.431 6.099 33.964 6.099 31.728 5.729 26.724 4.805 19.271 3.512c3.087.554 6.068 1.109 9.156 1.663l.426.093c2.449.277 4.898.184 7.24-.37.639-.092 3.833-.924 1.81-1.294l-6.282-1.109-17.035-3.049-25.127-4.528-30.876-5.544-33.538-6.007-33.963-6.099-31.622-5.729-26.617-4.805-19.377-3.696c-3.088-.554-6.069-1.109-9.157-1.663l-.426-.093c-2.448-.277-4.897-.185-7.24.37-.532.185-3.832.924-1.809 1.386M154.623 340.61l6.282 1.109 17.035 3.049 25.127 4.528 30.876 5.545 33.538 6.006 33.963 6.099 31.728 5.729 26.618 4.805 19.27 3.512c3.088.554 6.069 1.108 9.157 1.663l.426.092c2.448.277 4.897.185 7.24-.369.638-.093 3.832-.924 1.703-1.294l-6.175-1.109-17.035-3.049-25.127-4.528-30.876-5.545-33.431-6.098-33.964-6.099-31.621-5.729-26.724-4.806-19.271-3.511c-3.088-.554-6.069-1.109-9.156-1.663l-.426-.093c-2.449-.277-4.898-.185-7.24.37-.639.185-3.94 1.016-1.917 1.386M148.129 367.5l6.281 1.109 17.035 3.049 25.127 4.528 30.876 5.545 33.538 6.006 33.964 6.099 31.728 5.729 26.617 4.805 19.271 3.512c3.087.554 6.069 1.109 9.156 1.663l.426.092c2.449.278 4.898.185 7.24-.369.639-.093 3.833-.924 1.703-1.294l-6.175-1.109-17.035-3.049-25.127-4.528-30.876-5.544-33.537-6.007-33.964-6.099-31.728-5.729-26.617-4.805-19.271-3.511c-3.088-.555-6.069-1.109-9.157-1.664l-.425-.092c-2.449-.277-4.898-.185-7.24.37-.639.092-3.94.831-1.81 1.293"/><path fill="#3E5CD6" d="m245.335 139.904-10.327 54.427-76.765-12.013z"/><path fill="#3E5CD6" d="m243.312 139.719-3.407 18.389-5.536 29.293-1.278 6.745 2.555-.647-25.978-4.065-41.31-6.469-9.476-1.478 1.065 1.386 8.624-4.251 20.868-10.165 25.02-12.197 21.72-10.627 7.133-3.511a22.6 22.6 0 0 0 3.407-1.664l.107-.092c.851-.37-.107-1.109-.639-1.294-.852-.369-1.917-.277-2.768.093l-8.624 4.25-20.762 10.165-25.02 12.198-21.72 10.626-7.133 3.512c-1.171.462-2.343 1.016-3.407 1.663l-.107.092c-1.064.555.533 1.294 1.065 1.387l26.085 4.065 41.31 6.469 9.476 1.478c.639.093 2.448.278 2.555-.646l3.407-18.389 5.536-29.293 1.278-6.746c.106-1.201-3.833-1.571-4.046-.277"/><path fill="#000005" d="m461.361 286.09-.426 5.083-1.064 13.953-1.597 20.514-1.917 25.135-2.236 27.537-2.236 27.722-2.129 25.873-1.703 21.808-1.278 15.709c-.213 2.495-.532 4.99-.639 7.485v.277l7.879-1.386-8.092-.554-21.932-1.386-32.261-2.033-39.287-2.495-43.226-2.772-43.653-2.773-40.565-2.587-34.389-2.218-24.595-1.571c-3.939-.277-7.772-.554-11.711-.739h-.532l2.661.739 1.278-16.448 1.916-26.336.426-6.098c.107-1.017-4.791-.74-5.43-.74-.851.093-5.11.185-5.217 1.386l-1.171 16.449-1.916 26.335-.426 6.099c0 .647 2.342.739 2.662.739l8.091.555 21.933 1.478 32.26 2.033 39.394 2.588 43.226 2.772 43.653 2.772 40.564 2.68 34.39 2.218 24.701 1.57c3.939.278 7.772.555 11.711.74h.533c1.81.092 3.62 0 5.323-.37.533-.092 2.555-.369 2.555-1.016l.426-5.083 1.065-13.953 1.597-20.514L462 412.132l2.236-27.537 2.236-27.721L468.601 331l1.81-21.716 1.278-15.709.426-4.897c.106-.832.213-1.756.213-2.588v-.369c.106-1.017-4.792-.739-5.43-.739-1.172-.093-5.43 0-5.537 1.108M379.806 184.813c-2.768 1.386-5.43 2.957-7.985 4.805-.213.185-.426.37-.107.555.426.185.852.185 1.278.185.639 0 1.384-.185 2.023-.37.532-.092 1.064-.37 1.49-.647 1.171-.831 2.343-1.663 3.62-2.402l.958-.555.213-.185.426-.277c.639-.369 1.278-.739 2.023-1.016.213-.093.745-.37.639-.647-.107-.277-.639-.277-.852-.277-1.277.092-2.555.277-3.726.831"/><path fill="#000005" d="M383.532 163.375c6.708-4.897 18.952-1.848 27.363 6.838s4.791 14.415.958 21.161c-4.472 7.855-16.822 5.175-25.233-3.511s-9.795-19.59-3.088-24.488"/><path fill="#000005" d="m387.046 165.685.426-.277c.425-.37.425 0-.426.277l.958-.554.532-.185c.426-.277-.639.185-.639.185.426-.093.852-.185 1.278-.37 1.171-.277-.958.093-.106 0l1.171-.092c.319 0 1.384.092.532 0-.852-.093.639 0 .958.092.746 0 1.491.093 2.236.37-.639-.37-.639-.185-.213 0l.639.185c.532.184.958.277 1.491.462.851.277 1.703.646 2.448 1.016-.745-.37.213.093.426.277.533.278.958.555 1.491.832.745.462 1.49.924 2.236 1.478.426.278.851.647 1.277.925l.426.369c.32.277-.213-.277.213.185 1.704 1.478 3.194 3.142 4.365 4.898.213.369.533.739.746 1.108-.32-.554.213.555.319.74.319.739.639 1.571.745 2.402l.107.555v-.278 1.017c0 .739-.107 1.571-.32 2.31-.106.37.107-.277.107-.277-.107.185-.107.369-.213.554-.107.37-.213.739-.426 1.017-.319.739-.639 1.386-.958 2.125-.639 1.386-1.491 2.68-2.236 4.066-.319.647 0 0 .106-.092-.106.184-.212.277-.319.462-.106.184-.426.462-.639.739-.319.462.746-.555.213-.185l-.319.277c-.107.093-.32.185-.426.277-.639.462.852-.369.319-.184-.319.092-.638.277-.851.369.851-.554 1.064-.369.532-.185l-.532.185c-.213 0-.32.093-.533.093 0 0 1.171-.093.639-.093s-.852.093-1.278.093c1.065.092-.851.092 0 0-.319 0-.745-.093-1.064-.093l-.639-.092c-.852-.093.213.092.213.092-.32.093-1.171-.277-1.491-.369a27 27 0 0 1-2.449-.924c.852.369-.106-.093-.425-.185-.533-.277-.959-.555-1.491-.832-.745-.462-1.491-.924-2.236-1.478-.426-.278-.852-.647-1.171-.924l-.213-.185-.532-.462c-1.597-1.479-2.875-3.05-4.153-4.713a21 21 0 0 1-.958-1.479l-.319-.462c-.213-.369.106.278-.107-.277a15 15 0 0 1-1.277-2.957c-.32-.924-.639-1.848-.746-2.68l-.106-.462c0-.092-.107-1.108 0-.277 0-.369-.107-.831-.107-1.201 0-.832 0-1.663.107-2.495 0-.185.106-.37.106-.554 0-.463-.213.646 0 0 .107-.37.213-.74.426-1.017.107-.37.32-.739.533-1.109.106-.185.532-.462.106-.185-.426.278.107-.092.213-.184.213-.278.532-.555.745-.832.533-.555-.213.185-.213.185s.639-.462.639-.555c1.704-1.293 2.449-3.788.32-5.082-2.343-1.201-5.324-1.017-7.453.554-7.453 5.637-7.027 14.97-3.088 22.085 4.259 7.763 12.67 15.247 22.997 16.356 4.792.555 10.009-.554 13.522-3.511 1.704-1.571 3.088-3.419 4.152-5.36.959-1.571 1.704-3.141 2.449-4.805 1.597-3.604 1.597-7.577.107-11.181a29.6 29.6 0 0 0-10.115-11.366c-8.305-5.821-20.974-8.594-29.918-2.218-1.81 1.202-2.449 3.881-.319 5.083 2.449.831 5.43.554 7.453-1.017"/><path fill="#fff" d="m416.218 157.184-20.761 10.627s-1.597 4.527 3.3 10.626c5.217 6.376 7.666 4.99 7.666 4.99l22.146-15.801z"/><path fill="#000005" d="m414.728 155.613-13.203 6.746-6.814 3.511c-.851.37-1.597.739-1.916 1.663a10.8 10.8 0 0 0-.319 2.588c0 4.528 2.981 8.963 6.494 12.197 2.023 1.848 5.004 3.881 8.092 3.05 1.277-.555 2.449-1.202 3.407-2.126l7.027-4.99 12.989-9.24c.852-.647.958-1.663.213-2.403l-12.244-10.442c-.958-.831-2.449-1.108-3.726-.554-.959.554-1.704 1.94-.746 2.772l12.244 10.442.213-2.403-14.692 10.442-6.921 4.99a1.5 1.5 0 0 0-.426.278c.32-.37.852-.555 1.278-.555.639.092-.639.092 0 0-.213 0-.533-.185.106 0-.106-.092-.319-.092-.426-.185-.532-.277.426.277-.106-.092-.213-.093-.426-.185-.532-.37-.533-.277-.959-.647-1.385-1.016-2.661-2.31-4.471-5.083-5.323-8.224-.213-1.017-.319-1.941-.213-2.957 0 .554.107-.278.107-.37s-.001-.185.106-.277l-1.171 1.201 18.206-9.241 2.662-1.386c1.064-.462 1.384-1.571.852-2.495 0-.092-.107-.092-.107-.184-.958-.74-2.555-.924-3.726-.37"/><path fill="#000005" d="M419.838 151.64c4.259-2.033 12.244-.278 17.781 3.973s.212 10.165-3.94 12.198-7.985-.647-13.521-4.898-4.579-9.241-.32-11.273"/><path fill="#000005" d="M422.926 154.781c.213-.092.319-.184.532-.184.745-.37-1.171.277-.532.184l1.171-.277c.532-.092-1.384.093-.532.093h1.916c.639 0-1.49-.185-.532 0l.745.092c.532.092 1.065.185 1.491.277l.638.185c.639.185-1.277-.37-.425-.092.532.184 1.064.277 1.597.462.532.184.958.369 1.384.554l.638.277c-1.277-.369-.638-.277-.212-.092.958.462 1.81 1.016 2.661 1.571.213.185.426.369.639.462-.958-.647-.319-.277-.106 0s.319.277.425.462c.426.369-.532-.832-.106-.185l.319.554c.426.647-.212-.831 0-.184.107.369.107.831.107 1.201v-1.017c0 .74-.213 1.479-.532 2.218l.425-.924c-.212.555-.532 1.017-.851 1.479-.213.277-.32.462-.533.739l-.106.185c-.32.277-.213.184.213-.278-.533.37-.852.832-1.384 1.202-.533.369-.852.554-1.278.924 1.065-.832.426-.277.107-.093a6 6 0 0 1-.746.37c-.745.37 1.171-.277.32-.092-.533.092-1.278.092.319 0h-.852c1.597-.093 1.065.092.533 0-.533-.093-1.065-.462.426.092-.32-.092-.533-.185-.852-.277-.426-.185-1.171-.739.106.092-.213-.092-.426-.185-.639-.369-.638-.37-1.277-.74-1.81-1.109a27.3 27.3 0 0 1-3.832-2.772l-.107-.093c-.319-.277-.532-.554-.852-.832-.106-.092-.213-.277-.319-.369-.319-.37-.213-.277.213.277 0-.185-.426-.554-.532-.832s-.213-.369-.32-.646c-.319-.647.213.924 0-.093-.106-.554-.213-1.016-.213-1.571v1.017c0-.647.107-1.294.426-1.848l-.426.924c.107-.278.32-.555.426-.832.107-.185.213-.277.319-.462.32-.554-.638.554-.212.277.425-.277.532-.462.745-.647.532-.462-.32.093-.32.185-.106 0 .213-.092.32-.185 1.81-.739 2.555-2.679 1.597-4.25a1.48 1.48 0 0 0-.639-.74c-1.916-1.755-4.898-2.217-7.453-1.201-5.11 2.218-7.133 7.67-4.578 12.105.213.37.426.647.639 1.017 2.023 2.772 4.897 4.805 7.772 6.745a19.65 19.65 0 0 0 8.518 3.697c3.513.462 7.133-.37 9.901-2.31 2.13-1.294 3.833-3.05 5.004-5.083 1.491-2.495 1.704-5.452.426-8.039-1.384-2.588-4.365-4.62-7.24-6.007-5.962-2.957-13.947-5.082-20.442-2.125-1.81.832-2.555 2.68-1.703 4.343.106.277.319.555.639.739 2.129 1.756 5.11 2.218 7.559 1.109M191.568 265.484c16.396 1.663 33.006-1.109 47.485-8.132 3.62-1.756 7.773-3.696 9.476-7.115 2.023-4.158-1.171-8.779-5.962-9.888-5.324-1.201-9.369 1.941-12.031 5.545-2.236 2.957-4.046 6.191-5.324 9.518-1.384 3.511-2.448 7.484-1.916 11.273.532 3.881 4.046 6.746 7.985 8.224 3.407 1.294 7.134 1.479 10.86 1.664 3.513.092 7.027.092 10.54-.093 13.841-.831 27.47-3.881 40.033-8.963 12.776-5.175 24.381-12.29 34.177-21.069a96.3 96.3 0 0 0 12.669-13.676c1.917-2.587 3.727-5.359 5.43-8.132 1.704-2.864 3.514-6.191 3.194-9.61-.213-4.251-3.407-7.854-7.985-9.241-4.365-1.293-9.156-.831-13.096 1.202-3.407 1.755-5.962 4.62-8.304 7.392-2.342 2.865-4.365 5.822-6.069 8.964a88.4 88.4 0 0 0-7.666 18.758c-2.023 6.653-3.726 13.307-5.004 20.145-1.277 6.56-1.277 13.953 3.194 19.682 4.791 6.099 12.457 9.056 20.442 10.812 8.624 1.848 17.461 2.31 26.298 1.293 8.199-.924 18.313-2.587 22.465-9.61 1.917-3.142 1.81-6.93-.213-9.98-1.81-2.68-6.494-3.604-9.049-1.201-5.43 5.082-4.259 12.937 0 18.296 2.448 3.142 5.855 5.73 9.795 7.3 4.897 1.756 10.114 2.588 15.331 2.218a99.5 99.5 0 0 0 16.609-2.495c2.13-.554 3.301-2.495 2.662-4.25-.106-.278-.213-.555-.426-.74-1.49-2.033-4.365-3.049-7.027-2.402-2.023.369-3.939.831-5.962 1.201.745-.092-.639.092-.852.092l-1.384.185c-1.064.185-2.129.277-3.3.37-.959.092-1.917.092-2.769.185h-2.342c-.958-.093-1.81-.185-2.768-.278l-1.597-.277c-.107 0-.852-.185-.213 0s-.319-.092-.426-.092c-.426-.093-.852-.277-1.278-.37-.212-.092-.958-.462-1.277-.462 0 0 .958.555.532.277l-.426-.184-.958-.555-.958-.647s.745.647.426.278l-.426-.278c-.532-.462-1.065-.924-1.597-1.478l-.32-.37c-.425-.369.32.277.213.277-.213-.092-.426-.554-.532-.739-.426-.554-.745-1.201-1.065-1.756-.106-.092-.106-.277-.213-.369-.213-.462.107.369.107.277-.213-.092-.213-.647-.32-.832-.212-.646-.319-1.293-.532-1.94 0-.093-.106-.555 0 0 .107.554 0-.185 0-.277 0-.647 0-1.202.107-1.848 0-.093 0-.278.106-.37 0-.462-.319.739 0 .092a20 20 0 0 0 .745-1.755c.32-.37.107-.093 0 0l.213-.278c.213-.277.533-.554.852-.831l-9.05-1.202c.107.185.532 1.109.213.185.107.277.213.647.319.924-.212-.831 0 .093 0 .278 0 .184-.106.554-.106.831 0 .555.319-.739 0 .093-.106.369-.213.646-.426.924 0 .092-.639 1.109-.106.277l-.639.832c-.213.277-.532.554-.745.739-.852.831.638-.277-.426.277l-1.917 1.109c-.213.092-1.064.369-.213.092a5.8 5.8 0 0 1-1.171.37c-.852.277-1.81.554-2.662.739s-1.597.37-2.342.462c-1.597.277.852-.092-.745.093l-1.278.184c-2.023.278-3.939.462-5.962.647s-3.833.185-5.749.185h-1.065c-1.597 0 .958.092-.639 0-1.065-.092-2.129-.092-3.3-.185-1.917-.185-3.833-.369-5.75-.739-.852-.092-1.597-.277-2.449-.462l-1.277-.277c-.639-.093-.533-.093.213.092l-.746-.185c-1.49-.369-2.874-.831-4.258-1.293a10 10 0 0 1-1.81-.74c1.064.74.106.093-.107-.092a10 10 0 0 1-1.384-.739c-.426-.277-1.065-.647-1.597-1.017-1.065-.647.745.647-.106-.092l-.852-.739c-.426-.462-.852-.832-1.278-1.294.745.832-.106-.092-.106-.277-.32-.37-.533-.832-.852-1.294l-.319-.647c.425.832-.107-.277-.107-.369-.213-.647-.426-1.387-.639-2.126-.106-.554-.213-1.201-.319-1.755.106.831 0-.37 0-.463v-1.478c0-2.865.426-5.822 1.065-8.686.319-1.386.638-2.772.958-4.066.106-.277.106-.462.213-.739.319-1.294-.213.739.106-.555.213-.924.426-1.755.639-2.68 1.384-5.821 3.194-11.643 5.323-17.372 1.065-2.772 2.343-5.544 3.727-8.224.745-1.294 1.384-2.495 2.129-3.789.32-.554.746-1.109 1.065-1.663-.426.647.319-.37.319-.462.32-.462.639-.832.959-1.294.851-1.201 1.81-2.31 2.874-3.419.426-.462.852-1.016 1.384-1.478.32-.277.533-.555.852-.832.107-.092 1.384-1.109.639-.554.532-.37 1.065-.74 1.703-1.109.32-.185.746-.37 1.065-.555-.852.37.213-.092.426-.092l.319-.092c.533-.093.426-.093-.213 0 .213-.093.533-.093.746-.093h.426-.213l.745.093c.639.092.532.092-.319-.093.319.093.638.185 1.064.37 0 0-1.171-.555-.319-.093s-.745-.739 0 0c.745.74-.745-.646.106.185l.213.277c-.213-.462-.213-.462-.106 0 0 .185.106.462.106.647-.106-.831 0 .277 0 .37 0 .462-.106.924-.213 1.478.213-.831-.106.37-.106.462-.107.278-.213.462-.32.74a42 42 0 0 1-.958 2.033c-.639 1.293-1.384 2.495-2.129 3.696l-.958 1.478-.213.278-.639.831c-.852 1.201-1.704 2.31-2.555 3.419a104 104 0 0 1-5.43 6.284c-1.917 2.033-3.94 3.973-5.963 5.821-.958.924-2.023 1.756-3.087 2.68-.533.462-1.065.832-1.597 1.294l-.746.554c.746-.647-.425.37-.638.462-4.579 3.419-9.476 6.469-14.587 9.241a121 121 0 0 1-7.878 3.881c-.746.277-1.384.647-2.13.924.852-.37.107-.092 0 0l-1.064.462a188 188 0 0 1-4.366 1.663c-5.536 1.941-11.392 3.512-17.248 4.713l-1.171.185c-.213 0-1.49.277-.319.092l-1.917.278c-1.49.277-3.087.462-4.684.646-2.981.37-5.963.555-8.944.647-1.49 0-2.874.093-4.365.093h-2.342c.745 0-1.278 0 0 0-.426 0-.959 0-1.384-.093-1.278-.092-2.662-.185-3.94-.462l-.958-.277a8 8 0 0 0-.852-.277l.533.185c-.213-.093-.426-.185-.533-.278.746.74-.958-.462 0 0l-.213-.184c-.319-.37-.319-.278.107.184 0 0-.533-.831-.213-.369.319.462-.213-.555-.213-.555-.32-.924-.107.462-.107-.554v-1.201c.107-.832.213-1.571.426-2.311 0 0 .32-1.293.107-.554l.319-1.109c.213-.647.426-1.294.639-1.848.532-1.571 1.065-3.049 1.81-4.528.426-.739.745-1.386 1.171-2.125-.106.092.639-1.017.426-.555s.426-.646.426-.554c.426-.647.958-1.294 1.49-1.941.213-.277.533-.554.746-.924.106-.092.958-.831.319-.369.107-.093 1.065-.555 1.065-.647 0 .277-1.384.185-1.491.185q-1.118-.14-1.916-.832c-.107-.092-.639-.832-.213-.185l-.213-.462c.106.462.106.37 0-.185 0 .278-.213 1.017.106.185-.106.277-.213.555-.425.832.425-.555-.213.092-.32.277-.639.832.532-.277-.319.277-.32.185-.639.462-1.065.647-.639.37-1.278.739-1.916 1.017-1.491.831-3.088 1.57-4.685 2.31-1.278.554-2.023.924-3.833 1.571s-3.407 1.201-5.11 1.663-3.195.832-4.792 1.201c-.851.185-1.81.37-2.661.555l-1.278.277c.958-.185-.426.092-.532.092-3.407.555-6.921.832-10.328.924h-4.151999999999999c-.213 0-.958 0 0 0-1.81-.092-3.62-.184-5.43-.369-2.342-.278-5.43.831-5.43 3.234 0 2.772 2.023 4.62 4.791 4.99M205.622 342.181c23.53-2.31 45.462-11.458 62.285-25.874.745-.647-2.662-2.495-2.875-2.587-4.046-2.125-9.05-3.604-13.628-2.218-3.407 1.109-6.069 3.419-7.559 6.284-1.81 3.142-2.556 6.653-3.301 10.072-.958 3.789-1.704 7.577-2.555 11.366-1.597 6.93-3.62 13.861-7.24 20.237-3.301 5.729-7.879 11.366-14.267 14.692-1.597.925-3.514 1.571-5.43 1.664h-.532c-.107 0-.426 0 0 0 .745.369 1.703.554 2.448.924.213.092.426.277.639.369.213.093.32.37.213.093-.106-.277-.319-.462-.426-.647-1.49-3.142 2.13-6.191 4.579-8.039 5.855-4.343 12.35-7.855 19.27-10.627 13.948-5.637 29.386-8.409 44.611-9.98a53 53 0 0 1 12.67-.092c.745.092 1.49.277 2.236.462-.852-.185-.107 0 .213.092.106 0 .745.277.106 0s.107.093.213.093c.639.277-.852-.462-.213-.093.107.093.32.185.532.277-.745-.369-.106 0 .213.185-.532-.369.107.093.32.277.319.185.532.37.745.647 4.259 4.066 4.365 10.719-.745 14.323-1.171.739-2.449 1.294-3.833 1.479l9.263 3.881c-1.278-3.142 1.916-5.822 4.897-7.208 3.62-1.663 7.879-2.218 11.818-2.402 4.153-.278 8.412-.001 12.457.646l1.597.278c.213 0 1.385.277.746.092 1.171.277 2.236.554 3.407.832.319.092 1.49.462.532.184l1.597.462c.532.093 1.065.278 1.491.555 0 0-.959-.37-.32-.093l.958.37 1.704.739c.639.278-.852-.369-.107-.092.32.185.639.277.959.462l1.597.832c.532.277-.639-.37 0 0 .319.184.532.369.852.462.425.277.958.554 1.384.831l.638.462c-.532-.369.213.093.32.185 1.065.739 2.023 1.479 2.981 2.218a14.6 14.6 0 0 0 6.814 2.865c.532.092 1.597.277 1.81-.185s-.639-1.202-.958-1.386c-8.305-6.654-18.419-11.366-29.386-13.769-5.11-1.201-10.434-1.756-15.757-1.756-4.685.093-9.902.462-14.267 2.033-4.046 1.479-8.837 4.713-7.134 8.964.533 1.293 2.875 2.31 4.153 2.772 1.49.647 3.407 1.386 5.11 1.109 6.814-1.017 10.008-8.04 7.879-13.307-1.384-3.326-4.472-6.006-7.772-8.039-4.472-2.68-9.582-4.528-14.906-5.36a61.4 61.4 0 0 0-14.267 0c-4.152.462-8.411.924-12.563 1.571a176 176 0 0 0-24.062 5.267c-7.666 2.311-15.012 5.452-21.826 9.426-3.407 1.94-6.602 4.066-9.37 6.561-2.768 2.587-4.152 6.006-1.171 8.963 2.13 1.941 4.791 3.419 7.772 4.343 2.343.832 5.004 1.201 7.56.924 4.046-.554 7.665-3.049 10.54-5.452 5.749-4.712 9.582-10.904 12.244-17.28 3.194-7.577 4.685-15.616 6.495-23.471 1.49-6.283 2.661-15.709 10.86-18.111.745-.185 1.49-.37 2.235-.37h.533c.745.185.213 0 0 0a14 14 0 0 1-2.13-.739l-2.874-2.588c-12.67 10.812-28.428 18.666-45.569 22.732-4.791 1.202-9.795 2.033-14.693 2.588-2.129.184 0 1.755.852 2.31a25 25 0 0 0 3.62 1.663c.639.462 1.703.647 2.768.647M328.807 322.406c-.319.277-.532.554-.745.832l-.107.092c-.213.277-.319.555-.532.832v.092s0 .093-.107.093v.092c-.106.277-.106.554-.213.832v.462c0 .277.107.554.213.831v.185c0 .093.107.185.107.277l.106.093c.213.185.426.462.639.647l.213.184h.107c.319.093.532.278.851.37h.213c.32.092.746.092 1.065.092h.213c.426 0 .852 0 1.171-.092h.107c.319-.092.958-.185 1.277-.277h.107c.213-.093 1.064-.37 1.277-.462h.107l1.171-.647h.213a7.5 7.5 0 0 0 1.065-.739l.106-.093c.213-.277.532-.554.745-.831v-.093l.107-.092v-.093c.213-.277.319-.554.532-.831 0-.093.107-.185.107-.277.106-.278.106-.555.212-.925v-.462c-.106-.277-.106-.462-.212-.739v-.092c0-.093 0-.093-.107-.093l-.106-.092c-.213-.185-.426-.37-.533-.554l-.106-.093a2.26 2.26 0 0 0-1.278-.37 5.3 5.3 0 0 0-1.703 0c-.639.093-1.278.278-1.917.463-.639.184-1.277.554-1.916.924l-.958.739c-.533.462-.959 1.016-1.172 1.571l-.106.739c0 .462.319.924.745 1.201l.107.093-.32-.647c.107.092.213.277.213.369l-.213-.739v.462l.107-.739c0 .185-.107.277-.107.462l.426-.832c-.106.093-.106.185-.213.185l.745-.739-.212.185.958-.74-.107.093 1.171-.647-.106.092 1.278-.462h-.213l1.277-.277h-.213l1.172-.092h-.213l1.064.185c-.106 0-.213 0-.319-.093l.852.37a1.5 1.5 0 0 1-.426-.277l.532.554q-.32-.278-.319-.554l.213.646v-.462l-.107.74c0-.093.107-.185.107-.278l-.426.832c0-.092.106-.092.106-.185l-.745.832.106-.092c.426-.37.746-.74.959-1.202.213-.369.426-.739.426-1.109 0-.369-.107-.646-.426-.924-.213-.277-.639-.554-1.065-.647l-1.065-.092c-.852 0-1.703.092-2.449.37l-1.277.462c-.745.277-1.491.739-2.236 1.201M396.841 144.339l-2.981-8.778c-.107-.277-.959-.555-1.171-.647a7.6 7.6 0 0 0-2.023-.277c-.533 0-2.236 0-2.023.831l2.981 8.779c.106.277.958.554 1.171.647a7.6 7.6 0 0 0 2.023.277c.639 0 2.236 0 2.023-.832M409.617 140.458l1.171-10.442c0-.277-.532-.554-.745-.646-.639-.185-1.278-.37-1.916-.37-.639 0-1.278 0-1.917.185-.319.092-.745.277-.852.554l-1.171 10.442c0 .277.533.555.745.647.639.185 1.172.37 1.917.37.639 0 1.278 0 1.916-.185.426-.093.852-.277.852-.555"/></g><defs><clipPath id="a"><path fill="#fff" d="M0 0h500v500H0z"/></clipPath></defs></svg>